<svg xmlns="http://www.w3.org/2000/svg" viewBox="0 0 332 166" width="332" height="166"><path fill="#542582" d="M0 0h332v166H0z"/><g fill="#FFF"><path d="M40.022 116.944a17.258 17.258 0 01-5.925-.955 11.752 11.752 0 01-7.23-7.136 16.525 16.525 0 01-.973-5.847 15.254 15.254 0 011.028-5.708 12.195 12.195 0 012.963-4.38 13.494 13.494 0 014.631-2.82 17.376 17.376 0 016.002-.992 23.218 23.218 0 018.798 1.587v6.082a16.174 16.174 0 00-3.381-1.281 18.011 18.011 0 00-4.465-.522 8.685 8.685 0 00-6.22 2.092 7.868 7.868 0 00-2.195 5.942 8.67 8.67 0 001.917 6.064 7.31 7.31 0 005.622 2.085 13.145 13.145 0 001.574-.098c.519-.063 1.034-.16 1.54-.292l.198-.052v-4.546h-3.961v-4.953h10.094v13.772c-.92.424-1.874.77-2.852 1.034a24.243 24.243 0 01-3.522.697c-1.208.15-2.425.226-3.643.227zM59.978 116.715a5.47 5.47 0 01-4.221-1.494 6.652 6.652 0 01-1.378-4.599V88.534h6.59v21.326c-.039.5.107.997.411 1.396.346.337.82.508 1.301.469.428.001.853-.071 1.258-.213v4.635a12.152 12.152 0 01-3.961.568zM76.428 116.868a11.466 11.466 0 01-4.112-.706 8.623 8.623 0 01-3.122-2.032 8.963 8.963 0 01-1.98-3.2 12.158 12.158 0 01-.688-4.192 11.494 11.494 0 011.207-5.417 8.508 8.508 0 013.418-3.511 11.834 11.834 0 0110.555 0 8.494 8.494 0 013.417 3.511 11.494 11.494 0 011.207 5.417 12.158 12.158 0 01-.688 4.192 8.957 8.957 0 01-1.979 3.199 8.625 8.625 0 01-3.122 2.033c-1.316.485-2.71.724-4.113.706zm0-15.157a2.724 2.724 0 00-2.414 1.342 6.967 6.967 0 00-.823 3.722 6.709 6.709 0 00.823 3.609 2.859 2.859 0 004.847-.002 6.848 6.848 0 00.802-3.607 7.11 7.11 0 00-.802-3.72 2.713 2.713 0 00-2.433-1.344zM95.856 116.868a5.88 5.88 0 01-4.729-1.905 8.479 8.479 0 01-1.631-5.597V97.063h6.589v12.074a2.7 2.7 0 00.58 1.83 2.102 2.102 0 001.666.682 3.512 3.512 0 002.795-1.392l.06-.074v-13.12h6.59v19.31h-5.599l-.395-2.643-.379.453a6.985 6.985 0 01-5.547 2.685zM121.584 116.868a12.435 12.435 0 01-5.686-1.189 8.12 8.12 0 01-3.524-3.45 11.606 11.606 0 01-1.226-5.529 11.32 11.32 0 01.743-4.187 8.831 8.831 0 012.144-3.198 9.555 9.555 0 013.354-2.037 13.02 13.02 0 014.423-.709c.902-.004 1.802.09 2.685.28.762.166 1.508.399 2.229.696v5.282a7.242 7.242 0 00-1.659-.724 8.1 8.1 0 00-2.264-.314 5.027 5.027 0 00-3.671 1.295 4.87 4.87 0 00-1.316 3.616 4.98 4.98 0 001.295 3.633 4.814 4.814 0 003.578 1.317 9.535 9.535 0 002.39-.295 7.888 7.888 0 001.915-.796v5.193c-.768.372-1.58.647-2.417.817-.986.203-1.989.303-2.993.299zM139.878 116.868a12.763 12.763 0 01-5.764-1.19 8.109 8.109 0 01-3.561-3.431c-.86-1.706-1.28-3.6-1.225-5.509a12.62 12.62 0 01.67-4.234 9.027 9.027 0 011.923-3.2 8.394 8.394 0 013.009-2.03 10.635 10.635 0 013.957-.706 9.186 9.186 0 014.72 1.144 7.241 7.241 0 012.921 3.328 13.199 13.199 0 011.005 5.431v1.409h-12.037l.046.305a4.18 4.18 0 001.637 3.019 6.957 6.957 0 003.842.863c1.066.01 2.129-.107 3.167-.35.852-.214 1.68-.515 2.471-.897v4.837c-.987.378-2.005.67-3.042.873a19.315 19.315 0 01-3.739.338zm-1.067-15.994c-1.795 0-2.883 1.191-3.232 3.54l-.046.305h6.157l-.025-.288a4.931 4.931 0 00-.838-2.676 2.448 2.448 0 00-2.016-.881zM157.242 116.868a17.502 17.502 0 01-6.588-1.245v-4.776a13.7 13.7 0 002.707 1.097c1.013.3 2.063.457 3.119.468a5.455 5.455 0 002.306-.37c.518-.206.857-.709.854-1.266a1.231 1.231 0 00-.783-1.176 9.125 9.125 0 00-1.669-.53 18.113 18.113 0 01-4.031-1.386 4.962 4.962 0 01-2.119-1.913 5.833 5.833 0 01-.651-2.878 5.586 5.586 0 011.015-3.365 6.572 6.572 0 012.914-2.177 12.228 12.228 0 014.602-.78c1.159 0 2.314.119 3.448.356 1.004.206 1.981.527 2.912.956v4.694a9.17 9.17 0 00-2.401-1.081c-1-.301-2.038-.458-3.083-.467a5.267 5.267 0 00-2.186.367c-.529.18-.888.672-.898 1.231-.01.291.087.576.273.801.23.239.521.412.842.498.349.115.83.251 1.449.406 1.372.265 2.703.712 3.957 1.328a5.23 5.23 0 012.141 1.936c.469.87.7 1.849.669 2.837a5.88 5.88 0 01-1.036 3.52 6.322 6.322 0 01-2.98 2.172c-1.538.53-3.157.782-4.783.743zM177.958 116.868a7.23 7.23 0 01-5.24-1.733 6.837 6.837 0 01-1.768-5.085v-7.729h-3.008v-4.953h3.008V92.67l6.59-1.446v6.143h4.569v4.953h-4.569v6.777a2.365 2.365 0 002.665 2.627 6.43 6.43 0 002.285-.44v4.788c-.68.246-1.378.437-2.088.572-.806.152-1.624.226-2.444.224zM195.102 116.868a12.763 12.763 0 01-5.764-1.19 8.109 8.109 0 01-3.561-3.431c-.86-1.706-1.28-3.6-1.225-5.509a12.62 12.62 0 01.67-4.234 9.027 9.027 0 011.923-3.2 8.394 8.394 0 013.009-2.03 10.635 10.635 0 013.957-.706 9.186 9.186 0 014.72 1.144 7.241 7.241 0 012.921 3.328 13.199 13.199 0 011.005 5.431v1.409H190.72l.046.305a4.18 4.18 0 001.637 3.019 6.957 6.957 0 003.842.863c1.066.01 2.129-.107 3.167-.35.852-.214 1.68-.515 2.471-.897v4.837c-.987.378-2.005.67-3.042.873a19.315 19.315 0 01-3.739.338zm-1.066-15.994c-1.795 0-2.883 1.191-3.232 3.54l-.046.305h6.157l-.025-.288a4.931 4.931 0 00-.838-2.676 2.45 2.45 0 00-2.016-.881zM206.227 116.373v-19.31h5.597l.536 3.714.383-.69c1.257-2.265 2.837-3.366 4.833-3.366a4.927 4.927 0 012.019.397v5.613a3.676 3.676 0 00-.796-.288 6.005 6.005 0 00-1.413-.16 5.748 5.748 0 00-2.514.521 5.989 5.989 0 00-1.994 1.631l-.06.074v11.864h-6.591zM228.735 116.868a17.507 17.507 0 01-6.589-1.245v-4.777c.861.461 1.769.829 2.708 1.098 1.013.3 2.063.457 3.119.468a5.455 5.455 0 002.306-.37c.518-.206.857-.709.854-1.266a1.232 1.232 0 00-.785-1.176 9.015 9.015 0 00-1.668-.53 18.113 18.113 0 01-4.031-1.386 4.965 4.965 0 01-2.119-1.912 5.83 5.83 0 01-.652-2.879 5.587 5.587 0 011.016-3.365 6.557 6.557 0 012.913-2.177 12.228 12.228 0 014.602-.78c1.159 0 2.315.119 3.449.356 1.004.207 1.981.527 2.912.956v4.696a9.14 9.14 0 00-2.401-1.082c-1-.301-2.038-.458-3.083-.467a5.29 5.29 0 00-2.187.366 1.327 1.327 0 00-.897 1.232c-.01.291.087.576.273.801.23.239.521.412.842.498.348.115.83.25 1.448.406 1.373.265 2.704.711 3.958 1.328a5.23 5.23 0 012.141 1.936c.469.87.7 1.849.669 2.837a5.88 5.88 0 01-1.036 3.52 6.307 6.307 0 01-2.981 2.172 13.683 13.683 0 01-4.781.742zM252.268 116.373v-11.997c0-2.139-1.263-2.588-2.322-2.588a3.475 3.475 0 00-2.835 1.395l-.058.073v13.118h-6.59v-27.84h6.59v10.497l.451-.443a6.8 6.8 0 014.917-2.019 5.987 5.987 0 014.788 1.907 8.55 8.55 0 011.649 5.672v12.225h-6.59zM262.778 116.373v-19.31h6.59v19.31h-6.59zm3.276-22.011a4.113 4.113 0 01-2.741-.832 3.325 3.325 0 010-4.661 4.117 4.117 0 012.741-.83 4.176 4.176 0 012.779.831 3.324 3.324 0 010 4.66 4.171 4.171 0 01-2.779.832zM273.44 116.373v-19.31h5.597l.536 3.714.383-.69c1.257-2.265 2.837-3.366 4.833-3.366a4.927 4.927 0 012.019.397v5.613a3.696 3.696 0 00-.796-.288 6.005 6.005 0 00-1.413-.16 5.748 5.748 0 00-2.514.521 6.002 6.002 0 00-1.995 1.631l-.06.074v11.864h-6.59zM298.804 116.868a12.776 12.776 0 01-5.764-1.19 8.106 8.106 0 01-3.56-3.431 11.49 11.49 0 01-1.224-5.509c-.02-1.439.207-2.871.669-4.234a9.044 9.044 0 011.924-3.2 8.36 8.36 0 013.009-2.03 10.615 10.615 0 013.957-.706 9.183 9.183 0 014.72 1.144 7.24 7.24 0 012.92 3.328 13.165 13.165 0 011.004 5.431v1.409h-12.04l.047.305a4.18 4.18 0 001.638 3.019 6.862 6.862 0 003.843.863c1.066.01 2.129-.108 3.167-.35a12.909 12.909 0 002.47-.896v4.836c-.987.378-2.005.67-3.043.873a19.287 19.287 0 01-3.737.338zm-1.066-15.994c-1.795 0-2.883 1.191-3.233 3.54l-.046.305h6.158l-.025-.288a4.947 4.947 0 00-.837-2.676 2.452 2.452 0 00-2.017-.881z"/><g><path d="M157.976 46.732c-.149-.026-.3-.05-.452-.074l-.183-.026a17.515 17.515 0 00-.78-.091 24.123 24.123 0 00-.536-.038 14.854 14.854 0 00-1.286-.025 16.235 16.235 0 00-1.154.064c-.2.018-.397.041-.59.064l-.164.023-.18.026-.222.035c-.098.015-.193.033-.288.05-.133.023-.263.05-.394.076-.754.16-1.494.38-2.213.658a13.456 13.456 0 00-1.777.85 12.452 12.452 0 00-1.065.683c-.104.076-.209.151-.308.229a11.07 11.07 0 00-.609.502 12.1 12.1 0 00-.932.914 12.07 12.07 0 00-.804.993c-.097.135-.191.273-.283.412-.061.095-.123.191-.183.288a11.377 11.377 0 00-1.575 4.463c-.038.293-.07.592-.086.897-.014.233-.023.47-.023.71 0 .18.001.357.014.534.012.183.025.364.046.544l.015.125c.026.214.06.425.1.631.016.082.031.162.049.243.037.173.078.344.123.51.059.218.12.431.192.639a11.566 11.566 0 001.853 3.445c.14.184.289.356.431.519.179.206.36.394.533.567l.094.091c.146.14.301.289.481.442.123.104.248.215.387.323.13.101.262.205.405.307a12.739 12.739 0 001.17.75 12.95 12.95 0 002.755 1.14 14.048 14.048 0 002.291.458c.367.045.746.079 1.14.098.191.01.387.018.583.02.09.001.181.004.273.004.706 0 1.358-.027 1.965-.078l.119-.011a17.662 17.662 0 001.687-.225 16.78 16.78 0 001.963-.47c.215-.065.424-.135.62-.203l.191-.067c.095-.034.225-.08.378-.139.202-.079.447-.176.724-.295.166-.071.346-.151.527-.236.165-.075.338-.157.51-.243.074-.035.147-.07.222-.108v-4.306l-.154.093-.296.179a18.261 18.261 0 01-1.785.971c-.533.252-1.043.464-1.538.641-.833.301-1.69.53-2.562.684-.089.016-.18.03-.266.044a14.2 14.2 0 01-1.434.142 13.054 13.054 0 01-1.397-.021c-.375-.029-.758-.07-1.142-.134a10.675 10.675 0 01-1.861-.484l-.271-.105c-.057-.023-.119-.048-.174-.072a8.764 8.764 0 01-.922-.454 9.43 9.43 0 01-.609-.383 7.24 7.24 0 01-.372-.274 7.362 7.362 0 01-.337-.278l-.143-.127-.07-.065-.044-.041-.052-.05a7.59 7.59 0 01-1.011-1.228 6.723 6.723 0 01-.432-.759c-.064-.127-.121-.258-.176-.384a7.06 7.06 0 01-.374-1.121 7.754 7.754 0 01-.204-1.211 8.337 8.337 0 01-.033-1.09c.011-.306.038-.612.082-.915a7.611 7.611 0 01.429-1.647c.041-.106.087-.213.132-.32a6.918 6.918 0 01.394-.772 7.406 7.406 0 01.688-.991c.09-.109.187-.224.288-.33.05-.055.101-.112.154-.165a8.821 8.821 0 013.469-2.139 8.818 8.818 0 011.389-.354c.167-.033.334-.056.498-.079a10.819 10.819 0 011.418-.094c.101 0 .2-.001.3.001.224.007.442.014.653.026.149.011.293.02.436.034.271.025.532.059.781.095.221.034.435.072.637.112.308.061.59.131.844.196.166.044.318.089.457.13.207.061.386.117.523.165.24.083.372.132.372.132.211.075.419.158.622.24.274.109.536.228.787.342.207.093.405.191.593.282.153.075.296.15.431.22.236.123.435.233.6.32l.439.24v-4.23s-.266-.108-.721-.281c-.2-.076-.439-.166-.709-.262-.15-.053-.309-.11-.479-.168-.132-.045-.27-.093-.415-.139-.16-.052-.329-.108-.5-.16-.124-.037-.252-.076-.382-.113l-.115-.033c-.127-.035-.254-.072-.383-.106-.153-.041-.31-.082-.468-.12-.101-.026-.202-.049-.304-.074a22.547 22.547 0 00-1.037-.211m-21.144-4.393h33.564v31.588H136.83V42.336zM111.032 59.755v6.209h4.03l.213-.007c.136-.005.328-.012.56-.033a6.967 6.967 0 001.573-.309 3.53 3.53 0 001.376-.803c.137-.135.257-.286.36-.449.244-.389.387-.833.414-1.291.01-.124.008-.196.008-.196s.003-.056 0-.153a2.834 2.834 0 00-.083-.601 2.494 2.494 0 00-.47-.949 3.067 3.067 0 00-.517-.488 3.841 3.841 0 00-.747-.421 5.886 5.886 0 00-1.213-.357 9.01 9.01 0 00-1.181-.135 7.478 7.478 0 00-.425-.014c-1.431 0-3.898-.003-3.898-.003M111.032 50.318v5.884h1.952s.13 0 .301-.006c.135-.003.296-.012.44-.019a7.891 7.891 0 001.512-.243c.108-.03.217-.064.325-.101a3.199 3.199 0 001.178-.702 2.42 2.42 0 00.541-.81 2.99 2.99 0 00.206-.889c.019-.203.018-.333.018-.333s.004-.097-.004-.251a2.799 2.799 0 00-.269-1.074 2.186 2.186 0 00-.413-.556 2.519 2.519 0 00-.772-.508 5.198 5.198 0 00-1.708-.375 9.408 9.408 0 00-.619-.018l-2.688.001z"/><path d="M106.958 46.764v22.751h8.563s4.177.115 6.482-2.191a5.691 5.691 0 00.148-8.046l-.009-.009a7.456 7.456 0 00-3.37-1.875 6.1 6.1 0 001.509-1.056 4.68 4.68 0 001.4-3.69 5.291 5.291 0 00-1.607-3.802s-1.759-2.082-5.733-2.082h-7.383zm-8.805-4.428h33.564v31.588H98.153V42.336zM72.356 59.755v6.209h4.03l.213-.007c.136-.005.328-.012.56-.033a6.967 6.967 0 001.573-.309 3.53 3.53 0 001.376-.803c.137-.135.257-.286.36-.449.244-.389.387-.833.414-1.291.01-.124.008-.196.008-.196s.003-.056 0-.153a2.834 2.834 0 00-.083-.601 2.494 2.494 0 00-.47-.949 3.067 3.067 0 00-.517-.488 3.849 3.849 0 00-.748-.421 5.816 5.816 0 00-1.212-.357 8.97 8.97 0 00-1.181-.135 7.488 7.488 0 00-.427-.014c-1.429 0-3.895-.003-3.896-.003M72.356 50.318v5.884h1.952s.13 0 .301-.006c.135-.003.296-.012.44-.019a7.891 7.891 0 001.512-.243c.108-.03.217-.064.323-.101a3.19 3.19 0 001.179-.702 2.42 2.42 0 00.541-.81c.113-.284.182-.584.206-.889.018-.203.016-.333.016-.333s.006-.097-.003-.251a2.799 2.799 0 00-.269-1.074 2.186 2.186 0 00-.413-.556 2.53 2.53 0 00-.772-.508 5.198 5.198 0 00-1.708-.375 9.427 9.427 0 00-.619-.018l-2.686.001z"/><path d="M68.283 46.764v22.751h8.563s4.177.115 6.482-2.191a5.69 5.69 0 00.148-8.046l-.009-.009a7.465 7.465 0 00-3.371-1.875 6.073 6.073 0 001.509-1.056 4.672 4.672 0 001.401-3.69 5.293 5.293 0 00-1.607-3.802s-1.76-2.082-5.734-2.082h-7.382zm-8.806-4.428h33.564v31.588H59.477V42.336zM178.574 69.514V46.772h7.347c2.904 0 5.12.583 6.648 1.75a5.971 5.971 0 012.289 5.055 6.123 6.123 0 01-1.239 3.881 7.04 7.04 0 01-3.531 2.322c2.12 3.16 4.166 6.404 6.139 9.732h-3.658a170.098 170.098 0 00-5.598-9.191c-.339.02-.7.031-1.082.031h-4.197v9.16l-3.118.002zm3.117-11.704h3.975a7.89 7.89 0 004.517-1.051 3.624 3.624 0 001.494-3.181c0-2.84-1.993-4.26-5.98-4.26h-4.007l.001 8.492zM210.697 46.772a435.922 435.922 0 014.788 11.354 742.068 742.068 0 014.5 11.388h-3.371c-.382-1.039-.758-2.067-1.129-3.085a470.95 470.95 0 00-1.129-3.054h-10.687a322.12 322.12 0 00-2.259 6.139h-3.276a529.042 529.042 0 014.564-11.674 370.934 370.934 0 014.691-11.067l3.308-.001zm-6.011 13.93h8.651a795.208 795.208 0 00-2.162-5.471c-.723-1.801-1.444-3.592-2.163-5.374a523.413 523.413 0 00-2.195 5.407 423.513 423.513 0 00-2.131 5.438M222.402 46.772h7.919a12.847 12.847 0 016.042 1.32 9.107 9.107 0 013.865 3.834 12.805 12.805 0 011.351 6.139 13.104 13.104 0 01-1.351 6.185 9.205 9.205 0 01-3.881 3.913 12.688 12.688 0 01-6.058 1.351h-7.887V46.772zm7.665 20.069a8.05 8.05 0 006.106-2.226c1.421-1.485 2.132-3.668 2.132-6.551 0-2.841-.705-4.988-2.116-6.442a8.1 8.1 0 00-6.091-2.18h-4.548V66.84h4.517zM245.206 46.772h3.149v22.741h-3.149zM262.954 46.295c1.54-.021 3.069.26 4.501.826a9.73 9.73 0 013.467 2.386 10.56 10.56 0 012.21 3.738c.528 1.573.786 3.223.763 4.882a14.427 14.427 0 01-.78 4.883 10.856 10.856 0 01-2.21 3.737 9.686 9.686 0 01-3.451 2.401 12.448 12.448 0 01-9.002 0 9.682 9.682 0 01-3.451-2.401 10.859 10.859 0 01-2.211-3.737 14.43 14.43 0 01-.778-4.883c-.023-1.659.235-3.31.763-4.882a10.537 10.537 0 012.21-3.738 9.708 9.708 0 013.467-2.386 11.812 11.812 0 014.502-.826m-.001 20.961a7.46 7.46 0 004.103-1.098 7.043 7.043 0 002.639-3.148 11.84 11.84 0 00.923-4.883 11.727 11.727 0 00-.923-4.867 7.069 7.069 0 00-2.639-3.132 8.192 8.192 0 00-8.191 0 7.02 7.02 0 00-2.654 3.132 11.727 11.727 0 00-.923 4.867 11.836 11.836 0 00.923 4.883 7.007 7.007 0 002.654 3.148 7.5 7.5 0 004.088 1.098"/></g></g></svg>
