<svg xmlns="http://www.w3.org/2000/svg" viewBox="0 0 332 166" width="332" height="166"><path fill="#542582" d="M0 0h332v166H0z"/><g fill="#FFF"><path d="M209.05 42.585c-.148-.026-.3-.05-.454-.074l-.181-.026a16.408 16.408 0 00-.779-.09c-.179-.018-.359-.029-.535-.04a14.932 14.932 0 00-1.287-.025 17.872 17.872 0 00-1.744.128l-.163.023-.18.026-.222.035c-.097.015-.194.033-.288.05-.133.023-.263.05-.392.076-.754.159-1.494.379-2.213.659a12.938 12.938 0 00-1.779.85 12.801 12.801 0 00-1.062.683 11.07 11.07 0 00-.919.731c-.18.158-.356.319-.518.481-.139.142-.281.282-.415.432a11.126 11.126 0 00-1.086 1.405 11.26 11.26 0 00-1.091 2.127 11.47 11.47 0 00-.668 2.623 13.006 13.006 0 00-.109 1.608c0 .18.002.357.014.534.012.184.026.364.047.544l.014.127c.029.213.06.423.101.63.015.081.033.162.049.243a10.326 10.326 0 00.314 1.149 11.31 11.31 0 00.811 1.858 10.623 10.623 0 00.641 1.039c.131.191.269.374.401.548.143.183.29.354.433.52.179.206.357.394.532.567l.094.093c.144.138.301.287.481.44.123.104.25.214.387.323a11.181 11.181 0 00.941.674c.2.128.412.258.635.383a12.704 12.704 0 002.754 1.139 14.072 14.072 0 002.289.458 16.04 16.04 0 001.724.118c.09.001.181.004.274.004.705 0 1.358-.027 1.963-.078l.118-.011c.241-.02.473-.046.699-.075.347-.042.676-.092.988-.15.199-.034.39-.074.577-.113.289-.063.563-.13.827-.198.193-.052.381-.108.56-.161.215-.064.424-.134.622-.202l.189-.067c.097-.034.226-.08.379-.139.2-.079.446-.176.723-.294.165-.071.345-.153.529-.236.163-.075.337-.157.51-.243.074-.035.146-.069.219-.108V59.28a7.698 7.698 0 01-.152.093l-.294.179a18.261 18.261 0 01-1.786.971c-.533.252-1.042.464-1.538.641a15.44 15.44 0 01-2.828.728 11.894 11.894 0 01-1.892.151c-.304 0-.62-.008-.939-.03a13.07 13.07 0 01-1.142-.133 10.63 10.63 0 01-1.859-.484 10.882 10.882 0 01-.271-.105l-.175-.072a8.017 8.017 0 01-.923-.454 7.45 7.45 0 01-.608-.383 7.748 7.748 0 01-.711-.552l-.142-.127-.071-.065-.042-.041-.052-.05a7.724 7.724 0 01-1.012-1.229c-.067-.099-.128-.204-.187-.304a7.243 7.243 0 01-.794-1.958 8.013 8.013 0 01-.232-1.586 9.685 9.685 0 01-.006-.716 8.07 8.07 0 01.349-2.096 7.403 7.403 0 01.503-1.224c.057-.112.12-.221.184-.333a7.304 7.304 0 01.688-.991c.092-.109.187-.224.288-.33.05-.054.102-.112.156-.165a8.874 8.874 0 013.028-1.98c.148-.058.292-.109.44-.161.159-.053.322-.102.48-.147a9.15 9.15 0 01.909-.205c.166-.031.334-.056.498-.079.166-.023.331-.038.496-.053.314-.029.623-.041.922-.041.102 0 .2-.001.3.001.222.007.44.012.654.026.147.011.29.02.433.034a14.099 14.099 0 012.264.403c.166.045.318.09.455.131a13.763 13.763 0 01.897.297c.213.075.418.158.622.24.274.109.536.229.785.342.21.093.406.191.593.282.154.074.297.15.432.22.236.123.435.233.6.32l.439.24v-4.23s-.264-.109-.72-.281c-.203-.076-.439-.166-.712-.262-.149-.053-.307-.111-.476-.168-.133-.044-.27-.093-.416-.14-.161-.05-.327-.106-.5-.158-.124-.037-.252-.076-.38-.113l-.116-.033a14.26 14.26 0 00-.383-.106 15.074 15.074 0 00-.466-.12c-.102-.026-.203-.049-.305-.074a23.931 23.931 0 00-1.038-.211m-21.149-4.399h33.566v31.588h-33.566V38.19zM162.107 55.609v6.209h4.03l.213-.007c.136-.006.329-.012.561-.033a6.913 6.913 0 001.573-.309 3.53 3.53 0 001.376-.803c.136-.136.257-.286.36-.449.244-.389.387-.833.414-1.291.01-.124.008-.196.008-.196s.003-.056 0-.153a2.834 2.834 0 00-.083-.601 2.478 2.478 0 00-.628-1.124 3.265 3.265 0 00-.36-.314 3.841 3.841 0 00-.747-.421 5.886 5.886 0 00-1.213-.357 8.97 8.97 0 00-1.181-.135 7.488 7.488 0 00-.427-.014l-3.896-.002M162.107 46.172v5.884h1.952s.13 0 .301-.006c.135-.003.296-.012.44-.019a7.891 7.891 0 001.512-.243c.107-.03.217-.064.323-.101a3.19 3.19 0 001.179-.702c.234-.23.418-.506.542-.81.113-.284.182-.584.206-.889.018-.203.018-.333.018-.333s.004-.097-.004-.251a2.803 2.803 0 00-.269-1.074 2.186 2.186 0 00-.413-.556 2.557 2.557 0 00-.771-.508 5.198 5.198 0 00-1.708-.375 9.427 9.427 0 00-.619-.018l-2.689.001z"/><path d="M158.032 42.618v22.751h8.564s4.176.116 6.481-2.191a5.687 5.687 0 00.153-8.04l-.014-.014a7.465 7.465 0 00-3.371-1.875 6.074 6.074 0 001.51-1.057 4.676 4.676 0 001.4-3.69 5.295 5.295 0 00-1.607-3.803s-1.76-2.082-5.734-2.082l-7.382.001zm-8.805-4.428h33.565v31.588h-33.565V38.19zM123.431 55.609v6.209h4.03l.211-.007c.138-.006.33-.012.56-.033a6.867 6.867 0 001.574-.309 3.53 3.53 0 001.376-.803c.136-.136.256-.287.36-.449.244-.389.386-.833.413-1.291.006-.065.009-.131.009-.196 0 0 .002-.056 0-.153a2.969 2.969 0 00-.083-.601 2.492 2.492 0 00-.628-1.124 3.275 3.275 0 00-.361-.314 3.841 3.841 0 00-.747-.421 5.765 5.765 0 00-1.213-.357 8.945 8.945 0 00-1.181-.135 7.387 7.387 0 00-.425-.014l-3.895-.002M123.431 46.172v5.884h1.952s.128 0 .301-.006c.135-.003.295-.012.439-.019a7.901 7.901 0 001.513-.243c.107-.03.217-.064.323-.101a3.19 3.19 0 001.179-.702c.234-.23.418-.506.54-.81.114-.284.184-.584.207-.889.018-.203.016-.333.016-.333a2.336 2.336 0 00-.004-.251 2.741 2.741 0 00-.269-1.074 2.107 2.107 0 00-.413-.556 2.526 2.526 0 00-.771-.508 5.192 5.192 0 00-1.707-.375 9.427 9.427 0 00-.619-.018l-2.687.001z"/><path d="M119.355 42.618v22.751h8.565s4.176.116 6.481-2.191a5.685 5.685 0 00.155-8.039l-.015-.015a7.463 7.463 0 00-3.372-1.875 6.125 6.125 0 001.511-1.057 4.68 4.68 0 001.4-3.69 5.292 5.292 0 00-1.608-3.803s-1.76-2.082-5.734-2.082l-7.383.001zm-8.804-4.428h33.565v31.588h-33.565V38.19z"/><g><path d="M95.334 121.083V82.622h27.344v7.849h-17.633v7.102h15.443v7.848h-15.443v7.814h18.673v7.848zM137.374 121.796a25.159 25.159 0 01-9.51-1.803v-6.951a19.703 19.703 0 003.938 1.604c1.454.431 2.961.657 4.477.672a7.801 7.801 0 003.301-.529 1.929 1.929 0 001.207-1.791 1.736 1.736 0 00-1.107-1.658 13.026 13.026 0 00-2.392-.761 26.143 26.143 0 01-5.806-1.996 7.16 7.16 0 01-3.061-2.765 8.419 8.419 0 01-.941-4.157 8.094 8.094 0 011.466-4.862 9.529 9.529 0 014.206-3.141 17.63 17.63 0 016.631-1.123c1.669-.002 3.333.17 4.967.513 1.453.298 2.868.763 4.215 1.384v6.839a13.083 13.083 0 00-3.497-1.586 15.788 15.788 0 00-4.424-.67 7.545 7.545 0 00-3.131.525 1.875 1.875 0 00-1.27 1.739c-.013.41.123.811.384 1.127.326.341.74.585 1.195.708.501.165 1.194.359 2.08.582a22.484 22.484 0 015.699 1.914 7.55 7.55 0 013.094 2.796 8.127 8.127 0 01.965 4.098 8.49 8.49 0 01-1.495 5.082 9.111 9.111 0 01-4.303 3.135 19.652 19.652 0 01-6.888 1.075zM163.276 121.796a25.159 25.159 0 01-9.51-1.803v-6.951a19.703 19.703 0 003.938 1.604c1.454.431 2.961.657 4.477.672a7.801 7.801 0 003.301-.529 1.929 1.929 0 001.207-1.791 1.736 1.736 0 00-1.107-1.658 13.026 13.026 0 00-2.392-.761 26.143 26.143 0 01-5.806-1.996 7.16 7.16 0 01-3.061-2.765 8.419 8.419 0 01-.941-4.157 8.088 8.088 0 011.467-4.862 9.529 9.529 0 014.206-3.141 17.63 17.63 0 016.631-1.123c1.669-.002 3.333.17 4.967.513 1.453.298 2.868.763 4.215 1.384v6.839a13.083 13.083 0 00-3.497-1.586 15.788 15.788 0 00-4.424-.67 7.545 7.545 0 00-3.131.525 1.875 1.875 0 00-1.27 1.739c-.013.41.123.811.384 1.127.326.341.74.585 1.195.708.501.165 1.194.359 2.08.582a22.484 22.484 0 015.699 1.914 7.556 7.556 0 013.094 2.796 8.127 8.127 0 01.965 4.098 8.49 8.49 0 01-1.495 5.082 9.111 9.111 0 01-4.303 3.135 19.661 19.661 0 01-6.889 1.075zM194.382 121.796a18.378 18.378 0 01-8.305-1.716 11.688 11.688 0 01-5.136-4.948 16.575 16.575 0 01-1.765-7.94 18.164 18.164 0 01.966-6.098 13.001 13.001 0 012.773-4.615 12.087 12.087 0 014.34-2.928 15.328 15.328 0 015.703-1.016 13.246 13.246 0 016.806 1.648 10.444 10.444 0 014.214 4.801 18.98 18.98 0 011.447 7.825v2.062h-17.307l.06.399a5.98 5.98 0 002.34 4.317 10.003 10.003 0 005.507 1.236c1.53.015 3.056-.154 4.546-.502a18.682 18.682 0 003.595-1.311v7.034a26.215 26.215 0 01-4.404 1.264c-1.773.337-3.575.5-5.38.488zm-1.534-23.002c-2.561 0-4.113 1.702-4.614 5.06l-.06.399h8.776l-.033-.377a7.052 7.052 0 00-1.198-3.828 3.489 3.489 0 00-2.871-1.254zM226.413 121.083a104.818 104.818 0 00-2.13-4.012c-.786-1.405-2.688-4.787-2.688-4.787l-.301.544a294.815 294.815 0 00-2.275 4.196 298.82 298.82 0 00-2.123 4.059h-9.995a491.887 491.887 0 014.417-6.744 360.904 360.904 0 014.869-7.113l.136-.193-.129-.197a322.61 322.61 0 01-4.485-7.03 547.82 547.82 0 01-4.009-6.562h10.223a120.942 120.942 0 001.747 3.748 359.746 359.746 0 001.945 3.945l.311.621.311-.62a194.545 194.545 0 003.639-7.694h9.948a620.725 620.725 0 01-3.952 6.452 331.948 331.948 0 01-4.485 7.031l-.128.194.132.193a691.443 691.443 0 014.843 7.143 345.877 345.877 0 014.451 6.825l-10.272.001z"/></g></g></svg>
