<svg xmlns="http://www.w3.org/2000/svg" viewBox="0 0 800 450" width="800" height="450">
    <path d="M0 0h800v450H0V0z" fill="#1e1e1e"/>
    <path d="M552.33 70.882a164.636 164.636 0 00-34.592 3.667c30.92 38.542 24.74 94.85-13.802 125.77-32.71 26.241-79.258 26.241-111.968 0-19.112 88.56 37.186 175.844 125.745 194.955s175.843-37.186 194.955-125.745C731.78 180.97 675.482 93.686 586.923 74.574a164.042 164.042 0 00-34.592-3.692zm-89.47 175.576c0 9.035-4.215 18.277-27.9 18.277h-26.776V224.97h8.674a99.24 99.24 0 0031.09 4.971c2.46 0 4.897-.09 7.313-.269 5.9 3.932 7.599 9.752 7.599 15.18v1.606zm44.735 18.277l-3.424-5.978h-22.963l-3.436 5.978-14.656.025 19.626-39.79h19.883l19.882 39.765h-14.912zm74.559 0h-13.758l-25.957-23.872-.05 23.872h-14.911V224.97h17.894l21.897 22.843-.027-22.843h14.912v39.765zm36.087.988h-2.149c-25.168 0-28.967-12.456-28.967-19.995v-1.55c0-7.593 3.414-19.728 28.967-19.728h2.15c23.87 0 28.192 10.079 28.507 15.432h-16.687c-.903-1.775-3.647-4.74-13.034-4.74-11.289 0-13.712 4.866-13.712 9.304v.64c0 4.278 2.753 9.891 13.767 9.891 9.303 0 12.149-3.25 13.066-5.154h16.607c-.254 5.377-4.628 15.9-28.515 15.9zm76.727-25.094v8.248h-28.242l-.072 6.414h29.823v9.444h-44.735V224.97h44.735v9.445h-29.823l-.066 6.214h28.38zm-247.02-30.57c43.923 0 79.53-35.607 79.53-79.53S491.87 51 447.947 51s-79.53 35.607-79.53 79.53 35.607 79.529 79.53 79.529zm-9.941-129.235h19.882v99.411h-29.823v-69.588h-9.941l19.882-29.823zm9.941 163.709v.32c0 3.475-1.819 9.941-15.078 9.941h-9.775v-19.882h9.775c13.26 0 15.078 6.145 15.078 9.62zm45.123-12.347l9.057 17.637h-18.889l9.057-17.637h.775zM316.666 61.724h-70.528v66.372h70.528V61.724zm-13.99 53.374c-.16.06-.315.134-.464.22-.377.16-.753.345-1.073.511-.392.173-.772.34-1.13.49-.582.255-1.093.457-1.521.624-.31.118-.583.22-.785.295l-.404.127c-.422.148-.838.303-1.296.428-.387.125-.78.236-1.19.339-.546.136-1.117.285-1.737.422-.397.071-.797.166-1.213.232-.66.129-1.332.231-2.073.309-.477.065-.951.125-1.464.166l-.248.018c-1.274.107-2.64.172-4.122.172h-.587c-.4-.03-.809-.03-1.226-.059a27.347 27.347 0 01-2.377-.214 25.9 25.9 0 01-2.26-.339 43.558 43.558 0 01-2.567-.612c-.47-.138-.928-.28-1.374-.44-.453-.155-.898-.303-1.31-.476a26.687 26.687 0 01-3.097-1.482c-.462-.267-.903-.558-1.348-.802a26.89 26.89 0 01-1.964-1.415c-.29-.226-.558-.464-.814-.666-.38-.327-.7-.654-1.023-.945l-.182-.19a19.13 19.13 0 01-1.106-1.19c-.311-.358-.638-.707-.923-1.094a19.041 19.041 0 01-.849-1.147c-.203-.303-.406-.613-.612-.922-.246-.417-.488-.838-.733-1.266a33.7 33.7 0 01-1.112-2.325 28.964 28.964 0 01-.583-1.575c-.154-.446-.283-.892-.414-1.344-.073-.357-.168-.713-.238-1.07l-.109-.517a21.191 21.191 0 01-.212-1.322l-.024-.273c-.035-.375-.085-.755-.12-1.136-.012-.37-.012-.737-.012-1.123 0-.494.012-.999.047-1.487.05-.653.109-1.273.179-1.902.252-1.884.72-3.733 1.393-5.511a23.584 23.584 0 011.926-3.847 5.95 5.95 0 01.373-.606c.198-.304.38-.59.606-.874.275-.38.531-.744.838-1.1.266-.339.55-.662.85-.97.262-.33.55-.639.863-.922.345-.332.709-.672 1.076-1.01.41-.35.844-.713 1.292-1.058.214-.16.426-.309.64-.47.268-.196.535-.356.797-.547.47-.309.947-.6 1.444-.885.531-.298 1.059-.589 1.63-.868.66-.327 1.379-.637 2.116-.934a30.529 30.529 0 014.643-1.373c.262-.054.537-.12.828-.155.196-.047.394-.083.593-.107l.46-.083.392-.06.345-.035c.416-.066.819-.101 1.247-.137.28-.03.566-.047.857-.065.504-.03 1.017-.066 1.564-.078.284 0 .462-.005.754-.005.63 0 1.273.017 1.951.065.367.018.748.036 1.128.083.56.048 1.094.107 1.635.184l.38.048c.316.065.644.107.948.172.38.054.741.131 1.105.203.373.07.712.154 1.069.237.214.06.44.101.648.137.323.09.656.19.995.268.248.077.527.142.783.214l.237.07c.288.078.548.173.821.239.363.107.697.238 1.04.35.305.09.589.197.868.28.357.125.692.244 1 .363.578.2 1.081.38 1.51.535l1.512.588v8.9l-.93-.505c-.339-.186-.761-.422-1.259-.678-.28-.136-.582-.303-.905-.47-.399-.172-.807-.38-1.241-.583a71.099 71.099 0 00-1.655-.724c-.426-.155-.873-.345-1.308-.506 0 0-.29-.089-.784-.273-.296-.097-.676-.202-1.106-.345-.296-.09-.607-.19-.94-.262a50.536 50.536 0 00-1.787-.441c-.418-.07-.876-.141-1.34-.213-.511-.083-1.082-.142-1.629-.208-.307-.03-.606-.03-.925-.072-.454-.017-.892-.035-1.364-.04-.212-.013-.414-.013-.648-.013-.624 0-1.26.036-1.924.096-.351.017-.696.059-1.042.1-.357.048-.702.102-1.047.16-.307.06-.634.12-.955.19-.311.085-.65.162-.964.257-.338.095-.677.19-.998.303-.321.107-.613.22-.924.34-.303.118-.606.249-.92.384-2.024.923-3.869 2.2-5.445 3.77-.106.122-.217.237-.335.346-.208.226-.408.47-.606.695-.141.183-.284.363-.42.553a16.064 16.064 0 00-1.013 1.533 8.48 8.48 0 00-.393.709c-.158.303-.307.606-.44.914a4.67 4.67 0 00-.267.66c-.143.352-.248.672-.361.994-.109.357-.198.69-.275 1.035a14.69 14.69 0 00-.284 1.45 18.67 18.67 0 00-.172 1.92v.571c0 .25 0 .565.01.916.024.243.024.511.065.79.085.855.224 1.704.416 2.54.097.326.186.684.304 1.011.14.461.306.913.5 1.355.108.263.233.542.346.803.17.326.344.643.535.952.118.222.25.437.396.642.143.232.292.452.446.678.186.225.369.464.537.683.357.41.725.827 1.134 1.231l.113.101.09.083.15.137.29.274c.225.172.47.38.73.582.244.198.498.383.761.553.214.167.44.303.643.446.227.119.43.254.631.375.434.25.873.475 1.32.683.214.096.42.179.617.274.136.053.257.107.38.142.188.088.381.164.579.226 1.264.456 2.567.798 3.892 1.023.826.125 1.607.22 2.398.28.683.047 1.348.07 1.984.07.31 0 .614-.023.97-.035.51-.024 1.105-.06 1.725-.125.416-.041.83-.1 1.282-.166.179-.024.365-.06.56-.09a34.09 34.09 0 008.599-2.776c.64-.315 1.305-.648 1.953-.987.595-.339 1.19-.69 1.813-1.07l.617-.369c.1-.054.22-.13.333-.208v9.073zm-92.806-10.441c.004.19 0 .316 0 .316s0 .143-.02.416a5.89 5.89 0 01-.854 2.7 6.052 6.052 0 01-.773.957 7.21 7.21 0 01-2.88 1.676c-1.074.34-2.18.56-3.302.66-.503.03-.908.054-1.2.066-.255 0-.433.017-.433.017h-8.46V98.427h8.169c.307 0 .604 0 .903.018.34.024.647.034.975.083.5.04.995.109 1.485.208a11.13 11.13 0 012.568.756 8.29 8.29 0 011.57.874c.272.202.528.427.764.671.113.113.222.238.339.351.462.591.799 1.271.987 1.998.1.416.154.842.162 1.27zm-13.834-13.71h-4.088V78.58h5.64c.37 0 .809.024 1.31.054 1.23.045 2.444.309 3.583.779.598.255 1.143.62 1.607 1.076.359.334.656.728.878 1.165.346.702.537 1.47.56 2.253.011.327.011.53.011.53s0 .261-.028.7a6.367 6.367 0 01-.442 1.856 5.108 5.108 0 01-1.123 1.712 6.902 6.902 0 01-2.496 1.467c-.222.086-.45.16-.68.222a16.228 16.228 0 01-3.172.493c-.305.03-.62.042-.923.054-.361.005-.637.005-.637.005zm39.369-29.223h-70.528v66.372h70.528V61.724zm-20.41 52.506c-4.834 4.835-13.62 4.609-13.62 4.609h-18V71.024h15.523c8.34 0 12.046 4.376 12.046 4.376a11.148 11.148 0 013.373 7.99c0 5.036-2.297 7.11-2.933 7.753a12.621 12.621 0 01-3.18 2.212 15.897 15.897 0 017.082 3.941c4.596 4.73 4.487 12.291-.243 16.888a11.52 11.52 0 01-.048.046zm-86.56-10.844c.087.42.149.844.186 1.27v.317c-.004.14-.016.278-.035.416a5.78 5.78 0 01-.858 2.7c-.218.343-.47.664-.754.956a7.379 7.379 0 01-2.895 1.677c-1.073.341-2.18.563-3.301.66-.488.03-.904.054-1.188.065a4.337 4.337 0 00-.435.018h-8.478V98.427h8.192c.297 0 .608 0 .9.018.325.024.652.034.975.083.5.04.999.11 1.492.208.88.152 1.739.406 2.56.756.554.238 1.081.53 1.576.874.265.208.517.433.755.671.112.111.218.228.317.351.465.59.802 1.27.991 1.998zm-13.649-12.44h-4.11V78.58h5.656c.361 0 .809.024 1.283.054 1.234.042 2.45.305 3.59.779a5.63 5.63 0 011.643 1.076c.343.343.633.736.86 1.165.33.71.523 1.473.571 2.253v.53s0 .261-.041.7a6.422 6.422 0 01-.428 1.856 5.393 5.393 0 01-1.142 1.712 6.727 6.727 0 01-2.467 1.467c-.238.077-.452.156-.684.222a16.38 16.38 0 01-3.185.493c-.291.03-.636.042-.923.054-.35.005-.623.005-.623.005zm39.346-29.222H83.606v66.372h70.526V61.724zm-20.405 52.506c-4.838 4.835-13.614 4.609-13.614 4.609h-17.998V71.024h15.53c8.34 0 12.028 4.376 12.028 4.376a11.137 11.137 0 013.382 7.99c0 5.036-2.3 7.11-2.947 7.753-.935.9-2.005 1.646-3.171 2.212 2.661.68 5.1 2.038 7.08 3.941 4.597 4.727 4.49 12.285-.236 16.881l-.054.053zm15.393 29.996l-23.407 54.783c-3.56-4.904-4.92-6.776-7.206-10.464-4.174-6.831-7.232-11.903-12.22-15.19 5.87-2.349 9.175-7.087 9.175-13.45 0-9.489-6.915-15.372-18.015-15.372h-13.84v54.868h7.877v-23.806h3.3c4.044 0 7.312 1.291 14.573 12.556l7.243 11.25h16.984l6.934-16.153h23.326l7.319 16.153h8.038l-24.534-55.175h-5.547zm-52.552 24.29h-5.084v-17.214h5.084c7.62 0 10.696 3.127 10.767 8.286.078 4.587-2.33 8.927-10.767 8.927zm47 7.639l8.212-19.859 8.854 19.859h-17.067zm63.503-31.622h-21.32v54.868h21.397c18.108 0 29.112-13.347 29.112-27.421 0-12.95-8.923-27.447-29.19-27.447zm-.878 47.8h-12.551v-40.71h12.121c15.385 0 22.383 9.334 22.383 20.357 0 6.755-4.104 20.352-21.953 20.352zm39.156-47.8h7.876v54.868h-7.876v-54.868zm46.42-.706c-17.782 0-29.448 12.95-29.448 28.153 0 14.882 11.357 28.148 29.282 28.148 18.587 0 29.693-13.355 29.693-28.148 0-15.28-11.415-28.153-29.526-28.153zm0 49.071c-12.225 0-21.32-8.937-21.32-20.918 0-12.075 9.095-20.911 21.32-20.911 12.316 0 21.407 8.836 21.407 20.911 0 11.981-9.09 20.918-21.406 20.918z" fill-rule="evenodd" clip-rule="evenodd" fill="#fff"/>
</svg>
