<svg xmlns="http://www.w3.org/2000/svg" viewBox="0 0 800 450" width="800" height="450">
    <path fill="#7826fc" d="M0 0h800v450H0z"/>
    <path d="M425.13 309.877c-2.94-1.372-6.073-2.058-9.404-2.058-5.091 0-9.484 1.127-13.171 3.38-3.69 2.252-6.546 5.434-8.57 9.547s-3.036 9.01-3.036 14.691c0 5.224.848 9.76 2.547 13.612 1.697 3.855 4.128 6.824 7.297 8.913 3.165 2.09 6.903 3.133 11.213 3.133 2.873 0 5.516-.555 7.932-1.664 2.415-1.11 4.604-2.84 6.562-5.19l.686 5.58h12.438v-72.96h-14.495v23.016zm0 35.158c-1.308 1.502-2.711 2.595-4.213 3.28-1.502.687-3.133 1.03-4.896 1.03-3.396 0-5.96-1.24-7.688-3.723-1.73-2.48-2.596-6.071-2.596-10.772 0-4.832 1.062-8.586 3.183-11.263 2.122-2.676 5.108-4.015 8.963-4.015 1.304 0 2.528.147 3.67.44 1.142.295 2.334.768 3.576 1.42v23.603zM88.954 324.37a16.119 16.119 0 015.093 5.975c1.207 2.416 1.812 5.386 1.812 8.912 0 4.636-1.145 8.603-3.43 11.898-2.285 3.299-5.58 5.812-9.89 7.542-4.308 1.73-9.5 2.595-15.572 2.595-3.854 0-7.656-.427-11.41-1.273a43.616 43.616 0 01-10.822-4.015v-13.515c6.987 4.245 14.397 6.366 22.232 6.366 4.44 0 7.819-.75 10.137-2.252 2.316-1.503 3.476-3.592 3.476-6.268 0-2.025-.571-3.608-1.713-4.75-1.144-1.142-2.662-2.058-4.555-2.743-1.895-.687-4.014-1.322-6.365-1.909-3.854-.914-7.247-1.96-10.185-3.135-2.939-1.175-5.421-2.562-7.443-4.163-2.024-1.597-3.56-3.524-4.604-5.776-1.045-2.254-1.566-4.947-1.566-8.082 0-4.438 1.126-8.258 3.378-11.457 2.252-3.198 5.435-5.663 9.548-7.395 4.113-1.729 9.01-2.594 14.691-2.594 3.722 0 7.378.425 10.97 1.273 3.589.849 6.82 1.992 9.694 3.426v13.32c-2.873-1.762-6.121-3.132-9.745-4.113a41.637 41.637 0 00-10.919-1.468c-3.984 0-7.068.685-9.254 2.055-2.189 1.372-3.28 3.332-3.28 5.878 0 1.827.52 3.28 1.565 4.357 1.044 1.078 2.53 1.958 4.457 2.644 1.925.686 4.193 1.357 6.806 2.007 3.33.851 6.43 1.78 9.304 2.792 2.872 1.013 5.401 2.302 7.59 3.868m41.875 24.975c2.351 0 4.57-.296 6.66-.883 2.088-.587 4.146-1.566 6.17-2.937v12.144c-2.024 1.11-4.294 1.958-6.807 2.545-2.515.588-5.14.881-7.883.881-5.617 0-10.415-1.043-14.397-3.133-3.983-2.089-7.018-5.107-9.108-9.058-2.09-3.95-3.133-8.766-3.133-14.445 0-4.048.637-7.72 1.909-11.019 1.274-3.295 3.085-6.105 5.435-8.423 2.351-2.315 5.207-4.095 8.57-5.337 3.36-1.239 7.101-1.861 11.212-1.861 2.612 0 5.029.262 7.25.783a28.804 28.804 0 016.267 2.253v12.439c-1.7-1.24-3.56-2.171-5.582-2.792a21.32 21.32 0 00-6.27-.93c-4.44 0-7.883 1.306-10.331 3.916-2.449 2.613-3.672 6.269-3.672 10.971 0 4.699 1.207 8.357 3.624 10.969 2.415 2.61 5.778 3.917 10.086 3.917M289.813 311.1c-4.113 2.189-7.262 5.338-9.449 9.452-2.188 4.111-3.282 9.075-3.282 14.885 0 5.289.85 9.842 2.548 13.662 1.696 3.82 4.095 6.774 7.197 8.863 3.1 2.09 6.74 3.133 10.92 3.133 5.68 0 10.347-2.349 14.004-7.05l.784 5.777h12.439V312.52c-7.052-3.134-13.81-4.701-20.273-4.701-5.814 0-10.774 1.095-14.888 3.281m20.666 9.646v24.485c-1.24 1.437-2.58 2.482-4.016 3.134-1.437.652-3.004.98-4.7.98-3.2 0-5.648-1.24-7.346-3.723-1.699-2.48-2.546-6.071-2.546-10.772 0-4.897 1.043-8.667 3.133-11.312 2.09-2.645 5.028-3.966 8.816-3.966 1.238 0 2.381.082 3.426.244 1.044.164 2.122.476 3.233.93m-77.229 28.696a15.7 15.7 0 003.622-.44 15.8 15.8 0 003.722-1.42v11.164c-3.526 1.567-7.379 2.35-11.556 2.35-5.615 0-9.891-1.453-12.83-4.358-2.937-2.905-4.407-7.132-4.407-12.681v-23.702h-8.52v-11.262h8.52v-12.241l14.495-3.233v15.474h13.22v11.262h-13.22v22.134c0 4.636 2.318 6.953 6.954 6.953m131.698-41.623c5.55 0 9.857 1.714 12.928 5.141 3.067 3.429 4.602 8.31 4.602 14.643v32.219h-14.493V328.19c0-2.808-.654-4.93-1.96-6.368-1.306-1.434-3.167-2.153-5.582-2.153-3.787 0-6.988 1.6-9.598 4.798v35.354h-14.494v-50.73h12.437l.784 6.17c4.177-4.961 9.304-7.443 15.376-7.443m-97.128 41.526c.717 0 1.435-.082 2.155-.246a11.137 11.137 0 002.153-.735v10.676c-2.546 1.109-5.714 1.664-9.499 1.664-8.946 0-13.417-4.863-13.417-14.591v-59.251h14.494v57.976c0 1.634.309 2.792.93 3.477.62.686 1.68 1.03 3.184 1.03M187.828 311.1c-3.787-2.186-8.293-3.281-13.516-3.281-5.222 0-9.729 1.095-13.515 3.281-3.785 2.189-6.706 5.275-8.764 9.255-2.056 3.984-3.085 8.683-3.085 14.104 0 4.048.587 7.703 1.763 10.969 1.175 3.264 2.872 6.07 5.092 8.421 2.219 2.351 4.897 4.147 8.03 5.387 3.135 1.239 6.627 1.86 10.48 1.86 3.85 0 7.344-.621 10.48-1.86 3.133-1.24 5.81-3.036 8.03-5.387 2.219-2.351 3.917-5.157 5.092-8.421 1.174-3.266 1.763-6.921 1.763-10.97 0-5.42-1.027-10.119-3.085-14.103-2.056-3.98-4.98-7.066-8.765-9.255m-5.68 34.376c-1.828 2.643-4.44 3.966-7.836 3.966-3.395 0-6.006-1.323-7.834-3.966-1.829-2.645-2.742-6.318-2.742-11.017 0-4.766.93-8.456 2.792-11.068 1.86-2.611 4.456-3.917 7.784-3.917 3.331 0 5.927 1.306 7.786 3.917 1.861 2.612 2.792 6.302 2.792 11.068 0 4.699-.914 8.372-2.742 11.017m16.371-130.145c-3.722-2.024-7.64-3.036-11.752-3.036-3.788 0-7.199.637-10.235 1.91-3.035 1.273-5.631 3.102-7.786 5.485s-3.82 5.256-4.994 8.618c-1.175 3.363-1.762 7.133-1.762 11.31 0 5.16.863 9.648 2.594 13.467 1.73 3.82 4.212 6.774 7.444 8.864 3.23 2.087 7.066 3.133 11.507 3.133 6.268 0 11.522-2.449 15.766-7.346l.687 6.074h7.736v-72.962h-9.205v24.483zm0 35.942c-1.894 2.155-3.918 3.738-6.073 4.75-2.153 1.013-4.472 1.519-6.953 1.519-4.504 0-7.966-1.584-10.38-4.75-2.418-3.166-3.625-7.72-3.625-13.662 0-6.073 1.435-10.806 4.31-14.201 2.871-3.395 6.92-5.094 12.143-5.094 1.96 0 3.755.23 5.388.687 1.631.458 3.36 1.208 5.19 2.252v28.5zm22.474-37.704h9.207v50.24h-9.207v-50.24zm8.864-20.126c1.077 1.014 1.616 2.335 1.616 3.966 0 1.633-.54 2.955-1.616 3.967-1.078 1.014-2.497 1.518-4.26 1.518s-3.183-.504-4.26-1.518c-1.078-1.012-1.616-2.334-1.616-3.967 0-1.63.538-2.952 1.615-3.966 1.078-1.012 2.498-1.518 4.26-1.518 1.764 0 3.183.506 4.26 1.518m-111.31 22.182c-3.886 2.22-6.89 5.37-9.01 9.45-2.122 4.082-3.182 8.93-3.182 14.543 0 5.159.864 9.648 2.594 13.467 1.73 3.82 4.178 6.774 7.345 8.863 3.167 2.088 6.905 3.134 11.213 3.134 6.074 0 11.132-2.48 15.181-7.443l.685 6.17h7.738V216.8c-3.266-1.5-6.432-2.627-9.5-3.378a39.121 39.121 0 00-9.304-1.126c-5.288 0-9.877 1.111-13.76 3.33m23.358 6.268v29.38c-3.526 4.18-7.673 6.269-12.438 6.269-4.375 0-7.736-1.6-10.087-4.799-2.351-3.198-3.526-7.77-3.526-13.712 0-6.136 1.42-10.87 4.26-14.2s6.905-4.996 12.193-4.996c1.827 0 3.476.149 4.946.44 1.469.296 3.019.834 4.652 1.618m145.312 27.617c1.143-3.263 1.714-6.92 1.714-10.97 0-5.351-.996-9.988-2.986-13.905-1.993-3.917-4.784-6.953-8.373-9.107-3.592-2.155-7.87-3.233-12.83-3.233-4.963 0-9.239 1.078-12.828 3.233-3.593 2.154-6.384 5.19-8.376 9.107-1.992 3.917-2.986 8.554-2.986 13.906 0 4.049.571 7.706 1.714 10.969 1.141 3.266 2.774 6.057 4.897 8.375 2.121 2.318 4.667 4.097 7.64 5.335 2.97 1.24 6.282 1.862 9.939 1.862 3.655 0 6.969-.621 9.94-1.862 2.971-1.238 5.517-3.017 7.64-5.335 2.121-2.318 3.754-5.11 4.895-8.375m-9.547-.832c-1.176 2.84-2.858 5.028-5.044 6.562-2.19 1.534-4.815 2.302-7.884 2.302-3.07 0-5.697-.768-7.884-2.302-2.188-1.534-3.868-3.723-5.044-6.562-1.175-2.84-1.762-6.218-1.762-10.137 0-3.852.587-7.18 1.762-9.989 1.176-2.806 2.873-4.961 5.094-6.463 2.218-1.502 4.83-2.254 7.834-2.254 3.002 0 5.615.752 7.835 2.254 2.219 1.502 3.917 3.657 5.093 6.463 1.175 2.81 1.762 6.137 1.762 9.989 0 3.919-.587 7.298-1.762 10.137M94.3 226.691c2.545-3.262 3.817-7.247 3.817-11.947 0-6.725-2.367-11.9-7.1-15.523-4.734-3.623-11.54-5.436-20.417-5.436H47.974v70.025h9.598v-28.206H70.5c1.176 0 2.285-.032 3.33-.097a525.005 525.005 0 0117.236 28.303h11.262a629.379 629.379 0 00-18.901-29.968c4.7-1.502 8.325-3.885 10.871-7.15m-24.483 1.076H57.572V201.62h12.34c12.275 0 18.412 4.375 18.412 13.124 0 4.375-1.536 7.637-4.602 9.794-3.07 2.153-7.706 3.23-13.907 3.23M175.365 129c1.65 1.215 2.402 2.806 2.414 4.797-.007 1.652-.505 3.315-1.956 4.613-1.45 1.302-3.962 2.284-8.116 2.284h-8.361v-13.659h7.99c3.73 0 6.372.773 8.029 1.965m-4.362-11.568c-1.564 1.145-4.086 1.788-7.6 1.788h-4.058V106.27h5.914c3.23 0 5.235.755 6.411 1.82 1.18 1.067 1.65 2.491 1.65 4.158-.006 2.426-.759 4.038-2.317 5.182m33.025-28.723h-72.506v69.505h72.506V88.708zm-21.403 55.374c-2.93 2.646-7.469 4.433-13.941 4.433h-18.14v-50.06h15.454c5.597 0 9.693 1.612 12.4 4.092 2.699 2.477 3.956 5.803 3.948 9.056.008 2.651-.653 4.924-2.034 6.786-1.036 1.379-2.442 2.515-4.228 3.44 6.61 1.848 10.74 6.65 10.718 12.96.005 3.193-1.253 6.655-4.177 9.293M287.58 88.708h-72.508v69.505h72.508V88.708zM273.176 144.6l-.426.217c-5.03 2.524-10.603 4.35-18.638 4.35h-.035c-9.69.006-16.75-3.587-21.338-8.527-4.593-4.927-6.745-11.141-6.745-16.442-.005-7.607 3.015-14.238 8.094-18.932 5.082-4.69 12.215-7.456 20.436-7.456 5.315 0 10.699 1.246 17.652 4.039l.485.198v9.315l-1.13-.637c-6.17-3.438-11.354-4.95-17.083-4.953-11.245.027-19.409 7.585-19.426 17.781.029 10.431 7.853 17.604 19.724 17.65 5.546 0 11.656-1.87 17.273-5.36l1.157-.729v9.486zM120.48 88.711H47.975v69.505h72.505V88.711zm-21.41 55.371c-2.924 2.646-7.461 4.433-13.942 4.433H66.994v-50.06H82.45c5.594 0 9.693 1.612 12.397 4.092 2.7 2.477 3.955 5.805 3.95 9.056.005 2.651-.652 4.924-2.036 6.786-1.03 1.379-2.44 2.515-4.217 3.44 6.597 1.85 10.732 6.65 10.709 12.96.003 3.193-1.258 6.655-4.182 9.293M91.817 129c1.65 1.215 2.396 2.806 2.412 4.797-.006 1.652-.507 3.315-1.955 4.613-1.46 1.302-3.963 2.284-8.115 2.284h-8.362v-13.659h7.99c3.722 0 6.374.773 8.03 1.965m-4.361-11.568c-1.57 1.145-4.087 1.788-7.601 1.788h-4.06V106.27h5.913c3.234 0 5.235.755 6.415 1.82 1.176 1.067 1.644 2.491 1.649 4.158-.008 2.426-.765 4.038-2.316 5.182m581.39 166.335l42.369 42.466L642.153 395l-84.896-.014 111.588-111.22zM755.85 55.014L515.72 294.776l-42.37-42.466L670.953 55l84.896.014zm-83.148 111.528l42.369 42.466-142.665 142.455-42.42-42.421 142.716-142.5z" fill="#fff"/>
</svg>
