<svg xmlns="http://www.w3.org/2000/svg" viewBox="0 0 332 166" width="332" height="166"><path fill="#542582" d="M0 0h332v166H0z"/><g fill="#FFF"><path d="M157.301 30.048c-.149-.026-.298-.05-.453-.073l-.183-.026a16.153 16.153 0 00-1.316-.13 14.854 14.854 0 00-1.285-.025 17.893 17.893 0 00-1.748.128l-.162.023-.179.026-.225.035c-.096.015-.191.033-.286.051-.132.023-.263.05-.393.076-.755.159-1.495.379-2.214.659a12.889 12.889 0 00-1.776.85c-.24.138-.47.278-.69.425-.128.086-.254.17-.373.258a11.876 11.876 0 00-.919.731 11.49 11.49 0 00-.931.913c-.134.15-.269.301-.397.461a11.348 11.348 0 00-.874 1.232c-.358.584-.663 1.2-.909 1.84a11.528 11.528 0 00-.665 2.623c-.04.295-.071.593-.087.898-.014.233-.023.47-.023.71a8.59 8.59 0 00.062 1.078l.014.127c.026.213.06.423.1.63l.049.243a11.066 11.066 0 00.595 1.9 12.211 12.211 0 00.878 1.703 11.727 11.727 0 00.695.991c.141.183.289.354.431.52.178.206.36.394.533.567l.094.093c.146.138.301.287.481.44.123.104.248.214.388.323a12.739 12.739 0 001.575 1.057 12.704 12.704 0 002.755 1.139 14 14 0 002.287.458 16.113 16.113 0 001.724.118c.09.001.183.004.273.004.706 0 1.359-.027 1.964-.078l.119-.011c.24-.02.473-.046.699-.075.345-.042.674-.092.988-.15a16.412 16.412 0 001.403-.311c.194-.052.38-.108.561-.161.215-.064.424-.134.62-.202l.192-.067c.094-.034.225-.081.376-.139.203-.079.447-.176.725-.294.165-.071.345-.153.528-.236.163-.075.335-.157.508-.243.074-.035.147-.069.222-.108v-4.306l-.154.093-.296.179c-.293.179-.576.346-.863.502a17.198 17.198 0 01-2.459 1.11c-.832.301-1.689.53-2.56.684l-.267.044a11.912 11.912 0 01-1.891.151c-.307 0-.62-.008-.939-.03a13.026 13.026 0 01-1.142-.133 10.697 10.697 0 01-1.863-.484l-.27-.105c-.059-.023-.118-.049-.176-.072a9.688 9.688 0 01-.923-.454 12.356 12.356 0 01-.609-.383 8.85 8.85 0 01-.709-.552l-.143-.127-.071-.065-.041-.041-.053-.05a8.59 8.59 0 01-.532-.581 8.338 8.338 0 01-.256-.328 6.327 6.327 0 01-.222-.319c-.065-.099-.128-.204-.188-.304a7.203 7.203 0 01-.42-.839 7.252 7.252 0 01-.374-1.119 7.883 7.883 0 01-.203-1.212 9.86 9.86 0 01-.039-.817c0-.077.003-.169.007-.272.01-.306.036-.612.08-.915a8.53 8.53 0 01.267-1.181 8.95 8.95 0 01.162-.465c.041-.106.087-.213.133-.32a6.97 6.97 0 01.209-.439c.056-.112.12-.221.184-.333a7.42 7.42 0 01.688-.991c.092-.109.188-.224.288-.33.052-.054.102-.112.156-.165a8.888 8.888 0 012.596-1.8 10.176 10.176 0 011.808-.602 11.128 11.128 0 01.953-.17c.164-.023.331-.038.493-.053.316-.029.623-.041.923-.041.101 0 .2-.001.3.001.224.007.442.012.653.026.15.011.293.02.435.034a13.868 13.868 0 012.264.403c.166.045.318.09.457.131a13.644 13.644 0 01.896.297c.211.075.418.158.623.24.273.109.533.229.785.342.208.093.406.191.593.282.154.074.296.15.432.22.235.123.434.233.597.32l.44.24v-4.23s-.266-.109-.721-.281c-.2-.076-.439-.166-.709-.262-.15-.053-.308-.11-.477-.168-.134-.044-.271-.093-.414-.14-.162-.05-.33-.106-.502-.158a23.306 23.306 0 00-.382-.113l-.115-.033a13.3 13.3 0 00-.383-.106 13.861 13.861 0 00-.468-.12c-.1-.026-.2-.049-.304-.074a23.931 23.931 0 00-1.038-.211m-21.142-4.399h33.566V57.24h-33.566V25.655zM110.358 43.071v6.209h4.031l.211-.007c.138-.006.33-.012.561-.033a6.848 6.848 0 001.573-.309 3.522 3.522 0 001.376-.803c.137-.136.258-.286.362-.449.243-.389.385-.833.413-1.291.01-.124.01-.196.01-.196s.001-.056-.002-.153a2.834 2.834 0 00-.083-.601 2.457 2.457 0 00-.626-1.124 3.275 3.275 0 00-.361-.314 3.841 3.841 0 00-.747-.421 5.825 5.825 0 00-1.213-.357 9.01 9.01 0 00-1.181-.135 7.387 7.387 0 00-.425-.014l-3.899-.002M110.358 33.634v5.884h1.952s.13 0 .301-.005c.136-.003.296-.012.44-.019a7.891 7.891 0 001.512-.243c.107-.03.218-.064.325-.101a3.199 3.199 0 001.178-.702c.234-.23.418-.506.541-.81a2.99 2.99 0 00.206-.889c.019-.203.018-.333.018-.333s.004-.097-.004-.251a2.759 2.759 0 00-.269-1.074 2.186 2.186 0 00-.413-.556 2.557 2.557 0 00-.771-.508 5.192 5.192 0 00-1.707-.375 9.427 9.427 0 00-.619-.018h-2.69z"/><path d="M106.284 30.08v22.751h8.563s4.177.116 6.483-2.191a5.692 5.692 0 00.146-8.048l-.006-.006a7.463 7.463 0 00-3.372-1.875 6.077 6.077 0 001.509-1.057 4.673 4.673 0 001.4-3.69 5.292 5.292 0 00-1.608-3.803s-1.759-2.082-5.733-2.082l-7.382.001zm-8.804-4.428h33.565V57.24H97.48V25.652zM71.682 43.071v6.209h4.03l.213-.007c.136-.006.328-.012.56-.033a6.848 6.848 0 001.573-.309 3.53 3.53 0 001.376-.803c.137-.135.257-.286.36-.449.244-.389.387-.833.414-1.291.01-.124.008-.196.008-.196s.003-.056 0-.153a2.834 2.834 0 00-.083-.601 2.457 2.457 0 00-.628-1.124 3.067 3.067 0 00-.36-.314 3.841 3.841 0 00-.747-.421 5.825 5.825 0 00-1.213-.357 9.01 9.01 0 00-1.181-.135 7.478 7.478 0 00-.425-.014l-3.897-.002M71.682 33.634v5.884h1.952s.13 0 .301-.005c.135-.003.296-.012.44-.019a7.891 7.891 0 001.512-.243c.107-.03.217-.064.325-.101.439-.146.84-.386 1.178-.702.234-.23.418-.506.541-.81a2.99 2.99 0 00.206-.889c.019-.203.018-.333.018-.333s.004-.097-.004-.251a2.78 2.78 0 00-.269-1.074 2.186 2.186 0 00-.413-.556 2.557 2.557 0 00-.771-.508 5.198 5.198 0 00-1.709-.375 9.408 9.408 0 00-.619-.018h-2.688z"/><path d="M67.608 30.08v22.751h8.563s4.176.116 6.482-2.191a5.69 5.69 0 00.148-8.046l-.009-.009a7.456 7.456 0 00-3.37-1.875 6.077 6.077 0 001.509-1.057 4.676 4.676 0 001.4-3.69 5.291 5.291 0 00-1.607-3.802s-1.758-2.083-5.732-2.083h-7.384zm-8.805-4.428h33.565V57.24H58.803V25.652zM177.9 52.83V30.088h7.348c2.904 0 5.119.583 6.646 1.75a5.968 5.968 0 012.29 5.055 6.117 6.117 0 01-1.241 3.881 7.04 7.04 0 01-3.531 2.322 204.212 204.212 0 016.139 9.733h-3.658a170.098 170.098 0 00-5.598-9.191c-.339.02-.7.031-1.081.031h-4.199v9.16l-3.115.001zm3.117-11.704h3.977a7.885 7.885 0 004.515-1.051 3.623 3.623 0 001.496-3.18c0-2.84-1.993-4.26-5.979-4.26h-4.008v8.491zM210.023 30.088a441.38 441.38 0 014.786 11.354 742.209 742.209 0 014.502 11.388h-3.373l-1.129-3.085a470.95 470.95 0 00-1.129-3.054h-10.687a336.4 336.4 0 00-2.258 6.139h-3.277a539.113 539.113 0 014.566-11.674 365.76 365.76 0 014.69-11.067l3.309-.001zm-6.01 13.931h8.651a938.763 938.763 0 00-4.326-10.845 556.97 556.97 0 00-2.196 5.407c-.72 1.802-1.43 3.614-2.129 5.438M221.728 30.088h7.921a12.832 12.832 0 016.042 1.32 9.113 9.113 0 013.865 3.834 12.82 12.82 0 011.351 6.139 13.122 13.122 0 01-1.351 6.186 9.216 9.216 0 01-3.881 3.913 12.69 12.69 0 01-6.059 1.351h-7.888V30.088zm7.665 20.069a8.06 8.06 0 006.106-2.226c1.421-1.485 2.131-3.668 2.131-6.551 0-2.841-.705-4.988-2.115-6.442a8.105 8.105 0 00-6.091-2.18h-4.548v17.398l4.517.001zM244.532 30.088h3.149v22.741h-3.149zM262.28 29.611c1.54-.021 3.068.26 4.5.826a9.73 9.73 0 013.467 2.386 10.554 10.554 0 012.211 3.738c.528 1.573.785 3.223.762 4.882a14.43 14.43 0 01-.779 4.883 10.909 10.909 0 01-2.211 3.737 9.677 9.677 0 01-3.451 2.401 12.448 12.448 0 01-9.002 0 9.682 9.682 0 01-3.45-2.401 10.872 10.872 0 01-2.21-3.737 14.43 14.43 0 01-.779-4.883 14.723 14.723 0 01.762-4.882 10.537 10.537 0 012.21-3.738 9.73 9.73 0 013.467-2.386 11.831 11.831 0 014.503-.826m.001 20.96a7.468 7.468 0 004.103-1.097 7.047 7.047 0 002.638-3.148 11.84 11.84 0 00.923-4.883 11.727 11.727 0 00-.923-4.867 7.072 7.072 0 00-2.638-3.132 8.19 8.19 0 00-8.19 0 7.031 7.031 0 00-2.656 3.132 11.727 11.727 0 00-.923 4.867 11.836 11.836 0 00.923 4.883 7.011 7.011 0 002.656 3.148 7.49 7.49 0 004.087 1.097"/><g><path d="M73.198 102.7V89.992H61.66V102.7h-8.205V71.629h8.205v11.345h11.538V71.629h8.205V102.7zM97.46 103.271a14.885 14.885 0 01-6.711-1.386 9.476 9.476 0 01-4.164-4.013 13.397 13.397 0 01-1.428-6.42 14.692 14.692 0 01.78-4.929 10.58 10.58 0 012.248-3.74 9.793 9.793 0 013.518-2.372 12.374 12.374 0 014.614-.823 10.721 10.721 0 015.513 1.337 8.468 8.468 0 013.421 3.896 15.33 15.33 0 011.172 6.323v1.749h-13.88l.031.212a4.706 4.706 0 001.839 3.402 7.93 7.93 0 004.366.977 15.276 15.276 0 003.628-.401 14.91 14.91 0 003.004-1.111v5.864a21.18 21.18 0 01-3.611 1.044c-1.431.27-2.884.401-4.34.391zm-1.23-18.468c-2.002 0-3.217 1.341-3.613 3.983l-.031.212h6.835l-.018-.2a5.589 5.589 0 00-.941-3.024 2.712 2.712 0 00-2.232-.971zM110.185 102.7V80.159h6.692l.582 4.032.265-.477c1.455-2.622 3.368-3.951 5.688-3.951a5.74 5.74 0 012.453.502v6.764a4.145 4.145 0 00-1.069-.417 6.808 6.808 0 00-1.603-.182 6.532 6.532 0 00-2.851.591 6.787 6.787 0 00-2.262 1.85l-.042.051V102.7h-7.853zM139.594 103.271a14.885 14.885 0 01-6.711-1.386 9.495 9.495 0 01-4.165-4.013 13.396 13.396 0 01-1.427-6.42 14.692 14.692 0 01.78-4.929 10.531 10.531 0 012.247-3.74 9.805 9.805 0 013.519-2.372 12.374 12.374 0 014.614-.823 10.708 10.708 0 015.512 1.337 8.47 8.47 0 013.422 3.896 15.33 15.33 0 011.171 6.323v1.749h-13.88l.031.212a4.713 4.713 0 001.838 3.402 7.935 7.935 0 004.367.977c1.221.012 2.44-.123 3.629-.401a14.963 14.963 0 003.003-1.111v5.864a21.18 21.18 0 01-3.611 1.044c-1.43.27-2.883.401-4.339.391zm-1.231-18.468c-2.001 0-3.216 1.341-3.611 3.983l-.031.212h6.835l-.018-.2a5.665 5.665 0 00-.941-3.024 2.719 2.719 0 00-2.234-.971zM153.818 102.7V86.475h-3.474v-5.964h3.474v-.8a11.906 11.906 0 011.123-5.392 7.867 7.867 0 013.246-3.396 10.442 10.442 0 015.12-1.185c.866-.002 1.731.07 2.585.217.755.13 1.494.346 2.2.644v5.92a6.767 6.767 0 00-1.27-.417 7.513 7.513 0 00-1.624-.181 3.523 3.523 0 00-2.661.915 3.733 3.733 0 00-.864 2.655v1.02h5.012v5.964h-5.012V102.7h-7.855zM179.885 103.271a13.395 13.395 0 01-4.794-.822 10.091 10.091 0 01-3.649-2.376 10.437 10.437 0 01-2.313-3.738 14.166 14.166 0 01-.802-4.883 13.381 13.381 0 011.408-6.312 9.913 9.913 0 013.994-4.103 13.786 13.786 0 0112.308 0 9.921 9.921 0 013.995 4.103 13.396 13.396 0 011.408 6.312 14.166 14.166 0 01-.802 4.883 10.496 10.496 0 01-2.311 3.738 10.107 10.107 0 01-3.651 2.376 13.357 13.357 0 01-4.791.822zm0-17.501a3.026 3.026 0 00-2.683 1.493 7.92 7.92 0 00-.932 4.232 7.627 7.627 0 00.932 4.102 3.177 3.177 0 005.388-.002 7.772 7.772 0 00.908-4.099 8.09 8.09 0 00-.908-4.23 3.01 3.01 0 00-2.705-1.496zM194.844 102.7V80.159h6.691l.584 4.032.265-.478c1.453-2.62 3.366-3.949 5.687-3.949a5.744 5.744 0 012.454.502v6.764a4.109 4.109 0 00-1.069-.417 6.77 6.77 0 00-1.604-.182 6.548 6.548 0 00-2.851.59 6.774 6.774 0 00-2.261 1.85l-.042.051V102.7h-7.854zM221.262 103.271a8.434 8.434 0 01-4.8-1.374 8.939 8.939 0 01-3.166-3.944 16.945 16.945 0 01.194-12.644 9.833 9.833 0 013.755-4.232 10.994 10.994 0 015.818-1.489 9.378 9.378 0 013.408.603l.252.097V70.31h7.853v32.39h-6.692l-.391-2.688-.265.341a7.327 7.327 0 01-2.702 2.231 7.762 7.762 0 01-3.264.687zm3.123-17.412a3.73 3.73 0 00-3.182 1.504 7.043 7.043 0 00-1.093 4.221 7.458 7.458 0 00.888 3.99 2.995 2.995 0 002.683 1.427 3.826 3.826 0 002.998-1.383l.046-.053v-9.153l-.103-.051a4.74 4.74 0 00-1.076-.388 5.535 5.535 0 00-1.161-.114zM259.296 103.271a17.385 17.385 0 01-6.416-1.064 8.935 8.935 0 01-4.074-3.036 7.917 7.917 0 01-1.416-4.729 7.24 7.24 0 011.415-4.376 14.81 14.81 0 014.605-3.776l.182-.104-.128-.168a18.385 18.385 0 01-1.612-2.437 9.038 9.038 0 01-.861-2.219 10.089 10.089 0 01-.259-2.31 7.52 7.52 0 01.685-3.221 7.36 7.36 0 011.93-2.509 9.067 9.067 0 012.974-1.637c1.245-.403 2.547-.6 3.855-.584a10.959 10.959 0 014.759.971 7.802 7.802 0 013.157 2.641 6.809 6.809 0 011.134 3.899 6.959 6.959 0 01-1.522 4.415 16.165 16.165 0 01-4.977 3.821l-.213.116.168.174a492.462 492.462 0 005.411 5.498l.183.183.113-.234a15.297 15.297 0 001.331-5.964h6.58a19.587 19.587 0 01-.995 5.626 17.2 17.2 0 01-2.48 4.765l-.096.127.113.114c.909.909 1.871 1.841 2.885 2.795.906.853 1.853 1.736 2.842 2.649h-9.085l-1.583-1.491-.117.063a15.598 15.598 0 01-3.954 1.499 19.72 19.72 0 01-4.534.503zm-2.609-13.203a3.908 3.908 0 00-1.885 3.494 3.424 3.424 0 001.416 2.873 6.09 6.09 0 003.737 1.049c1.09.009 2.175-.142 3.221-.448l.297-.09-.223-.218a111.72 111.72 0 01-3.579-3.644 239.676 239.676 0 01-2.745-2.987l-.108-.119-.131.09zm3.402-13.62a2.84 2.84 0 00-2.089.78 2.773 2.773 0 00-.78 2.043c0 .361.039.721.115 1.074.111.431.299.839.555 1.204.279.428.691.986 1.26 1.706l.091.114.131-.061a7.433 7.433 0 002.549-1.74 3.375 3.375 0 00.814-2.253 2.99 2.99 0 00-.707-2.08 2.502 2.502 0 00-1.939-.787zM85.811 139.509a982.7 982.7 0 01-2.468-9.557 546.401 546.401 0 01-2.374-9.735l-.358-.001-2.374 9.739a567.28 567.28 0 01-2.426 9.555H67.21a657.27 657.27 0 01-4.116-15.427 594.072 594.072 0 01-3.753-15.644h8.801a536.364 536.364 0 003.805 22.363l.359.008a719.591 719.591 0 002.462-10.621 709.83 709.83 0 002.257-10.432h7.924a696.634 696.634 0 002.235 10.168c.776 3.415 1.56 6.823 2.352 10.224l.361-.006a466.796 466.796 0 002-10.865 574.738 574.738 0 001.759-10.84h8.627a502.885 502.885 0 01-3.71 15.644 560.014 560.014 0 01-4.159 15.427h-8.603zM114.076 140.081a13.394 13.394 0 01-4.793-.822 10.06 10.06 0 01-3.65-2.376 10.44 10.44 0 01-2.311-3.738 14.12 14.12 0 01-.803-4.883 13.37 13.37 0 011.409-6.312 9.913 9.913 0 013.994-4.103 13.786 13.786 0 0112.308 0 9.913 9.913 0 013.994 4.103 13.373 13.373 0 011.409 6.312 14.167 14.167 0 01-.803 4.883 10.46 10.46 0 01-2.311 3.738 10.095 10.095 0 01-3.65 2.376 13.42 13.42 0 01-4.793.822zm0-17.502a3.028 3.028 0 00-2.683 1.493 7.92 7.92 0 00-.932 4.232 7.627 7.627 0 00.932 4.102 3.18 3.18 0 005.39-.002 7.79 7.79 0 00.908-4.099 8.09 8.09 0 00-.908-4.23 3.016 3.016 0 00-2.707-1.496zM129.035 139.509v-22.541h6.691l.583 4.032.265-.478c1.454-2.62 3.367-3.949 5.688-3.949a5.76 5.76 0 012.454.502v6.764a4.116 4.116 0 00-1.07-.417 6.719 6.719 0 00-1.604-.182 6.532 6.532 0 00-2.851.591 6.782 6.782 0 00-2.26 1.85l-.042.051v13.777h-7.854zM158.531 140.081a14.47 14.47 0 01-6.621-1.386 9.509 9.509 0 01-4.123-4.036 13.546 13.546 0 01-1.427-6.442 13.201 13.201 0 01.866-4.879 10.31 10.31 0 012.505-3.737 11.146 11.146 0 013.915-2.38 15.107 15.107 0 015.149-.824 14.468 14.468 0 013.126.326c.914.199 1.807.481 2.67.842v6.398a8.272 8.272 0 00-2.073-.936 9.265 9.265 0 00-2.58-.36 5.688 5.688 0 00-4.153 1.461 5.501 5.501 0 00-1.483 4.088 5.621 5.621 0 001.461 4.109 5.436 5.436 0 004.044 1.485c.92.003 1.837-.11 2.728-.337a9.13 9.13 0 002.364-1.014v6.286a11.85 11.85 0 01-2.888.987 16.95 16.95 0 01-3.48.349zM179.655 140.081a14.869 14.869 0 01-6.711-1.386 9.495 9.495 0 01-4.165-4.013 13.397 13.397 0 01-1.428-6.42 14.677 14.677 0 01.781-4.93 10.531 10.531 0 012.247-3.74 9.78 9.78 0 013.518-2.372 12.374 12.374 0 014.614-.823 10.711 10.711 0 015.513 1.337 8.475 8.475 0 013.422 3.898 15.326 15.326 0 011.169 6.322v1.749h-13.881l.032.212a4.715 4.715 0 001.838 3.402 7.94 7.94 0 004.369.977 15.276 15.276 0 003.628-.401 14.88 14.88 0 003.003-1.111v5.864a21.09 21.09 0 01-3.611 1.044 22.7 22.7 0 01-4.338.391zm-1.231-18.468c-2.002 0-3.218 1.341-3.611 3.983l-.031.212h6.833l-.018-.2a5.665 5.665 0 00-.941-3.024 2.71 2.71 0 00-2.232-.971zM199.705 140.081a20.289 20.289 0 01-7.73-1.477v-5.805a15.65 15.65 0 003.282 1.356 13.07 13.07 0 003.568.536 6.184 6.184 0 002.609-.416c.556-.217.921-.755.918-1.352a1.292 1.292 0 00-.834-1.246 10.401 10.401 0 00-1.903-.605 20.977 20.977 0 01-4.684-1.61 5.859 5.859 0 01-2.497-2.257 6.838 6.838 0 01-.768-3.384 6.58 6.58 0 011.196-3.959 7.707 7.707 0 013.417-2.555 14.253 14.253 0 015.361-.909 19.55 19.55 0 014.007.413c1.194.245 2.355.629 3.459 1.146v5.728a10.304 10.304 0 00-2.93-1.359 12.611 12.611 0 00-3.525-.536 6.039 6.039 0 00-2.473.413 1.415 1.415 0 00-.966 1.31c-.01.307.092.607.286.845.251.26.568.446.917.539.4.133.955.289 1.664.466 1.594.307 3.14.827 4.596 1.545a6.144 6.144 0 012.521 2.283 6.602 6.602 0 01.788 3.337 6.912 6.912 0 01-1.219 4.136 7.404 7.404 0 01-3.499 2.551c-1.786.617-3.67.911-5.561.866zM223.625 140.081c-2.692 0-4.758-.684-6.138-2.036a8.016 8.016 0 01-2.075-5.959v-8.802h-3.474v-5.964h3.474v-5.4l7.854-1.723v7.123h5.276v5.964h-5.276v7.703c0 1.932.995 2.91 2.955 2.91a7.358 7.358 0 002.761-.566v5.795a15.278 15.278 0 01-5.357.955zM243.422 140.081a14.869 14.869 0 01-6.711-1.386 9.495 9.495 0 01-4.165-4.013 13.397 13.397 0 01-1.428-6.42 14.677 14.677 0 01.781-4.93 10.531 10.531 0 012.247-3.74 9.78 9.78 0 013.518-2.372 12.374 12.374 0 014.614-.823 10.711 10.711 0 015.513 1.337 8.475 8.475 0 013.422 3.898 15.326 15.326 0 011.169 6.322v1.749h-13.881l.032.212a4.715 4.715 0 001.838 3.402 7.94 7.94 0 004.369.977 15.276 15.276 0 003.628-.401 14.88 14.88 0 003.003-1.111v5.864a21.09 21.09 0 01-3.611 1.044c-1.43.269-2.883.4-4.338.391zm-1.232-18.468c-2.002 0-3.218 1.341-3.611 3.983l-.031.212h6.833l-.018-.2a5.665 5.665 0 00-.941-3.024 2.71 2.71 0 00-2.232-.971zM256.146 139.509v-22.541h6.691l.583 4.032.265-.478c1.453-2.62 3.367-3.949 5.688-3.949a5.76 5.76 0 012.454.502v6.764a4.116 4.116 0 00-1.07-.417 6.719 6.719 0 00-1.604-.182 6.525 6.525 0 00-2.85.591 6.782 6.782 0 00-2.26 1.85l-.043.051v13.777h-7.854z"/></g></g></svg>
