<svg xmlns="http://www.w3.org/2000/svg" viewBox="0 0 332 166" width="332" height="166"><path fill="#542582" d="M0 0h332v166H0z"/><g fill="#FFF"><path d="M157.465 42.585c-.147-.026-.297-.05-.453-.074l-.181-.026a17.39 17.39 0 00-.781-.091 24.378 24.378 0 00-.534-.038 14.909 14.909 0 00-1.286-.025 16.388 16.388 0 00-1.155.064c-.2.018-.397.041-.592.064l-.162.023-.18.026-.224.035c-.095.015-.192.033-.288.05-.132.023-.262.05-.391.076-.755.159-1.495.379-2.214.658a12.913 12.913 0 00-1.778.85 12.062 12.062 0 00-1.062.683c-.105.076-.209.151-.309.229a11.933 11.933 0 00-1.541 1.416 10.654 10.654 0 00-1.087 1.405 11.146 11.146 0 00-1.092 2.127 11.369 11.369 0 00-.665 2.624 11.838 11.838 0 00-.099 2.141c.012.183.027.364.048.544l.014.125c.027.214.06.425.1.631l.05.243a9.99 9.99 0 00.313 1.149 11.566 11.566 0 001.452 2.897 11.313 11.313 0 00.833 1.067c.18.206.36.394.532.567l.096.091c.145.14.301.289.48.442.123.104.25.215.39.323a11.346 11.346 0 001.574 1.057 12.704 12.704 0 002.753 1.14c.386.112.792.209 1.22.292a16.787 16.787 0 002.794.284c.09.001.181.004.273.004.705 0 1.359-.027 1.963-.078l.119-.011a18.62 18.62 0 003.092-.537c.192-.05.38-.105.56-.158.214-.065.424-.135.62-.203l.192-.067c.094-.034.225-.08.376-.139a22.153 22.153 0 001.983-.882V59.28a5.644 5.644 0 01-.153.093l-.296.179a18.216 18.216 0 01-1.784.971c-.533.252-1.043.464-1.539.641-.832.301-1.688.529-2.559.684-.091.016-.18.03-.269.044a14.196 14.196 0 01-1.435.142c-.164.005-.316.01-.455.01-.307 0-.622-.007-.941-.03a12.768 12.768 0 01-1.143-.134 10.652 10.652 0 01-1.861-.484l-.27-.105-.176-.072a8.717 8.717 0 01-1.226-.637 9.973 9.973 0 01-.304-.201 6.828 6.828 0 01-.372-.274 7.362 7.362 0 01-.337-.278l-.143-.127-.071-.065-.041-.041-.053-.05a8.525 8.525 0 01-.532-.579 6.83 6.83 0 01-.256-.33 7.112 7.112 0 01-.224-.319 6.723 6.723 0 01-.431-.759 7.707 7.707 0 01-.416-1.028 7.998 7.998 0 01-.364-2.062 7.472 7.472 0 01-.005-.716c.009-.306.036-.612.079-.915a8.426 8.426 0 01.269-1.182c.048-.153.104-.305.162-.465a7.763 7.763 0 01.342-.759c.057-.112.12-.221.184-.333a7.223 7.223 0 01.689-.991c.091-.109.187-.223.286-.33.053-.055.104-.112.157-.165a8.85 8.85 0 013.468-2.139 8.303 8.303 0 01.934-.263c.153-.034.305-.064.455-.091.166-.033.333-.056.498-.079s.333-.04.495-.053c.315-.027.623-.041.923-.041.102 0 .2-.001.298.001.224.007.442.014.654.026.149.011.293.02.435.034a14.089 14.089 0 012.718.533 11.743 11.743 0 01.895.297c.213.075.42.158.623.24.274.109.534.228.787.342.209.093.405.191.592.282.154.075.297.15.434.22.233.123.434.233.597.32l.439.24v-4.23s-.264-.108-.72-.281a32.65 32.65 0 00-.71-.262c-.15-.053-.307-.11-.476-.168-.135-.045-.271-.093-.416-.139-.161-.052-.329-.108-.5-.16-.124-.037-.252-.076-.382-.113l-.115-.033c-.125-.035-.253-.072-.384-.106a18.59 18.59 0 00-.466-.12c-.101-.026-.202-.049-.305-.074a21.34 21.34 0 00-.507-.11c-.174-.034-.351-.069-.529-.101M136.32 38.19h33.566v31.588H136.32V38.19zM110.523 55.609v6.208h4.03l.211-.007c.138-.005.33-.012.56-.033a6.995 6.995 0 001.575-.309 3.53 3.53 0 001.376-.803c.136-.136.256-.287.36-.449.244-.389.386-.833.413-1.291.009-.124.009-.196.009-.196s.001-.056-.001-.153a2.834 2.834 0 00-.083-.601 2.478 2.478 0 00-.469-.949 3.077 3.077 0 00-.518-.488 3.841 3.841 0 00-.747-.421 5.825 5.825 0 00-1.213-.357 8.945 8.945 0 00-1.181-.135 7.387 7.387 0 00-.425-.014l-3.897-.002M110.523 46.172v5.884h1.951s.13 0 .303-.006c.135-.003.295-.012.439-.019a7.891 7.891 0 001.512-.243 5.07 5.07 0 00.324-.101 3.211 3.211 0 001.179-.702c.234-.23.417-.506.54-.81a2.99 2.99 0 00.206-.889c.019-.203.018-.333.018-.333s.004-.097-.004-.251a2.741 2.741 0 00-.269-1.074 2.163 2.163 0 00-.413-.556 2.49 2.49 0 00-.772-.508 5.192 5.192 0 00-1.707-.375 9.427 9.427 0 00-.619-.018l-2.688.001z"/><path d="M106.448 42.618v22.751h8.564s4.176.115 6.482-2.191a5.687 5.687 0 00.152-8.041l-.013-.014a7.465 7.465 0 00-3.371-1.875 6.147 6.147 0 001.511-1.056 4.684 4.684 0 001.399-3.69 5.296 5.296 0 00-1.606-3.803s-1.759-2.082-5.734-2.082l-7.384.001zm-8.805-4.428h33.564v31.588H97.643V38.19zM71.846 55.609v6.208h4.031l.211-.007c.138-.005.33-.012.56-.033a6.956 6.956 0 001.573-.309 3.522 3.522 0 001.376-.803c.137-.135.257-.286.36-.449.244-.389.387-.833.414-1.291.01-.124.008-.196.008-.196s.003-.056 0-.153a2.834 2.834 0 00-.083-.601 2.459 2.459 0 00-.625-1.123 3.077 3.077 0 00-.361-.314 3.841 3.841 0 00-.747-.421 5.816 5.816 0 00-1.214-.357 9.01 9.01 0 00-1.181-.135 7.448 7.448 0 00-.425-.014l-3.897-.002M71.846 46.172v5.884h1.952s.13 0 .301-.006c.136-.003.296-.012.44-.019a7.891 7.891 0 001.512-.243c.108-.03.217-.064.325-.101a3.199 3.199 0 001.178-.702c.234-.23.418-.506.541-.81a2.99 2.99 0 00.206-.889c.019-.203.018-.333.018-.333s.004-.097-.004-.251a2.741 2.741 0 00-.269-1.074 2.186 2.186 0 00-.413-.556 2.53 2.53 0 00-.772-.508 5.19 5.19 0 00-1.707-.374 9.427 9.427 0 00-.619-.018h-2.689z"/><path d="M67.772 42.618v22.751h8.564s4.176.115 6.481-2.191a5.688 5.688 0 00.151-8.043l-.011-.011a7.465 7.465 0 00-3.371-1.875 6.147 6.147 0 001.511-1.056 4.687 4.687 0 001.399-3.69 5.295 5.295 0 00-1.607-3.803s-1.759-2.082-5.733-2.082h-7.384zm-8.804-4.428h33.564v31.588H58.968V38.19zM178.064 65.367V42.626h7.348c2.904 0 5.119.583 6.646 1.75a5.968 5.968 0 012.29 5.055 6.117 6.117 0 01-1.241 3.881 7.044 7.044 0 01-3.531 2.322 203.885 203.885 0 016.139 9.732h-3.658a170.098 170.098 0 00-5.598-9.191c-.339.02-.7.031-1.081.031h-4.199v9.16l-3.115.001zm3.117-11.703h3.977a7.883 7.883 0 004.515-1.051 3.624 3.624 0 001.496-3.181c0-2.84-1.993-4.26-5.98-4.26h-4.008v8.492zM210.188 42.626a441.38 441.38 0 014.786 11.354 742.209 742.209 0 014.502 11.388h-3.373l-1.129-3.085a418.623 418.623 0 00-1.129-3.054h-10.687a344.015 344.015 0 00-2.258 6.139h-3.277a539.113 539.113 0 014.566-11.674 365.76 365.76 0 014.69-11.067h3.309zm-6.011 13.93h8.652a938.763 938.763 0 00-4.326-10.845 546.875 546.875 0 00-2.196 5.407 423.488 423.488 0 00-2.13 5.438M221.892 42.626h7.921a12.844 12.844 0 016.042 1.32 9.113 9.113 0 013.865 3.834 12.82 12.82 0 011.351 6.139 13.116 13.116 0 01-1.351 6.185 9.221 9.221 0 01-3.881 3.913 12.69 12.69 0 01-6.059 1.351h-7.888V42.626zm7.666 20.069a8.058 8.058 0 006.106-2.226c1.421-1.485 2.131-3.668 2.131-6.551 0-2.841-.705-4.988-2.115-6.442a8.1 8.1 0 00-6.091-2.18h-4.548v17.398h4.517zM244.697 42.626h3.149v22.741h-3.149zM262.445 42.149c1.539-.021 3.068.26 4.5.826a9.73 9.73 0 013.467 2.386 10.554 10.554 0 012.211 3.738c.528 1.573.785 3.223.762 4.882.023 1.66-.24 3.312-.778 4.883a10.909 10.909 0 01-2.211 3.737 9.682 9.682 0 01-3.45 2.401 12.448 12.448 0 01-9.002 0 9.695 9.695 0 01-3.451-2.401 10.881 10.881 0 01-2.21-3.737 14.43 14.43 0 01-.778-4.883 14.698 14.698 0 01.762-4.882 10.537 10.537 0 012.21-3.738 9.73 9.73 0 013.467-2.386 11.807 11.807 0 014.501-.826m0 20.96a7.468 7.468 0 004.103-1.097 7.054 7.054 0 002.638-3.148 11.84 11.84 0 00.923-4.883 11.727 11.727 0 00-.923-4.867 7.072 7.072 0 00-2.638-3.132 8.192 8.192 0 00-8.191 0 7.031 7.031 0 00-2.656 3.132 11.727 11.727 0 00-.923 4.867 11.836 11.836 0 00.923 4.883 7.018 7.018 0 002.656 3.148 7.49 7.49 0 004.088 1.097"/><g><path d="M51.63 120.302a735.453 735.453 0 00-6.448-10.761 1255.653 1255.653 0 00-6.599-10.683l-.642-1.027v22.471h-8.566V85.4h9.222a518.897 518.897 0 016.514 10.29 845.045 845.045 0 016.519 10.748l.646 1.083V85.4h8.566v34.902H51.63zM77.918 120.949a14.98 14.98 0 01-5.376-.923 11.229 11.229 0 01-4.082-2.656 11.722 11.722 0 01-2.588-4.184 15.884 15.884 0 01-.899-5.482 15.032 15.032 0 011.578-7.08 11.081 11.081 0 014.469-4.588 15.47 15.47 0 0113.799 0 11.088 11.088 0 014.467 4.588 15.032 15.032 0 011.578 7.08 15.907 15.907 0 01-.899 5.482 11.775 11.775 0 01-2.587 4.185 11.269 11.269 0 01-4.082 2.655 14.995 14.995 0 01-5.378.923zm0-19.813a3.56 3.56 0 00-3.156 1.753 9.113 9.113 0 00-1.076 4.868 8.766 8.766 0 001.076 4.717 3.74 3.74 0 006.336-.002 8.95 8.95 0 001.049-4.714 9.289 9.289 0 00-1.049-4.865 3.54 3.54 0 00-3.18-1.757zM106.295 120.949c-3.012 0-5.317-.762-6.852-2.266-1.532-1.501-2.309-3.736-2.309-6.646V101.93H93.2v-6.474h3.934v-6.141l8.615-1.89v8.031h5.975v6.474h-5.975v8.861c0 2.247 1.205 3.434 3.484 3.434a8.38 8.38 0 002.989-.576v6.261c-.889.32-1.802.57-2.73.747a17.076 17.076 0 01-3.197.292z"/><path d="M125.197 120.949c-3.012 0-5.317-.762-6.852-2.266-1.532-1.501-2.309-3.736-2.309-6.646V101.93h-7.799v-6.474h7.799v-6.141l8.615-1.89v8.031h5.975v6.474h-5.975v8.861c0 2.247 1.205 3.434 3.484 3.434a8.38 8.38 0 002.989-.576v6.261c-.889.32-1.802.57-2.73.747a17.069 17.069 0 01-3.197.292zM135.252 120.302V95.058h8.615v25.244h-8.615zm4.283-28.776a5.382 5.382 0 01-3.584-1.085 4.346 4.346 0 010-6.093 5.384 5.384 0 013.584-1.088 5.46 5.46 0 013.633 1.088 4.344 4.344 0 010 6.091 5.455 5.455 0 01-3.633 1.087zM164.525 120.302V104.62c0-2.799-1.651-3.386-3.036-3.386a4.548 4.548 0 00-3.706 1.825l-.076.095v17.149h-8.615V95.058h7.318l.518 3.506.497-.593a9.22 9.22 0 017.301-3.558 7.823 7.823 0 016.258 2.492c1.431 1.669 2.157 4.163 2.157 7.415v15.982h-8.616zM188.472 132.201a21.326 21.326 0 01-9.111-1.812v-6.765c1.089.559 2.238.993 3.424 1.296a17.55 17.55 0 004.393.559 7.802 7.802 0 005.001-1.349 4.996 4.996 0 001.67-4.077v-3.042l-.596.608a7.778 7.778 0 01-5.777 2.335 9.203 9.203 0 01-8.867-5.743 16.142 16.142 0 01-1.24-6.555 14.267 14.267 0 011.696-7.22 11.045 11.045 0 014.926-4.465 18.612 18.612 0 018.016-1.559c1.725.003 3.444.192 5.128.564 1.821.417 3.604.988 5.327 1.709v22.967c0 4.093-1.193 7.239-3.544 9.35-2.361 2.123-5.876 3.199-10.446 3.199zm2.59-30.967a4.522 4.522 0 00-3.705 1.6 6.955 6.955 0 00-1.273 4.474 7.486 7.486 0 001.032 4.28 3.602 3.602 0 003.147 1.544 4.585 4.585 0 003.492-1.506l.092-.099v-9.853l-.247-.075a8.714 8.714 0 00-2.538-.365zM223.121 120.302V104.62c0-2.799-1.651-3.386-3.036-3.386a4.548 4.548 0 00-3.706 1.825l-.076.095v17.149h-8.615V83.907h8.615V97.63l.59-.579a8.889 8.889 0 016.429-2.639 7.823 7.823 0 016.258 2.492c1.431 1.669 2.157 4.163 2.157 7.415v15.982l-8.616.001zM243.484 120.949a9.174 9.174 0 01-4.222-.908 6.394 6.394 0 01-2.696-2.552 7.891 7.891 0 01-.95-3.96 6.621 6.621 0 012.937-5.839c1.992-1.378 4.889-2.078 8.615-2.078a19.54 19.54 0 012.689.195l.396.057v-.798a4.038 4.038 0 00-1.244-3.253 5.996 5.996 0 00-3.883-1.028 14.104 14.104 0 00-4.211.615 14.305 14.305 0 00-3.307 1.534V96.33a21.937 21.937 0 018.962-1.918c3.908 0 6.894.916 8.878 2.721 1.972 1.799 2.972 4.501 2.972 8.033v8.264c-.027.484.076.966.298 1.396.271.415.751.644 1.244.594.305.002.608-.047.897-.145v4.613a8.732 8.732 0 01-1.894.646c-.8.178-1.618.267-2.438.266-2.801 0-4.641-.809-5.467-2.403l-.204-.392-.332.29a11.015 11.015 0 01-3.234 1.981 10.455 10.455 0 01-3.806.673zm4.381-11.35a5.319 5.319 0 00-3.062.71 2.664 2.664 0 00-1.069 2.327c0 1.248.526 2.736 3.036 2.736a4.686 4.686 0 003.382-1.495l.102-.102v-3.915l-.28-.056a10.823 10.823 0 00-2.109-.205zM294.363 120.302V104.62c0-2.799-1.543-3.386-2.837-3.386a4.158 4.158 0 00-3.415 1.883l-.069.092v17.093h-8.615V104.62c0-2.799-1.543-3.386-2.837-3.386a4.19 4.19 0 00-3.412 1.829l-.072.094v17.146h-8.616V95.058h7.32l.518 3.463.496-.602a8.846 8.846 0 017.05-3.507c3.309 0 5.57 1.226 6.912 3.747l.248.467.33-.412a9.235 9.235 0 017.445-3.801 7.489 7.489 0 016.057 2.489c1.399 1.669 2.108 4.165 2.108 7.418v15.982h-8.611z"/></g></g></svg>
