<svg xmlns="http://www.w3.org/2000/svg" viewBox="0 0 332 166" width="332" height="166"><path fill="#542582" d="M0 0h332v166H0z"/><g fill="#FFF"><path d="M157.293 42.585c-.149-.026-.3-.05-.453-.074l-.183-.026a17.69 17.69 0 00-.78-.091 24.123 24.123 0 00-.536-.038 14.862 14.862 0 00-1.286-.025c-.253.005-.501.016-.744.033a13.37 13.37 0 00-.41.031c-.2.018-.397.041-.592.064l-.162.023-.181.026-.222.035c-.097.015-.192.033-.288.05-.132.023-.262.05-.393.076-.754.159-1.494.38-2.212.658-.35.136-.689.285-1.008.442-.266.131-.525.264-.769.408a12.092 12.092 0 00-1.064.683c-.104.076-.209.151-.308.229a11.412 11.412 0 00-1.937 1.877 11.551 11.551 0 00-.692.944c-.061.095-.123.191-.183.288-.357.584-.661 1.2-.908 1.839a11.606 11.606 0 00-.667 2.624 12.855 12.855 0 00-.109 1.607 9.726 9.726 0 00.06 1.078l.015.125c.026.214.06.425.1.631.016.082.031.162.049.243a10.326 10.326 0 00.314 1.149c.087.258.178.508.279.751a12.073 12.073 0 00.88 1.703c.094.154.195.3.293.443a11.594 11.594 0 001.366 1.634l.094.091c.146.14.301.289.481.442.123.104.248.215.387.323.13.101.262.204.405.307a12.739 12.739 0 001.17.75 12.87 12.87 0 002.755 1.14 14.048 14.048 0 002.289.458 15.543 15.543 0 001.724.118c.089.001.181.004.273.004.706 0 1.358-.027 1.964-.078l.119-.011a17.662 17.662 0 001.688-.225 16.78 16.78 0 002.583-.673l.191-.067c.096-.034.225-.08.378-.139a23.152 23.152 0 001.253-.531 22.284 22.284 0 00.73-.351V59.28c-.049.031-.104.063-.153.093l-.296.179a18.695 18.695 0 01-1.785.971c-.533.252-1.043.464-1.538.641-.833.301-1.69.529-2.562.684-.09.016-.18.03-.266.044a14.266 14.266 0 01-1.434.142c-.163.005-.318.01-.458.01-.305 0-.62-.007-.941-.03a12.768 12.768 0 01-1.141-.134 10.675 10.675 0 01-1.861-.484l-.271-.105a12.792 12.792 0 01-.474-.204 9.933 9.933 0 01-.623-.322 8.736 8.736 0 01-.98-.658 7.362 7.362 0 01-.337-.278l-.143-.127-.071-.065-.042-.041-.052-.05a8.035 8.035 0 01-.79-.909c-.078-.105-.15-.213-.221-.319a6.723 6.723 0 01-.432-.759c-.064-.127-.121-.258-.176-.384a7.06 7.06 0 01-.374-1.121 7.754 7.754 0 01-.204-1.211 8.337 8.337 0 01-.033-1.09 7.955 7.955 0 01.349-2.097c.046-.153.102-.305.162-.465.041-.106.087-.213.132-.32.064-.146.135-.292.208-.439.057-.112.121-.221.185-.333a7.396 7.396 0 01.976-1.321c.05-.055.101-.112.154-.165a8.867 8.867 0 013.47-2.139 8.303 8.303 0 01.934-.263c.151-.034.304-.064.457-.091.165-.033.333-.056.496-.079a10.819 10.819 0 011.418-.094c.101 0 .201-.001.3.001.223.007.442.014.653.026.147.011.293.02.435.034.273.025.534.059.783.095a14.496 14.496 0 011.48.308c.166.044.318.089.457.13.207.061.386.117.524.165.24.083.372.132.372.132.211.075.417.158.622.24.274.109.534.228.786.342.207.093.406.191.593.282.154.075.296.15.431.22.236.123.435.233.598.32l.44.24v-4.23s-.266-.108-.721-.281c-.2-.076-.439-.166-.709-.262-.151-.053-.309-.11-.479-.168-.132-.045-.27-.093-.414-.139-.161-.052-.329-.108-.502-.16-.123-.037-.251-.076-.38-.113l-.115-.033c-.127-.035-.253-.072-.383-.106a18.674 18.674 0 00-.467-.12c-.101-.026-.202-.049-.305-.074a26.735 26.735 0 00-.507-.11c-.174-.034-.351-.069-.528-.101m-21.147-4.395h33.564v31.588h-33.564V38.19zM110.349 55.609v6.208h4.03l.213-.007c.136-.005.328-.012.56-.033a6.956 6.956 0 001.573-.309 3.53 3.53 0 001.376-.803c.137-.135.257-.286.36-.449.244-.389.387-.833.414-1.291.01-.124.008-.196.008-.196s.003-.056 0-.153a2.834 2.834 0 00-.083-.601 2.494 2.494 0 00-.47-.949 3.067 3.067 0 00-.517-.488 3.841 3.841 0 00-.747-.421 5.886 5.886 0 00-1.213-.357 9.01 9.01 0 00-1.181-.135 7.448 7.448 0 00-.425-.014l-3.898-.002M110.349 46.172v5.884h1.952s.13 0 .301-.006c.135-.003.296-.012.44-.019a7.891 7.891 0 001.512-.243c.108-.03.217-.064.325-.101a3.199 3.199 0 001.178-.702 2.42 2.42 0 00.541-.81 2.99 2.99 0 00.206-.889c.019-.203.018-.333.018-.333s.004-.097-.004-.251a2.799 2.799 0 00-.269-1.074 2.186 2.186 0 00-.413-.556 2.53 2.53 0 00-.772-.508 5.198 5.198 0 00-1.708-.375 9.408 9.408 0 00-.619-.018l-2.688.001z"/><path d="M106.275 42.618v22.751h8.563s4.177.115 6.482-2.191a5.69 5.69 0 00.149-8.045l-.009-.01a7.456 7.456 0 00-3.37-1.875 6.1 6.1 0 001.509-1.056 4.68 4.68 0 001.4-3.69 5.295 5.295 0 00-1.607-3.803s-1.759-2.082-5.733-2.082l-7.384.001zM97.47 38.19h33.564v31.588H97.47V38.19zM71.673 55.609v6.208h4.03l.213-.007c.136-.005.328-.012.56-.033a6.967 6.967 0 001.573-.309 3.53 3.53 0 001.376-.803c.137-.135.257-.286.36-.449.244-.389.387-.833.414-1.291.01-.124.008-.196.008-.196s.003-.056 0-.153a2.834 2.834 0 00-.083-.601 2.494 2.494 0 00-.47-.949 3.067 3.067 0 00-.517-.488 3.841 3.841 0 00-.747-.421 5.886 5.886 0 00-1.213-.357 8.97 8.97 0 00-1.181-.135 7.488 7.488 0 00-.427-.014l-3.896-.002M71.673 46.172v5.884h1.952s.13 0 .301-.006c.135-.003.296-.012.44-.019a7.891 7.891 0 001.512-.243c.108-.03.217-.064.323-.101a3.19 3.19 0 001.179-.702 2.42 2.42 0 00.541-.81c.113-.284.182-.584.206-.889.018-.203.018-.333.018-.333s.004-.097-.004-.251a2.821 2.821 0 00-.269-1.074 2.186 2.186 0 00-.413-.556 2.53 2.53 0 00-.772-.508 5.198 5.198 0 00-1.708-.375 9.427 9.427 0 00-.619-.018l-2.687.001z"/><path d="M67.6 42.618v22.751h8.563s4.176.115 6.482-2.191a5.688 5.688 0 00.149-8.043l-.011-.012a7.461 7.461 0 00-3.37-1.875 6.097 6.097 0 001.51-1.056 4.684 4.684 0 001.399-3.69 5.296 5.296 0 00-1.606-3.803s-1.76-2.082-5.734-2.082l-7.382.001zm-8.806-4.428h33.564v31.588H58.794V38.19zM177.891 65.367V42.626h7.347c2.904 0 5.12.583 6.647 1.75a5.971 5.971 0 012.289 5.055 6.123 6.123 0 01-1.239 3.881 7.044 7.044 0 01-3.531 2.322c2.12 3.16 4.166 6.404 6.139 9.732h-3.658a170.098 170.098 0 00-5.598-9.191c-.339.02-.7.031-1.082.031h-4.197v9.16l-3.117.001zm3.117-11.703h3.975a7.89 7.89 0 004.517-1.051 3.624 3.624 0 001.494-3.181c0-2.84-1.993-4.26-5.979-4.26h-4.007v8.492zM210.013 42.626a434.469 434.469 0 014.788 11.354 742.068 742.068 0 014.5 11.388h-3.371c-.382-1.039-.758-2.067-1.129-3.085a418.623 418.623 0 00-1.129-3.054h-10.687a322.12 322.12 0 00-2.259 6.139h-3.276a524.112 524.112 0 014.564-11.674 370.934 370.934 0 014.691-11.067h3.308zm-6.01 13.93h8.651a815.88 815.88 0 00-2.162-5.471c-.723-1.801-1.444-3.592-2.163-5.374a523.413 523.413 0 00-2.195 5.407 423.513 423.513 0 00-2.131 5.438M221.719 42.626h7.919a12.844 12.844 0 016.042 1.32 9.107 9.107 0 013.865 3.834 12.805 12.805 0 011.351 6.139 13.104 13.104 0 01-1.351 6.185 9.21 9.21 0 01-3.881 3.913 12.69 12.69 0 01-6.059 1.351h-7.887V42.626zm7.664 20.069a8.05 8.05 0 006.106-2.226c1.421-1.485 2.132-3.668 2.132-6.551 0-2.841-.705-4.988-2.116-6.442a8.1 8.1 0 00-6.091-2.18h-4.548v17.398h4.517zM244.523 42.626h3.149v22.741h-3.149zM262.27 42.149c1.54-.021 3.069.26 4.501.826a9.73 9.73 0 013.467 2.386 10.56 10.56 0 012.21 3.738c.528 1.573.785 3.223.762 4.882.023 1.66-.24 3.312-.778 4.883a10.856 10.856 0 01-2.21 3.737 9.686 9.686 0 01-3.451 2.401 12.448 12.448 0 01-9.002 0 9.682 9.682 0 01-3.451-2.401 10.859 10.859 0 01-2.211-3.737 14.43 14.43 0 01-.778-4.883c-.023-1.659.235-3.31.763-4.882a10.537 10.537 0 012.21-3.738 9.708 9.708 0 013.467-2.386 11.814 11.814 0 014.501-.826m0 20.96a7.468 7.468 0 004.103-1.097 7.05 7.05 0 002.639-3.148 11.84 11.84 0 00.923-4.883 11.727 11.727 0 00-.923-4.867 7.074 7.074 0 00-2.639-3.132 8.192 8.192 0 00-8.191 0 7.015 7.015 0 00-2.654 3.132 11.727 11.727 0 00-.923 4.867 11.836 11.836 0 00.923 4.883 7.007 7.007 0 002.654 3.148 7.49 7.49 0 004.088 1.097"/><g><path d="M103.273 121.44a20.257 20.257 0 01-7.342-1.271 15.48 15.48 0 01-5.576-3.652 16.313 16.313 0 01-3.558-5.755 23.51 23.51 0 010-15.116 16.088 16.088 0 013.557-5.703 15.66 15.66 0 015.578-3.628 21.834 21.834 0 0114.683 0c2.098.795 4 2.033 5.578 3.628a16.097 16.097 0 013.557 5.703 23.51 23.51 0 010 15.116 16.322 16.322 0 01-3.558 5.755 15.485 15.485 0 01-5.577 3.652 20.253 20.253 0 01-7.342 1.271zm0-28.726a7.468 7.468 0 00-6.223 2.772c-1.419 1.815-2.139 4.416-2.139 7.731 0 3.35.72 5.968 2.139 7.783a8.374 8.374 0 0012.446 0c1.42-1.815 2.141-4.433 2.141-7.783 0-3.316-.72-5.916-2.139-7.731a7.472 7.472 0 00-6.225-2.772zM140.428 120.693a96.885 96.885 0 00-1.926-3.63c-.715-1.278-2.472-4.402-2.472-4.402l-.301.545a276.75 276.75 0 00-3.991 7.487h-9.009a447.9 447.9 0 013.984-6.082 317.538 317.538 0 014.425-6.464l.136-.193-.129-.197a288.19 288.19 0 01-4.077-6.391 502.969 502.969 0 01-3.615-5.916h9.218a119.446 119.446 0 001.581 3.389c.581 1.195 1.17 2.391 1.769 3.588l.311.62.311-.621a179.021 179.021 0 003.3-6.976h8.967a589.105 589.105 0 01-3.564 5.816 294.886 294.886 0 01-4.077 6.391l-.128.194.132.193a683.024 683.024 0 014.404 6.493 321.219 321.219 0 014.014 6.156h-9.263zM155.397 120.693v-18.37h-3.933v-6.475h3.933v-1.043a13.345 13.345 0 011.256-6.042 8.757 8.757 0 013.618-3.785 11.674 11.674 0 015.73-1.327c.973-.002 1.944.08 2.903.244.814.142 1.61.37 2.376.682v6.402a7.822 7.822 0 00-1.27-.397 8.631 8.631 0 00-1.868-.207 4.121 4.121 0 00-3.115 1.08 4.35 4.35 0 00-1.016 3.101v1.293h5.676v6.475h-5.676v18.37l-8.614-.001zM184.721 121.34a14.959 14.959 0 01-5.376-.923 11.271 11.271 0 01-4.082-2.656 11.706 11.706 0 01-2.587-4.184 15.903 15.903 0 01-.9-5.481 15.007 15.007 0 011.578-7.081 11.123 11.123 0 014.467-4.59 15.475 15.475 0 0113.801 0 11.13 11.13 0 014.467 4.59 15.024 15.024 0 011.578 7.081 15.953 15.953 0 01-.899 5.481 11.716 11.716 0 01-2.587 4.183 11.268 11.268 0 01-4.082 2.658 14.998 14.998 0 01-5.378.922zm0-19.815a3.566 3.566 0 00-3.156 1.753 9.123 9.123 0 00-1.074 4.868 8.797 8.797 0 001.074 4.718 3.74 3.74 0 006.338-.002 8.954 8.954 0 001.049-4.716 9.297 9.297 0 00-1.049-4.864 3.546 3.546 0 00-3.182-1.757zM201.595 120.693V95.45h7.318l.701 4.855.501-.902c1.643-2.963 3.709-4.402 6.318-4.402a6.402 6.402 0 012.64.52v7.337a4.926 4.926 0 00-1.039-.376 7.886 7.886 0 00-1.849-.209 7.538 7.538 0 00-3.287.681 7.816 7.816 0 00-2.607 2.133l-.079.096v15.51h-8.617zM231.518 121.34a9.405 9.405 0 01-5.356-1.533 9.99 9.99 0 01-3.535-4.406 19.043 19.043 0 01.219-14.198 11.008 11.008 0 014.199-4.735 12.315 12.315 0 016.516-1.666c1.3-.014 2.591.215 3.807.674l.473.183V84.298h8.616v36.395h-7.319l-.472-3.249-.501.644a8.153 8.153 0 01-3.006 2.487 8.718 8.718 0 01-3.641.765zm3.536-19.714a4.36 4.36 0 00-3.714 1.758 8.112 8.112 0 00-1.263 4.862 8.571 8.571 0 001.026 4.593 3.526 3.526 0 003.156 1.677 4.453 4.453 0 003.497-1.612l.085-.099v-10.497l-.191-.098a5.25 5.25 0 00-1.252-.452 6.33 6.33 0 00-1.344-.132z"/></g></g></svg>
