<svg xmlns="http://www.w3.org/2000/svg" viewBox="0 0 332 166" width="332" height="166"><path fill="#542582" d="M0 0h332v166H0z"/><g fill="#FFF"><path d="M157.302 42.585c-.147-.026-.298-.05-.454-.074l-.181-.026a17.344 17.344 0 00-.78-.091 25.385 25.385 0 00-.535-.038 14.932 14.932 0 00-1.287-.025c-.252.005-.5.016-.744.033a13.07 13.07 0 00-.409.031 20.65 20.65 0 00-.592.064l-.164.023-.18.026-.222.035c-.097.015-.193.033-.288.05-.134.023-.263.05-.393.076-.754.159-1.494.38-2.213.658a12.938 12.938 0 00-1.779.85 12.801 12.801 0 00-1.062.683 11.07 11.07 0 00-.918.731c-.18.158-.356.319-.518.483-.139.14-.281.282-.414.431s-.269.303-.397.461a11.294 11.294 0 00-.689.944c-.061.095-.123.191-.183.288a11.373 11.373 0 00-1.575 4.463c-.04.293-.07.592-.087.897-.014.233-.023.47-.023.71 0 .18.001.357.014.534.012.183.026.364.046.544l.014.125c.029.214.06.425.101.631.015.082.033.162.049.243a10.326 10.326 0 00.314 1.149 11.566 11.566 0 001.452 2.897 10.715 10.715 0 00.835 1.067c.179.206.357.394.532.567l.094.091c.145.14.301.289.481.442.123.104.249.215.387.323.128.101.262.204.403.307a12.686 12.686 0 001.172.75 12.704 12.704 0 002.754 1.14 14.072 14.072 0 002.289.458c.367.045.748.079 1.142.098.189.01.385.018.583.02.089.001.18.004.273.004.705 0 1.358-.027 1.963-.078l.118-.011a17.517 17.517 0 001.688-.225 17.347 17.347 0 002.585-.673l.191-.067c.095-.034.225-.08.378-.139.2-.079.446-.176.723-.295a22.153 22.153 0 001.039-.479c.074-.035.146-.07.221-.108V59.28l-.154.093-.295.179a18.672 18.672 0 01-1.785.971c-.533.252-1.042.464-1.538.641-.833.301-1.69.53-2.562.684-.089.016-.178.03-.266.044a14.166 14.166 0 01-1.435.142c-.162.005-.315.01-.457.01-.304 0-.62-.007-.939-.03a12.768 12.768 0 01-1.143-.134 10.664 10.664 0 01-1.86-.484c-.091-.034-.181-.07-.271-.105l-.175-.072a8.017 8.017 0 01-.923-.454 8.78 8.78 0 01-.608-.384 7.283 7.283 0 01-.711-.552l-.142-.127-.071-.065-.042-.041-.052-.05a8.055 8.055 0 01-.791-.909 7.026 7.026 0 01-.653-1.078 7.06 7.06 0 01-.549-1.505 8 8 0 01-.232-1.585 9.678 9.678 0 01-.006-.716 7.976 7.976 0 01.348-2.097c.046-.153.102-.305.162-.465.039-.106.085-.213.131-.32a7.596 7.596 0 011.525-2.258 8.816 8.816 0 013.468-2.139 9.401 9.401 0 01.934-.263 9.15 9.15 0 01.455-.091c.166-.033.334-.056.497-.079a10.796 10.796 0 011.418-.094c.102 0 .2-.001.3.001.222.007.44.014.654.026.147.011.29.02.434.034.271.025.535.059.783.095a14.676 14.676 0 012.833.735c.213.075.419.158.622.24.274.109.536.228.787.342.209.093.405.191.592.282.154.075.298.15.432.22.236.123.435.233.6.32l.439.24v-4.23s-.264-.108-.72-.281c-.203-.076-.439-.166-.712-.262-.149-.053-.307-.11-.476-.168-.134-.045-.27-.093-.416-.139-.161-.052-.327-.108-.5-.16-.124-.037-.252-.076-.38-.113l-.116-.033c-.126-.035-.254-.072-.383-.106a18.59 18.59 0 00-.466-.12c-.102-.026-.203-.049-.305-.074a25.247 25.247 0 00-1.034-.211m-21.146-4.395h33.566v31.588h-33.566V38.19zM110.359 55.609v6.208h4.03l.213-.007c.136-.005.328-.012.56-.033a6.967 6.967 0 001.573-.309 3.53 3.53 0 001.376-.803c.137-.135.257-.286.36-.449.244-.389.387-.833.414-1.291.01-.124.008-.196.008-.196s.003-.056 0-.153a2.834 2.834 0 00-.083-.601 2.494 2.494 0 00-.47-.949 3.067 3.067 0 00-.517-.488 3.841 3.841 0 00-.747-.421 5.886 5.886 0 00-1.213-.357 8.97 8.97 0 00-1.181-.135 7.488 7.488 0 00-.427-.014l-3.896-.002M110.359 46.172v5.884h1.952s.13 0 .301-.006c.135-.003.296-.012.44-.019a7.891 7.891 0 001.512-.243c.108-.03.217-.064.323-.101a3.19 3.19 0 001.179-.702 2.42 2.42 0 00.541-.81c.113-.284.182-.584.206-.889.018-.203.018-.333.018-.333s.004-.097-.004-.251a2.799 2.799 0 00-.269-1.074 2.186 2.186 0 00-.413-.556 2.53 2.53 0 00-.772-.508 5.198 5.198 0 00-1.708-.375 9.427 9.427 0 00-.619-.018l-2.687.001z"/><path d="M106.284 42.618v22.751h8.564s4.176.115 6.481-2.191a5.687 5.687 0 00.152-8.041l-.013-.014a7.465 7.465 0 00-3.371-1.875 6.097 6.097 0 001.51-1.056 4.68 4.68 0 001.4-3.69 5.295 5.295 0 00-1.607-3.803s-1.76-2.082-5.734-2.082l-7.382.001zm-8.805-4.428h33.564v31.588H97.479V38.19zM71.683 55.609v6.208h4.03l.213-.007c.136-.005.328-.012.559-.033a6.995 6.995 0 001.575-.309 3.53 3.53 0 001.376-.803c.136-.136.256-.287.36-.449.244-.389.386-.833.413-1.291.011-.124.01-.196.01-.196s.002-.056 0-.153a2.969 2.969 0 00-.083-.601 2.509 2.509 0 00-.47-.949 2.998 2.998 0 00-.518-.488 3.841 3.841 0 00-.747-.421 5.765 5.765 0 00-1.213-.357 8.945 8.945 0 00-1.181-.135 7.387 7.387 0 00-.425-.014l-3.899-.002M71.683 46.172v5.884h1.952s.128 0 .301-.006c.135-.003.294-.012.439-.019a7.901 7.901 0 001.513-.243c.108-.03.217-.064.323-.101a3.211 3.211 0 001.179-.702c.234-.23.417-.506.54-.81.114-.284.184-.584.207-.889.018-.203.016-.333.016-.333a2.336 2.336 0 00-.004-.251 2.741 2.741 0 00-.269-1.074 2.107 2.107 0 00-.413-.556 2.496 2.496 0 00-.771-.508 5.165 5.165 0 00-1.707-.374 9.427 9.427 0 00-.619-.018h-2.687z"/><path d="M67.607 42.618v22.751h8.564s4.176.115 6.481-2.191a5.685 5.685 0 00.156-8.039l-.015-.016a7.465 7.465 0 00-3.371-1.875 6.147 6.147 0 001.511-1.056 4.68 4.68 0 001.4-3.69 5.295 5.295 0 00-1.607-3.803s-1.76-2.082-5.734-2.082l-7.385.001zm-8.804-4.428h33.564v31.588H58.803V38.19zM177.901 65.367V42.626h7.347c2.904 0 5.12.583 6.647 1.75a5.971 5.971 0 012.289 5.055 6.123 6.123 0 01-1.239 3.881 7.044 7.044 0 01-3.531 2.322c2.12 3.16 4.166 6.404 6.139 9.732h-3.658a185.783 185.783 0 00-2.72-4.628 167.612 167.612 0 00-2.878-4.563c-.34.02-.7.031-1.082.031h-4.197v9.16l-3.117.001zm3.116-11.703h3.975a7.89 7.89 0 004.517-1.051 3.624 3.624 0 001.494-3.181c0-2.84-1.993-4.26-5.979-4.26h-4.007v8.492zM210.023 42.626a434.469 434.469 0 014.788 11.354 763.143 763.143 0 014.5 11.388h-3.371c-.382-1.039-.758-2.067-1.129-3.085a418.623 418.623 0 00-1.129-3.054h-10.687a322.12 322.12 0 00-2.259 6.139h-3.276a524.112 524.112 0 014.564-11.674 370.934 370.934 0 014.691-11.067h3.308zm-6.011 13.93h8.651a815.88 815.88 0 00-2.162-5.471c-.722-1.801-1.444-3.592-2.163-5.374-.743 1.802-1.475 3.604-2.195 5.407s-1.43 3.615-2.131 5.438M221.729 42.626h7.919a12.844 12.844 0 016.042 1.32 9.107 9.107 0 013.865 3.834 12.805 12.805 0 011.351 6.139 13.104 13.104 0 01-1.351 6.185 9.21 9.21 0 01-3.881 3.913 12.69 12.69 0 01-6.059 1.351h-7.887V42.626zm7.664 20.069a8.05 8.05 0 006.106-2.226c1.421-1.485 2.131-3.668 2.132-6.551 0-2.841-.705-4.988-2.116-6.442a8.1 8.1 0 00-6.091-2.18h-4.548v17.398h4.517zM244.534 42.626h3.149v22.741h-3.149zM262.28 42.149c1.54-.021 3.069.26 4.501.826a9.73 9.73 0 013.467 2.386 10.56 10.56 0 012.21 3.738c.528 1.573.785 3.223.762 4.882.023 1.66-.24 3.312-.778 4.883a10.856 10.856 0 01-2.21 3.737 9.686 9.686 0 01-3.451 2.401 12.448 12.448 0 01-9.002 0 9.682 9.682 0 01-3.451-2.401 10.859 10.859 0 01-2.211-3.737 14.43 14.43 0 01-.778-4.883c-.023-1.659.235-3.31.763-4.882a10.537 10.537 0 012.21-3.738 9.708 9.708 0 013.467-2.386 11.814 11.814 0 014.501-.826m0 20.96a7.468 7.468 0 004.103-1.097 7.05 7.05 0 002.639-3.148 11.84 11.84 0 00.923-4.883 11.727 11.727 0 00-.923-4.867 7.074 7.074 0 00-2.639-3.132 8.192 8.192 0 00-8.191 0 7.015 7.015 0 00-2.654 3.132 11.727 11.727 0 00-.923 4.867 11.836 11.836 0 00.923 4.883 7.007 7.007 0 002.654 3.148 7.49 7.49 0 004.088 1.097M98.845 120.357a759.226 759.226 0 00-6.449-10.761 1255.653 1255.653 0 00-6.599-10.683l-.642-1.027v22.471H76.59V85.455h9.222a518.897 518.897 0 016.514 10.29 849.63 849.63 0 016.519 10.748l.646 1.083V85.455h8.566v34.902h-9.212zM125.181 121.004a14.98 14.98 0 01-5.376-.923 11.229 11.229 0 01-4.082-2.656 11.72 11.72 0 01-2.587-4.184 15.908 15.908 0 01-.9-5.482 15.008 15.008 0 011.578-7.08 11.094 11.094 0 014.467-4.588 15.47 15.47 0 0113.799 0 11.087 11.087 0 014.469 4.588 15.03 15.03 0 011.576 7.08 15.934 15.934 0 01-.898 5.482 11.791 11.791 0 01-2.588 4.185 11.234 11.234 0 01-4.082 2.655 14.984 14.984 0 01-5.376.923zm0-19.814a3.56 3.56 0 00-3.156 1.753 9.121 9.121 0 00-1.075 4.868 8.767 8.767 0 001.075 4.717 3.74 3.74 0 006.338-.002 8.95 8.95 0 001.049-4.714 9.299 9.299 0 00-1.049-4.865 3.544 3.544 0 00-3.182-1.757zM142.106 120.357V95.113h7.318l.701 4.855.501-.902c1.643-2.962 3.709-4.401 6.318-4.401a6.418 6.418 0 012.64.52v7.338a4.924 4.924 0 00-1.04-.379 7.984 7.984 0 00-1.848-.208 7.538 7.538 0 00-3.287.681 7.8 7.8 0 00-2.607 2.135l-.079.095v15.509l-8.617.001zM165.854 120.357v-18.371h-3.933v-6.474h3.933v-1.045a13.345 13.345 0 011.258-6.041 8.768 8.768 0 013.617-3.786 11.693 11.693 0 015.732-1.325c.972-.003 1.943.078 2.902.243.814.142 1.611.372 2.376.685v6.401a7.638 7.638 0 00-1.268-.397 8.695 8.695 0 00-1.868-.208 4.128 4.128 0 00-3.115 1.078 4.358 4.358 0 00-1.016 3.103v1.293h5.675v6.474h-5.675v18.371l-8.618-.001zM195.178 121.004a14.98 14.98 0 01-5.376-.923 11.229 11.229 0 01-4.082-2.656 11.722 11.722 0 01-2.588-4.184 15.908 15.908 0 01-.9-5.482 15.032 15.032 0 011.578-7.08 11.081 11.081 0 014.469-4.588 15.47 15.47 0 0113.799 0 11.088 11.088 0 014.467 4.588 15.032 15.032 0 011.578 7.08 15.885 15.885 0 01-.9 5.482 11.775 11.775 0 01-2.587 4.185 11.269 11.269 0 01-4.082 2.655 14.984 14.984 0 01-5.376.923zm0-19.814a3.56 3.56 0 00-3.156 1.753 9.113 9.113 0 00-1.076 4.868 8.766 8.766 0 001.076 4.717 3.74 3.74 0 006.336-.002 8.95 8.95 0 001.049-4.714 9.299 9.299 0 00-1.049-4.865 3.54 3.54 0 00-3.18-1.757zM219.722 120.804c-2.477 0-4.333-.657-5.519-1.952-1.195-1.305-1.802-3.329-1.802-6.014V83.961h8.616v27.881a2.67 2.67 0 00.537 1.825 2.182 2.182 0 001.701.613 4.945 4.945 0 001.644-.278v6.06a15.856 15.856 0 01-5.177.742zM245.811 120.357a285.338 285.338 0 00-3.04-5.209 125.26 125.26 0 00-3.096-4.892l-.103-.155h-2.127v10.256h-8.615V83.961h8.615v19.864h2.169l.105-.146a121.455 121.455 0 002.971-4.367c.879-1.361 1.767-2.76 2.663-4.199h8.998l-3.75 5.353a212.116 212.116 0 01-4.174 5.741l-.149.198.138.205a671.346 671.346 0 014.726 7.091 828.13 828.13 0 014.334 6.656h-9.665z"/></g></svg>
