<svg xmlns="http://www.w3.org/2000/svg" viewBox="10 10 322 156" width="332" height="166"><path fill="#542582" d="M0 0h332v166H0z"/><g fill="#FFF"><path d="M39.625 117.42c-2.01.03-4.009-.293-5.907-.955a12.108 12.108 0 01-4.398-2.74 11.79 11.79 0 01-2.756-4.377 17.054 17.054 0 01-.954-5.867 15.5 15.5 0 011.01-5.709 12.336 12.336 0 012.889-4.381 12.974 12.974 0 014.516-2.818 16.78 16.78 0 015.904-.992 17.646 17.646 0 017.617 1.576v6.052a11.855 11.855 0 00-2.839-1.257 12.995 12.995 0 00-3.635-.504 8.527 8.527 0 00-6.106 2.091 7.87 7.87 0 00-2.195 5.943 8.094 8.094 0 002.115 5.957 8.037 8.037 0 005.919 2.114 14.23 14.23 0 003.823-.503 14.793 14.793 0 003.223-1.357v5.964a16.59 16.59 0 01-3.659 1.274 20.5 20.5 0 01-4.567.489zM57.257 117.343a7.028 7.028 0 01-3.229-.693 4.908 4.908 0 01-2.062-1.952 6.026 6.026 0 01-.726-3.029 5.065 5.065 0 012.247-4.466 11.565 11.565 0 016.589-1.59 14.786 14.786 0 012.058.149l.302.042v-.608a3.089 3.089 0 00-.952-2.488 4.525 4.525 0 00-2.97-.787 10.816 10.816 0 00-3.221.469c-.889.283-1.74.677-2.53 1.174v-5.051a16.767 16.767 0 016.855-1.468c2.989 0 5.274.7 6.791 2.083 1.509 1.375 2.274 3.442 2.274 6.144v6.322c-.02.37.058.739.228 1.069.207.317.574.493.952.454.233.001.465-.036.686-.111v3.528a6.66 6.66 0 01-1.449.493 8.538 8.538 0 01-1.865.203c-2.143 0-3.549-.617-4.182-1.837l-.156-.3-.254.222a8.403 8.403 0 01-2.474 1.513 7.957 7.957 0 01-2.912.515zm3.35-8.681a4.06 4.06 0 00-2.342.542 2.036 2.036 0 00-.818 1.781c0 .955.403 2.092 2.322 2.092a3.582 3.582 0 002.587-1.143l.078-.078v-2.995l-.214-.043a8.312 8.312 0 00-1.613-.156zM96.159 116.849v-11.998c0-2.139-1.18-2.588-2.169-2.588a3.18 3.18 0 00-2.613 1.439l-.052.071v13.076h-6.59v-11.998c0-2.139-1.18-2.588-2.17-2.588a3.203 3.203 0 00-2.61 1.4l-.055.07v13.116h-6.589V97.54h5.598l.397 2.649.38-.461a6.767 6.767 0 015.392-2.685c2.532 0 4.261.938 5.287 2.868l.19.357.252-.315a7.072 7.072 0 015.696-2.91 5.729 5.729 0 014.632 1.906 8.678 8.678 0 011.614 5.673v12.226l-6.59.001zM114.667 117.343a18.595 18.595 0 01-3.942-.432 23.752 23.752 0 01-4.055-1.306V89.01h6.589v10.43l.461-.499a5.838 5.838 0 011.967-1.423 6.221 6.221 0 012.483-.474 7.017 7.017 0 014.076 1.191 7.711 7.711 0 012.668 3.371 13.19 13.19 0 01.95 5.227 11.713 11.713 0 01-1.299 5.734 8.537 8.537 0 01-3.769 3.547 13.839 13.839 0 01-6.129 1.229zm1.371-15.08a3.41 3.41 0 00-2.717 1.275l-.062.075v8.173l.185.059a6.42 6.42 0 001.947.28 3.334 3.334 0 002.842-1.347 6.126 6.126 0 00.965-3.68 6.79 6.79 0 00-.764-3.548 2.652 2.652 0 00-2.396-1.287zM129.236 116.849V97.54h5.596l.539 3.714.382-.69c1.256-2.265 2.836-3.366 4.833-3.366a4.94 4.94 0 012.018.396v5.613a3.687 3.687 0 00-.795-.288 6.066 6.066 0 00-1.414-.159 5.761 5.761 0 00-2.514.52 6.01 6.01 0 00-1.994 1.631l-.06.074v11.865l-6.591-.001zM145.65 116.849V97.54h6.589v19.31l-6.589-.001zm3.276-22.011a4.12 4.12 0 01-2.742-.831 3.325 3.325 0 010-4.662 4.12 4.12 0 012.742-.83 4.176 4.176 0 012.779.831 3.324 3.324 0 010 4.661c-.797.6-1.783.895-2.779.831zM163.369 117.343a7.194 7.194 0 01-4.098-1.173 7.63 7.63 0 01-2.703-3.37 14.55 14.55 0 01.167-10.859 8.407 8.407 0 013.211-3.623 9.42 9.42 0 014.984-1.274 7.978 7.978 0 012.912.516l.362.14v-8.69h6.59v27.839h-5.597l-.361-2.483-.383.492a6.265 6.265 0 01-2.301 1.901 6.656 6.656 0 01-2.783.584zm2.704-15.08a3.334 3.334 0 00-2.841 1.345 6.204 6.204 0 00-.966 3.719 6.568 6.568 0 00.785 3.514 2.7 2.7 0 002.414 1.285 3.406 3.406 0 002.675-1.235l.065-.076v-8.031l-.147-.074a4.156 4.156 0 00-.956-.346 5.015 5.015 0 00-1.029-.101zM186.701 125.95a16.313 16.313 0 01-6.969-1.385v-5.176c.833.428 1.711.761 2.619.991a13.36 13.36 0 003.36.427 5.969 5.969 0 003.825-1.032 3.818 3.818 0 001.277-3.117v-2.328l-.456.466a5.946 5.946 0 01-4.419 1.786 7.044 7.044 0 01-6.782-4.392 12.335 12.335 0 01-.948-5.014 10.923 10.923 0 011.297-5.523 8.44 8.44 0 013.768-3.415 14.204 14.204 0 016.132-1.194c1.319.003 2.634.148 3.923.432 1.393.32 2.756.757 4.075 1.309v17.569c0 3.131-.912 5.537-2.71 7.151-1.808 1.622-4.497 2.445-7.992 2.445zm1.981-23.687a3.462 3.462 0 00-2.833 1.22 5.323 5.323 0 00-.974 3.424 5.725 5.725 0 00.79 3.275 2.761 2.761 0 002.408 1.181 3.51 3.51 0 002.67-1.152l.072-.076V102.6l-.188-.058a6.713 6.713 0 00-1.945-.279zM211.306 117.343a12.776 12.776 0 01-5.764-1.19 8.104 8.104 0 01-3.56-3.43c-.86-1.706-1.28-3.6-1.225-5.51-.02-1.439.207-2.871.669-4.234a9.052 9.052 0 011.924-3.2 8.394 8.394 0 013.009-2.03 10.635 10.635 0 013.957-.706 9.186 9.186 0 014.72 1.144 7.247 7.247 0 012.92 3.329 13.182 13.182 0 011.005 5.431v1.409h-12.039l.047.305a4.189 4.189 0 001.637 3.019 6.878 6.878 0 003.843.862c1.066.01 2.129-.108 3.167-.35a12.909 12.909 0 002.47-.896v4.836c-.987.378-2.005.67-3.042.873a19.305 19.305 0 01-3.738.338zm-1.066-15.993c-1.795 0-2.883 1.19-3.234 3.538l-.046.305h6.158l-.025-.288a4.943 4.943 0 00-.837-2.675 2.448 2.448 0 00-2.016-.88zM228.671 117.343a17.507 17.507 0 01-6.589-1.245v-4.776c.861.462 1.769.829 2.708 1.097 1.013.3 2.063.458 3.119.469a5.443 5.443 0 002.307-.371c.517-.207.856-.709.853-1.266a1.232 1.232 0 00-.785-1.176 9.049 9.049 0 00-1.669-.53 18.095 18.095 0 01-4.031-1.385 4.962 4.962 0 01-2.119-1.913 5.823 5.823 0 01-.652-2.878 5.587 5.587 0 011.016-3.365 6.557 6.557 0 012.913-2.177 12.21 12.21 0 014.602-.781c1.159 0 2.315.12 3.449.358a13.33 13.33 0 012.912.954v4.696a9.14 9.14 0 00-2.401-1.082 11.104 11.104 0 00-3.083-.467 5.297 5.297 0 00-2.188.366 1.327 1.327 0 00-.897 1.232c-.01.291.087.576.273.801.23.24.521.413.842.499.347.115.83.25 1.447.406 1.373.263 2.705.71 3.959 1.328a5.21 5.21 0 012.141 1.936c.469.87.7 1.849.669 2.837a5.886 5.886 0 01-1.036 3.52 6.298 6.298 0 01-2.981 2.171 13.642 13.642 0 01-4.779.742zM252.204 116.849v-11.998c0-2.139-1.263-2.588-2.322-2.588a3.478 3.478 0 00-2.836 1.396l-.057.073v13.118h-6.59V89.01h6.59v10.497l.451-.443a6.798 6.798 0 014.917-2.02 5.984 5.984 0 014.788 1.908 8.545 8.545 0 011.649 5.671v12.226h-6.59zM262.713 116.849V97.54h6.59v19.31l-6.59-.001zm3.276-22.011a4.118 4.118 0 01-2.741-.831 3.327 3.327 0 010-4.662 4.117 4.117 0 012.741-.83 4.176 4.176 0 012.779.831 3.324 3.324 0 010 4.661c-.797.6-1.783.895-2.779.831zM273.376 116.849V97.54h5.597l.536 3.714.383-.69c1.257-2.265 2.837-3.366 4.832-3.366a4.942 4.942 0 012.019.396v5.613a3.715 3.715 0 00-.796-.288 6.057 6.057 0 00-1.413-.159 5.761 5.761 0 00-2.514.52 6.002 6.002 0 00-1.995 1.631l-.06.074v11.865l-6.589-.001zM298.739 117.343a12.776 12.776 0 01-5.764-1.19 8.104 8.104 0 01-3.56-3.43c-.86-1.706-1.28-3.6-1.224-5.51-.02-1.439.207-2.871.669-4.234a9.052 9.052 0 011.924-3.2 8.394 8.394 0 013.009-2.03 10.635 10.635 0 013.957-.706 9.183 9.183 0 014.72 1.144 7.247 7.247 0 012.92 3.329 13.165 13.165 0 011.004 5.431v1.409h-12.04l.047.305a4.189 4.189 0 001.637 3.019 6.878 6.878 0 003.843.862c1.066.01 2.129-.108 3.167-.35a12.909 12.909 0 002.47-.896v4.836c-.987.378-2.005.67-3.043.873a19.263 19.263 0 01-3.736.338zm-1.066-15.993c-1.795 0-2.883 1.19-3.233 3.538l-.046.305h6.158l-.025-.288a4.943 4.943 0 00-.837-2.675 2.449 2.449 0 00-2.017-.88z"/><g><path d="M157.813 47.208c-.147-.026-.297-.05-.453-.074l-.181-.026a17.39 17.39 0 00-.781-.091 24.378 24.378 0 00-.534-.038 14.909 14.909 0 00-1.286-.025 16.388 16.388 0 00-1.155.064c-.2.018-.397.041-.592.064l-.162.023-.18.026-.224.035c-.095.015-.192.033-.288.05-.132.023-.262.05-.391.076-.755.159-1.495.379-2.214.658a12.913 12.913 0 00-1.778.85 12.062 12.062 0 00-1.062.683c-.105.076-.209.151-.309.229a11.933 11.933 0 00-1.541 1.416 10.654 10.654 0 00-1.087 1.405 11.146 11.146 0 00-1.092 2.127 11.369 11.369 0 00-.665 2.624 11.838 11.838 0 00-.099 2.141c.012.183.027.364.048.544l.014.125c.027.214.06.425.1.631l.05.243a9.99 9.99 0 00.313 1.149 11.566 11.566 0 001.452 2.897 11.313 11.313 0 00.833 1.067c.18.206.36.394.532.567l.096.091c.145.14.301.289.48.442.123.104.25.215.39.323a11.346 11.346 0 001.574 1.057 12.704 12.704 0 002.753 1.14c.386.112.792.209 1.22.292a16.787 16.787 0 002.794.284c.09.001.181.004.273.004.705 0 1.359-.027 1.963-.078l.119-.011a18.62 18.62 0 003.092-.537c.192-.05.38-.105.56-.158.214-.065.424-.135.62-.203l.192-.067c.094-.034.225-.08.376-.139a22.153 22.153 0 001.983-.882V63.9a5.644 5.644 0 01-.153.093l-.296.179a18.216 18.216 0 01-1.784.971c-.533.252-1.043.464-1.539.641-.832.3-1.688.529-2.559.684-.091.016-.18.03-.269.044a14.196 14.196 0 01-1.435.142c-.164.005-.316.01-.455.01-.307 0-.622-.007-.941-.03-.375-.029-.758-.07-1.143-.134a10.652 10.652 0 01-1.861-.484l-.27-.105-.176-.072a8.717 8.717 0 01-1.226-.637 12.243 12.243 0 01-.304-.2 6.828 6.828 0 01-.372-.274 7.362 7.362 0 01-.337-.278l-.143-.127-.071-.065-.041-.041-.053-.05a8.525 8.525 0 01-.532-.579 6.83 6.83 0 01-.256-.33 7.112 7.112 0 01-.224-.319 6.723 6.723 0 01-.431-.759 7.707 7.707 0 01-.416-1.028 7.998 7.998 0 01-.364-2.062 7.472 7.472 0 01-.005-.716c.009-.306.036-.612.079-.915a8.426 8.426 0 01.269-1.182c.048-.153.104-.305.162-.465a7.763 7.763 0 01.342-.759c.057-.112.12-.221.184-.333a7.223 7.223 0 01.689-.991c.091-.109.187-.224.286-.33.053-.055.104-.112.157-.165a8.85 8.85 0 013.468-2.139 8.303 8.303 0 01.934-.263c.153-.034.305-.064.455-.091.166-.033.333-.056.498-.079s.333-.04.495-.053c.315-.027.623-.041.923-.041.102 0 .2-.001.298.001.224.007.442.014.654.026.149.011.293.02.435.034a14.089 14.089 0 012.718.533 11.743 11.743 0 01.895.297c.213.075.42.158.623.24.274.109.534.228.787.342.209.093.405.191.592.282.154.075.297.15.434.22.233.123.434.233.597.32l.439.24v-4.23s-.264-.108-.72-.281a32.65 32.65 0 00-.71-.262c-.15-.053-.307-.111-.476-.168-.135-.045-.271-.093-.416-.139-.161-.052-.329-.108-.5-.16-.124-.037-.252-.076-.382-.113l-.115-.033c-.125-.035-.253-.072-.384-.106a18.59 18.59 0 00-.466-.12c-.101-.026-.202-.049-.305-.074a21.34 21.34 0 00-1.037-.211m-21.143-4.391h33.566V74.4h-33.566V42.815zM110.872 60.231v6.209h4.03l.211-.007c.138-.006.33-.012.56-.033a6.942 6.942 0 001.575-.31 3.53 3.53 0 001.376-.803c.136-.136.256-.287.36-.449.244-.389.386-.833.413-1.291.01-.124.01-.196.01-.196s.001-.056-.001-.153a2.834 2.834 0 00-.083-.601 2.478 2.478 0 00-.469-.949 3.077 3.077 0 00-.518-.488 3.841 3.841 0 00-.747-.421 5.765 5.765 0 00-1.213-.357 8.945 8.945 0 00-1.181-.135 7.387 7.387 0 00-.425-.014c-1.432.001-3.898-.001-3.898-.002M110.872 50.794v5.884h1.951s.13 0 .303-.006c.135-.003.295-.012.439-.019a7.891 7.891 0 001.512-.243 5.07 5.07 0 00.324-.101 3.211 3.211 0 001.179-.702c.234-.23.417-.506.54-.81a2.99 2.99 0 00.206-.889c.019-.203.018-.333.018-.333s.004-.097-.004-.251a2.741 2.741 0 00-.269-1.074 2.163 2.163 0 00-.413-.556 2.49 2.49 0 00-.772-.508 5.167 5.167 0 00-1.707-.375 9.427 9.427 0 00-.619-.018l-2.688.001z"/><path d="M106.796 47.241v22.751h8.564s4.176.115 6.482-2.191a5.687 5.687 0 00.152-8.041l-.013-.014a7.465 7.465 0 00-3.371-1.875 6.147 6.147 0 001.511-1.056 4.684 4.684 0 001.399-3.69 5.298 5.298 0 00-1.606-3.802s-1.759-2.082-5.734-2.082h-7.384zm-8.804-4.428h33.564V74.4H97.992V42.813zM72.195 60.231v6.209h4.031l.211-.007c.138-.006.33-.012.56-.033a6.904 6.904 0 001.573-.31 3.522 3.522 0 001.376-.803c.137-.135.257-.286.36-.449.244-.389.387-.833.414-1.291.01-.124.008-.196.008-.196s.003-.056 0-.153a2.834 2.834 0 00-.083-.601 2.459 2.459 0 00-.625-1.123 3.077 3.077 0 00-.361-.314 3.841 3.841 0 00-.747-.421 5.765 5.765 0 00-1.213-.357 9.01 9.01 0 00-1.181-.135 7.448 7.448 0 00-.425-.014c-1.43.001-3.898-.001-3.898-.002M72.195 50.794v5.884h1.952s.13 0 .301-.006c.136-.003.296-.012.44-.019a7.891 7.891 0 001.512-.243c.108-.03.217-.064.325-.101a3.199 3.199 0 001.178-.702c.234-.23.418-.506.541-.81.114-.284.183-.583.206-.888.019-.203.018-.333.018-.333s.004-.097-.004-.251a2.741 2.741 0 00-.269-1.074 2.186 2.186 0 00-.413-.556 2.53 2.53 0 00-.772-.508 5.192 5.192 0 00-1.707-.375 9.427 9.427 0 00-.619-.018h-2.689z"/><path d="M68.12 47.241v22.751h8.564s4.176.115 6.481-2.191a5.688 5.688 0 00.151-8.043l-.011-.011a7.465 7.465 0 00-3.371-1.875 6.147 6.147 0 001.511-1.056 4.687 4.687 0 001.399-3.69 5.293 5.293 0 00-1.607-3.802s-1.759-2.082-5.733-2.082l-7.384-.001zm-8.804-4.428H92.88V74.4H59.316V42.813zM178.413 69.99V47.249h7.348c2.904 0 5.119.583 6.646 1.75a5.968 5.968 0 012.29 5.055 6.117 6.117 0 01-1.241 3.881 7.044 7.044 0 01-3.531 2.322 203.417 203.417 0 016.139 9.733h-3.658a170.098 170.098 0 00-5.598-9.192c-.339.02-.7.031-1.081.031h-4.198v9.16l-3.116.001zm3.116-11.704h3.977a7.883 7.883 0 004.515-1.051 3.624 3.624 0 001.496-3.181c0-2.84-1.993-4.26-5.98-4.26h-4.008v8.492zM210.536 47.249a441.38 441.38 0 014.786 11.354 742.209 742.209 0 014.502 11.388h-3.373l-1.129-3.085a418.623 418.623 0 00-1.129-3.054h-10.687a344.015 344.015 0 00-2.258 6.139h-3.277a539.113 539.113 0 014.566-11.674 365.76 365.76 0 014.69-11.067l3.309-.001zm-6.011 13.93h8.652a911.485 911.485 0 00-2.164-5.471 1814.59 1814.59 0 00-2.162-5.374 546.875 546.875 0 00-2.196 5.407c-.72 1.802-1.43 3.615-2.13 5.438M222.24 47.249h7.921a12.844 12.844 0 016.042 1.32 9.113 9.113 0 013.865 3.834 12.82 12.82 0 011.351 6.139 13.116 13.116 0 01-1.351 6.185 9.221 9.221 0 01-3.881 3.913 12.69 12.69 0 01-6.059 1.351h-7.888V47.249zm7.666 20.069a8.058 8.058 0 006.106-2.226c1.421-1.485 2.131-3.668 2.131-6.551 0-2.841-.705-4.988-2.115-6.442a8.1 8.1 0 00-6.091-2.18h-4.547v17.399h4.516zM245.045 47.249h3.149V69.99h-3.149zM262.793 46.771c1.54-.021 3.068.26 4.5.826a9.73 9.73 0 013.467 2.386 10.554 10.554 0 012.211 3.738c.528 1.573.785 3.223.762 4.882.023 1.66-.24 3.312-.778 4.883a10.909 10.909 0 01-2.211 3.737 9.677 9.677 0 01-3.451 2.401 12.448 12.448 0 01-9.002 0 9.682 9.682 0 01-3.45-2.401 10.881 10.881 0 01-2.21-3.737 14.43 14.43 0 01-.778-4.883 14.698 14.698 0 01.762-4.882 10.537 10.537 0 012.21-3.738 9.73 9.73 0 013.467-2.386 11.826 11.826 0 014.501-.826m0 20.961a7.468 7.468 0 004.103-1.097 7.054 7.054 0 002.638-3.148 11.84 11.84 0 00.923-4.883 11.727 11.727 0 00-.923-4.867 7.072 7.072 0 00-2.638-3.132 8.192 8.192 0 00-8.191 0 7.031 7.031 0 00-2.656 3.132 11.727 11.727 0 00-.923 4.867 11.836 11.836 0 00.923 4.883 7.018 7.018 0 002.656 3.148 7.495 7.495 0 004.088 1.097"/></g></g></svg>
