<svg xmlns="http://www.w3.org/2000/svg" viewBox="0 0 332 166" width="332" height="166"><path fill="#542582" d="M0 0h332v166H0z"/><g fill="#FFF"><path d="M157.307 42.585c-.149-.026-.3-.049-.452-.074l-.183-.026a19.142 19.142 0 00-.78-.09 13.797 13.797 0 00-.536-.04c-.316-.02-.631-.029-.934-.029-.138 0-.217.003-.352.004a17.57 17.57 0 00-1.746.129l-.162.022-.18.026-.223.035c-.097.015-.191.033-.288.05-.131.025-.262.05-.391.078a13.869 13.869 0 00-3.222 1.098c-.266.131-.524.266-.77.409-.238.136-.469.277-.69.424-.127.086-.252.17-.374.258a11.699 11.699 0 00-.919.731 10.567 10.567 0 00-.93.915 11.29 11.29 0 00-1.09 1.403 11.137 11.137 0 00-1.09 2.127 11.528 11.528 0 00-.665 2.623 11.817 11.817 0 00-.097 2.142c.011.184.024.364.046.544l.014.127a9.317 9.317 0 00.15.872 11.271 11.271 0 001.766 4.047c.131.191.267.374.402.547.14.183.289.354.431.519.179.206.36.394.533.567l.094.093c.146.138.301.289.481.44.121.105.248.214.387.323.13.101.262.204.405.307a12.739 12.739 0 001.171.75 12.717 12.717 0 002.754 1.141c.387.111.793.208 1.219.292.344.067.701.121 1.07.166a16.792 16.792 0 001.724.117c.089.003.183.006.273.006.706 0 1.359-.029 1.964-.079l.117-.011a18.9 18.9 0 001.689-.223 18.35 18.35 0 001.403-.313 17.475 17.475 0 001.18-.361l.192-.068a20.933 20.933 0 002.137-.913l.221-.106V59.28a5.66 5.66 0 01-.153.094l-.296.177a19.93 19.93 0 01-.864.503 19.54 19.54 0 01-.919.469c-.534.251-1.044.462-1.539.641-.833.3-1.689.529-2.56.684l-.269.042a12.564 12.564 0 01-1.891.151 12.111 12.111 0 01-2.082-.164 10.478 10.478 0 01-1.861-.484l-.27-.104c-.059-.023-.118-.049-.176-.074a9.206 9.206 0 01-.923-.454 8.935 8.935 0 01-.608-.383 6.95 6.95 0 01-.372-.273 17.607 17.607 0 01-.338-.278l-.142-.128-.071-.065-.041-.041-.053-.05a7.59 7.59 0 01-1.011-1.228 7.182 7.182 0 01-.609-1.142 7.374 7.374 0 01-.372-1.121 7.883 7.883 0 01-.203-1.212 7.198 7.198 0 01-.04-.817c0-.078.003-.169.005-.273a8.436 8.436 0 01.214-1.603 7.621 7.621 0 01.297-.958c.039-.106.087-.213.134-.32.063-.146.132-.29.208-.439.056-.11.12-.221.184-.333a7.396 7.396 0 01.976-1.321c.052-.055.102-.111.156-.165a8.856 8.856 0 012.596-1.8c.143-.064.289-.123.434-.179.147-.059.29-.11.439-.162a10.19 10.19 0 011.888-.432c.165-.023.33-.038.493-.053a10.8 10.8 0 011.221-.038 13.536 13.536 0 011.089.059c.273.025.534.059.783.097a14.293 14.293 0 011.479.306c.168.044.319.089.457.13a11.343 11.343 0 01.897.297c.211.076.417.158.623.24.273.11.533.229.785.342.209.094.406.191.592.282.155.074.297.15.434.22.234.123.434.233.597.322l.44.239v-4.23s-.266-.109-.721-.281c-.2-.075-.439-.166-.709-.262-.151-.052-.308-.11-.477-.168-.135-.044-.271-.093-.416-.139-.161-.052-.329-.108-.5-.159l-.382-.113-.115-.033-.383-.106c-.154-.041-.309-.08-.468-.12-.101-.026-.202-.048-.305-.072a31.915 31.915 0 00-.507-.112c-.17-.035-.348-.068-.524-.101m-21.146-4.395h33.566v31.588h-33.566V38.19zM110.363 55.609v6.21h4.031l.211-.008c.138-.004.33-.012.56-.033a6.797 6.797 0 001.573-.31 3.522 3.522 0 001.376-.803c.136-.136.257-.286.361-.447.243-.389.385-.833.413-1.291.01-.124.01-.198.01-.198s.001-.056-.002-.151a2.862 2.862 0 00-.083-.603 2.45 2.45 0 00-.625-1.123 3.253 3.253 0 00-.361-.313 3.757 3.757 0 00-.747-.42 5.77 5.77 0 00-1.213-.359 9.01 9.01 0 00-1.181-.135 7.448 7.448 0 00-.425-.014l-3.898-.002M110.363 46.172v5.884h1.952s.13 0 .301-.006c.136-.003.296-.012.44-.019a7.891 7.891 0 001.512-.243c.108-.029.217-.064.325-.101a3.199 3.199 0 001.178-.702c.234-.23.418-.506.541-.81.113-.284.183-.583.206-.888.019-.204.018-.334.018-.334s.004-.097-.004-.25a2.755 2.755 0 00-.269-1.076 2.186 2.186 0 00-.413-.556 2.58 2.58 0 00-.772-.508 5.165 5.165 0 00-1.707-.374 8.829 8.829 0 00-.619-.019l-2.689.002z"/><path d="M106.289 42.62v22.749h8.563s4.176.116 6.482-2.191a5.688 5.688 0 00.149-8.043l-.01-.01a7.472 7.472 0 00-3.37-1.876 6.077 6.077 0 001.509-1.057 4.673 4.673 0 001.4-3.69 5.295 5.295 0 00-1.607-3.803s-1.759-2.08-5.733-2.08l-7.383.001zm-8.804-4.43h33.565v31.588H97.485V38.19zM71.687 55.609v6.21h4.03l.213-.008a9.11 9.11 0 00.56-.033 6.85 6.85 0 001.573-.31 3.53 3.53 0 001.376-.803c.136-.135.257-.285.36-.447.244-.389.386-.833.414-1.291.01-.124.008-.198.008-.198s.003-.056 0-.151a2.862 2.862 0 00-.083-.603 2.479 2.479 0 00-.627-1.123 3.154 3.154 0 00-.36-.313 3.757 3.757 0 00-.747-.42 5.77 5.77 0 00-1.213-.359 9.01 9.01 0 00-1.181-.135 7.488 7.488 0 00-.427-.014l-3.896-.002M71.687 46.172v5.884h1.952s.13 0 .301-.006c.135-.003.296-.012.44-.019a7.891 7.891 0 001.512-.243c.108-.029.217-.064.325-.101a3.199 3.199 0 001.178-.702c.234-.23.418-.506.541-.81.114-.284.183-.583.206-.888.019-.204.018-.334.018-.334s.004-.097-.004-.25a2.831 2.831 0 00-.269-1.076 2.186 2.186 0 00-.413-.556 2.58 2.58 0 00-.772-.508 5.171 5.171 0 00-1.708-.374 8.812 8.812 0 00-.619-.019l-2.688.002z"/><path d="M67.614 42.62v22.749h8.563s4.176.116 6.482-2.191a5.687 5.687 0 00.15-8.041l-.012-.013a7.455 7.455 0 00-3.369-1.876 6.077 6.077 0 001.509-1.057 4.677 4.677 0 001.399-3.69 5.3 5.3 0 00-1.606-3.803s-1.76-2.08-5.733-2.08l-7.383.002zm-8.806-4.43h33.565v31.588H58.808V38.19zM177.905 65.367V42.626h7.348c2.904 0 5.119.583 6.646 1.75a5.968 5.968 0 012.29 5.055 6.117 6.117 0 01-1.241 3.881 7.04 7.04 0 01-3.531 2.322 203.417 203.417 0 016.139 9.733h-3.658a176.934 176.934 0 00-2.72-4.628 167.612 167.612 0 00-2.878-4.563c-.34.02-.7.031-1.081.031h-4.199v9.16h-3.115zm3.117-11.704h3.977a7.883 7.883 0 004.515-1.051 3.624 3.624 0 001.496-3.181c0-2.84-1.993-4.26-5.979-4.26h-4.008l-.001 8.492zM210.029 42.626a442.916 442.916 0 014.787 11.354 742.209 742.209 0 014.502 11.388h-3.373l-1.129-3.085a538.229 538.229 0 00-1.129-3.054H203a344.015 344.015 0 00-2.258 6.139h-3.277a539.113 539.113 0 014.566-11.674 365.76 365.76 0 014.69-11.067h3.308zm-6.011 13.93h8.652a938.763 938.763 0 00-4.326-10.845 546.875 546.875 0 00-2.196 5.407 403.99 403.99 0 00-2.13 5.438M221.733 42.626h7.921a12.832 12.832 0 016.042 1.32 9.113 9.113 0 013.865 3.834 12.82 12.82 0 011.351 6.139 13.116 13.116 0 01-1.351 6.185 9.227 9.227 0 01-3.881 3.913 12.69 12.69 0 01-6.059 1.351h-7.888V42.626zm7.666 20.069a8.058 8.058 0 006.106-2.226c1.421-1.485 2.131-3.668 2.131-6.551 0-2.841-.705-4.988-2.115-6.442a8.105 8.105 0 00-6.091-2.18h-4.548v17.399h4.517zM244.538 42.626h3.149v22.741h-3.149zM262.286 42.148c1.54-.021 3.068.26 4.5.826a9.73 9.73 0 013.467 2.386 10.554 10.554 0 012.211 3.738c.528 1.573.785 3.223.762 4.882.023 1.66-.24 3.312-.778 4.883a10.909 10.909 0 01-2.211 3.737 9.677 9.677 0 01-3.451 2.401 12.448 12.448 0 01-9.002 0 9.695 9.695 0 01-3.451-2.401 10.881 10.881 0 01-2.21-3.737 14.43 14.43 0 01-.778-4.883 14.698 14.698 0 01.762-4.882 10.537 10.537 0 012.21-3.738 9.73 9.73 0 013.467-2.386 11.854 11.854 0 014.502-.826m0 20.961a7.468 7.468 0 004.103-1.097 7.047 7.047 0 002.638-3.148 11.84 11.84 0 00.923-4.883 11.727 11.727 0 00-.923-4.867 7.072 7.072 0 00-2.638-3.132 8.192 8.192 0 00-8.191 0 7.031 7.031 0 00-2.656 3.132 11.727 11.727 0 00-.923 4.867 11.836 11.836 0 00.923 4.883 7.018 7.018 0 002.656 3.148 7.49 7.49 0 004.088 1.097"/><g><path d="M90.121 120.405c-.939-3.564-1.861-7.136-2.768-10.716a615.661 615.661 0 01-2.687-11.02l-.676-.004-2.689 11.027a631.264 631.264 0 01-2.717 10.713h-9.526a760.498 760.498 0 01-4.632-17.362 685.307 685.307 0 01-4.208-17.54h9.671a569.156 569.156 0 001.998 12.556 621.465 621.465 0 002.291 12.652l.678.016a808.5 808.5 0 002.789-12.028 804.756 804.756 0 002.533-11.702h8.746c.81 3.826 1.645 7.628 2.506 11.406.879 3.867 1.767 7.725 2.664 11.576l.678-.012c.788-3.999 1.551-8.14 2.267-12.304a651.508 651.508 0 001.974-12.158h9.475a566.63 566.63 0 01-4.161 17.54 631.06 631.06 0 01-4.68 17.362l-9.526-.002zM112.006 120.405V95.161h8.616v25.244h-8.616zm4.282-28.776a5.369 5.369 0 01-3.583-1.088 4.347 4.347 0 010-6.094 5.379 5.379 0 013.583-1.085 5.46 5.46 0 013.633 1.087 4.346 4.346 0 010 6.093 5.465 5.465 0 01-3.633 1.087zM132.917 120.852c-2.476 0-4.333-.657-5.519-1.954-1.195-1.304-1.8-3.326-1.8-6.012V84.009h8.615v27.881a2.67 2.67 0 00.537 1.825 2.184 2.184 0 001.702.613 4.945 4.945 0 001.644-.278v6.06a15.872 15.872 0 01-5.179.742zM152.183 121.052c-3.012 0-5.316-.762-6.852-2.266-1.532-1.5-2.309-3.736-2.309-6.647v-10.104h-3.934V95.56h3.934v-6.141l8.615-1.89v8.031h5.975v6.475h-5.975v8.86c0 2.247 1.205 3.434 3.484 3.434a8.401 8.401 0 002.989-.575v6.259a17.153 17.153 0 01-5.927 1.039zM170.255 121.052a22.874 22.874 0 01-8.615-1.628v-6.246a17.95 17.95 0 003.541 1.435 14.9 14.9 0 004.078.612 7.114 7.114 0 003.014-.484 1.774 1.774 0 001.117-1.655 1.608 1.608 0 00-1.026-1.537 11.837 11.837 0 00-2.18-.693 23.717 23.717 0 01-5.27-1.812 6.494 6.494 0 01-2.77-2.5 7.606 7.606 0 01-.852-3.763 7.305 7.305 0 011.328-4.4 8.576 8.576 0 013.808-2.846 15.998 15.998 0 016.017-1.02 21.966 21.966 0 014.509.465c1.312.27 2.589.69 3.807 1.249v6.139a11.961 11.961 0 00-3.139-1.415 14.412 14.412 0 00-4.031-.61 6.921 6.921 0 00-2.86.479 1.734 1.734 0 00-1.172 1.61c-.012.381.114.753.357 1.047.301.313.681.538 1.1.651a27.88 27.88 0 001.893.53 20.52 20.52 0 015.174 1.737 6.83 6.83 0 012.799 2.531 7.341 7.341 0 01.875 3.709 7.694 7.694 0 01-1.354 4.602 8.255 8.255 0 01-3.898 2.839 17.853 17.853 0 01-6.25.974zM201.12 120.405v-15.684c0-2.796-1.651-3.383-3.036-3.383a4.546 4.546 0 00-3.706 1.823l-.076.095v17.149h-8.616V84.009h8.616v13.723l.59-.579a8.895 8.895 0 016.428-2.64 7.821 7.821 0 016.259 2.493c1.43 1.669 2.156 4.163 2.156 7.415v15.982l-8.615.002zM214.711 120.405V95.161h8.615v25.244h-8.615zm4.283-28.776a5.384 5.384 0 01-3.584-1.088 4.347 4.347 0 010-6.094 5.382 5.382 0 013.584-1.085 5.46 5.46 0 013.633 1.087 4.346 4.346 0 010 6.093 5.465 5.465 0 01-3.633 1.087zM228.501 120.405V95.161h7.316l.704 4.855.499-.902c1.641-2.961 3.708-4.401 6.318-4.401a6.416 6.416 0 012.639.52v7.337a4.874 4.874 0 00-1.039-.377 7.886 7.886 0 00-1.849-.209 7.538 7.538 0 00-3.287.681 7.85 7.85 0 00-2.607 2.133l-.079.096v15.51l-8.615.001zM261.809 121.052a16.704 16.704 0 01-7.536-1.556 10.604 10.604 0 01-4.656-4.485 15.027 15.027 0 01-1.601-7.202 16.505 16.505 0 01.876-5.535 11.816 11.816 0 012.514-4.184 10.965 10.965 0 013.934-2.654 13.893 13.893 0 015.173-.923 12 12 0 016.171 1.495 9.463 9.463 0 013.819 4.351 17.234 17.234 0 011.313 7.101v1.842h-15.738l.06.399a5.456 5.456 0 002.141 3.946 9.097 9.097 0 005.022 1.129c1.393.013 2.783-.14 4.14-.457a16.923 16.923 0 003.23-1.172v6.323c-1.29.495-2.621.876-3.978 1.141-1.61.304-3.246.452-4.884.441zm-1.395-20.91c-2.347 0-3.769 1.557-4.226 4.627l-.06.399h8.049l-.033-.377a6.45 6.45 0 00-1.096-3.499 3.202 3.202 0 00-2.634-1.15z"/></g></g></svg>
