<svg xmlns="http://www.w3.org/2000/svg" viewBox="0 0 332 166" width="332" height="166"><path fill="#542582" d="M0 0h332v166H0z"/><g fill="#FFF"><path d="M157.29 42.585c-.149-.026-.3-.05-.454-.074l-.181-.026a16.3 16.3 0 00-.78-.09c-.179-.018-.359-.029-.536-.04a14.909 14.909 0 00-1.286-.025 17.72 17.72 0 00-1.746.128l-.162.023-.18.026-.223.035c-.097.015-.192.033-.288.05-.132.023-.263.05-.391.076-.755.159-1.495.379-2.214.659a13.106 13.106 0 00-2.468 1.275c-.127.086-.252.17-.372.258a11.125 11.125 0 00-.921.731c-.179.158-.355.319-.518.481-.139.142-.28.282-.413.432s-.269.301-.397.461a12.052 12.052 0 00-.692.944 11.265 11.265 0 00-1.09 2.127 11.571 11.571 0 00-.667 2.623 12.412 12.412 0 00-.109 1.608 9.646 9.646 0 00.06 1.078l.014.127a9.188 9.188 0 00.15.873 10.326 10.326 0 00.314 1.149c.087.258.179.507.279.751a12.228 12.228 0 00.878 1.703 13.094 13.094 0 00.695.991c.143.183.29.354.432.52.179.206.359.394.533.567l.094.093c.145.138.301.287.481.44.121.104.248.214.387.323a11.181 11.181 0 00.941.674c.2.128.41.258.635.383a12.704 12.704 0 002.753 1.139 14.048 14.048 0 002.289.458 16.062 16.062 0 001.724.118c.09.001.181.004.273.004.706 0 1.359-.027 1.964-.078l.117-.011c.241-.02.475-.046.701-.075.345-.042.674-.092.988-.15a16.412 16.412 0 001.403-.311c.194-.052.38-.108.56-.161.214-.064.424-.134.62-.202l.191-.067c.095-.034.225-.08.378-.139.202-.079.446-.176.724-.294.165-.071.345-.153.529-.236.164-.075.335-.157.508-.243.074-.035.147-.069.221-.108V59.28a5.644 5.644 0 01-.153.093l-.296.179a19.104 19.104 0 01-1.784.971c-.533.252-1.043.464-1.538.641-.833.301-1.69.53-2.562.684l-.267.044a11.92 11.92 0 01-1.892.151c-.305 0-.62-.008-.939-.03a13.026 13.026 0 01-1.142-.133 10.652 10.652 0 01-1.861-.484c-.09-.034-.181-.069-.271-.105l-.175-.072a7.927 7.927 0 01-.298-.132 8.176 8.176 0 01-1.232-.705 8.85 8.85 0 01-.71-.552l-.142-.127-.071-.065-.042-.041-.052-.05a8.094 8.094 0 01-.79-.91 7.026 7.026 0 01-.653-1.078 7.222 7.222 0 01-.549-1.503 7.885 7.885 0 01-.23-1.586 7.423 7.423 0 01-.005-.716 8.07 8.07 0 01.347-2.096 8.95 8.95 0 01.162-.465c.04-.106.086-.213.132-.32a6.99 6.99 0 01.21-.439c.056-.112.12-.221.184-.333a7.41 7.41 0 01.688-.991c.091-.109.187-.224.288-.33.05-.054.101-.112.154-.165a8.893 8.893 0 012.597-1.8 11.3 11.3 0 01.871-.341c.16-.053.322-.102.481-.147a9.15 9.15 0 01.909-.205c.166-.031.334-.056.498-.079.166-.023.331-.038.495-.053.315-.029.623-.041.923-.041.101 0 .2-.001.298.001.224.007.442.012.654.026.149.011.292.02.435.034a14.337 14.337 0 011.418.208c.309.061.592.131.844.195.168.045.319.09.457.131a13.218 13.218 0 01.897.297c.211.075.419.158.622.24.273.109.534.229.785.342.21.093.406.191.593.282.154.074.297.15.432.22.236.123.435.233.598.32l.44.24v-4.23s-.266-.109-.721-.281c-.202-.076-.439-.166-.71-.262-.15-.053-.307-.111-.476-.168-.135-.044-.271-.093-.416-.14-.161-.05-.329-.106-.5-.158-.124-.037-.252-.076-.382-.113l-.116-.033a12.391 12.391 0 00-.382-.106 15.208 15.208 0 00-.468-.12c-.101-.026-.202-.049-.305-.074a21.34 21.34 0 00-1.036-.211m-21.142-4.399h33.566v31.588h-33.566V38.19zM110.346 55.609v6.209h4.031l.211-.007c.136-.006.328-.012.56-.033a6.902 6.902 0 001.573-.309 3.53 3.53 0 001.376-.803c.136-.136.257-.287.361-.449.243-.389.385-.833.413-1.291.01-.124.008-.196.008-.196s.003-.056 0-.153a2.834 2.834 0 00-.083-.601 2.476 2.476 0 00-.625-1.124 3.275 3.275 0 00-.361-.314 3.841 3.841 0 00-.747-.421 5.825 5.825 0 00-1.213-.357 8.97 8.97 0 00-1.181-.135 7.448 7.448 0 00-.425-.014l-3.898-.002M110.346 46.172v5.884h1.952s.13 0 .301-.006c.135-.003.296-.012.44-.019a7.891 7.891 0 001.512-.243c.108-.03.218-.064.325-.101a3.199 3.199 0 001.178-.702 2.42 2.42 0 00.541-.81c.113-.284.182-.584.206-.889.019-.203.018-.333.018-.333s.004-.097-.004-.251a2.759 2.759 0 00-.269-1.074 2.186 2.186 0 00-.413-.556 2.55 2.55 0 00-.772-.508 5.172 5.172 0 00-1.708-.375 9.427 9.427 0 00-.619-.018l-2.688.001z"/><path d="M106.272 42.618v22.751h8.563s4.176.116 6.482-2.191a5.691 5.691 0 00.148-8.046l-.009-.009a7.465 7.465 0 00-3.371-1.875 6.056 6.056 0 001.51-1.057 4.676 4.676 0 001.4-3.69 5.295 5.295 0 00-1.607-3.803s-1.76-2.082-5.734-2.082l-7.382.002zm-8.805-4.428h33.564v31.588H97.467V38.19zM71.67 55.609v6.209h4.03l.213-.007c.136-.006.329-.012.56-.033a6.902 6.902 0 001.573-.309c.514-.16.984-.434 1.376-.803.136-.136.257-.286.36-.449.244-.389.387-.833.413-1.291.011-.124.01-.196.01-.196v-.153a2.969 2.969 0 00-.083-.601 2.476 2.476 0 00-.627-1.124 3.077 3.077 0 00-.361-.314 3.812 3.812 0 00-.747-.421 5.757 5.757 0 00-1.212-.357 8.97 8.97 0 00-1.182-.135 7.382 7.382 0 00-.424-.014c-1.432 0-3.898-.003-3.899-.002M71.67 46.172v5.884h1.952s.13 0 .301-.006c.135-.003.296-.012.439-.019a7.901 7.901 0 001.513-.243c.108-.03.217-.064.325-.101.439-.146.84-.386 1.178-.702.234-.23.417-.506.54-.81.113-.284.183-.584.207-.889.019-.203.018-.333.018-.333s.004-.097-.004-.251a2.777 2.777 0 00-.27-1.074 2.137 2.137 0 00-.412-.556 2.566 2.566 0 00-.773-.508 5.167 5.167 0 00-1.707-.375 9.427 9.427 0 00-.619-.018l-2.688.001z"/><path d="M67.596 42.618v22.751h8.564s4.176.116 6.481-2.191a5.688 5.688 0 00.151-8.043l-.011-.011a7.448 7.448 0 00-3.371-1.874 6.125 6.125 0 001.511-1.057 4.68 4.68 0 001.399-3.69 5.296 5.296 0 00-1.606-3.803s-1.76-2.082-5.734-2.082h-7.384zm-8.805-4.428h33.565v31.588H58.791V38.19zM177.888 65.367V42.626h7.347c2.905 0 5.121.583 6.648 1.75a5.975 5.975 0 012.29 5.055 6.118 6.118 0 01-1.241 3.881 7.04 7.04 0 01-3.531 2.322c2.12 3.16 4.166 6.404 6.139 9.733h-3.658a170.098 170.098 0 00-5.598-9.191c-.339.02-.7.031-1.081.031h-4.199v9.16h-3.116zm3.117-11.704h3.977a7.883 7.883 0 004.515-1.051 3.622 3.622 0 001.495-3.18c0-2.84-1.993-4.26-5.979-4.26h-4.008v8.491zM210.011 42.626a431.025 431.025 0 014.787 11.354 742.209 742.209 0 014.502 11.388h-3.371c-.382-1.039-.758-2.067-1.13-3.085a418.623 418.623 0 00-1.129-3.054h-10.687a336.4 336.4 0 00-2.258 6.139h-3.276a529.042 529.042 0 014.564-11.674c1.536-3.794 3.1-7.483 4.691-11.067h3.307zM204 56.556h8.651a765.314 765.314 0 00-2.163-5.471 1814.59 1814.59 0 00-2.162-5.374 532.652 532.652 0 00-2.195 5.407A438.727 438.727 0 00204 56.556M221.715 42.626h7.921a12.835 12.835 0 016.042 1.32 9.113 9.113 0 013.865 3.834 12.805 12.805 0 011.351 6.139 13.11 13.11 0 01-1.351 6.186 9.227 9.227 0 01-3.881 3.913 12.69 12.69 0 01-6.059 1.351h-7.888V42.626zm7.666 20.069a8.05 8.05 0 006.106-2.226c1.421-1.485 2.131-3.668 2.131-6.551 0-2.841-.705-4.988-2.114-6.442a8.1 8.1 0 00-6.091-2.18h-4.548v17.399h4.516zM244.521 42.626h3.149v22.741h-3.149zM262.268 42.149c1.54-.021 3.068.26 4.5.826a9.717 9.717 0 013.467 2.386 10.554 10.554 0 012.211 3.738c.528 1.573.785 3.223.762 4.882a14.43 14.43 0 01-.779 4.883 10.856 10.856 0 01-2.21 3.737 9.69 9.69 0 01-3.452 2.401 12.442 12.442 0 01-9 0 9.699 9.699 0 01-3.452-2.401 10.881 10.881 0 01-2.21-3.737 14.43 14.43 0 01-.778-4.883c-.023-1.659.235-3.31.763-4.882a10.537 10.537 0 012.21-3.738 9.708 9.708 0 013.467-2.386 11.81 11.81 0 014.501-.826m0 20.96a7.468 7.468 0 004.103-1.097 7.05 7.05 0 002.639-3.148 11.84 11.84 0 00.923-4.883 11.727 11.727 0 00-.923-4.867 7.074 7.074 0 00-2.639-3.132 8.192 8.192 0 00-8.191 0 7.031 7.031 0 00-2.656 3.132 11.73 11.73 0 00-.923 4.867 11.853 11.853 0 00.923 4.883 7.018 7.018 0 002.656 3.148 7.49 7.49 0 004.088 1.097"/><g><path d="M54.231 120.356V85.343h14.286c4.169 0 7.412.794 9.638 2.359a7.654 7.654 0 013.299 6.733 7.274 7.274 0 01-4.066 6.837l-.665.368.714.262a9.202 9.202 0 014.431 3.198 8.652 8.652 0 011.533 5.166 8.885 8.885 0 01-1.656 5.387 10.43 10.43 0 01-4.789 3.477 21.093 21.093 0 01-7.59 1.226H54.231zm8.595-6.497h5.641a8.274 8.274 0 004.458-1.005 3.366 3.366 0 001.632-2.989c0-2.748-2.032-4.142-6.04-4.142h-5.691v8.136zm0-14.334h4.742a5.982 5.982 0 003.787-1.049 3.577 3.577 0 001.355-2.942c0-2.451-1.73-3.694-5.142-3.694h-4.742v7.685zM100.828 121.006a16.74 16.74 0 01-7.56-1.562 10.648 10.648 0 01-4.67-4.5 15.06 15.06 0 01-1.606-7.225 16.52 16.52 0 01.879-5.551 11.85 11.85 0 012.522-4.199 11.011 11.011 0 013.947-2.663 13.942 13.942 0 015.19-.924 12.046 12.046 0 016.191 1.499 9.485 9.485 0 013.83 4.366 17.251 17.251 0 011.317 7.122v1.851H95.08l.06.399a5.48 5.48 0 002.147 3.957 9.144 9.144 0 005.038 1.133c1.398.014 2.793-.14 4.153-.461a16.757 16.757 0 003.24-1.175v6.346a23.922 23.922 0 01-3.99 1.144 25.4 25.4 0 01-4.9.443zM99.43 100.03c-2.353 0-3.78 1.561-4.239 4.641l-.06.399h8.073l-.033-.377a6.47 6.47 0 00-1.099-3.51 3.212 3.212 0 00-2.642-1.153zM115.408 120.356V95.032h7.343l.704 4.868.5-.902c1.648-2.971 3.72-4.416 6.338-4.416a6.42 6.42 0 012.65.522v7.362a4.965 4.965 0 00-1.045-.379 7.878 7.878 0 00-1.855-.21 7.558 7.558 0 00-3.297.684 7.852 7.852 0 00-2.615 2.139l-.079.096v15.559l-8.644.001zM153.967 120.356a271.965 271.965 0 00-3.05-5.226 122.153 122.153 0 00-3.105-4.907l-.103-.155h-2.131v10.287h-8.644V83.846h8.644v19.926h2.175l.104-.146a120.825 120.825 0 002.98-4.383 299.397 299.397 0 002.673-4.21h9.028l-3.762 5.371a206.231 206.231 0 01-4.189 5.759l-.149.198.139.205a641.245 641.245 0 014.742 7.114 861.819 861.819 0 014.347 6.677l-9.699-.001zM175.839 121.006a22.916 22.916 0 01-8.642-1.635v-6.266c1.13.605 2.32 1.088 3.552 1.441 1.329.392 2.706.598 4.091.612a7.174 7.174 0 003.023-.484 1.78 1.78 0 001.12-1.66 1.612 1.612 0 00-1.028-1.54 11.75 11.75 0 00-2.188-.696 23.837 23.837 0 01-5.287-1.818 6.506 6.506 0 01-2.779-2.508 7.666 7.666 0 01-.854-3.775 7.347 7.347 0 011.331-4.416 8.624 8.624 0 013.821-2.854 16.042 16.042 0 016.036-1.023c1.52-.001 3.036.156 4.524.467a17.58 17.58 0 013.819 1.254v6.16a12.004 12.004 0 00-3.151-1.42 14.424 14.424 0 00-4.043-.612 6.893 6.893 0 00-2.868.482 1.74 1.74 0 00-1.176 1.613c-.012.381.115.754.357 1.049.302.315.684.541 1.105.654.456.151 1.088.33 1.898.532 1.8.346 3.546.932 5.19 1.743a6.852 6.852 0 012.808 2.538 7.365 7.365 0 01.878 3.721 7.72 7.72 0 01-1.358 4.617 8.311 8.311 0 01-3.911 2.852 17.994 17.994 0 01-6.268.972zM206.699 120.356v-15.733c0-2.805-1.656-3.394-3.044-3.394a4.564 4.564 0 00-3.718 1.83l-.075.095v17.202h-8.644v-36.51h8.644V97.61l.591-.579a8.918 8.918 0 016.449-2.648 7.838 7.838 0 016.278 2.502c1.436 1.674 2.164 4.177 2.164 7.438v16.034l-8.645-.001zM220.482 120.356V95.032h8.644v25.324h-8.644zm4.297-28.866a5.383 5.383 0 01-3.594-1.091 4.356 4.356 0 010-6.113 5.39 5.39 0 013.594-1.091 5.472 5.472 0 013.645 1.091 4.358 4.358 0 010 6.113 5.47 5.47 0 01-3.645 1.091zM234.465 120.356V95.032h7.343l.704 4.868.5-.902c1.648-2.971 3.72-4.416 6.338-4.416a6.417 6.417 0 012.65.522v7.362a4.965 4.965 0 00-1.045-.379 7.878 7.878 0 00-1.855-.21 7.558 7.558 0 00-3.297.684 7.852 7.852 0 00-2.615 2.139l-.079.096v15.559l-8.644.001zM267.728 121.006a16.754 16.754 0 01-7.56-1.562 10.648 10.648 0 01-4.67-4.5 15.06 15.06 0 01-1.606-7.225 16.545 16.545 0 01.878-5.551 11.85 11.85 0 012.522-4.199 11.011 11.011 0 013.947-2.663 13.942 13.942 0 015.19-.924 12.046 12.046 0 016.191 1.499 9.485 9.485 0 013.83 4.366 17.251 17.251 0 011.317 7.122v1.851H261.98l.06.399a5.478 5.478 0 002.148 3.957 9.144 9.144 0 005.038 1.133 17.28 17.28 0 004.153-.461 16.757 16.757 0 003.24-1.175v6.346a23.922 23.922 0 01-3.99 1.144 25.41 25.41 0 01-4.901.443zm-1.398-20.976c-2.353 0-3.78 1.561-4.239 4.641l-.06.399h8.073l-.033-.377a6.47 6.47 0 00-1.099-3.51 3.212 3.212 0 00-2.642-1.153z"/></g></g></svg>
