<svg xmlns="http://www.w3.org/2000/svg" viewBox="0 0 332 166" width="332" height="166"><path fill="#542582" d="M0 0h332v166H0z"/><g fill="#FFF"><path d="M157.298 44.522c-.147-.026-.297-.05-.452-.074l-.181-.026a17.39 17.39 0 00-.781-.091 24.034 24.034 0 00-.535-.038 14.909 14.909 0 00-1.286-.025 16.452 16.452 0 00-1.155.064c-.2.018-.397.041-.592.064l-.162.023-.18.026-.224.035c-.095.015-.192.033-.288.05-.132.023-.262.051-.391.076-.755.159-1.495.379-2.214.659a12.913 12.913 0 00-1.778.85 12.062 12.062 0 00-1.062.683c-.105.076-.209.151-.309.229a11.933 11.933 0 00-1.541 1.416 10.654 10.654 0 00-.804.993 11.577 11.577 0 00-.467.7 11.369 11.369 0 00-1.574 4.463 11.838 11.838 0 00-.099 2.141c.012.183.027.364.048.544l.014.125c.027.214.06.425.1.631l.05.243a9.744 9.744 0 00.313 1.15 11.566 11.566 0 001.452 2.897 11.313 11.313 0 00.833 1.067c.18.206.36.394.532.567l.095.091c.145.14.301.289.48.442.123.104.25.215.39.323a11.346 11.346 0 001.574 1.057 12.704 12.704 0 002.753 1.14c.386.112.792.209 1.22.292a16.812 16.812 0 002.793.284c.09.001.181.004.273.004.705 0 1.359-.027 1.963-.078l.119-.011a18.62 18.62 0 003.093-.537c.192-.05.38-.105.56-.158.214-.065.424-.135.62-.203l.192-.067c.094-.034.225-.08.376-.139a22.153 22.153 0 001.983-.881v-4.306a5.644 5.644 0 01-.153.093l-.296.179a17.802 17.802 0 01-3.323 1.612c-.832.3-1.688.529-2.559.684-.091.016-.18.03-.269.044a14.196 14.196 0 01-1.435.142 13.073 13.073 0 01-1.396-.021c-.375-.029-.758-.07-1.143-.134a10.652 10.652 0 01-1.861-.484l-.27-.105-.176-.072a9.732 9.732 0 01-.299-.132c-.21-.1-.42-.207-.624-.322a10.624 10.624 0 01-.608-.383 8.083 8.083 0 01-.709-.552l-.143-.127-.071-.065-.041-.041-.053-.05a8.525 8.525 0 01-.532-.579 6.83 6.83 0 01-.256-.33 6.353 6.353 0 01-.41-.623 6.723 6.723 0 01-.244-.455 7.707 7.707 0 01-.416-1.028 7.998 7.998 0 01-.364-2.062 7.472 7.472 0 01-.005-.716c.009-.306.036-.612.079-.915a8.426 8.426 0 01.269-1.182c.048-.153.104-.305.162-.465a7.763 7.763 0 01.342-.759c.057-.112.12-.221.184-.333a7.223 7.223 0 01.688-.991c.091-.109.187-.224.286-.33.053-.055.104-.112.157-.165a8.85 8.85 0 013.468-2.139 8.303 8.303 0 01.934-.263c.153-.034.305-.064.455-.091.166-.033.333-.056.498-.079s.333-.04.495-.053c.315-.027.623-.041.923-.041.102 0 .2-.001.298.001.224.007.442.014.654.026.149.011.293.02.435.034a13.815 13.815 0 012.718.533 11.743 11.743 0 01.895.297c.213.075.42.158.623.24.274.109.534.228.787.342.209.093.405.191.592.282.154.075.297.15.434.22.233.123.434.233.597.32l.439.24v-4.23s-.264-.108-.72-.281a32.65 32.65 0 00-.71-.262c-.15-.053-.307-.11-.476-.168-.135-.045-.271-.093-.416-.139-.161-.052-.329-.108-.5-.16-.124-.037-.252-.076-.382-.113l-.115-.033c-.125-.035-.253-.072-.384-.106a18.59 18.59 0 00-.466-.12c-.101-.026-.202-.049-.305-.074a23.735 23.735 0 00-1.037-.211m-21.141-4.394h33.566v31.586h-33.566V40.128zM110.356 57.545v6.208h4.03l.211-.007c.138-.005.33-.012.56-.033a6.942 6.942 0 001.575-.31 3.53 3.53 0 001.376-.803c.136-.136.256-.287.36-.449.244-.389.386-.833.413-1.291.009-.124.009-.196.009-.196s.002-.056-.001-.153a2.834 2.834 0 00-.083-.601 2.478 2.478 0 00-.469-.949 3.077 3.077 0 00-.518-.488 3.841 3.841 0 00-.747-.421 5.825 5.825 0 00-1.213-.357 8.945 8.945 0 00-1.181-.135 7.387 7.387 0 00-.425-.014c-1.431.002-3.897-.001-3.897-.001M110.356 48.108v5.884h1.951s.13 0 .303-.006c.135-.003.295-.012.439-.019a7.891 7.891 0 001.512-.243c.109-.03.218-.064.325-.101a3.211 3.211 0 001.179-.702c.234-.23.417-.506.54-.81a2.99 2.99 0 00.206-.889c.019-.203.018-.333.018-.333s.004-.097-.004-.251a2.741 2.741 0 00-.269-1.074 2.186 2.186 0 00-.413-.556 2.49 2.49 0 00-.772-.508 5.192 5.192 0 00-1.707-.375 9.427 9.427 0 00-.619-.018l-2.689.001z"/><path d="M106.28 44.554v22.751h8.564s4.176.115 6.482-2.191a5.687 5.687 0 00.152-8.041l-.013-.014a7.465 7.465 0 00-3.371-1.875 6.147 6.147 0 001.511-1.056 4.684 4.684 0 001.399-3.69 5.294 5.294 0 00-1.606-3.802s-1.759-2.082-5.734-2.082h-7.384zm-8.804-4.428h33.564v31.588H97.476V40.126zM71.679 57.545v6.208h4.031l.211-.007c.138-.005.33-.012.56-.033a6.914 6.914 0 001.573-.31 3.522 3.522 0 001.376-.803c.137-.135.257-.286.36-.449.244-.389.387-.833.414-1.291.01-.124.008-.196.008-.196s.003-.056 0-.153a2.834 2.834 0 00-.083-.601 2.459 2.459 0 00-.625-1.123 3.077 3.077 0 00-.361-.314 3.841 3.841 0 00-.747-.421 5.825 5.825 0 00-1.213-.357 9.01 9.01 0 00-1.181-.135 7.448 7.448 0 00-.425-.014c-1.43.002-3.898-.001-3.898-.001M71.679 48.108v5.884h1.952s.13 0 .301-.006c.136-.003.296-.012.44-.019a7.891 7.891 0 001.512-.243c.108-.03.217-.064.325-.101a3.199 3.199 0 001.178-.702c.234-.23.418-.506.541-.81a2.99 2.99 0 00.206-.889c.019-.203.018-.333.018-.333s.004-.097-.004-.251a2.741 2.741 0 00-.269-1.074 2.186 2.186 0 00-.413-.556 2.53 2.53 0 00-.772-.508 5.192 5.192 0 00-1.707-.375 9.427 9.427 0 00-.619-.018l-2.689.001z"/><path d="M67.605 44.554v22.751h8.564s4.176.115 6.481-2.191a5.688 5.688 0 00.151-8.043l-.011-.011a7.465 7.465 0 00-3.371-1.875 6.129 6.129 0 001.511-1.056 4.687 4.687 0 001.399-3.69 5.293 5.293 0 00-1.607-3.802s-1.759-2.082-5.733-2.082l-7.384-.001zm-8.804-4.428h33.564v31.588H58.801V40.126zM177.897 67.304V44.562h7.348c2.904 0 5.119.583 6.646 1.75a5.968 5.968 0 012.29 5.055 6.117 6.117 0 01-1.241 3.881 7.04 7.04 0 01-3.531 2.322 203.417 203.417 0 016.139 9.733h-3.658a170.098 170.098 0 00-5.598-9.191c-.339.02-.7.031-1.081.031h-4.199v9.16h-3.115zm3.116-11.704h3.977a7.883 7.883 0 004.515-1.051 3.626 3.626 0 001.496-3.18c0-2.84-1.993-4.26-5.98-4.26h-4.008V55.6zM210.021 44.562a442.88 442.88 0 014.786 11.354 742.209 742.209 0 014.502 11.388h-3.373l-1.129-3.085a538.229 538.229 0 00-1.129-3.054h-10.687a344.015 344.015 0 00-2.258 6.139h-3.277a539.113 539.113 0 014.566-11.674 365.76 365.76 0 014.69-11.067l3.309-.001zm-6.011 13.931h8.651a984.166 984.166 0 00-4.325-10.845 556.97 556.97 0 00-2.196 5.407 398.821 398.821 0 00-2.13 5.438M221.725 44.562h7.921a12.847 12.847 0 016.042 1.32 9.113 9.113 0 013.865 3.834 12.82 12.82 0 011.351 6.139 13.116 13.116 0 01-1.351 6.185 9.227 9.227 0 01-3.881 3.913 12.69 12.69 0 01-6.059 1.351h-7.888V44.562zm7.666 20.07a8.058 8.058 0 006.106-2.226c1.421-1.485 2.131-3.668 2.131-6.551 0-2.841-.705-4.988-2.115-6.442a8.1 8.1 0 00-6.091-2.18h-4.548v17.399h4.517zM244.53 44.562h3.149v22.741h-3.149zM262.277 44.085c1.54-.021 3.068.26 4.5.826a9.73 9.73 0 013.467 2.386 10.554 10.554 0 012.211 3.738c.528 1.573.785 3.223.762 4.882.023 1.66-.24 3.312-.778 4.883a10.909 10.909 0 01-2.211 3.737 9.677 9.677 0 01-3.451 2.401 12.448 12.448 0 01-9.002 0 9.695 9.695 0 01-3.451-2.401 10.881 10.881 0 01-2.21-3.737 14.43 14.43 0 01-.778-4.883 14.698 14.698 0 01.762-4.882 10.537 10.537 0 012.21-3.738 9.73 9.73 0 013.467-2.386 11.823 11.823 0 014.502-.826m.001 20.96a7.468 7.468 0 004.103-1.097 7.047 7.047 0 002.638-3.148 11.84 11.84 0 00.923-4.883 11.727 11.727 0 00-.923-4.867 7.072 7.072 0 00-2.638-3.132 8.192 8.192 0 00-8.191 0 7.031 7.031 0 00-2.656 3.132 11.727 11.727 0 00-.923 4.867 11.836 11.836 0 00.923 4.883 7.015 7.015 0 002.655 3.148 7.496 7.496 0 004.089 1.097"/><g><path d="M45.807 119.07a668.3 668.3 0 00-5.81-9.694 1134.03 1134.03 0 00-5.945-9.625l-.578-.925v20.244h-7.717V87.626h8.309a468.806 468.806 0 015.868 9.269 778.727 778.727 0 015.873 9.686l.582.975v-19.93h7.717v31.443h-8.299zM69.49 119.653a13.494 13.494 0 01-4.844-.831 10.154 10.154 0 01-3.678-2.393 10.544 10.544 0 01-2.33-3.769 14.309 14.309 0 01-.811-4.938 13.515 13.515 0 011.422-6.38 10.016 10.016 0 014.025-4.135 13.935 13.935 0 0112.432 0 10.01 10.01 0 014.025 4.135 13.529 13.529 0 011.421 6.38 14.335 14.335 0 01-.81 4.938 10.554 10.554 0 01-2.33 3.768 10.135 10.135 0 01-3.678 2.394c-1.55.571-3.192.853-4.844.831zm0-17.852a3.208 3.208 0 00-2.842 1.579 8.21 8.21 0 00-.969 4.385 7.904 7.904 0 00.969 4.251 3.369 3.369 0 005.709-.002 8.07 8.07 0 00.945-4.248 8.37 8.37 0 00-.945-4.382 3.197 3.197 0 00-2.867-1.583zM84.692 119.07V96.328h6.593l.632 4.374.45-.813c1.479-2.669 3.341-3.966 5.692-3.966a5.782 5.782 0 012.378.468v6.61a4.515 4.515 0 00-.936-.339 7.13 7.13 0 00-1.666-.188 6.776 6.776 0 00-2.961.614 7.045 7.045 0 00-2.348 1.921l-.072.087v13.973h-7.762zM113.892 119.653c-2.713 0-4.79-.687-6.173-2.041a8.057 8.057 0 01-2.081-5.989v-9.103h-3.544v-5.833h3.544v-5.533l7.761-1.701v7.234h5.382v5.833H113.4v7.982a2.785 2.785 0 003.139 3.093 7.611 7.611 0 002.692-.518v5.639c-.8.29-1.623.515-2.459.673-.95.177-1.914.265-2.88.264zM136.99 119.07v-14.13c0-2.519-1.488-3.048-2.735-3.048a4.095 4.095 0 00-3.34 1.644l-.068.086v15.449h-7.762v-32.79h7.762v12.364l.532-.522a8.01 8.01 0 015.791-2.378 7.045 7.045 0 015.638 2.246c1.29 1.505 1.943 3.752 1.943 6.681v14.399h-7.761zM155.335 119.653a8.259 8.259 0 01-3.804-.818 5.777 5.777 0 01-2.428-2.299 7.103 7.103 0 01-.856-3.568 5.962 5.962 0 012.647-5.259c1.791-1.242 4.402-1.872 7.76-1.872a16.913 16.913 0 012.424.176l.356.049v-.719a3.643 3.643 0 00-1.12-2.93 5.33 5.33 0 00-3.499-.925 12.731 12.731 0 00-3.794.552 12.998 12.998 0 00-2.98 1.382v-5.95a19.765 19.765 0 018.074-1.729c3.519 0 6.21.825 7.997 2.453 1.778 1.619 2.679 4.054 2.679 7.237v7.446c-.024.436.068.87.268 1.258.243.375.677.582 1.121.535.275.002.548-.042.809-.131v4.157a7.914 7.914 0 01-1.706.581 10.08 10.08 0 01-2.197.24c-2.523 0-4.18-.728-4.926-2.163l-.183-.353-.3.262a9.902 9.902 0 01-2.913 1.782 9.464 9.464 0 01-3.429.606zm3.946-10.226a4.764 4.764 0 00-2.758.641 2.389 2.389 0 00-.963 2.094c0 1.126.475 2.466 2.735 2.466a4.223 4.223 0 003.047-1.348l.092-.092v-3.525l-.252-.05a9.632 9.632 0 00-1.901-.186zM201.172 119.07v-14.13c0-2.519-1.39-3.048-2.555-3.048a3.746 3.746 0 00-3.077 1.695l-.062.083v15.4h-7.762v-14.13c0-2.519-1.39-3.048-2.556-3.048a3.77 3.77 0 00-3.074 1.649l-.064.083v15.446h-7.762V96.328h6.594l.469 3.12.447-.543a7.971 7.971 0 016.351-3.162c2.982 0 5.019 1.105 6.227 3.378l.224.422.297-.373a8.322 8.322 0 016.708-3.427 6.747 6.747 0 015.456 2.243c1.261 1.506 1.9 3.755 1.9 6.684v14.399h-7.761zM213.506 129.206V96.328h6.591l.424 3.022.454-.589a7.271 7.271 0 015.987-3.018 8.454 8.454 0 014.848 1.381 9.1 9.1 0 013.164 3.949 17.214 17.214 0 01-.199 12.813 9.905 9.905 0 01-3.783 4.264 11.098 11.098 0 01-5.87 1.501 9.706 9.706 0 01-3.435-.609l-.421-.155v10.317h-7.76zm10.99-27.314a4.02 4.02 0 00-3.152 1.452l-.076.089v9.46l.173.087c.357.182.736.319 1.128.407.398.082.803.122 1.209.119a3.925 3.925 0 003.347-1.584 7.296 7.296 0 001.137-4.379 7.72 7.72 0 00-.925-4.164 3.184 3.184 0 00-2.841-1.487zM250.061 119.653c-2.713 0-4.79-.687-6.173-2.041a8.057 8.057 0 01-2.081-5.989v-9.103h-3.544v-5.833h3.544v-5.533l7.762-1.701v7.234h5.382v5.833h-5.381v7.982a2.785 2.785 0 003.139 3.093 7.611 7.611 0 002.692-.518v5.639c-.8.29-1.623.515-2.459.673-.95.177-1.915.265-2.881.264zM269.393 119.653a13.494 13.494 0 01-4.844-.831 10.154 10.154 0 01-3.678-2.393 10.544 10.544 0 01-2.33-3.769 14.309 14.309 0 01-.811-4.938 13.527 13.527 0 011.422-6.38 10.016 10.016 0 014.025-4.135 13.935 13.935 0 0112.432 0 10.022 10.022 0 014.025 4.135 13.529 13.529 0 011.421 6.38 14.312 14.312 0 01-.81 4.938 10.542 10.542 0 01-2.331 3.768 10.135 10.135 0 01-3.678 2.394 13.485 13.485 0 01-4.843.831zm0-17.852a3.208 3.208 0 00-2.842 1.579 8.21 8.21 0 00-.969 4.385 7.904 7.904 0 00.969 4.251 3.367 3.367 0 005.708-.002 8.07 8.07 0 00.945-4.248 8.37 8.37 0 00-.945-4.382 3.196 3.196 0 00-2.866-1.583zM298.5 119.07v-14.13c0-2.519-1.487-3.048-2.735-3.048a4.092 4.092 0 00-3.339 1.644l-.068.086v15.449h-7.761V96.328h6.592l.467 3.157.447-.534a8.308 8.308 0 016.578-3.207 7.045 7.045 0 015.638 2.246c1.289 1.505 1.943 3.752 1.943 6.681v14.399H298.5z"/></g></g></svg>
