<svg xmlns="http://www.w3.org/2000/svg" viewBox="0 0 332 166" width="332" height="166"><path fill="#542582" d="M0 0h332v166H0z"/><g fill="#FFF"><path d="M157.299 42.585c-.149-.026-.3-.05-.452-.074l-.183-.026a17.515 17.515 0 00-.78-.091 23.703 23.703 0 00-.536-.038 14.854 14.854 0 00-1.286-.025 16.235 16.235 0 00-1.154.064c-.2.018-.397.041-.59.064l-.164.023-.18.026-.222.035c-.098.015-.194.033-.288.05-.133.023-.263.05-.394.076-.754.16-1.494.38-2.213.658a13.456 13.456 0 00-1.777.85 12.452 12.452 0 00-1.065.683c-.104.076-.208.151-.308.229a11.07 11.07 0 00-.609.502 12.1 12.1 0 00-.932.914 12.07 12.07 0 00-.804.993c-.097.135-.191.273-.283.412-.061.095-.123.191-.183.288a11.376 11.376 0 00-1.575 4.464c-.038.293-.07.592-.086.897-.014.233-.023.47-.023.71 0 .18.001.357.014.534.012.183.025.364.046.544l.015.125c.026.214.06.425.1.631.016.082.031.162.049.243.037.173.078.343.123.51.059.218.12.431.192.639a11.566 11.566 0 001.853 3.445c.14.184.289.356.431.519.179.206.36.394.533.567l.094.091c.146.14.301.289.481.442.123.104.248.215.387.323.13.101.262.204.405.307a12.739 12.739 0 001.17.75 12.95 12.95 0 002.755 1.14 14.048 14.048 0 002.291.458c.367.045.746.079 1.14.098.191.01.387.018.583.02.09.001.181.004.273.004.706 0 1.358-.027 1.965-.078l.119-.011a17.662 17.662 0 001.687-.225 16.78 16.78 0 001.963-.47c.215-.065.424-.135.62-.203l.191-.067c.095-.034.225-.08.378-.139.202-.079.447-.176.724-.295.166-.071.346-.151.527-.236.165-.075.338-.157.51-.243.074-.035.147-.07.222-.108V59.28l-.154.093-.296.179a18.261 18.261 0 01-1.785.971c-.533.252-1.043.464-1.538.641-.833.301-1.69.53-2.562.684-.089.016-.18.03-.266.044a14.2 14.2 0 01-1.434.142c-.163.005-.316.01-.458.01a12.704 12.704 0 01-2.082-.164 10.675 10.675 0 01-1.861-.484l-.271-.105-.175-.072a9.41 9.41 0 01-.921-.454c-.101-.058-.201-.117-.304-.183s-.204-.132-.305-.201a6.828 6.828 0 01-.372-.274 7.362 7.362 0 01-.337-.278l-.143-.127-.07-.065-.044-.041-.052-.05a7.59 7.59 0 01-.79-.909c-.078-.105-.15-.213-.221-.319a6.723 6.723 0 01-.432-.759c-.064-.127-.121-.258-.176-.384a7.06 7.06 0 01-.374-1.121 7.754 7.754 0 01-.204-1.211 8.337 8.337 0 01-.033-1.09c.011-.306.038-.612.082-.915a7.611 7.611 0 01.429-1.647c.041-.106.087-.213.132-.32a6.918 6.918 0 01.394-.772 7.406 7.406 0 01.688-.991 6.66 6.66 0 01.288-.33c.05-.055.101-.112.154-.165a8.821 8.821 0 013.469-2.139 8.818 8.818 0 011.389-.354c.166-.033.334-.056.498-.079a10.819 10.819 0 011.418-.094c.101 0 .2-.001.3.001.224.007.442.014.653.026.149.011.293.02.436.034.271.025.532.059.781.095.221.034.435.072.637.112.308.061.59.131.844.196.166.044.318.089.457.13.207.061.386.117.523.165.24.083.372.132.372.132.211.075.419.158.622.24.274.109.536.228.787.342.207.093.405.191.593.282.153.075.296.15.431.22.236.123.435.233.6.32l.439.24v-4.23s-.266-.108-.721-.281c-.2-.076-.439-.166-.709-.262-.15-.053-.309-.11-.479-.168-.132-.045-.27-.093-.415-.139-.159-.052-.329-.108-.5-.16-.124-.037-.252-.076-.382-.113l-.115-.033c-.127-.035-.254-.072-.383-.106-.153-.041-.31-.082-.468-.12-.101-.026-.202-.049-.304-.074a26.735 26.735 0 00-1.034-.211m-21.146-4.395h33.564v31.588h-33.564V38.19zM110.355 55.609v6.208h4.03l.213-.007c.136-.005.328-.012.56-.033a6.967 6.967 0 001.573-.309 3.53 3.53 0 001.376-.803c.137-.135.257-.286.36-.449.244-.389.387-.833.414-1.291.01-.124.008-.196.008-.196s.003-.056 0-.153a2.834 2.834 0 00-.083-.601 2.494 2.494 0 00-.47-.949 3.067 3.067 0 00-.517-.488 3.841 3.841 0 00-.747-.421 5.886 5.886 0 00-1.213-.357 9.01 9.01 0 00-1.181-.135 7.478 7.478 0 00-.425-.014l-3.898-.002M110.355 46.172v5.884h1.952s.13 0 .301-.006c.135-.003.296-.012.44-.019a7.891 7.891 0 001.512-.243c.108-.03.217-.064.325-.101a3.199 3.199 0 001.178-.702 2.42 2.42 0 00.541-.81 2.99 2.99 0 00.206-.889c.019-.203.018-.333.018-.333s.004-.097-.004-.251a2.821 2.821 0 00-.269-1.074 2.186 2.186 0 00-.413-.556 2.53 2.53 0 00-.772-.508 5.198 5.198 0 00-1.708-.375 9.408 9.408 0 00-.619-.018l-2.688.001z"/><path d="M106.282 42.618v22.751h8.563s4.177.115 6.482-2.191a5.691 5.691 0 00.148-8.046l-.009-.009a7.456 7.456 0 00-3.37-1.875 6.1 6.1 0 001.509-1.056 4.68 4.68 0 001.4-3.69 5.295 5.295 0 00-1.607-3.803s-1.759-2.082-5.733-2.082l-7.383.001zm-8.806-4.428h33.564v31.588H97.476V38.19zM71.68 55.609v6.208h4.03l.213-.007c.136-.005.328-.012.56-.033a6.967 6.967 0 001.573-.309 3.53 3.53 0 001.376-.803c.137-.135.257-.286.36-.449.244-.389.387-.833.414-1.291.01-.124.008-.196.008-.196s.003-.056 0-.153a2.834 2.834 0 00-.083-.601 2.494 2.494 0 00-.47-.949 3.067 3.067 0 00-.517-.488 3.849 3.849 0 00-.748-.421 5.816 5.816 0 00-1.212-.357 8.97 8.97 0 00-1.181-.135 7.488 7.488 0 00-.427-.014l-3.896-.002M71.68 46.172v5.884h1.952s.13 0 .301-.006c.135-.003.296-.012.44-.019a7.891 7.891 0 001.512-.243c.108-.03.217-.064.323-.101a3.19 3.19 0 001.179-.702 2.42 2.42 0 00.541-.81c.113-.284.182-.584.206-.889.018-.203.016-.333.016-.333s.006-.097-.003-.251a2.799 2.799 0 00-.269-1.074 2.186 2.186 0 00-.413-.556 2.53 2.53 0 00-.772-.508 5.198 5.198 0 00-1.708-.375 9.427 9.427 0 00-.619-.018l-2.686.001z"/><path d="M67.606 42.618v22.751h8.563s4.177.115 6.482-2.191a5.691 5.691 0 00.148-8.046l-.009-.009a7.465 7.465 0 00-3.371-1.875 6.073 6.073 0 001.509-1.056 4.672 4.672 0 001.401-3.69 5.295 5.295 0 00-1.607-3.803s-1.76-2.082-5.734-2.082l-7.382.001zm-8.805-4.428h33.564v31.588H58.801V38.19zM177.898 65.367V42.626h7.347c2.904 0 5.12.583 6.647 1.75a5.971 5.971 0 012.289 5.055 6.123 6.123 0 01-1.239 3.881 7.04 7.04 0 01-3.531 2.322c2.12 3.16 4.166 6.404 6.139 9.732h-3.658a170.098 170.098 0 00-5.598-9.191c-.339.02-.7.031-1.082.031h-4.198v9.16l-3.116.001zm3.116-11.703h3.975a7.89 7.89 0 004.517-1.051A3.624 3.624 0 00191 49.432c0-2.84-1.993-4.26-5.979-4.26h-4.007v8.492zM210.02 42.626a434.469 434.469 0 014.788 11.354 742.068 742.068 0 014.5 11.388h-3.372c-.381-1.039-.758-2.067-1.129-3.085a418.623 418.623 0 00-1.129-3.054h-10.687a322.12 322.12 0 00-2.259 6.139h-3.276a529.042 529.042 0 014.564-11.674 370.934 370.934 0 014.691-11.067h3.309zm-6.011 13.93h8.651a815.88 815.88 0 00-2.162-5.471c-.722-1.801-1.444-3.592-2.163-5.374a523.413 523.413 0 00-2.195 5.407 423.513 423.513 0 00-2.131 5.438M221.725 42.626h7.919a12.847 12.847 0 016.042 1.32 9.107 9.107 0 013.865 3.834 12.805 12.805 0 011.351 6.139 13.104 13.104 0 01-1.351 6.185 9.21 9.21 0 01-3.881 3.913 12.688 12.688 0 01-6.058 1.351h-7.887V42.626zm7.665 20.069a8.05 8.05 0 006.106-2.226c1.421-1.485 2.132-3.668 2.132-6.551 0-2.841-.705-4.988-2.116-6.442a8.1 8.1 0 00-6.091-2.18h-4.548v17.398h4.517zM244.53 42.626h3.149v22.741h-3.149zM262.277 42.149c1.54-.021 3.069.26 4.501.826a9.73 9.73 0 013.467 2.386 10.56 10.56 0 012.21 3.738c.528 1.573.786 3.223.763 4.882a14.423 14.423 0 01-.78 4.883 10.866 10.866 0 01-2.21 3.737 9.686 9.686 0 01-3.451 2.401 12.448 12.448 0 01-9.002 0 9.67 9.67 0 01-3.45-2.401 10.859 10.859 0 01-2.211-3.737 14.43 14.43 0 01-.778-4.883c-.023-1.659.235-3.31.763-4.882a10.537 10.537 0 012.21-3.738 9.708 9.708 0 013.467-2.386 11.814 11.814 0 014.501-.826m0 20.96a7.468 7.468 0 004.103-1.097 7.05 7.05 0 002.639-3.148 11.84 11.84 0 00.923-4.883 11.727 11.727 0 00-.923-4.867 7.069 7.069 0 00-2.639-3.132 8.192 8.192 0 00-8.191 0 7.015 7.015 0 00-2.654 3.132 11.727 11.727 0 00-.923 4.867 11.836 11.836 0 00.923 4.883 7.013 7.013 0 002.654 3.148 7.495 7.495 0 004.088 1.097"/><g><path d="M52.727 121.054a25.598 25.598 0 01-11.303-2.559v-7.604a25.577 25.577 0 005.26 2.156c1.917.548 3.901.829 5.895.836a9.447 9.447 0 004.448-.84 2.795 2.795 0 001.624-2.544 2.546 2.546 0 00-.756-1.918 5.711 5.711 0 00-1.905-1.142 19.174 19.174 0 00-2.738-.814 37.415 37.415 0 01-5.721-1.773 13.592 13.592 0 01-3.785-2.256 7.696 7.696 0 01-2.097-2.929 10.628 10.628 0 01-.673-3.954 10.057 10.057 0 011.727-5.923 11.083 11.083 0 014.976-3.786 20.368 20.368 0 017.734-1.344c1.918 0 3.829.214 5.699.64a22.74 22.74 0 014.858 1.669v7.495c-.966-.54-1.98-.99-3.028-1.344a25.118 25.118 0 00-3.76-.958 21.38 21.38 0 00-3.668-.33 8.758 8.758 0 00-4.021.762 2.618 2.618 0 00-1.552 2.422 2.65 2.65 0 001.606 2.476 20.034 20.034 0 004.134 1.398c1.676.388 3.326.883 4.939 1.481a15.731 15.731 0 013.799 2.02 7.895 7.895 0 012.432 2.959 11.712 11.712 0 01-.893 10.576 10.91 10.91 0 01-5.07 3.811 22.457 22.457 0 01-8.161 1.317zM87.773 120.308v-15.683c0-2.799-1.651-3.386-3.036-3.386a4.541 4.541 0 00-3.706 1.825l-.076.095v17.149h-8.617V83.912h8.617v13.724l.59-.579a8.886 8.886 0 016.426-2.639 7.82 7.82 0 016.26 2.492c1.431 1.667 2.157 4.162 2.157 7.415v15.982l-8.615.001zM101.86 120.308V95.064h7.318l.701 4.855.501-.902c1.643-2.962 3.709-4.401 6.319-4.401a6.418 6.418 0 012.64.52v7.338a4.927 4.927 0 00-1.038-.379 7.963 7.963 0 00-1.852-.208 7.538 7.538 0 00-3.287.681 7.808 7.808 0 00-2.606 2.135l-.079.095v15.509l-8.617.001zM134.571 120.955a14.995 14.995 0 01-5.378-.923 11.246 11.246 0 01-4.081-2.656 11.722 11.722 0 01-2.588-4.184 15.934 15.934 0 01-.898-5.482 15.019 15.019 0 011.576-7.08 11.1 11.1 0 014.467-4.588 15.477 15.477 0 0113.802 0 11.118 11.118 0 014.467 4.588 15.043 15.043 0 011.576 7.08 15.934 15.934 0 01-.898 5.482 11.791 11.791 0 01-2.588 4.185 11.256 11.256 0 01-4.081 2.655 14.995 14.995 0 01-5.376.923zm0-19.814a3.56 3.56 0 00-3.156 1.753 9.111 9.111 0 00-1.074 4.868 8.775 8.775 0 001.074 4.717 3.738 3.738 0 006.337-.003 8.928 8.928 0 001.049-4.714 9.28 9.28 0 00-1.049-4.865 3.542 3.542 0 00-3.181-1.756zM151.944 131.559V95.064h7.316l.472 3.356.505-.654a8.057 8.057 0 016.643-3.348 9.366 9.366 0 015.38 1.533 10.098 10.098 0 013.514 4.383 19.105 19.105 0 01-.221 14.22 11.003 11.003 0 01-4.197 4.735 12.335 12.335 0 01-6.516 1.666 10.942 10.942 0 01-3.815-.675l-.467-.171v11.45h-8.614zm12.199-30.32a4.459 4.459 0 00-3.499 1.614l-.085.099v10.499l.193.096c.396.203.817.354 1.251.452.442.092.892.137 1.343.133a4.35 4.35 0 003.714-1.76 8.1 8.1 0 001.264-4.861 8.558 8.558 0 00-1.027-4.621 3.544 3.544 0 00-3.154-1.651zM189.384 120.955a22.894 22.894 0 01-8.615-1.629v-6.244a17.957 17.957 0 003.541 1.437c1.325.391 2.697.597 4.078.61a7.116 7.116 0 003.014-.483 1.779 1.779 0 001.118-1.658 1.605 1.605 0 00-1.026-1.534 11.753 11.753 0 00-2.181-.695 23.682 23.682 0 01-5.272-1.812 6.486 6.486 0 01-2.769-2.5 7.64 7.64 0 01-.851-3.763 7.297 7.297 0 011.328-4.4 8.568 8.568 0 013.807-2.846 16.02 16.02 0 016.017-1.019 21.886 21.886 0 014.508.464c1.313.27 2.59.69 3.808 1.249v6.137a11.99 11.99 0 00-3.139-1.414 14.455 14.455 0 00-4.032-.61 6.91 6.91 0 00-2.858.479 1.74 1.74 0 00-1.171 1.61c-.013.38.113.752.354 1.046.301.313.682.539 1.102.652a27.63 27.63 0 001.893.53c1.795.344 3.535.928 5.174 1.736a6.845 6.845 0 012.801 2.532 7.361 7.361 0 01.872 3.709 7.679 7.679 0 01-1.354 4.602 8.261 8.261 0 01-3.896 2.839 17.837 17.837 0 01-6.251.975zM220.25 120.308v-15.683c0-2.799-1.651-3.386-3.036-3.386a4.541 4.541 0 00-3.706 1.825l-.076.095v17.149h-8.617V83.912h8.617v13.724l.59-.579a8.886 8.886 0 016.426-2.639 7.82 7.82 0 016.26 2.492c1.431 1.667 2.157 4.162 2.157 7.415v15.982h-8.615zM233.889 120.308V95.064h8.615v25.244h-8.615zm4.282-28.777a5.359 5.359 0 01-3.58-1.085 4.34 4.34 0 01-.001-6.093 5.37 5.37 0 013.581-1.088 5.46 5.46 0 013.633 1.088 4.34 4.34 0 010 6.091 5.444 5.444 0 01-3.633 1.087zM247.729 120.308V95.064h7.318l.701 4.855.501-.902c1.643-2.962 3.709-4.401 6.316-4.401a6.418 6.418 0 012.64.52v7.338a4.935 4.935 0 00-1.039-.379 7.93 7.93 0 00-1.848-.208 7.538 7.538 0 00-3.287.681 7.807 7.807 0 00-2.609 2.135l-.079.095v15.509l-8.614.001zM281.037 120.955a16.676 16.676 0 01-7.536-1.557 10.596 10.596 0 01-4.656-4.484 15.045 15.045 0 01-1.599-7.204c-.026-1.881.27-3.752.875-5.532a11.788 11.788 0 012.514-4.185 11.001 11.001 0 013.935-2.655 13.894 13.894 0 015.173-.92 11.998 11.998 0 016.17 1.494 9.447 9.447 0 013.819 4.351 17.226 17.226 0 011.312 7.1v1.842h-15.735l.06.399a5.453 5.453 0 002.141 3.946 9.101 9.101 0 005.021 1.13 17.34 17.34 0 004.142-.459 16.963 16.963 0 003.227-1.172v6.325c-1.29.493-2.62.875-3.975 1.14a25.455 25.455 0 01-4.888.441zm-1.395-20.91c-2.346 0-3.767 1.556-4.226 4.626l-.06.399h8.05l-.033-.377a6.443 6.443 0 00-1.096-3.497 3.198 3.198 0 00-2.635-1.151z"/></g></g></svg>
