<svg xmlns="http://www.w3.org/2000/svg" viewBox="0 0 332 166" width="332" height="166"><path fill="#542582" d="M0 0h332v166H0z"/><g fill="#FFF"><path d="M34.21 120.409V98.548h-8.552v-6.157h24.341v6.157h-8.553v21.861zM65.743 120.409v-12.591c0-2.244-1.325-2.716-2.437-2.716a3.648 3.648 0 00-2.976 1.465l-.06.076v13.766h-6.916V91.193h6.916v11.016l.474-.465a7.134 7.134 0 015.16-2.12 6.28 6.28 0 015.025 2.003 8.965 8.965 0 011.73 5.951v12.831h-6.916zM76.732 120.409v-20.264h5.874l.563 3.898.402-.724c1.319-2.377 2.977-3.533 5.072-3.533.728-.012 1.45.13 2.119.416v5.89a3.934 3.934 0 00-.835-.303 6.329 6.329 0 00-1.483-.167 6.05 6.05 0 00-2.639.546 6.276 6.276 0 00-2.093 1.712l-.063.077v12.452h-6.917zM103.309 120.927a13.42 13.42 0 01-6.05-1.249 8.503 8.503 0 01-3.736-3.599 12.066 12.066 0 01-1.285-5.783c-.021-1.51.217-3.013.702-4.443a9.506 9.506 0 012.019-3.358 8.81 8.81 0 013.158-2.13 11.156 11.156 0 014.152-.74 9.64 9.64 0 014.954 1.2 7.6 7.6 0 013.064 3.493 13.818 13.818 0 011.054 5.7v1.479H98.708l.049.32a4.393 4.393 0 001.718 3.168 7.22 7.22 0 004.033.905c1.119.01 2.234-.113 3.324-.367.894-.225 1.762-.54 2.592-.94v5.075a19.149 19.149 0 01-3.193.916 20.394 20.394 0 01-3.922.353zm-1.118-16.784c-1.884 0-3.025 1.249-3.393 3.714l-.048.32h6.462l-.026-.303a5.184 5.184 0 00-.879-2.807 2.57 2.57 0 00-2.116-.924zM125.089 120.927a13.413 13.413 0 01-6.049-1.249 8.503 8.503 0 01-3.736-3.599 12.066 12.066 0 01-1.285-5.783c-.021-1.51.217-3.013.702-4.443a9.506 9.506 0 012.019-3.358 8.81 8.81 0 013.158-2.13 11.156 11.156 0 014.152-.74 9.64 9.64 0 014.954 1.2 7.6 7.6 0 013.064 3.493 13.835 13.835 0 011.054 5.7v1.479h-12.635l.049.32a4.393 4.393 0 001.718 3.168 7.22 7.22 0 004.033.905c1.119.01 2.234-.113 3.324-.367.894-.225 1.762-.54 2.592-.94v5.075a19.149 19.149 0 01-3.193.916 20.377 20.377 0 01-3.921.353zm-1.118-16.784c-1.884 0-3.025 1.249-3.393 3.714l-.048.32h6.462l-.026-.303a5.184 5.184 0 00-.879-2.807 2.569 2.569 0 00-2.116-.924zM158.938 121.008a18.036 18.036 0 01-6.199-1.002 12.705 12.705 0 01-4.615-2.875 12.372 12.372 0 01-2.892-4.593 17.894 17.894 0 01-1.001-6.157 16.264 16.264 0 011.06-5.992 12.949 12.949 0 013.032-4.598 13.616 13.616 0 014.739-2.958 17.584 17.584 0 016.197-1.041c2.754-.05 5.485.515 7.993 1.654v6.351a12.409 12.409 0 00-2.98-1.319 13.636 13.636 0 00-3.815-.529 8.945 8.945 0 00-6.408 2.194 8.261 8.261 0 00-2.303 6.237 7.71 7.71 0 008.431 8.47 14.935 14.935 0 004.012-.528 15.515 15.515 0 003.383-1.424v6.259a17.398 17.398 0 01-3.84 1.337c-1.574.35-3.182.523-4.794.514zM180.355 120.927a12.03 12.03 0 01-4.316-.739 9.056 9.056 0 01-3.277-2.133 9.393 9.393 0 01-2.077-3.358 12.747 12.747 0 01-.722-4.4 12.059 12.059 0 011.266-5.685 8.926 8.926 0 013.586-3.684 12.418 12.418 0 0111.077 0 8.922 8.922 0 013.587 3.684 12.083 12.083 0 011.266 5.685 12.793 12.793 0 01-.721 4.4 9.383 9.383 0 01-2.078 3.357 9.024 9.024 0 01-3.277 2.134c-1.38.508-2.843.759-4.314.739zm0-15.906a2.857 2.857 0 00-2.533 1.409 7.31 7.31 0 00-.863 3.905 7.028 7.028 0 00.864 3.788 3.002 3.002 0 005.087-.002 7.174 7.174 0 00.842-3.785 7.443 7.443 0 00-.842-3.903 2.848 2.848 0 00-2.555-1.412zM200.536 120.927a6.171 6.171 0 01-4.963-1.998 8.906 8.906 0 01-1.712-5.875v-12.909h6.915v12.67a2.833 2.833 0 00.609 1.921c.445.49 1.088.753 1.749.717a3.689 3.689 0 002.933-1.46l.063-.077v-13.77h6.916v20.264h-5.877l-.415-2.774-.398.476a7.329 7.329 0 01-5.82 2.815zM229.669 120.409v-12.591c0-2.244-1.325-2.716-2.437-2.716a3.648 3.648 0 00-2.976 1.465l-.06.076v13.766h-6.916v-20.264h5.875l.415 2.813.399-.476a7.408 7.408 0 015.861-2.857 6.28 6.28 0 015.025 2.003 8.965 8.965 0 011.73 5.951v12.831h-6.916zM249.452 120.927a7.598 7.598 0 01-5.501-1.817 7.184 7.184 0 01-1.854-5.337v-8.111h-3.158v-5.197h3.158v-4.931l6.915-1.516v6.447h4.796v5.197h-4.796v7.113a2.482 2.482 0 002.797 2.755 6.704 6.704 0 002.399-.462v5.025a14.09 14.09 0 01-2.191.599c-.845.16-1.704.238-2.565.235zM257.484 120.409v-20.264h6.915v20.264h-6.915zm3.438-23.1a4.317 4.317 0 01-2.877-.872 3.491 3.491 0 010-4.893 4.325 4.325 0 012.877-.871 4.385 4.385 0 012.916.872 3.49 3.49 0 010 4.892 4.392 4.392 0 01-2.916.872zM278.945 120.927a13.42 13.42 0 01-6.05-1.249 8.503 8.503 0 01-3.736-3.599 12.066 12.066 0 01-1.285-5.783c-.021-1.51.217-3.013.702-4.443a9.506 9.506 0 012.019-3.358 8.81 8.81 0 013.158-2.13 11.156 11.156 0 014.152-.74 9.64 9.64 0 014.954 1.2 7.6 7.6 0 013.064 3.493 13.835 13.835 0 011.054 5.7v1.479h-12.634l.049.32a4.39 4.39 0 001.719 3.168 7.22 7.22 0 004.033.905c1.119.01 2.234-.113 3.324-.367.894-.225 1.762-.54 2.592-.94v5.075a19.149 19.149 0 01-3.193.916 20.401 20.401 0 01-3.922.353zm-1.119-16.784c-1.884 0-3.025 1.249-3.393 3.714l-.048.32h6.462l-.026-.303a5.184 5.184 0 00-.879-2.807 2.567 2.567 0 00-2.116-.924zM297.128 120.927a18.372 18.372 0 01-6.914-1.307v-5.012c.903.484 1.856.869 2.841 1.15a11.94 11.94 0 003.273.492 5.704 5.704 0 002.421-.39c.543-.217.898-.744.895-1.329a1.293 1.293 0 00-.822-1.234 9.623 9.623 0 00-1.752-.557 18.963 18.963 0 01-4.23-1.454 5.21 5.21 0 01-2.224-2.009 6.113 6.113 0 01-.683-3.019 5.864 5.864 0 011.065-3.532 6.9 6.9 0 013.058-2.285 12.818 12.818 0 014.83-.82c1.216 0 2.429.125 3.619.376 1.054.215 2.079.551 3.056 1.001v4.928a9.646 9.646 0 00-2.52-1.136 11.627 11.627 0 00-3.235-.49 5.538 5.538 0 00-2.295.385 1.391 1.391 0 00-.942 1.291c-.01.306.092.605.286.841.241.252.546.433.883.524.366.121.871.262 1.52.426 1.44.277 2.837.746 4.152 1.394a5.468 5.468 0 012.247 2.032c.493.913.735 1.94.702 2.977a6.17 6.17 0 01-1.087 3.694 6.608 6.608 0 01-3.128 2.278c-1.611.561-3.31.826-5.016.785z"/><g><path d="M157.298 46.579c-.147-.026-.297-.05-.453-.074l-.181-.026a17.39 17.39 0 00-.781-.091 23.944 23.944 0 00-.534-.038 14.909 14.909 0 00-1.286-.025 16.452 16.452 0 00-1.155.064c-.2.018-.397.041-.592.064l-.162.023-.18.026-.223.035c-.096.015-.192.033-.288.05-.132.023-.262.05-.391.076-.755.159-1.495.379-2.214.659a12.913 12.913 0 00-1.778.85 12.062 12.062 0 00-1.062.683c-.105.076-.209.151-.31.229a11.933 11.933 0 00-1.541 1.416 10.654 10.654 0 00-.804.993 11.577 11.577 0 00-.467.7 11.369 11.369 0 00-1.574 4.463 12.269 12.269 0 00-.111 1.607 8.597 8.597 0 00.06 1.078l.014.125a9.657 9.657 0 00.151.874 9.744 9.744 0 00.313 1.149 11.566 11.566 0 001.452 2.897 11.313 11.313 0 00.833 1.067c.18.206.36.394.532.567l.096.091c.145.14.301.289.48.442.123.104.25.215.39.323a11.346 11.346 0 001.574 1.057 12.704 12.704 0 002.753 1.14c.386.112.793.209 1.22.292a16.787 16.787 0 003.067.288c.705 0 1.359-.027 1.963-.078l.118-.011a18.62 18.62 0 003.092-.537c.192-.05.38-.105.56-.158.214-.065.424-.135.62-.203l.192-.067c.094-.034.225-.08.376-.139a22.153 22.153 0 001.983-.882v-4.306a5.644 5.644 0 01-.153.093l-.296.179a18.216 18.216 0 01-1.784.971c-.533.252-1.043.464-1.539.641-.832.3-1.688.529-2.559.684-.091.016-.18.03-.269.044a14.196 14.196 0 01-1.435.142 12.65 12.65 0 01-2.538-.154 10.652 10.652 0 01-1.861-.484l-.27-.105-.176-.072a8.717 8.717 0 01-1.226-.637 12.243 12.243 0 01-.304-.2 8.083 8.083 0 01-.709-.552l-.143-.127-.071-.065-.041-.041-.053-.05a8.525 8.525 0 01-.532-.579 6.83 6.83 0 01-.256-.33 7.112 7.112 0 01-.224-.319 6.723 6.723 0 01-.431-.759 7.707 7.707 0 01-.416-1.028 7.873 7.873 0 01-.363-2.062 7.472 7.472 0 01-.005-.716c.009-.306.036-.612.079-.915a8.426 8.426 0 01.269-1.182c.048-.153.104-.305.162-.465a6.61 6.61 0 01.134-.32c.061-.146.132-.292.209-.439.057-.112.12-.221.184-.333a7.223 7.223 0 01.688-.991c.091-.109.187-.224.286-.33.053-.055.104-.112.157-.165a8.85 8.85 0 013.468-2.139 8.303 8.303 0 01.934-.263c.153-.034.305-.064.455-.091.166-.033.333-.056.498-.079s.333-.04.495-.053c.315-.027.623-.041.923-.041.102 0 .2-.001.299.001.223.007.442.014.654.026.149.011.293.02.435.034a14.089 14.089 0 012.718.533 11.743 11.743 0 01.896.297c.213.075.42.158.623.24.274.109.534.228.787.342.209.093.405.191.592.282.154.075.297.15.434.22.233.123.434.233.597.32l.439.24v-4.23s-.264-.108-.72-.281a32.65 32.65 0 00-.71-.262c-.15-.053-.307-.11-.476-.168-.135-.045-.271-.093-.416-.139-.161-.052-.329-.108-.5-.16-.124-.037-.252-.076-.382-.113l-.115-.033c-.125-.035-.253-.072-.384-.106a18.59 18.59 0 00-.466-.12c-.101-.026-.202-.049-.305-.074a21.34 21.34 0 00-1.037-.211m-21.147-4.393h33.566v31.586h-33.566V42.185zM110.356 59.602v6.208h4.03l.211-.007c.138-.005.33-.012.56-.033a6.942 6.942 0 001.575-.31 3.53 3.53 0 001.376-.803c.136-.136.256-.287.36-.449.244-.389.386-.833.413-1.291.01-.124.01-.196.01-.196s.001-.056-.001-.153a2.834 2.834 0 00-.083-.601 2.478 2.478 0 00-.469-.949 3.077 3.077 0 00-.518-.488 3.841 3.841 0 00-.747-.421 5.825 5.825 0 00-1.213-.357 8.945 8.945 0 00-1.181-.135 7.387 7.387 0 00-.425-.014c-1.431.001-3.897-.001-3.898-.001M110.356 50.165v5.884h1.951s.13 0 .303-.006c.135-.003.294-.012.439-.019a7.891 7.891 0 001.512-.243 5.07 5.07 0 00.324-.101 3.211 3.211 0 001.179-.702c.234-.23.417-.506.54-.81a2.99 2.99 0 00.206-.889c.019-.203.018-.333.018-.333s.004-.097-.004-.251a2.741 2.741 0 00-.269-1.074 2.163 2.163 0 00-.413-.556 2.49 2.49 0 00-.772-.508 5.167 5.167 0 00-1.707-.375 9.427 9.427 0 00-.619-.018l-2.688.001z"/><path d="M106.281 46.611v22.751h8.564s4.176.115 6.482-2.191a5.687 5.687 0 00.152-8.041l-.013-.014a7.465 7.465 0 00-3.371-1.875 6.123 6.123 0 001.51-1.056 4.684 4.684 0 001.399-3.69 5.294 5.294 0 00-1.606-3.802s-1.759-2.082-5.734-2.082h-7.383zm-8.805-4.428h33.564v31.588H97.476V42.183zM71.679 59.602v6.208h4.031l.211-.007c.138-.005.33-.012.56-.033a6.914 6.914 0 001.573-.31 3.522 3.522 0 001.376-.803c.137-.135.257-.286.36-.449.244-.389.387-.833.414-1.291.01-.124.008-.196.008-.196s.003-.056 0-.153a2.834 2.834 0 00-.083-.601 2.459 2.459 0 00-.625-1.123 3.077 3.077 0 00-.361-.314 3.841 3.841 0 00-.747-.421 5.825 5.825 0 00-1.213-.357 9.01 9.01 0 00-1.181-.135 7.448 7.448 0 00-.425-.014c-1.43.001-3.897-.001-3.898-.001M71.679 50.165v5.884h1.952s.13 0 .301-.006c.136-.003.296-.012.44-.019a7.891 7.891 0 001.512-.243c.108-.03.217-.064.325-.101a3.199 3.199 0 001.178-.702c.234-.23.418-.506.541-.81a2.99 2.99 0 00.206-.889c.019-.203.018-.333.018-.333s.004-.097-.004-.251a2.759 2.759 0 00-.269-1.074 2.186 2.186 0 00-.413-.556 2.53 2.53 0 00-.772-.508 5.192 5.192 0 00-1.707-.375 9.427 9.427 0 00-.619-.018l-2.689.001z"/><path d="M67.605 46.611v22.751h8.564s4.176.115 6.481-2.191a5.688 5.688 0 00.151-8.043l-.011-.011a7.465 7.465 0 00-3.371-1.875 6.129 6.129 0 001.511-1.056 4.687 4.687 0 001.399-3.69 5.293 5.293 0 00-1.607-3.802s-1.759-2.082-5.733-2.082l-7.384-.001zm-8.804-4.428h33.564v31.588H58.801V42.183zM177.897 69.361V46.62h7.348c2.904 0 5.119.583 6.646 1.75a5.968 5.968 0 012.29 5.055 6.118 6.118 0 01-1.241 3.881 7.04 7.04 0 01-3.531 2.322 204.212 204.212 0 016.139 9.733h-3.658a170.098 170.098 0 00-5.598-9.192c-.339.02-.7.031-1.081.031h-4.199v9.16l-3.115.001zm3.117-11.704h3.976a7.883 7.883 0 004.515-1.051 3.624 3.624 0 001.496-3.181c0-2.84-1.993-4.26-5.98-4.26h-4.008l.001 8.492zM210.021 46.62a444.991 444.991 0 014.787 11.354 742.209 742.209 0 014.502 11.388h-3.373l-1.129-3.085a418.623 418.623 0 00-1.129-3.054h-10.687a344.015 344.015 0 00-2.258 6.139h-3.277a537.1 537.1 0 014.566-11.674 365.76 365.76 0 014.69-11.067l3.308-.001zm-6.011 13.93h8.652a984.166 984.166 0 00-4.325-10.845 556.97 556.97 0 00-2.196 5.407 391.077 391.077 0 00-2.131 5.438M221.725 46.62h7.921a12.844 12.844 0 016.042 1.32 9.113 9.113 0 013.865 3.834 12.82 12.82 0 011.351 6.139 13.116 13.116 0 01-1.351 6.185 9.227 9.227 0 01-3.881 3.913 12.69 12.69 0 01-6.059 1.351h-7.888V46.62zm7.666 20.069a8.058 8.058 0 006.106-2.226c1.421-1.485 2.131-3.668 2.131-6.551 0-2.841-.705-4.988-2.115-6.442a8.1 8.1 0 00-6.091-2.18h-4.548v17.398l4.517.001zM244.53 46.619h3.149V69.36h-3.149zM262.278 46.142c1.54-.021 3.068.26 4.5.826a9.73 9.73 0 013.467 2.386 10.554 10.554 0 012.211 3.738c.528 1.573.785 3.223.762 4.882a14.43 14.43 0 01-.779 4.883 10.909 10.909 0 01-2.211 3.737 9.677 9.677 0 01-3.451 2.401 12.448 12.448 0 01-9.002 0 9.682 9.682 0 01-3.45-2.401 10.881 10.881 0 01-2.21-3.737 14.43 14.43 0 01-.778-4.883 14.698 14.698 0 01.762-4.882 10.537 10.537 0 012.21-3.738 9.73 9.73 0 013.467-2.386 11.816 11.816 0 014.502-.826m0 20.96a7.468 7.468 0 004.103-1.097 7.047 7.047 0 002.638-3.148 11.84 11.84 0 00.923-4.883 11.727 11.727 0 00-.923-4.867 7.072 7.072 0 00-2.638-3.132 8.192 8.192 0 00-8.191 0 7.031 7.031 0 00-2.656 3.132 11.727 11.727 0 00-.923 4.867 11.836 11.836 0 00.923 4.883 7.018 7.018 0 002.656 3.148 7.493 7.493 0 004.088 1.097"/></g></g></svg>
