<svg xmlns="http://www.w3.org/2000/svg" viewBox="0 0 332 166" width="332" height="166"><path fill="#542582" d="M0 0h332v166H0z"/><g fill="#FFF"><path d="M157.466 42.585c-.149-.026-.299-.049-.454-.074l-.181-.026a18.94 18.94 0 00-.78-.09c-.179-.018-.359-.029-.536-.04-.318-.02-.631-.029-.932-.029-.139 0-.218.003-.353.004a17.796 17.796 0 00-1.746.129l-.162.022-.18.026-.223.035c-.096.015-.192.033-.286.05a13.869 13.869 0 00-3.615 1.176c-.267.131-.523.266-.77.409-.239.136-.469.277-.69.424-.127.086-.252.17-.372.258a11.07 11.07 0 00-.919.731 11.557 11.557 0 00-.932.915c-.133.15-.269.301-.397.461-.139.172-.277.349-.408.53a10.755 10.755 0 00-.465.701 11.137 11.137 0 00-.909 1.838 11.411 11.411 0 00-.665 2.623c-.04.294-.071.593-.087.898-.014.235-.023.47-.023.71 0 .181.001.359.014.534.012.184.025.364.046.544l.014.127a9.317 9.317 0 00.15.872 10.505 10.505 0 00.595 1.9 11.583 11.583 0 002.537 3.78l.094.093c.145.138.301.289.481.44.123.105.248.214.387.323.128.101.262.204.404.307a12.686 12.686 0 001.172.75 12.717 12.717 0 002.753 1.141c.387.111.793.208 1.219.292.344.067.701.121 1.07.166a17.342 17.342 0 001.724.117c.09.003.181.006.273.006.706 0 1.359-.029 1.965-.079l.119-.011a18.9 18.9 0 001.687-.223 18.684 18.684 0 001.403-.313 17.475 17.475 0 001.18-.361l.192-.068a20.933 20.933 0 002.138-.913l.221-.106V59.28a5.66 5.66 0 01-.153.094l-.296.177c-.294.179-.578.348-.863.503a17.847 17.847 0 01-2.459 1.11c-.833.3-1.69.529-2.562.684a13.155 13.155 0 01-.87.122 12.523 12.523 0 01-1.289.071 12.017 12.017 0 01-2.081-.164 10.478 10.478 0 01-1.861-.484l-.27-.104a8.717 8.717 0 01-1.402-.711 8.411 8.411 0 01-1.013-.751l-.143-.128-.071-.065-.041-.041-.053-.05a8.525 8.525 0 01-.532-.579 7.026 7.026 0 01-.911-1.407 7.405 7.405 0 01-.55-1.505 8.009 8.009 0 01-.23-1.586 7.423 7.423 0 01-.005-.716 8.19 8.19 0 01.213-1.603 7.621 7.621 0 01.429-1.278c.063-.146.134-.29.21-.439.056-.11.12-.221.184-.333a7.232 7.232 0 01.688-.99 6.747 6.747 0 01.444-.496 8.888 8.888 0 012.596-1.8 11.776 11.776 0 01.872-.341 10.19 10.19 0 011.887-.432c.166-.023.333-.038.495-.053a10.819 10.819 0 011.223-.038 13.755 13.755 0 011.871.156c.221.033.435.072.637.11a14.874 14.874 0 012.196.623c.211.076.418.158.622.24.274.11.534.229.787.342.209.094.405.191.592.282.154.074.297.15.434.22.234.123.434.233.597.322l.44.239v-4.23s-.266-.109-.721-.281c-.202-.075-.439-.166-.71-.262-.149-.052-.307-.11-.476-.168-.134-.044-.271-.093-.416-.139-.161-.052-.329-.108-.5-.159a71.182 71.182 0 00-.382-.113l-.115-.033-.383-.106c-.153-.041-.309-.08-.467-.12-.101-.026-.202-.048-.304-.072-.168-.038-.337-.076-.508-.112s-.352-.068-.529-.101m-21.15-4.395h33.566v31.588H136.32V38.19zM110.523 55.609v6.21h4.031l.211-.008a9.11 9.11 0 00.56-.033 6.85 6.85 0 001.573-.31 3.53 3.53 0 001.376-.803 2.631 2.631 0 00.774-1.738c.01-.124.008-.198.008-.198s.003-.056 0-.151a2.862 2.862 0 00-.083-.603 2.479 2.479 0 00-.625-1.123 3.164 3.164 0 00-.361-.313 3.757 3.757 0 00-.747-.42 5.77 5.77 0 00-1.213-.359 8.97 8.97 0 00-1.181-.135 7.448 7.448 0 00-.425-.014l-3.898-.002M110.523 46.172v5.884h1.952s.13 0 .301-.006c.135-.003.296-.012.44-.019a7.891 7.891 0 001.512-.243c.108-.029.218-.064.325-.101a3.199 3.199 0 001.178-.702c.234-.23.418-.506.541-.81.113-.284.182-.583.206-.888.019-.204.018-.334.018-.334s.004-.097-.004-.25a2.755 2.755 0 00-.269-1.076 2.186 2.186 0 00-.413-.556 2.58 2.58 0 00-.772-.508 5.171 5.171 0 00-1.708-.374 8.829 8.829 0 00-.619-.019l-2.688.002z"/><path d="M106.449 42.62v22.749h8.563s4.177.116 6.482-2.191a5.688 5.688 0 00.149-8.043l-.01-.01a7.466 7.466 0 00-3.371-1.876 6.056 6.056 0 001.51-1.057 4.676 4.676 0 001.4-3.69 5.295 5.295 0 00-1.607-3.803s-1.76-2.08-5.734-2.08l-7.382.001zm-8.806-4.43h33.564v31.588H97.643V38.19zM71.847 55.609v6.21h4.03l.213-.008a9.11 9.11 0 00.56-.033 6.85 6.85 0 001.573-.31c.514-.16.984-.434 1.376-.803.136-.136.257-.286.36-.447.244-.389.386-.833.413-1.291.011-.124.01-.198.01-.198v-.151a2.998 2.998 0 00-.083-.603 2.479 2.479 0 00-.627-1.123 2.978 2.978 0 00-.361-.313 3.757 3.757 0 00-.747-.42 5.762 5.762 0 00-1.212-.359 8.97 8.97 0 00-1.182-.135 7.382 7.382 0 00-.424-.014l-3.899-.002M71.847 46.172v5.884h1.952s.13 0 .301-.006c.135-.003.296-.012.439-.019a7.901 7.901 0 001.513-.243c.108-.029.217-.064.325-.101.439-.146.84-.386 1.178-.702.234-.23.418-.506.54-.81.113-.284.183-.583.207-.888.019-.204.018-.334.018-.334s.004-.097-.004-.25a2.792 2.792 0 00-.27-1.076 2.137 2.137 0 00-.412-.556 2.566 2.566 0 00-.773-.508 5.16 5.16 0 00-1.707-.374 8.829 8.829 0 00-.619-.019l-2.688.002z"/><path d="M67.772 42.62v22.749h8.564s4.176.116 6.481-2.191a5.688 5.688 0 00.152-8.041l-.012-.012a7.466 7.466 0 00-3.371-1.876 6.125 6.125 0 001.511-1.057 4.676 4.676 0 001.4-3.69 5.295 5.295 0 00-1.607-3.803s-1.76-2.08-5.734-2.08l-7.384.001zm-8.804-4.43h33.565v31.588H58.968V38.19zM178.065 65.367V42.626h7.347c2.905 0 5.121.583 6.648 1.75a5.975 5.975 0 012.29 5.055 6.117 6.117 0 01-1.241 3.881 7.04 7.04 0 01-3.531 2.322c2.12 3.16 4.166 6.404 6.139 9.733h-3.657a170.098 170.098 0 00-5.598-9.191c-.339.02-.7.031-1.081.031h-4.199v9.16h-3.117zm3.116-11.704h3.977a7.883 7.883 0 004.515-1.051 3.624 3.624 0 001.496-3.181c0-2.84-1.993-4.26-5.98-4.26h-4.008v8.492zM210.188 42.626a432.455 432.455 0 014.787 11.354 742.209 742.209 0 014.502 11.388h-3.372c-.382-1.039-.758-2.067-1.13-3.085a418.623 418.623 0 00-1.129-3.054h-10.687a344.015 344.015 0 00-2.258 6.139h-3.276a529.042 529.042 0 014.564-11.674c1.536-3.794 3.1-7.483 4.691-11.067h3.308zm-6.011 13.93h8.652a765.314 765.314 0 00-2.163-5.471 1814.59 1814.59 0 00-2.162-5.374 523.413 523.413 0 00-2.195 5.407 417.858 417.858 0 00-2.132 5.438M221.892 42.626h7.921a12.847 12.847 0 016.042 1.32 9.113 9.113 0 013.865 3.834 12.805 12.805 0 011.351 6.139 13.104 13.104 0 01-1.351 6.185 9.227 9.227 0 01-3.881 3.913 12.69 12.69 0 01-6.059 1.351h-7.888V42.626zm7.666 20.069a8.05 8.05 0 006.106-2.226c1.421-1.485 2.131-3.668 2.131-6.551 0-2.841-.705-4.988-2.115-6.442a8.1 8.1 0 00-6.091-2.18h-4.548v17.399h4.517zM244.697 42.626h3.149v22.741h-3.149zM262.445 42.148c1.54-.021 3.068.26 4.5.826a9.708 9.708 0 013.467 2.386 10.554 10.554 0 012.211 3.738c.528 1.573.785 3.223.762 4.882a14.43 14.43 0 01-.779 4.883 10.856 10.856 0 01-2.21 3.737 9.69 9.69 0 01-3.452 2.401 12.442 12.442 0 01-9 0 9.699 9.699 0 01-3.452-2.401 10.881 10.881 0 01-2.21-3.737 14.43 14.43 0 01-.778-4.883 14.67 14.67 0 01.764-4.882 10.537 10.537 0 012.21-3.738 9.708 9.708 0 013.467-2.386 11.837 11.837 0 014.5-.826m-.001 20.961a7.468 7.468 0 004.103-1.097 7.05 7.05 0 002.639-3.148c.649-1.544.964-3.209.923-4.883a11.727 11.727 0 00-.923-4.867 7.074 7.074 0 00-2.639-3.132 8.192 8.192 0 00-8.191 0 7.031 7.031 0 00-2.656 3.132 11.727 11.727 0 00-.923 4.867 11.836 11.836 0 00.923 4.883 7.018 7.018 0 002.656 3.148 7.495 7.495 0 004.088 1.097"/><g><path d="M101.633 118.258a25.66 25.66 0 01-11.303-2.559v-7.604a25.55 25.55 0 005.259 2.157c1.917.547 3.9.828 5.894.834a9.305 9.305 0 004.45-.84 2.793 2.793 0 001.623-2.544 2.553 2.553 0 00-.754-1.918 5.752 5.752 0 00-1.907-1.144 19.432 19.432 0 00-2.738-.813 37.09 37.09 0 01-5.718-1.773 13.637 13.637 0 01-3.787-2.255 7.742 7.742 0 01-2.098-2.93 10.67 10.67 0 01-.672-3.954 10.05 10.05 0 011.729-5.922 11.06 11.06 0 014.975-3.788 20.373 20.373 0 017.735-1.343 25.59 25.59 0 015.698.639c1.677.37 3.307.93 4.858 1.669v7.494a18.102 18.102 0 00-3.027-1.343 25.49 25.49 0 00-3.76-.959 21.694 21.694 0 00-3.669-.328 8.795 8.795 0 00-4.02.761 2.686 2.686 0 00.054 4.899 19.896 19.896 0 004.132 1.397c1.676.388 3.325.882 4.938 1.48a15.682 15.682 0 013.799 2.021 7.898 7.898 0 012.432 2.957 11.71 11.71 0 01-.892 10.577 10.91 10.91 0 01-5.07 3.811 22.393 22.393 0 01-8.161 1.321zM129.328 118.159a7.682 7.682 0 01-6.182-2.491c-1.416-1.67-2.133-4.132-2.133-7.318V92.268h8.615v15.784a3.532 3.532 0 00.758 2.393 2.748 2.748 0 002.179.891 4.59 4.59 0 003.653-1.819l.079-.096V92.268h8.615v25.244h-7.319l-.519-3.455-.495.593a9.132 9.132 0 01-7.251 3.509zM150.235 117.511V92.268h7.318l.702 4.855.5-.902c1.641-2.962 3.708-4.401 6.318-4.401a6.413 6.413 0 012.639.52v7.338a4.874 4.874 0 00-1.039-.377 7.886 7.886 0 00-1.849-.209 7.538 7.538 0 00-3.287.681 7.826 7.826 0 00-2.607 2.133l-.079.096v15.51l-8.616-.001zM170.722 117.511V92.268h7.318l.702 4.855.5-.902c1.641-2.962 3.708-4.401 6.318-4.401a6.413 6.413 0 012.639.52v7.338a4.858 4.858 0 00-1.039-.378 7.886 7.886 0 00-1.849-.209 7.538 7.538 0 00-3.287.681 7.826 7.826 0 00-2.607 2.133l-.079.096v15.51h-8.616zM203.88 118.159a16.704 16.704 0 01-7.536-1.556 10.601 10.601 0 01-4.655-4.485 15.027 15.027 0 01-1.601-7.202c-.026-1.881.27-3.753.876-5.535a11.822 11.822 0 012.514-4.184 10.93 10.93 0 013.934-2.654 13.893 13.893 0 015.173-.923 12.01 12.01 0 016.171 1.495 9.46 9.46 0 013.818 4.351 17.227 17.227 0 011.313 7.1v1.842h-15.739l.06.399a5.46 5.46 0 002.141 3.946 9.097 9.097 0 005.022 1.129c1.393.013 2.783-.14 4.14-.457a16.914 16.914 0 003.229-1.172v6.323c-1.29.495-2.621.876-3.977 1.141a25.297 25.297 0 01-4.883.442zm-1.394-20.91c-2.347 0-3.769 1.557-4.227 4.627l-.06.399h8.05l-.033-.377a6.448 6.448 0 00-1.095-3.498 3.202 3.202 0 00-2.635-1.151zM220.607 129.41a14.272 14.272 0 01-5.328-.826v-6.396c.212.084.446.163.702.236.496.141 1 .252 1.509.334.487.082.98.125 1.474.129a7.05 7.05 0 002.753-.452 3.884 3.884 0 001.692-1.395 9.828 9.828 0 001.06-2.167c.066-.201.138-.391.217-.582.086-.209.164-.415.233-.621l.04-.121-.048-.119a584.03 584.03 0 01-5.001-12.836 641.402 641.402 0 01-4.49-12.326h8.996a439.95 439.95 0 002.102 8.156c.748 2.791 1.52 5.581 2.317 8.37l.334 1.169.334-1.169a316.681 316.681 0 002.268-8.373 287.443 287.443 0 001.958-8.153h8.741a795.818 795.818 0 01-1.38 3.892 484.437 484.437 0 01-1.766 4.851 737.698 737.698 0 01-1.866 4.975c-.944 2.488-2.936 7.715-3.434 9.011a438.043 438.043 0 01-1.294 3.332 88.947 88.947 0 01-.842 2.082 28.447 28.447 0 01-2.213 4.305 11.549 11.549 0 01-2.414 2.755 8.249 8.249 0 01-2.89 1.48 13.974 13.974 0 01-3.764.459z"/></g></g></svg>
