<svg xmlns="http://www.w3.org/2000/svg" viewBox="0 0 332 166" width="332" height="166"><path fill="#542582" d="M0 0h332v166H0z"/><g fill="#FFF"><path d="M157.301 42.585c-.148-.026-.299-.05-.452-.074l-.181-.026a16.492 16.492 0 00-.781-.09c-.177-.018-.357-.029-.534-.04a14.94 14.94 0 00-1.285-.025 17.57 17.57 0 00-1.746.128l-.164.023-.18.026-.222.035c-.097.015-.192.033-.288.05-.132.023-.263.05-.393.076a14.09 14.09 0 00-3.221 1.101 12.983 12.983 0 00-1.459.833c-.127.086-.252.17-.373.258a10.76 10.76 0 00-.919.731 12.68 12.68 0 00-.518.481c-.139.142-.281.282-.413.432a12.052 12.052 0 00-1.089 1.405c-.063.094-.123.191-.183.288a11.26 11.26 0 00-.908 1.839 11.571 11.571 0 00-.667 2.623c-.038.295-.069.593-.087.898-.012.233-.022.47-.022.71a9.646 9.646 0 00.06 1.078l.012.127c.029.213.06.423.102.63a8.832 8.832 0 00.172.753c.059.218.12.431.189.639a11.31 11.31 0 00.811 1.858c.113.204.228.405.348.596.095.153.193.3.294.443.13.191.267.374.401.548.142.183.29.354.432.52.179.206.359.394.532.567l.094.093c.145.138.303.287.483.44.121.104.248.214.387.323.127.101.26.205.404.307.169.121.348.245.536.367.202.128.412.258.635.383.475.265.966.499 1.471.702.202.08.41.158.626.23a13.874 13.874 0 001.877.499c.342.067.701.123 1.069.166a17.42 17.42 0 001.725.118c.089.001.181.004.273.004.706 0 1.358-.027 1.963-.078l.119-.011c.241-.02.473-.046.699-.075.346-.042.676-.092.99-.15a16.412 16.412 0 001.402-.311c.194-.052.38-.108.56-.161.215-.064.425-.134.622-.202l.191-.067c.096-.034.225-.08.378-.139.202-.079.446-.176.722-.294.166-.071.345-.153.529-.236.164-.075.337-.157.51-.243.074-.035.147-.069.219-.108V59.28a5.644 5.644 0 01-.153.093l-.294.179c-.296.179-.579.346-.866.502a17.78 17.78 0 01-2.457 1.11c-.833.301-1.69.53-2.562.684l-.267.044a11.912 11.912 0 01-1.891.151c-.305 0-.62-.008-.941-.03a13.116 13.116 0 01-1.142-.133 10.664 10.664 0 01-1.86-.484c-.09-.034-.181-.069-.271-.105l-.174-.072a9.78 9.78 0 01-.3-.132c-.21-.1-.419-.207-.623-.322a7.43 7.43 0 01-.304-.183 12.243 12.243 0 01-.304-.2 8.85 8.85 0 01-.71-.552l-.142-.127-.071-.065-.042-.041-.052-.05a7.724 7.724 0 01-.789-.91 5.224 5.224 0 01-.221-.319 7.223 7.223 0 01-.846-1.785 7.766 7.766 0 01-.339-1.689 8.444 8.444 0 01-.033-1.09 8.07 8.07 0 01.212-1.603 7.403 7.403 0 01.298-.958c.04-.106.086-.213.132-.32a6.95 6.95 0 01.393-.772c.146-.254.308-.498.484-.732.066-.086.132-.173.205-.259.09-.109.185-.224.288-.33.05-.054.101-.112.154-.165a8.874 8.874 0 012.597-1.8c.143-.064.288-.123.432-.18.147-.058.292-.109.439-.161.159-.053.322-.102.48-.147a13.1 13.1 0 01.454-.114 11.437 11.437 0 01.954-.17c.166-.023.331-.038.495-.053.314-.029.623-.041.923-.041.101 0 .199-.001.298.001.224.007.442.012.655.026.147.011.292.02.434.034a14.137 14.137 0 011.418.208c.311.061.593.131.845.195a19.268 19.268 0 01.982.296c.238.083.371.132.371.132.213.075.419.158.623.24.273.109.534.229.785.342.209.093.406.191.592.282.155.074.297.15.434.22.236.123.434.233.597.32l.44.24v-4.23s-.265-.109-.721-.281c-.2-.076-.439-.166-.709-.262-.151-.053-.308-.111-.477-.168-.134-.044-.271-.093-.416-.14-.161-.05-.327-.106-.5-.158-.124-.037-.251-.076-.38-.113l-.116-.033a14.186 14.186 0 00-.382-.106 15.915 15.915 0 00-.467-.12c-.101-.026-.203-.049-.305-.074a23.931 23.931 0 00-1.038-.211m-21.147-4.399h33.565v31.588h-33.565V38.19zM110.358 55.609v6.209h4.03l.213-.007c.136-.006.328-.012.559-.033a6.876 6.876 0 001.575-.309 3.53 3.53 0 001.376-.803c.136-.136.257-.286.36-.449.244-.389.386-.833.414-1.291.01-.124.008-.196.008-.196s.003-.056 0-.153a2.834 2.834 0 00-.083-.601 2.49 2.49 0 00-.627-1.124 3.077 3.077 0 00-.361-.314 3.804 3.804 0 00-.746-.421 5.886 5.886 0 00-1.213-.357 8.97 8.97 0 00-1.181-.135 7.488 7.488 0 00-.427-.014c-1.43 0-3.896-.003-3.897-.002M110.358 46.172v5.884h1.952s.13 0 .301-.006c.135-.003.296-.012.44-.019a7.891 7.891 0 001.512-.243c.108-.03.217-.064.323-.101a3.203 3.203 0 001.179-.702c.234-.23.417-.506.54-.81.114-.284.184-.584.207-.889.018-.203.016-.333.016-.333s.006-.097-.003-.251a2.803 2.803 0 00-.269-1.074 2.186 2.186 0 00-.413-.556 2.55 2.55 0 00-.772-.508 5.198 5.198 0 00-1.708-.375 9.427 9.427 0 00-.619-.018l-2.686.001z"/><path d="M106.285 42.618v22.751h8.563s4.176.116 6.481-2.191a5.688 5.688 0 00.153-8.041l-.013-.014a7.47 7.47 0 00-3.37-1.875 6.05 6.05 0 001.509-1.057 4.673 4.673 0 001.4-3.69 5.292 5.292 0 00-1.606-3.802s-1.76-2.082-5.734-2.082l-7.383.001zm-8.806-4.428h33.565v31.588H97.479V38.19zM71.683 55.609v6.209h4.03l.211-.007c.138-.006.33-.012.56-.033a6.94 6.94 0 001.575-.309 3.53 3.53 0 001.376-.803c.136-.136.256-.287.36-.449.244-.389.386-.833.413-1.291.011-.124.01-.196.01-.196s.002-.056 0-.153a2.969 2.969 0 00-.083-.601 2.505 2.505 0 00-.627-1.124 3.275 3.275 0 00-.361-.314 3.841 3.841 0 00-.747-.421 5.765 5.765 0 00-1.213-.357 8.945 8.945 0 00-1.181-.135 7.387 7.387 0 00-.425-.014l-3.898-.002M71.683 46.172v5.884h1.952s.128 0 .301-.006c.135-.003.294-.012.439-.019a7.901 7.901 0 001.513-.243c.108-.03.217-.064.323-.101a3.203 3.203 0 001.179-.702c.234-.23.417-.506.54-.81.113-.284.183-.584.207-.889.018-.203.016-.333.016-.333a2.336 2.336 0 00-.004-.251 2.741 2.741 0 00-.269-1.074 2.107 2.107 0 00-.413-.556 2.526 2.526 0 00-.771-.508 5.19 5.19 0 00-1.707-.374 9.427 9.427 0 00-.619-.018h-2.687z"/><path d="M67.608 42.618v22.751h8.563s4.176.116 6.482-2.191a5.687 5.687 0 00.153-8.04l-.014-.014a7.461 7.461 0 00-3.37-1.875 6.077 6.077 0 001.509-1.057 4.673 4.673 0 001.4-3.69 5.296 5.296 0 00-1.606-3.803s-1.76-2.082-5.734-2.082l-7.383.001zm-8.804-4.428h33.565v31.588H58.804V38.19zM177.9 65.367V42.626h7.347c2.904 0 5.12.583 6.647 1.75a5.971 5.971 0 012.289 5.055 6.123 6.123 0 01-1.239 3.881 7.04 7.04 0 01-3.531 2.322c2.12 3.16 4.166 6.404 6.139 9.733h-3.658a185.783 185.783 0 00-2.72-4.628 167.612 167.612 0 00-2.878-4.563c-.339.02-.7.031-1.082.031h-4.198v9.16H177.9zm3.116-11.704h3.975a7.89 7.89 0 004.517-1.051 3.622 3.622 0 001.494-3.18c0-2.84-1.993-4.26-5.979-4.26h-4.007v8.491zM210.023 42.626a434.469 434.469 0 014.788 11.354 742.068 742.068 0 014.5 11.388h-3.372c-.382-1.039-.758-2.067-1.129-3.085a402.107 402.107 0 00-1.129-3.054h-10.687a322.12 322.12 0 00-2.259 6.139h-3.276a524.112 524.112 0 014.564-11.674 370.934 370.934 0 014.691-11.067h3.309zm-6.011 13.93h8.652a815.88 815.88 0 00-2.162-5.471c-.722-1.801-1.444-3.592-2.163-5.374a532.652 532.652 0 00-2.195 5.407 409.346 409.346 0 00-2.132 5.438M221.728 42.626h7.919a12.832 12.832 0 016.042 1.32 9.107 9.107 0 013.865 3.834 12.805 12.805 0 011.351 6.139 13.11 13.11 0 01-1.351 6.186 9.21 9.21 0 01-3.881 3.913 12.69 12.69 0 01-6.059 1.351h-7.887V42.626zm7.665 20.069a8.05 8.05 0 006.106-2.226c1.421-1.485 2.132-3.668 2.132-6.551 0-2.841-.705-4.988-2.116-6.442a8.1 8.1 0 00-6.091-2.18h-4.548v17.399h4.517zM244.533 42.626h3.149v22.741h-3.149zM262.28 42.149c1.54-.021 3.069.26 4.501.826a9.73 9.73 0 013.467 2.386 10.552 10.552 0 012.21 3.738c.528 1.573.785 3.223.762 4.882.023 1.66-.24 3.312-.778 4.883a10.856 10.856 0 01-2.21 3.737 9.695 9.695 0 01-3.451 2.401 12.448 12.448 0 01-9.002 0 9.682 9.682 0 01-3.451-2.401 10.868 10.868 0 01-2.211-3.737 14.43 14.43 0 01-.778-4.883c-.023-1.659.235-3.31.763-4.882a10.537 10.537 0 012.21-3.738 9.708 9.708 0 013.467-2.386 11.81 11.81 0 014.501-.826m0 20.96a7.468 7.468 0 004.103-1.097 7.05 7.05 0 002.639-3.148 11.84 11.84 0 00.923-4.883 11.727 11.727 0 00-.923-4.867 7.074 7.074 0 00-2.639-3.132 8.192 8.192 0 00-8.191 0 7.02 7.02 0 00-2.654 3.132 11.73 11.73 0 00-.923 4.867 11.836 11.836 0 00.923 4.883 7.007 7.007 0 002.654 3.148 7.49 7.49 0 004.088 1.097"/><g><path d="M77.595 121.064a23.092 23.092 0 01-7.944-1.281 16.32 16.32 0 01-5.914-3.684 15.862 15.862 0 01-3.707-5.887 22.946 22.946 0 01-1.283-7.893 20.862 20.862 0 011.358-7.678 16.644 16.644 0 013.885-5.892 17.453 17.453 0 016.074-3.788 22.52 22.52 0 017.941-1.334c3.53-.064 7.029.66 10.244 2.12v8.136a15.926 15.926 0 00-3.818-1.687 17.423 17.423 0 00-4.889-.681c-3.494 0-6.258.948-8.212 2.815-1.958 1.87-2.952 4.559-2.952 7.99s.957 6.127 2.844 8.012c1.885 1.888 4.563 2.846 7.96 2.846a19.116 19.116 0 005.141-.68 19.772 19.772 0 004.335-1.824v8.019a22.343 22.343 0 01-4.921 1.718 27.564 27.564 0 01-6.142.653zM106.122 120.964a15.435 15.435 0 01-5.531-.95 11.555 11.555 0 01-4.199-2.733 12.048 12.048 0 01-2.663-4.302 16.348 16.348 0 01-.925-5.638 15.46 15.46 0 011.623-7.285 11.433 11.433 0 014.597-4.721 15.917 15.917 0 0114.196 0 11.442 11.442 0 014.596 4.721 15.447 15.447 0 011.623 7.285 16.368 16.368 0 01-.925 5.638 12.057 12.057 0 01-2.661 4.302 11.577 11.577 0 01-4.199 2.733 15.44 15.44 0 01-5.532.95zm0-20.384a3.666 3.666 0 00-3.246 1.803 9.383 9.383 0 00-1.107 5.007 9.026 9.026 0 001.107 4.854 3.846 3.846 0 006.518-.003 9.22 9.22 0 001.079-4.851 9.554 9.554 0 00-1.079-5.003 3.645 3.645 0 00-3.272-1.807zM123.687 120.297V94.328h7.526l.724 4.995.514-.928c1.689-3.047 3.814-4.527 6.499-4.527a6.571 6.571 0 012.714.536v7.547a5.076 5.076 0 00-1.069-.386 8.067 8.067 0 00-1.902-.216 7.747 7.747 0 00-3.382.702 8.082 8.082 0 00-2.682 2.194l-.081.099v15.954h-8.861zM161.637 120.297v-16.133c0-2.876-1.699-3.48-3.123-3.48a4.683 4.683 0 00-3.813 1.874l-.078.098v17.642h-8.862v-25.97h7.528l.533 3.609.511-.611a9.487 9.487 0 017.511-3.662 8.042 8.042 0 016.438 2.564c1.472 1.716 2.219 4.284 2.219 7.63v16.44l-8.864-.001zM197.598 120.297a607.522 607.522 0 01-2.026-7.645c-.684-2.643-1.367-5.298-2.049-7.963l-.694.004a785.704 785.704 0 01-4.024 15.604h-8.727a789.54 789.54 0 01-3.613-13.024c-1.16-4.328-2.26-8.68-3.273-12.945h8.915c.405 3.012.839 5.967 1.291 8.791.479 2.989.975 5.987 1.488 8.993l.699.022a485.843 485.843 0 001.947-8.533 580.735 580.735 0 001.736-8.249h7.97c.56 2.692 1.161 5.407 1.786 8.072a757.49 757.49 0 001.997 8.302l.699-.024c.512-2.936 1.016-5.865 1.512-8.785.483-2.853.925-5.74 1.316-8.59h8.661a473.185 473.185 0 01-3.273 12.945c-1.16 4.319-2.375 8.7-3.612 13.024l-8.726.001zM222.707 120.964a9.443 9.443 0 01-4.344-.935 6.575 6.575 0 01-2.773-2.625 8.127 8.127 0 01-.977-4.074 6.82 6.82 0 013.023-6.007c2.049-1.418 5.03-2.138 8.861-2.138a20.067 20.067 0 012.766.203l.409.06v-.823a4.156 4.156 0 00-1.28-3.345 6.165 6.165 0 00-3.994-1.059 14.517 14.517 0 00-4.332.634 14.707 14.707 0 00-3.404 1.578v-6.795a22.614 22.614 0 019.221-1.973c4.018 0 7.091.942 9.131 2.801 2.029 1.851 3.059 4.631 3.059 8.263v8.502a2.82 2.82 0 00.304 1.435c.279.429.774.665 1.283.611.314.002.625-.049.923-.149v4.745a8.892 8.892 0 01-1.95.666c-.823.183-1.664.275-2.508.274-2.88 0-4.771-.832-5.624-2.47l-.209-.403-.342.299a11.307 11.307 0 01-3.326 2.035c-1.253.469-2.58.704-3.917.69zm4.506-11.678a5.446 5.446 0 00-3.15.733 2.73 2.73 0 00-1.1 2.391c0 1.285.542 2.816 3.123 2.816a4.824 4.824 0 003.479-1.539l.105-.105v-4.025l-.288-.057a10.957 10.957 0 00-2.169-.214zM251.443 120.757c-2.548 0-4.459-.675-5.677-2.008-1.23-1.343-1.853-3.425-1.853-6.187V82.856h8.863v28.682a2.74 2.74 0 00.553 1.877 2.242 2.242 0 001.75.632 5.095 5.095 0 001.691-.286v6.233a16.332 16.332 0 01-5.327.763zM267.949 120.757c-2.548 0-4.459-.675-5.677-2.008-1.229-1.343-1.853-3.425-1.853-6.187V82.856h8.863v28.682a2.74 2.74 0 00.553 1.877 2.242 2.242 0 001.75.632 5.095 5.095 0 001.691-.286v6.233a16.332 16.332 0 01-5.327.763z"/></g></g></svg>
