<svg xmlns="http://www.w3.org/2000/svg" viewBox="0 0 332 166" width="332" height="166"><path fill="#542582" d="M0 0h332v166H0z"/><g fill="#FFF"><path d="M157.301 42.585c-.147-.026-.297-.05-.452-.074l-.181-.026a17.39 17.39 0 00-.781-.091 23.526 23.526 0 00-.534-.038 14.909 14.909 0 00-1.286-.025 16.172 16.172 0 00-1.154.064c-.2.018-.397.041-.592.064l-.162.023-.18.026-.224.035c-.095.015-.192.033-.288.05-.132.023-.262.05-.391.076-.755.159-1.495.379-2.214.658a12.913 12.913 0 00-1.778.85c-.238.138-.469.278-.69.425a9.39 9.39 0 00-.372.258c-.105.076-.209.151-.311.229a12.324 12.324 0 00-1.127.985 11.228 11.228 0 00-.809.892 11.348 11.348 0 00-.874 1.232 11.265 11.265 0 00-1.574 4.463 11.838 11.838 0 00-.099 2.141c.012.183.026.364.049.544l.012.125a9.024 9.024 0 00.15.874 10.326 10.326 0 00.314 1.149c.087.258.179.508.279.751a11.582 11.582 0 00.88 1.703 11.594 11.594 0 001.659 2.077l.094.091c.145.14.301.289.48.442.123.104.249.215.39.323a12.118 12.118 0 003.046 1.759 13.614 13.614 0 002.502.73 16.727 16.727 0 002.794.284c.09.001.183.004.273.004.706 0 1.359-.027 1.963-.078l.119-.011a18.985 18.985 0 002.265-.338 17.106 17.106 0 002.007-.56l.192-.067c.094-.034.225-.08.376-.139a23.152 23.152 0 001.253-.531c.164-.075.335-.157.508-.243.074-.035.146-.07.221-.108V59.28a5.644 5.644 0 01-.153.093l-.296.179a18.216 18.216 0 01-1.784.971c-.533.252-1.043.464-1.538.641-.832.3-1.689.529-2.56.684-.091.016-.18.03-.269.044a13.96 13.96 0 01-1.433.142c-.165.005-.318.01-.457.01-.307 0-.62-.007-.941-.03a12.747 12.747 0 01-1.142-.134 10.652 10.652 0 01-1.861-.484l-.27-.105-.176-.072a9.688 9.688 0 01-.923-.454 9.973 9.973 0 01-.608-.384 7.947 7.947 0 01-.709-.552l-.143-.127-.071-.065-.041-.041-.053-.05a8.525 8.525 0 01-.532-.579 6.83 6.83 0 01-.256-.33 6.92 6.92 0 01-.654-1.078 7.707 7.707 0 01-.55-1.505 7.873 7.873 0 01-.23-1.585 7.472 7.472 0 01-.005-.716 8.012 8.012 0 01.347-2.097 8.95 8.95 0 01.162-.465c.04-.106.086-.213.134-.32a6.95 6.95 0 01.208-.439c.057-.112.12-.221.184-.333a7.223 7.223 0 01.688-.991c.091-.109.187-.223.288-.33.052-.055.102-.112.155-.165a8.85 8.85 0 013.469-2.139 8.303 8.303 0 01.934-.263c.153-.034.305-.064.456-.091.166-.033.333-.056.499-.079s.331-.04.493-.053c.315-.027.623-.041.923-.041.102 0 .201-.001.299.001.224.007.443.014.654.026.148.011.293.02.435.034a14.089 14.089 0 012.719.533 11.743 11.743 0 01.897.297c.211.075.419.158.623.24.273.109.533.228.785.342.209.093.406.191.592.282.155.075.297.15.434.22.234.123.434.233.597.32l.439.24v-4.23s-.265-.108-.72-.281c-.2-.076-.439-.166-.709-.262-.151-.053-.308-.11-.477-.168-.135-.045-.271-.093-.416-.139-.161-.052-.329-.108-.5-.16-.124-.037-.252-.076-.382-.113l-.115-.033c-.125-.035-.253-.072-.383-.106a18.759 18.759 0 00-.468-.12c-.1-.026-.202-.049-.305-.074a21.34 21.34 0 00-1.037-.211m-21.145-4.395h33.566v31.588h-33.566V38.19zM110.358 55.609v6.208h4.031l.211-.007c.138-.005.33-.012.56-.033a6.995 6.995 0 001.575-.309 3.522 3.522 0 001.374-.803c.137-.136.258-.286.361-.449.243-.389.385-.833.413-1.291.01-.124.01-.196.01-.196s.001-.056-.002-.153a2.834 2.834 0 00-.083-.601 2.459 2.459 0 00-.625-1.123 3.077 3.077 0 00-.361-.314 3.841 3.841 0 00-.747-.421 5.825 5.825 0 00-1.213-.357 9.01 9.01 0 00-1.181-.135 7.387 7.387 0 00-.425-.014l-3.898-.002M110.358 46.172v5.884h1.952s.13 0 .301-.006c.136-.003.296-.012.44-.019a7.891 7.891 0 001.512-.243c.108-.03.218-.064.325-.101a3.199 3.199 0 001.178-.702c.234-.23.418-.506.541-.81a2.99 2.99 0 00.206-.889c.019-.203.018-.333.018-.333s.004-.097-.004-.251a2.741 2.741 0 00-.269-1.074 2.163 2.163 0 00-.413-.556 2.53 2.53 0 00-.772-.508 5.192 5.192 0 00-1.707-.375 9.427 9.427 0 00-.619-.018l-2.689.001z"/><path d="M106.285 42.618v22.751h8.563s4.176.115 6.482-2.191a5.69 5.69 0 00.148-8.046l-.009-.009a7.461 7.461 0 00-3.37-1.875 6.1 6.1 0 001.509-1.056 4.675 4.675 0 001.399-3.69 5.296 5.296 0 00-1.606-3.803s-1.759-2.082-5.733-2.082l-7.383.001zm-8.804-4.428h33.564v31.588H97.481V38.19zM71.683 55.609v6.208h4.03l.213-.007c.138-.005.328-.012.56-.033a6.967 6.967 0 001.573-.309 3.522 3.522 0 001.376-.803c.137-.135.257-.286.36-.449.244-.389.387-.833.414-1.291.01-.124.008-.196.008-.196s.003-.056 0-.153a2.834 2.834 0 00-.083-.601 2.473 2.473 0 00-.47-.949 2.989 2.989 0 00-.517-.488 3.841 3.841 0 00-.747-.421 5.825 5.825 0 00-1.213-.357 9.01 9.01 0 00-1.181-.135 7.448 7.448 0 00-.425-.014l-3.898-.002M71.683 46.172v5.884h1.952s.13 0 .301-.006c.136-.003.296-.012.44-.019a7.891 7.891 0 001.512-.243c.108-.03.217-.064.325-.101a3.199 3.199 0 001.178-.702c.234-.23.418-.506.541-.81a2.99 2.99 0 00.206-.889c.019-.203.018-.333.018-.333s.004-.097-.004-.251a2.759 2.759 0 00-.269-1.074 2.186 2.186 0 00-.413-.556 2.53 2.53 0 00-.772-.508 5.19 5.19 0 00-1.708-.374 9.408 9.408 0 00-.619-.018h-2.688z"/><path d="M67.608 42.618v22.751h8.564s4.176.115 6.482-2.191a5.691 5.691 0 00.148-8.046l-.009-.009a7.465 7.465 0 00-3.371-1.875 6.147 6.147 0 001.511-1.056 4.687 4.687 0 001.399-3.69 5.296 5.296 0 00-1.606-3.803s-1.76-2.082-5.734-2.082l-7.384.001zm-8.805-4.428h33.564v31.588H58.803V38.19zM177.9 65.367V42.626h7.348c2.904 0 5.119.583 6.646 1.75a5.968 5.968 0 012.29 5.055 6.118 6.118 0 01-1.241 3.881 7.04 7.04 0 01-3.531 2.322 203.885 203.885 0 016.139 9.732h-3.658a176.934 176.934 0 00-2.72-4.628 167.612 167.612 0 00-2.878-4.563c-.339.02-.699.031-1.081.031h-4.199v9.16l-3.115.001zm3.116-11.703h3.977a7.883 7.883 0 004.515-1.051 3.624 3.624 0 001.496-3.181c0-2.84-1.993-4.26-5.979-4.26h-4.008l-.001 8.492zM210.024 42.626a437.861 437.861 0 014.786 11.354 742.209 742.209 0 014.502 11.388h-3.373l-1.129-3.085a538.229 538.229 0 00-1.129-3.054h-10.687a344.015 344.015 0 00-2.258 6.139h-3.277a539.113 539.113 0 014.566-11.674 365.76 365.76 0 014.69-11.067h3.309zm-6.011 13.93h8.651a938.763 938.763 0 00-4.326-10.845 455.028 455.028 0 00-4.325 10.845M221.728 42.626h7.921a12.847 12.847 0 016.042 1.32 9.113 9.113 0 013.865 3.834 12.82 12.82 0 011.351 6.139 13.116 13.116 0 01-1.351 6.185 9.227 9.227 0 01-3.881 3.913 12.69 12.69 0 01-6.059 1.351h-7.888V42.626zm7.666 20.069a8.058 8.058 0 006.106-2.226c1.421-1.485 2.131-3.668 2.131-6.551 0-2.841-.705-4.988-2.115-6.442a8.1 8.1 0 00-6.091-2.18h-4.548v17.398h4.517zM244.533 42.626h3.149v22.741h-3.149zM262.281 42.149c1.539-.021 3.068.26 4.5.826a9.73 9.73 0 013.467 2.386 10.554 10.554 0 012.211 3.738c.528 1.573.785 3.223.762 4.882.023 1.66-.24 3.312-.778 4.883a10.909 10.909 0 01-2.211 3.737 9.677 9.677 0 01-3.451 2.401 12.448 12.448 0 01-9.002 0 9.695 9.695 0 01-3.451-2.401 10.872 10.872 0 01-2.21-3.737 14.43 14.43 0 01-.778-4.883 14.698 14.698 0 01.762-4.882 10.537 10.537 0 012.21-3.738 9.73 9.73 0 013.467-2.386 11.816 11.816 0 014.502-.826m0 20.96a7.468 7.468 0 004.103-1.097 7.047 7.047 0 002.638-3.148 11.84 11.84 0 00.923-4.883 11.727 11.727 0 00-.923-4.867 7.072 7.072 0 00-2.638-3.132 8.192 8.192 0 00-8.191 0 7.031 7.031 0 00-2.656 3.132 11.727 11.727 0 00-.923 4.867 11.836 11.836 0 00.923 4.883 7.018 7.018 0 002.656 3.148 7.49 7.49 0 004.088 1.097"/><g><path d="M70.83 121.446a26.231 26.231 0 01-11.57-2.619v-7.783a26.065 26.065 0 005.383 2.206c1.962.561 3.992.849 6.033.855a9.68 9.68 0 004.553-.86 2.863 2.863 0 001.662-2.604 2.607 2.607 0 00-.771-1.963 5.925 5.925 0 00-1.951-1.169 19.813 19.813 0 00-2.802-.833 38.127 38.127 0 01-5.854-1.815 13.924 13.924 0 01-3.874-2.309 7.882 7.882 0 01-2.148-2.998 10.896 10.896 0 01-.689-4.048 10.295 10.295 0 011.769-6.062 11.342 11.342 0 015.093-3.876 20.84 20.84 0 017.916-1.376c1.962 0 3.919.22 5.832.655 1.717.379 3.385.952 4.973 1.708v7.671a18.518 18.518 0 00-3.098-1.375 25.91 25.91 0 00-3.849-.98 21.993 21.993 0 00-3.755-.338 8.967 8.967 0 00-4.116.78 2.676 2.676 0 00-1.59 2.479 2.71 2.71 0 001.645 2.534 20.505 20.505 0 004.23 1.43c1.716.397 3.405.903 5.056 1.516a16.102 16.102 0 013.889 2.068 8.073 8.073 0 012.488 3.028 11.977 11.977 0 01-.914 10.825 11.154 11.154 0 01-5.189 3.9 22.908 22.908 0 01-8.352 1.353zM106.703 120.682V104.63c0-2.865-1.69-3.466-3.108-3.466a4.653 4.653 0 00-3.794 1.868l-.078.097v17.553h-8.819V83.429h8.819v14.047l.604-.593a9.095 9.095 0 016.579-2.701 8.01 8.01 0 016.407 2.551c1.464 1.708 2.206 4.262 2.206 7.59v16.359h-8.816zM133.71 121.344a17.055 17.055 0 01-7.714-1.594 10.855 10.855 0 01-4.764-4.589 15.388 15.388 0 01-1.638-7.373c-.027-1.925.276-3.84.897-5.662a12.08 12.08 0 012.573-4.284 11.208 11.208 0 014.027-2.717 14.21 14.21 0 015.295-.941 12.298 12.298 0 016.317 1.529 9.691 9.691 0 013.909 4.453 17.633 17.633 0 011.343 7.268v1.886h-16.107l.061.408a5.593 5.593 0 002.191 4.039 9.32 9.32 0 005.141 1.157 17.784 17.784 0 004.238-.469 17.253 17.253 0 003.305-1.2v6.474a24.593 24.593 0 01-4.07 1.166 26.1 26.1 0 01-5.004.449zm-1.426-21.402c-2.402 0-3.857 1.593-4.327 4.735l-.061.408h8.24l-.033-.386a6.586 6.586 0 00-1.122-3.58 3.278 3.278 0 00-2.697-1.177zM188.692 120.682v-18.804h-10.291v18.804h-8.819v-18.804h-10.291v18.804h-8.817v-18.804h-4.025v-6.626h4.025v-1.069a14.14 14.14 0 011.237-6.187 8.88 8.88 0 013.528-3.876 10.932 10.932 0 015.579-1.353c.946-.002 1.89.074 2.823.225.8.127 1.581.353 2.326.671v6.542a6.506 6.506 0 00-1.121-.368 7.898 7.898 0 00-1.734-.187c-1.743 0-3.821.743-3.821 4.28v1.323h10.291v-1.069a14.125 14.125 0 011.239-6.187 8.88 8.88 0 013.528-3.876 10.932 10.932 0 015.579-1.353c.945-.002 1.889.074 2.822.225.8.128 1.581.353 2.326.671v6.542a6.572 6.572 0 00-1.119-.368 7.916 7.916 0 00-1.736-.187c-1.743 0-3.82.743-3.82 4.28v1.323h19.109v25.43l-8.818-.002zm4.435-29.454a5.508 5.508 0 01-3.669-1.111 4.448 4.448 0 010-6.236 6.597 6.597 0 017.336 0 4.447 4.447 0 010 6.235 5.5 5.5 0 01-3.667 1.112zM215.955 121.344a17.055 17.055 0 01-7.714-1.594 10.855 10.855 0 01-4.764-4.589 15.4 15.4 0 01-1.639-7.373c-.027-1.925.276-3.84.897-5.662a12.08 12.08 0 012.573-4.284 11.208 11.208 0 014.027-2.717 14.21 14.21 0 015.295-.941 12.298 12.298 0 016.317 1.529 9.691 9.691 0 013.909 4.453 17.633 17.633 0 011.343 7.268v1.886h-16.107l.061.408a5.593 5.593 0 002.191 4.039 9.32 9.32 0 005.141 1.157 17.784 17.784 0 004.238-.469 17.253 17.253 0 003.305-1.2v6.474a24.593 24.593 0 01-4.07 1.166c-1.65.31-3.325.461-5.003.449zm-1.426-21.402c-2.402 0-3.857 1.593-4.327 4.735l-.061.408h8.24l-.033-.386a6.586 6.586 0 00-1.122-3.58 3.278 3.278 0 00-2.697-1.177zM237.611 121.14c-2.536 0-4.435-.672-5.649-1.998-1.223-1.336-1.844-3.408-1.844-6.156V83.429h8.819v28.538a2.732 2.732 0 00.55 1.868c.462.451 1.097.68 1.741.628a5.051 5.051 0 001.683-.285v6.203a16.248 16.248 0 01-5.3.759zM256.006 121.344a9.611 9.611 0 01-5.482-1.57 10.218 10.218 0 01-3.619-4.509 19.494 19.494 0 01.224-14.533 11.253 11.253 0 014.298-4.845 12.61 12.61 0 016.669-1.705c1.33-.014 2.652.219 3.896.689l.485.187v-11.63h8.819v37.253h-7.491l-.483-3.323-.512.658a8.36 8.36 0 01-3.077 2.544 8.89 8.89 0 01-3.727.784zm3.618-20.18a4.458 4.458 0 00-3.802 1.802 8.288 8.288 0 00-1.292 4.974 8.79 8.79 0 001.05 4.702 3.608 3.608 0 003.23 1.719 4.564 4.564 0 003.58-1.651l.087-.1v-10.749l-.197-.099a5.541 5.541 0 00-1.279-.462 6.63 6.63 0 00-1.377-.136z"/></g></g></svg>
