<svg xmlns="http://www.w3.org/2000/svg" viewBox="0 0 332 166" width="332" height="166"><path fill="#542582" d="M0 0h332v166H0z"/><g fill="#FFF"><path d="M157.299 42.587c-.148-.026-.3-.052-.454-.074l-.181-.027a21.344 21.344 0 00-.78-.09 15.707 15.707 0 00-1.822-.063 16.324 16.324 0 00-1.744.128l-.163.022-.18.026-.222.035-.288.05c-.133.025-.263.052-.392.078a13.996 13.996 0 00-3.222 1.099 13.464 13.464 0 00-1.46.833 13.51 13.51 0 00-.372.259c-.105.075-.21.15-.31.228a12.627 12.627 0 00-1.127.985c-.139.14-.281.282-.415.432a11.126 11.126 0 00-1.086 1.404 11.211 11.211 0 00-1.091 2.126c-.325.845-.55 1.726-.668 2.624a12.918 12.918 0 00-.109 1.607c0 .181.002.359.014.535.012.183.026.364.047.545l.014.125c.029.214.06.423.101.631.015.08.033.161.049.241a10.82 10.82 0 00.595 1.901 11.566 11.566 0 001.171 2.147c.131.191.269.374.401.547a11.885 11.885 0 00.965 1.086l.094.093c.145.138.302.289.481.442.123.104.25.213.387.322a10.685 10.685 0 00.941.674c.2.128.412.258.635.383a12.704 12.704 0 002.097.934c.213.074.431.142.657.207a14.846 14.846 0 003.431.555c.189.01.384.019.582.022.09 0 .181.003.274.003.705 0 1.358-.026 1.963-.076l.118-.011a19.242 19.242 0 002.264-.34 17.347 17.347 0 001.386-.358c.215-.064.424-.134.622-.2l.189-.067c.097-.034.226-.082.379-.142.2-.078.446-.173.723-.292a22.503 22.503 0 001.258-.587v-4.306a7.698 7.698 0 01-.152.093l-.295.177c-.296.18-.579.348-.864.503-.314.169-.618.326-.922.469-.533.251-1.042.464-1.538.641a15.44 15.44 0 01-2.828.728 13.052 13.052 0 01-2.831.12 11.7 11.7 0 01-1.142-.134 10.49 10.49 0 01-1.86-.484 6.324 6.324 0 01-.271-.105c-.057-.022-.119-.048-.175-.071a8.54 8.54 0 01-1.228-.639 6.93 6.93 0 01-.303-.202 7.86 7.86 0 01-.711-.549l-.142-.13-.071-.064-.042-.04-.052-.05a8.292 8.292 0 01-.791-.91 6.751 6.751 0 01-.408-.623 7.534 7.534 0 01-.422-.839 7.286 7.286 0 01-.372-1.121 8.127 8.127 0 01-.243-2.028 8.247 8.247 0 01.218-1.876 7.877 7.877 0 01.43-1.278c.063-.147.134-.292.21-.439.057-.112.12-.222.184-.334.147-.253.309-.497.485-.731.066-.086.133-.175.203-.259.092-.109.187-.224.288-.331.05-.053.102-.11.155-.164a8.81 8.81 0 013.468-2.141 9.064 9.064 0 01.934-.261c.151-.037.305-.065.455-.094.166-.03.334-.056.498-.076.166-.023.331-.04.496-.053.314-.029.623-.041.922-.041h.3a15.32 15.32 0 011.087.06 14.077 14.077 0 012.264.404c.166.044.318.09.455.129.208.063.387.119.526.166.239.083.371.131.371.131.213.075.418.158.622.241.274.109.536.228.785.341.21.094.406.191.593.282.154.075.297.151.432.221.236.121.435.232.6.32l.439.24v-4.23s-.264-.109-.72-.281c-.203-.075-.439-.166-.712-.26-.149-.053-.307-.112-.476-.168-.133-.045-.27-.094-.416-.14-.161-.052-.327-.108-.5-.158-.124-.037-.252-.078-.38-.114l-.116-.031c-.125-.037-.254-.072-.383-.108a24.285 24.285 0 00-1.28-.303c-.173-.038-.352-.069-.529-.101m-21.144-4.398h33.566v31.588h-33.566V38.19zM110.356 55.61v6.208h4.03l.213-.007c.136-.005.328-.012.561-.034a6.857 6.857 0 001.573-.308 3.58 3.58 0 001.376-.803c.136-.136.257-.286.36-.449.244-.389.387-.833.414-1.291.01-.124.008-.198.008-.198s.003-.056 0-.151a2.862 2.862 0 00-.083-.603 2.48 2.48 0 00-.628-1.123 3.146 3.146 0 00-.36-.312 3.762 3.762 0 00-.747-.421 5.707 5.707 0 00-1.213-.357 8.144 8.144 0 00-.717-.101 11.364 11.364 0 00-.891-.049l-3.896-.001M110.356 46.172v5.885h1.952s.13 0 .301-.006c.135-.004.296-.012.44-.02a8.047 8.047 0 001.512-.241c.107-.03.217-.064.323-.102a3.174 3.174 0 001.179-.701 2.41 2.41 0 00.541-.811c.113-.284.182-.583.206-.888.018-.203.018-.333.018-.333s.004-.097-.004-.251a2.799 2.799 0 00-.269-1.074 2.146 2.146 0 00-.413-.556 2.582 2.582 0 00-.771-.51 5.197 5.197 0 00-1.709-.374 8.829 8.829 0 00-.619-.019l-2.687.001z"/><path d="M106.282 42.62v22.75h8.564s4.176.115 6.481-2.192a5.685 5.685 0 00.154-8.038l-.015-.015a7.465 7.465 0 00-3.371-1.875 6.097 6.097 0 001.51-1.056 4.684 4.684 0 001.4-3.692c0-1.433-.58-2.805-1.608-3.804 0 0-1.76-2.079-5.734-2.079l-7.381.001zm-8.805-4.43h33.565v31.588H97.477V38.19zM71.681 55.61v6.208h4.03l.211-.007a9.14 9.14 0 00.561-.034 6.866 6.866 0 001.574-.308 3.58 3.58 0 001.376-.803 2.65 2.65 0 00.773-1.74c.006-.066.01-.132.009-.198 0 0 .002-.056 0-.151a2.998 2.998 0 00-.083-.603 2.495 2.495 0 00-.989-1.435 3.762 3.762 0 00-.747-.421 5.65 5.65 0 00-1.213-.357 8.12 8.12 0 00-.716-.101 11.157 11.157 0 00-.89-.049l-3.896-.001M71.681 46.172v5.885h1.952s.128 0 .301-.006c.135-.004.295-.012.439-.02a8.058 8.058 0 001.513-.241c.107-.03.217-.064.323-.102a3.209 3.209 0 001.179-.701c.234-.23.418-.506.54-.811.113-.284.183-.583.207-.888.018-.203.016-.333.016-.333a2.336 2.336 0 00-.004-.251 2.767 2.767 0 00-.268-1.075 2.086 2.086 0 00-.413-.556 2.532 2.532 0 00-.771-.51 5.19 5.19 0 00-1.707-.374 8.829 8.829 0 00-.619-.019l-2.688.002z"/><path d="M67.605 42.62v22.75h8.564s4.176.115 6.481-2.192a5.685 5.685 0 00.156-8.037l-.016-.016a7.458 7.458 0 00-3.371-1.874 6.123 6.123 0 001.51-1.056 4.684 4.684 0 001.4-3.692c0-1.433-.58-2.805-1.607-3.804 0 0-1.76-2.079-5.734-2.079h-7.383zm-8.804-4.43h33.565v31.588H58.801V38.19zM177.898 65.368V42.627h7.347c2.904 0 5.12.583 6.647 1.749a5.978 5.978 0 012.289 5.057 6.118 6.118 0 01-1.24 3.881 7.04 7.04 0 01-3.531 2.322c2.12 3.16 4.166 6.404 6.139 9.732h-3.658a170.098 170.098 0 00-5.598-9.191c-.34.02-.7.031-1.082.031h-4.197v9.16h-3.116zm3.117-11.704h3.975a7.89 7.89 0 004.517-1.051 3.626 3.626 0 001.495-3.181c0-2.84-1.993-4.26-5.979-4.26h-4.007v8.492zM210.021 42.627a434.469 434.469 0 014.788 11.354 763.143 763.143 0 014.5 11.388h-3.372c-.381-1.039-.758-2.067-1.129-3.085a418.623 418.623 0 00-1.129-3.054h-10.686a322.12 322.12 0 00-2.259 6.139h-3.276a529.042 529.042 0 014.564-11.674 370.934 370.934 0 014.691-11.067h3.308zm-6.011 13.93h8.651a815.88 815.88 0 00-2.162-5.471c-.722-1.801-1.443-3.592-2.163-5.374a532.652 532.652 0 00-2.195 5.407 438.727 438.727 0 00-2.131 5.438M221.726 42.627h7.919a12.832 12.832 0 016.042 1.32 9.116 9.116 0 013.865 3.833 12.805 12.805 0 011.351 6.139 13.104 13.104 0 01-1.351 6.185 9.205 9.205 0 01-3.881 3.913 12.69 12.69 0 01-6.059 1.351h-7.887l.001-22.741zm7.665 20.069a8.05 8.05 0 006.106-2.226c1.421-1.485 2.132-3.668 2.133-6.551 0-2.841-.705-4.988-2.116-6.442a8.1 8.1 0 00-6.091-2.18h-4.548v17.399h4.516zM244.532 42.628h3.149v22.741h-3.149zM262.278 42.15c1.54-.021 3.069.26 4.501.826a9.73 9.73 0 013.467 2.386 10.57 10.57 0 012.21 3.738c.528 1.573.785 3.223.762 4.882.023 1.66-.24 3.313-.779 4.883a10.856 10.856 0 01-2.21 3.737 9.682 9.682 0 01-3.45 2.401 12.448 12.448 0 01-9.002 0 9.67 9.67 0 01-3.45-2.401 10.859 10.859 0 01-2.211-3.737 14.455 14.455 0 01-.779-4.883 14.674 14.674 0 01.764-4.882 10.537 10.537 0 012.21-3.738 9.708 9.708 0 013.467-2.386 11.802 11.802 0 014.5-.826m.001 20.961a7.468 7.468 0 004.103-1.097 7.05 7.05 0 002.639-3.148 11.84 11.84 0 00.923-4.883 11.727 11.727 0 00-.923-4.867 7.074 7.074 0 00-2.639-3.132 8.19 8.19 0 00-8.19 0 7.02 7.02 0 00-2.654 3.132 11.727 11.727 0 00-.923 4.867 11.836 11.836 0 00.923 4.883 7.007 7.007 0 002.654 3.148 7.498 7.498 0 004.087 1.097"/><g><path d="M60.355 120.426V99.017l-.667-.136a675.047 675.047 0 01-3.31 7.688c-1.081 2.469-2.17 4.93-3.267 7.384h-7.02a1301.995 1301.995 0 01-3.367-7.364 494.844 494.844 0 01-3.356-7.562l-.666.138v21.26h-8.368V85.524H41.45a808.013 808.013 0 003.873 9.642 526.579 526.579 0 004.111 9.765l.326.75.313-.756a616.071 616.071 0 007.685-19.401H68.72v34.902h-8.365zM81.394 121.073a9.187 9.187 0 01-4.222-.908 6.412 6.412 0 01-2.696-2.552 7.902 7.902 0 01-.95-3.96 6.625 6.625 0 012.937-5.839c1.99-1.378 4.889-2.078 8.615-2.078a19.569 19.569 0 012.689.195l.396.057v-.798a4.038 4.038 0 00-1.244-3.253 5.99 5.99 0 00-3.881-1.028 14.068 14.068 0 00-4.211.615 14.36 14.36 0 00-3.309 1.534v-6.604a21.944 21.944 0 018.963-1.92c3.906 0 6.893.916 8.876 2.723 1.973 1.798 2.972 4.5 2.972 8.033v8.264c-.026.483.077.965.297 1.396a1.33 1.33 0 001.247.594c.304.002.607-.047.895-.145v4.613a8.626 8.626 0 01-1.894.646c-.8.178-1.618.267-2.438.266-2.801 0-4.64-.807-5.467-2.401l-.203-.392-.332.29a10.98 10.98 0 01-3.233 1.978 10.483 10.483 0 01-3.807.674zm4.382-11.351a5.286 5.286 0 00-3.062.711 2.657 2.657 0 00-1.07 2.325c0 1.248.526 2.736 3.036 2.736a4.686 4.686 0 003.382-1.495l.102-.102v-3.914l-.28-.056c-.694-.137-1.4-.206-2.108-.205zM117.816 120.426v-15.684c0-2.796-1.651-3.383-3.036-3.383a4.546 4.546 0 00-3.706 1.823l-.076.095v17.149h-8.616V95.182h7.318l.518 3.506.496-.593a9.226 9.226 0 017.301-3.56 7.82 7.82 0 016.258 2.493c1.431 1.667 2.157 4.162 2.157 7.415v15.982l-8.614.001zM143.755 121.073a16.25 16.25 0 01-7.433-1.555 10.622 10.622 0 01-4.608-4.511 15.18 15.18 0 01-1.601-7.228 14.81 14.81 0 01.971-5.474 11.56 11.56 0 012.803-4.181 12.507 12.507 0 014.385-2.663 16.973 16.973 0 015.782-.926c1.18-.005 2.357.118 3.51.366.996.217 1.971.521 2.914.91v6.905a9.491 9.491 0 00-2.169-.947 10.657 10.657 0 00-2.96-.411 6.575 6.575 0 00-4.8 1.693 6.368 6.368 0 00-1.72 4.728 6.499 6.499 0 001.693 4.749 6.287 6.287 0 004.678 1.722 12.507 12.507 0 003.123-.385 10.321 10.321 0 002.504-1.04v6.788a13.364 13.364 0 01-3.16 1.068 18.977 18.977 0 01-3.912.392zM170.882 120.426v-15.684c0-2.796-1.651-3.383-3.036-3.383a4.546 4.546 0 00-3.706 1.823l-.076.095v17.149h-8.616V84.03h8.616v13.724l.59-.579a8.895 8.895 0 016.428-2.64 7.82 7.82 0 016.258 2.493c1.431 1.667 2.157 4.162 2.157 7.415v15.982l-8.615.001zM197.466 121.073a16.704 16.704 0 01-7.536-1.556 10.601 10.601 0 01-4.655-4.485 15.027 15.027 0 01-1.601-7.202c-.026-1.881.27-3.753.875-5.535a11.833 11.833 0 012.515-4.184 10.973 10.973 0 013.934-2.654 13.893 13.893 0 015.173-.923 12.01 12.01 0 016.171 1.495 9.456 9.456 0 013.818 4.351 17.229 17.229 0 011.315 7.1v1.842h-15.738l.06.399c.114 1.562.894 3 2.142 3.946a8.96 8.96 0 005.021 1.129c1.393.013 2.783-.14 4.14-.457a16.923 16.923 0 003.23-1.172v6.323c-1.29.494-2.621.876-3.978 1.141-1.61.305-3.247.453-4.886.442zm-1.393-20.91c-2.347 0-3.769 1.557-4.227 4.627l-.06.399h8.05l-.033-.377a6.45 6.45 0 00-1.096-3.499 3.204 3.204 0 00-2.634-1.15zM220.168 121.073a22.874 22.874 0 01-8.615-1.628v-6.246a17.95 17.95 0 003.541 1.435 14.9 14.9 0 004.078.612 7.114 7.114 0 003.014-.484 1.774 1.774 0 001.117-1.655 1.61 1.61 0 00-1.024-1.537c-.703-.3-1.434-.533-2.182-.693a23.717 23.717 0 01-5.27-1.812 6.494 6.494 0 01-2.77-2.5 7.64 7.64 0 01-.851-3.763 7.311 7.311 0 011.327-4.4 8.596 8.596 0 013.808-2.846 15.998 15.998 0 016.017-1.02 21.966 21.966 0 014.509.465c1.312.27 2.589.69 3.807 1.249v6.137a11.99 11.99 0 00-3.139-1.414 14.41 14.41 0 00-4.03-.61 6.921 6.921 0 00-2.86.479c-.69.237-1.159.88-1.172 1.61-.012.381.114.753.357 1.047.301.313.681.538 1.1.651.454.15 1.085.327 1.893.53a20.52 20.52 0 015.174 1.737 6.83 6.83 0 012.799 2.531 7.32 7.32 0 01.875 3.709 7.687 7.687 0 01-1.354 4.602 8.25 8.25 0 01-3.896 2.839 17.855 17.855 0 01-6.253.975zM247.251 121.073c-3.013 0-5.318-.762-6.852-2.266-1.533-1.5-2.31-3.737-2.31-6.647v-10.104h-3.933v-6.475h3.933V89.44l8.616-1.89v8.031h5.973v6.475h-5.973v8.86c0 2.247 1.205 3.434 3.484 3.434a8.401 8.401 0 002.989-.575v6.259c-.888.322-1.801.572-2.73.747a17.324 17.324 0 01-3.197.292zM269.664 121.073a16.704 16.704 0 01-7.536-1.556 10.601 10.601 0 01-4.655-4.485 15.005 15.005 0 01-1.602-7.202 16.505 16.505 0 01.876-5.535 11.833 11.833 0 012.515-4.184 10.927 10.927 0 013.933-2.654 13.897 13.897 0 015.173-.923 12.022 12.022 0 016.173 1.495 9.477 9.477 0 013.818 4.351 17.227 17.227 0 011.313 7.1v1.842h-15.74l.061.399a5.464 5.464 0 002.141 3.946 9.102 9.102 0 005.024 1.129c1.393.013 2.783-.14 4.139-.457a16.923 16.923 0 003.23-1.172v6.323c-1.29.495-2.621.876-3.978 1.141a25.346 25.346 0 01-4.885.442zm-1.393-20.91c-2.348 0-3.77 1.557-4.227 4.627l-.06.399h8.049l-.033-.377a6.45 6.45 0 00-1.096-3.499 3.2 3.2 0 00-2.633-1.15zM284.208 120.426V95.182h7.318l.701 4.855.501-.902c1.643-2.962 3.709-4.401 6.319-4.401a6.432 6.432 0 012.639.52v7.338a4.863 4.863 0 00-1.04-.377 7.819 7.819 0 00-1.848-.209 7.538 7.538 0 00-3.287.681 7.85 7.85 0 00-2.607 2.133l-.079.096v15.51h-8.617z"/></g></g></svg>
