<svg xmlns="http://www.w3.org/2000/svg" viewBox="0 0 332 166" width="332" height="166"><path fill="#542582" d="M0 0h332v166H0z"/><g fill="#FFF"><path d="M157.299 42.585c-.149-.026-.298-.049-.453-.074l-.181-.026a19.192 19.192 0 00-.781-.09 13.797 13.797 0 00-.536-.04c-.316-.02-.631-.029-.932-.029-.138 0-.218.003-.353.004a17.796 17.796 0 00-1.744.129l-.164.022-.18.026-.222.035c-.097.015-.193.033-.288.05a13.857 13.857 0 00-3.615 1.176c-.266.131-.523.266-.769.409-.24.136-.47.277-.691.424-.125.086-.252.17-.372.258a11.876 11.876 0 00-1.849 1.646c-.134.15-.269.301-.397.461a11.817 11.817 0 00-.692.942 11.337 11.337 0 00-1.092 2.127 11.528 11.528 0 00-.665 2.623c-.04.294-.07.593-.087.898-.014.235-.023.47-.023.71a8.53 8.53 0 00.062 1.078l.014.127c.026.213.06.423.1.631l.049.241a10.03 10.03 0 00.315 1.149c.086.258.177.507.279.751a11.583 11.583 0 002.537 3.78l.094.093c.146.138.301.289.481.44.123.105.249.214.389.323a12.739 12.739 0 001.575 1.057c.475.265.966.5 1.471.704a15.075 15.075 0 001.282.437 14.846 14.846 0 003.431.555c.191.01.386.018.582.02.09.003.181.006.273.006.706 0 1.359-.029 1.964-.079l.119-.011c.241-.02.473-.046.699-.075a15.915 15.915 0 001.565-.263 15.49 15.49 0 001.386-.359c.215-.064.424-.134.622-.2l.191-.068a20.15 20.15 0 002.137-.913l.222-.106V59.28l-.154.094-.296.177c-.294.179-.577.348-.863.503a17.716 17.716 0 01-2.46 1.11c-.833.3-1.689.529-2.56.684a16.13 16.13 0 01-.871.122 12.516 12.516 0 01-1.287.071 12.017 12.017 0 01-2.083-.164 10.49 10.49 0 01-1.86-.484l-.271-.104a9.732 9.732 0 01-.475-.206 8.954 8.954 0 01-.927-.505 8.411 8.411 0 01-1.014-.751l-.142-.128-.071-.065-.042-.041-.053-.05a7.996 7.996 0 01-.788-.909c-.079-.105-.151-.213-.222-.319a6.058 6.058 0 01-.187-.304 6.722 6.722 0 01-.421-.838 7.93 7.93 0 01-.603-2.707 9.685 9.685 0 01-.006-.716 8.19 8.19 0 01.213-1.603 8.352 8.352 0 01.298-.958c.04-.106.086-.213.132-.32.063-.146.134-.29.209-.439a7.406 7.406 0 011.16-1.654c.052-.055.102-.111.155-.165a8.874 8.874 0 012.597-1.8c.143-.064.288-.123.432-.179.147-.059.29-.11.439-.162a10.964 10.964 0 01.934-.26 11.49 11.49 0 01.953-.172c.168-.023.333-.038.495-.053a10.824 10.824 0 011.223-.038 13.64 13.64 0 011.089.059c.271.025.533.059.781.097.221.033.436.072.637.11.309.061.592.131.844.196.166.044.318.089.457.13a11.65 11.65 0 01.896.297c.213.076.419.158.622.24.274.11.536.229.787.342.209.094.406.191.593.282.154.074.296.15.432.22.234.123.434.233.598.322l.439.239v-4.23s-.264-.109-.72-.281c-.202-.075-.44-.166-.71-.262-.15-.052-.308-.11-.477-.168-.134-.044-.271-.093-.416-.139-.16-.052-.327-.108-.5-.159a71.182 71.182 0 00-.382-.113l-.115-.033a49.336 49.336 0 00-.383-.106c-.153-.041-.309-.08-.466-.12-.101-.026-.203-.048-.305-.072a37.69 37.69 0 00-.507-.112c-.174-.035-.353-.068-.53-.101m-21.147-4.395h33.566v31.588h-33.566V38.19zM110.356 55.609v6.21h4.03l.213-.008c.136-.004.329-.012.56-.033a6.904 6.904 0 001.573-.31c.514-.16.984-.434 1.376-.803.136-.136.257-.286.36-.447.244-.389.386-.833.413-1.291.011-.124.01-.198.01-.198s.001-.056-.001-.151a2.86 2.86 0 00-.082-.603 2.479 2.479 0 00-.627-1.123 3.069 3.069 0 00-.361-.313 3.757 3.757 0 00-.747-.42 5.692 5.692 0 00-1.213-.358 8.97 8.97 0 00-1.182-.135 7.322 7.322 0 00-.424-.014l-3.898-.003M110.356 46.172v5.884h1.952s.13 0 .301-.006c.135-.003.296-.012.439-.019a7.901 7.901 0 001.513-.243c.108-.029.217-.064.325-.101.439-.146.84-.386 1.178-.702.234-.23.418-.506.54-.81.113-.284.183-.583.207-.888.019-.204.018-.334.018-.334s.004-.097-.004-.25a2.792 2.792 0 00-.27-1.076 2.183 2.183 0 00-.412-.556 2.566 2.566 0 00-.773-.508 5.16 5.16 0 00-1.707-.374 8.829 8.829 0 00-.619-.019l-2.688.002z"/><path d="M106.282 42.62v22.749h8.564s4.176.116 6.481-2.191a5.688 5.688 0 00.152-8.041l-.012-.012a7.466 7.466 0 00-3.371-1.876 6.077 6.077 0 001.509-1.057 4.673 4.673 0 001.4-3.69 5.3 5.3 0 00-1.605-3.803s-1.76-2.08-5.734-2.08l-7.384.001zm-8.806-4.43h33.564v31.588H97.476V38.19zM71.68 55.609v6.21h4.031l.211-.008a9.11 9.11 0 00.56-.033 6.85 6.85 0 001.573-.31 3.53 3.53 0 001.376-.803c.136-.136.257-.286.361-.447.243-.389.385-.833.413-1.291.01-.124.008-.198.008-.198s.003-.056 0-.151a2.862 2.862 0 00-.083-.603 2.479 2.479 0 00-.626-1.123 3.164 3.164 0 00-.361-.313 3.793 3.793 0 00-.748-.42 5.762 5.762 0 00-1.212-.359 8.97 8.97 0 00-1.181-.135 7.448 7.448 0 00-.425-.014l-3.897-.002M71.68 46.172v5.884h1.952s.13 0 .301-.006c.135-.003.296-.012.44-.019a7.891 7.891 0 001.512-.243c.108-.029.218-.064.325-.101a3.199 3.199 0 001.178-.702c.234-.23.418-.506.541-.81.113-.284.182-.583.206-.888.019-.204.018-.334.018-.334s.004-.097-.004-.25a2.755 2.755 0 00-.269-1.076 2.186 2.186 0 00-.413-.556 2.58 2.58 0 00-.772-.508 5.171 5.171 0 00-1.708-.374 8.829 8.829 0 00-.619-.019l-2.688.002z"/><path d="M67.606 42.62v22.749h8.563s4.177.116 6.482-2.191a5.688 5.688 0 00.149-8.043l-.01-.01a7.466 7.466 0 00-3.371-1.876 6.08 6.08 0 001.511-1.057 4.676 4.676 0 001.4-3.69 5.295 5.295 0 00-1.607-3.803s-1.76-2.08-5.734-2.08l-7.383.001zm-8.805-4.43h33.564v31.588H58.801V38.19zM177.898 65.367V42.626h7.347c2.905 0 5.121.583 6.647 1.75a5.975 5.975 0 012.29 5.055 6.118 6.118 0 01-1.241 3.881 7.044 7.044 0 01-3.531 2.322c2.12 3.16 4.166 6.404 6.139 9.733h-3.658a170.098 170.098 0 00-5.598-9.191c-.339.02-.7.031-1.081.031h-4.199v9.16h-3.115zm3.116-11.704h3.977a7.883 7.883 0 004.515-1.051 3.624 3.624 0 001.496-3.181c0-2.84-1.993-4.26-5.98-4.26h-4.008v8.492zM210.021 42.626a432.42 432.42 0 014.786 11.354 742.209 742.209 0 014.502 11.388h-3.371c-.382-1.039-.758-2.067-1.13-3.085s-.748-2.036-1.129-3.054h-10.687a336.4 336.4 0 00-2.258 6.139h-3.276a529.042 529.042 0 014.564-11.674c1.536-3.794 3.1-7.483 4.691-11.067h3.308zm-6.011 13.93h8.652a720.666 720.666 0 00-2.164-5.471 1814.59 1814.59 0 00-2.162-5.374 523.413 523.413 0 00-2.195 5.407 432.636 432.636 0 00-2.131 5.438M221.725 42.626h7.921a12.844 12.844 0 016.042 1.32 9.113 9.113 0 013.865 3.834 12.805 12.805 0 011.351 6.139 13.104 13.104 0 01-1.351 6.185 9.227 9.227 0 01-3.881 3.913 12.69 12.69 0 01-6.059 1.351h-7.888V42.626zm7.666 20.069a8.05 8.05 0 006.106-2.226c1.421-1.485 2.131-3.668 2.131-6.551 0-2.841-.705-4.988-2.115-6.442a8.1 8.1 0 00-6.091-2.18h-4.548v17.399h4.517zM244.53 42.626h3.149v22.741h-3.149zM262.278 42.148c1.54-.021 3.068.26 4.5.826a9.705 9.705 0 013.467 2.385 10.554 10.554 0 012.211 3.738c.528 1.573.785 3.223.762 4.882a14.43 14.43 0 01-.779 4.883 10.856 10.856 0 01-2.21 3.737A9.69 9.69 0 01266.777 65a12.442 12.442 0 01-9 0 9.699 9.699 0 01-3.452-2.401 10.881 10.881 0 01-2.21-3.737 14.43 14.43 0 01-.778-4.883c-.023-1.659.235-3.31.763-4.882a10.537 10.537 0 012.21-3.738 9.708 9.708 0 013.467-2.386 11.852 11.852 0 014.501-.825m0 20.961a7.468 7.468 0 004.103-1.097 7.05 7.05 0 002.639-3.148c.649-1.544.964-3.209.923-4.883a11.727 11.727 0 00-.923-4.867 7.074 7.074 0 00-2.639-3.132 8.192 8.192 0 00-8.191 0 7.031 7.031 0 00-2.656 3.132 11.727 11.727 0 00-.923 4.867 11.853 11.853 0 00.923 4.883 7.018 7.018 0 002.656 3.148 7.49 7.49 0 004.088 1.097"/><g><path d="M92.176 121.172a25.663 25.663 0 01-11.303-2.559v-7.604a25.55 25.55 0 005.259 2.157c1.917.547 3.9.828 5.894.834a9.305 9.305 0 004.45-.84 2.793 2.793 0 001.623-2.544 2.553 2.553 0 00-.754-1.918 5.752 5.752 0 00-1.907-1.144 19.432 19.432 0 00-2.738-.813 37.09 37.09 0 01-5.718-1.773 13.637 13.637 0 01-3.787-2.255 7.742 7.742 0 01-2.098-2.93 10.67 10.67 0 01-.672-3.954 10.05 10.05 0 011.729-5.922 11.06 11.06 0 014.975-3.788 20.373 20.373 0 017.735-1.343 25.59 25.59 0 015.698.639c1.677.37 3.307.93 4.858 1.669v7.494a18.102 18.102 0 00-3.027-1.343 25.49 25.49 0 00-3.76-.959 21.694 21.694 0 00-3.669-.328 8.795 8.795 0 00-4.02.761 2.687 2.687 0 00.053 4.899 19.885 19.885 0 004.133 1.397c1.676.388 3.325.882 4.938 1.48a15.682 15.682 0 013.799 2.021 7.888 7.888 0 012.432 2.957 11.71 11.71 0 01-.892 10.577 10.91 10.91 0 01-5.07 3.811 22.372 22.372 0 01-8.161 1.321zM119.905 121.073a7.682 7.682 0 01-6.182-2.491c-1.416-1.67-2.133-4.132-2.133-7.318V95.182h8.615v15.784a3.532 3.532 0 00.758 2.393 2.748 2.748 0 002.179.891 4.59 4.59 0 003.653-1.819l.079-.096V95.182h8.615v25.244h-7.32l-.518-3.455-.496.593a9.126 9.126 0 01-7.25 3.509zM161.872 120.426v-18.37h-10.054v18.37h-8.615v-18.37h-3.934v-6.475h3.934v-1.045a13.826 13.826 0 011.209-6.046 8.672 8.672 0 013.448-3.785 10.668 10.668 0 015.45-1.321c.923-.001 1.845.072 2.757.22a9.72 9.72 0 012.272.655v6.39a6.365 6.365 0 00-1.094-.359 7.793 7.793 0 00-1.695-.182c-1.702 0-3.732.726-3.732 4.181v1.292h10.054v-1.045a13.346 13.346 0 011.257-6.042 8.762 8.762 0 013.618-3.785 11.685 11.685 0 015.73-1.325c.973-.003 1.943.079 2.902.244.815.141 1.612.37 2.377.684v6.4a7.822 7.822 0 00-1.27-.397 8.686 8.686 0 00-1.867-.208 4.118 4.118 0 00-3.114 1.08 4.355 4.355 0 00-1.017 3.101v1.293h5.675v6.475h-5.675v18.37h-8.616zM191.246 121.073a14.986 14.986 0 01-5.377-.923 11.284 11.284 0 01-4.082-2.656 11.703 11.703 0 01-2.586-4.184 15.879 15.879 0 01-.9-5.481 15.022 15.022 0 011.578-7.081 11.103 11.103 0 014.467-4.589 15.47 15.47 0 0113.799 0 11.109 11.109 0 014.467 4.589 15.024 15.024 0 011.578 7.081 15.925 15.925 0 01-.899 5.481 11.723 11.723 0 01-2.586 4.182 11.237 11.237 0 01-4.083 2.658c-1.72.634-3.542.947-5.376.923zm0-19.815a3.56 3.56 0 00-3.155 1.754 9.106 9.106 0 00-1.076 4.866 8.767 8.767 0 001.076 4.718 3.74 3.74 0 006.336-.002 8.954 8.954 0 001.049-4.716 9.297 9.297 0 00-1.049-4.864 3.548 3.548 0 00-3.181-1.756zM215.79 120.874c-2.477 0-4.333-.657-5.519-1.953-1.195-1.304-1.801-3.326-1.801-6.012V84.031h8.615v27.881a2.67 2.67 0 00.537 1.825 2.184 2.184 0 001.702.613 4.945 4.945 0 001.644-.278v6.06a15.862 15.862 0 01-5.178.742zM241.929 120.426a269.82 269.82 0 00-3.041-5.208 123.941 123.941 0 00-3.095-4.893l-.103-.155h-2.126v10.256h-8.615V84.031h8.615v19.865h2.169l.104-.146a120.466 120.466 0 002.971-4.368c.88-1.361 1.768-2.76 2.664-4.199h8.998l-3.749 5.353a204.36 204.36 0 01-4.175 5.741l-.149.198.139.205a671.44 671.44 0 014.727 7.091 917.564 917.564 0 014.334 6.656l-9.668-.001z"/></g></g></svg>
