<svg xmlns="http://www.w3.org/2000/svg" viewBox="0 0 332 166" width="332" height="166"><path fill="#542582" d="M0 0h332v166H0z"/><g fill="#FFF"><path d="M157.307 42.587a13.834 13.834 0 00-.453-.074l-.181-.027a21.148 21.148 0 00-.781-.09 15.625 15.625 0 00-1.822-.063 16.101 16.101 0 00-1.745.128l-.162.022-.181.026-.222.035-.288.05c-.132.025-.263.052-.393.078a13.996 13.996 0 00-3.222 1.099 13.077 13.077 0 00-1.46.833c-.127.086-.252.171-.372.259-.105.075-.209.15-.309.228a12.627 12.627 0 00-1.127.985c-.14.14-.281.282-.413.432a11.272 11.272 0 00-1.272 1.692 11.256 11.256 0 00-1.574 4.462c-.04.293-.07.593-.087.897-.014.233-.023.47-.023.71a8.582 8.582 0 00.062 1.08l.012.125c.027.214.061.423.101.631l.049.241a11.628 11.628 0 00.314 1.151 11.281 11.281 0 00.811 1.856 11.402 11.402 0 002.007 2.674l.094.093c.146.138.301.289.481.442.123.104.25.213.389.322.128.101.262.206.404.307.169.123.346.247.536.367.202.128.412.258.635.383a12.87 12.87 0 002.754 1.141c.387.11.794.209 1.22.292a16.424 16.424 0 002.794.285l.273.003c.708 0 1.359-.026 1.965-.076l.119-.011a19.242 19.242 0 002.264-.34 16.78 16.78 0 001.386-.358c.215-.064.425-.134.622-.2l.191-.067a20.275 20.275 0 002.361-1.021v-4.306l-.154.093-.294.177a20.1 20.1 0 01-.864.503 17.372 17.372 0 01-2.459 1.11c-.832.3-1.689.529-2.56.684l-.267.044a12.71 12.71 0 01-1.434.139 9.378 9.378 0 01-.457.012c-.305 0-.62-.008-.941-.031a11.793 11.793 0 01-1.143-.134 10.457 10.457 0 01-1.859-.484 7.55 7.55 0 01-.271-.105l-.176-.071c-.1-.044-.199-.087-.298-.134a8.749 8.749 0 01-.927-.505 8.98 8.98 0 01-.677-.473 8.795 8.795 0 01-.337-.278l-.143-.13-.07-.064-.042-.04-.053-.05a7.34 7.34 0 01-1.442-1.988 7.138 7.138 0 01-.415-1.028 7.996 7.996 0 01-.365-2.063 9.645 9.645 0 01-.006-.715 8.247 8.247 0 01.213-1.603c.04-.161.083-.323.135-.493.048-.153.104-.308.164-.466.04-.105.086-.211.132-.319.063-.147.134-.292.209-.439.057-.112.12-.222.184-.334.147-.253.309-.497.485-.731.066-.086.132-.175.203-.259.091-.109.187-.224.289-.331.05-.053.101-.11.154-.164a8.81 8.81 0 013.468-2.141 8.787 8.787 0 01.934-.261c.153-.037.305-.065.455-.094.166-.03.334-.056.499-.076.166-.023.331-.04.493-.053.315-.029.623-.041.924-.041h.299a15.005 15.005 0 011.089.06 14 14 0 012.262.404c.166.044.318.09.455.129a16.438 16.438 0 01.897.297c.211.075.419.158.623.241.273.109.534.228.785.341.209.094.406.191.593.282.154.075.297.151.432.221.234.121.435.232.598.32l.439.24v-4.23s-.264-.109-.72-.281c-.202-.075-.44-.166-.71-.26-.15-.053-.308-.112-.477-.168-.134-.045-.271-.094-.416-.14-.16-.052-.327-.108-.5-.158-.124-.037-.251-.078-.382-.114l-.115-.031c-.125-.037-.253-.072-.383-.108-.153-.041-.308-.08-.466-.119-.101-.026-.203-.05-.305-.074a19.818 19.818 0 00-.508-.11c-.173-.038-.352-.069-.529-.101m-21.151-4.398h33.566v31.588h-33.566V38.19zM110.364 55.61v6.208h4.03l.213-.007c.136-.005.328-.012.56-.034a6.9 6.9 0 001.573-.308 3.58 3.58 0 001.376-.803c.136-.136.257-.286.36-.449.244-.389.387-.833.413-1.291.009-.124.009-.198.009-.198s.001-.056-.001-.151a2.86 2.86 0 00-.082-.603 2.479 2.479 0 00-.627-1.123 3.06 3.06 0 00-.361-.312 3.762 3.762 0 00-.747-.421 5.624 5.624 0 00-1.212-.357 8.144 8.144 0 00-.717-.101 11.157 11.157 0 00-.89-.049l-3.897-.001M110.364 46.172v5.885h1.952s.13 0 .301-.006c.135-.004.296-.012.439-.02a8.047 8.047 0 001.512-.241c.109-.03.218-.064.326-.102.439-.146.84-.385 1.178-.701.234-.23.418-.507.54-.811.113-.284.183-.583.207-.888.018-.203.018-.333.018-.333s.003-.097-.004-.251a2.777 2.777 0 00-.27-1.074 2.137 2.137 0 00-.412-.556 2.56 2.56 0 00-.773-.51 5.19 5.19 0 00-1.707-.374 8.829 8.829 0 00-.619-.019l-2.688.001z"/><path d="M106.29 42.62v22.75h8.563s4.177.115 6.482-2.192a5.684 5.684 0 00.153-8.038l-.014-.015a7.461 7.461 0 00-3.37-1.875 6.147 6.147 0 001.511-1.056 4.688 4.688 0 001.399-3.692 5.306 5.306 0 00-1.606-3.804s-1.76-2.079-5.734-2.079l-7.384.001zm-8.805-4.43h33.565v31.588H97.485V38.19zM71.688 55.61v6.208h4.031l.211-.007c.136-.005.328-.012.56-.034a6.847 6.847 0 001.573-.308c.513-.16.984-.435 1.376-.803a2.646 2.646 0 00.774-1.74c.01-.124.008-.198.008-.198s.003-.056 0-.151a2.862 2.862 0 00-.083-.603 2.479 2.479 0 00-.625-1.123 3.08 3.08 0 00-.363-.312 3.712 3.712 0 00-.747-.421 5.624 5.624 0 00-1.212-.357 8.144 8.144 0 00-.717-.101 11.033 11.033 0 00-.889-.049l-3.897-.001M71.688 46.172v5.885h1.952s.13 0 .301-.006c.135-.004.296-.012.439-.02a8.058 8.058 0 001.513-.241c.108-.03.217-.064.325-.102.439-.146.84-.385 1.178-.701a2.41 2.41 0 00.541-.811c.113-.284.182-.583.206-.888.019-.203.018-.333.018-.333s.004-.097-.004-.251a2.741 2.741 0 00-.269-1.074 2.146 2.146 0 00-.413-.556 2.574 2.574 0 00-.772-.51 5.196 5.196 0 00-1.708-.374 8.829 8.829 0 00-.619-.019l-2.688.001z"/><path d="M67.613 42.62v22.75h8.564s4.176.115 6.482-2.192a5.688 5.688 0 00.149-8.043l-.01-.01a7.465 7.465 0 00-3.371-1.875 6.123 6.123 0 001.51-1.056 4.684 4.684 0 001.4-3.692c0-1.433-.58-2.805-1.607-3.803 0 0-1.758-2.079-5.734-2.079h-7.383zm-8.805-4.43h33.564v31.588H58.808V38.19zM177.906 65.368V42.627h7.347c2.905 0 5.121.583 6.647 1.749a5.979 5.979 0 012.29 5.057 6.118 6.118 0 01-1.241 3.881 7.044 7.044 0 01-3.531 2.322c2.12 3.16 4.166 6.404 6.139 9.732H191.9a176.934 176.934 0 00-2.72-4.628 167.612 167.612 0 00-2.878-4.563c-.339.02-.7.031-1.081.031h-4.199v9.16h-3.116zm3.116-11.704h3.977a7.883 7.883 0 004.515-1.051 3.624 3.624 0 001.496-3.181c0-2.84-1.993-4.26-5.98-4.26h-4.008v8.492zM210.029 42.627a427.634 427.634 0 014.786 11.354 742.209 742.209 0 014.502 11.388h-3.372c-.382-1.039-.758-2.067-1.13-3.085s-.748-2.036-1.129-3.053h-10.687a344.015 344.015 0 00-2.258 6.139h-3.276a524.112 524.112 0 014.564-11.674c1.536-3.794 3.1-7.483 4.691-11.067l3.309-.002zm-6.011 13.93h8.652a720.666 720.666 0 00-2.164-5.471 1814.59 1814.59 0 00-2.162-5.374 532.652 532.652 0 00-2.195 5.407 423.513 423.513 0 00-2.131 5.438M221.733 42.627h7.921a12.832 12.832 0 016.042 1.32 9.116 9.116 0 013.865 3.833 12.805 12.805 0 011.351 6.139 13.104 13.104 0 01-1.351 6.185 9.221 9.221 0 01-3.881 3.913 12.69 12.69 0 01-6.059 1.351h-7.888V42.627zm7.665 20.069a8.05 8.05 0 006.106-2.226c1.421-1.485 2.131-3.668 2.131-6.551 0-2.841-.705-4.988-2.115-6.442a8.1 8.1 0 00-6.091-2.18h-4.548v17.399h4.517zM244.538 42.628h3.149v22.741h-3.149zM262.286 42.15c1.54-.021 3.068.26 4.5.826a9.717 9.717 0 013.467 2.386 10.554 10.554 0 012.211 3.738c.528 1.573.785 3.223.762 4.882.023 1.66-.24 3.312-.778 4.883a10.856 10.856 0 01-2.21 3.737 9.69 9.69 0 01-3.452 2.401 12.442 12.442 0 01-9 0 9.699 9.699 0 01-3.452-2.401 10.881 10.881 0 01-2.21-3.737 14.43 14.43 0 01-.778-4.883 14.699 14.699 0 01.763-4.882 10.537 10.537 0 012.21-3.738 9.708 9.708 0 013.467-2.386 11.802 11.802 0 014.5-.826m0 20.961a7.468 7.468 0 004.103-1.097 7.05 7.05 0 002.639-3.148 11.84 11.84 0 00.923-4.883 11.727 11.727 0 00-.923-4.867 7.074 7.074 0 00-2.639-3.132 8.192 8.192 0 00-8.191 0 7.031 7.031 0 00-2.656 3.132 11.727 11.727 0 00-.923 4.867 11.836 11.836 0 00.923 4.883 7.024 7.024 0 002.656 3.148 7.507 7.507 0 004.088 1.097"/><g><path d="M98.251 118.328a19.798 19.798 0 01-4.354-.464 15.212 15.212 0 01-3.364-1.145v-7.451c.777.413 1.6.734 2.451.956 1.151.297 2.335.444 3.524.436 4.129 0 6.222-2.111 6.222-6.273V82.681h9.013v21.955c0 4.398-1.172 7.817-3.484 10.161-2.309 2.344-5.676 3.531-10.008 3.531zM130.118 118.23a16.704 16.704 0 01-7.536-1.556 10.609 10.609 0 01-4.655-4.486 15.023 15.023 0 01-1.601-7.201c-.026-1.881.27-3.753.876-5.535a11.786 11.786 0 012.515-4.184 10.905 10.905 0 013.934-2.654 13.853 13.853 0 015.173-.923 12.01 12.01 0 016.171 1.495 9.456 9.456 0 013.818 4.349 17.227 17.227 0 011.313 7.1v1.842h-15.739l.06.399a5.46 5.46 0 002.141 3.946 8.974 8.974 0 005.022 1.13c1.393.013 2.783-.14 4.14-.457a16.89 16.89 0 003.229-1.172v6.323c-1.29.495-2.621.876-3.977 1.141a25.236 25.236 0 01-4.884.443zm-1.394-20.911c-2.347 0-3.769 1.557-4.227 4.629l-.06.399h8.049l-.033-.377a6.445 6.445 0 00-1.096-3.5 3.199 3.199 0 00-2.633-1.151zM144.664 117.582V92.338h7.318l.702 4.855.5-.902c1.641-2.962 3.708-4.401 6.318-4.401a6.398 6.398 0 012.639.521v7.337a4.926 4.926 0 00-1.039-.376 7.834 7.834 0 00-1.849-.21 7.525 7.525 0 00-3.287.682 7.826 7.826 0 00-2.607 2.133l-.079.096v15.509h-8.616zM174.087 118.23a22.872 22.872 0 01-8.614-1.628v-6.246a18.08 18.08 0 003.539 1.435c1.325.392 2.697.597 4.079.61a7.116 7.116 0 003.014-.483 1.774 1.774 0 001.117-1.655 1.61 1.61 0 00-1.025-1.537 11.655 11.655 0 00-2.181-.695 23.666 23.666 0 01-5.27-1.812 6.482 6.482 0 01-2.77-2.5 7.602 7.602 0 01-.851-3.763 7.311 7.311 0 011.327-4.4 8.583 8.583 0 013.808-2.846 16.024 16.024 0 016.017-1.019 21.828 21.828 0 014.509.465c1.312.27 2.589.69 3.807 1.249v6.137a11.99 11.99 0 00-3.139-1.414 14.412 14.412 0 00-4.031-.61 6.914 6.914 0 00-2.859.479 1.736 1.736 0 00-1.173 1.61c-.012.38.115.752.356 1.046.301.313.682.538 1.101.651.454.151 1.085.33 1.894.53 1.794.348 3.533.932 5.173 1.737a6.84 6.84 0 012.799 2.532 7.34 7.34 0 01.874 3.709 7.693 7.693 0 01-1.353 4.602 8.275 8.275 0 01-3.898 2.842 17.85 17.85 0 01-6.25.974zM202.863 118.23a16.704 16.704 0 01-7.536-1.556 10.609 10.609 0 01-4.655-4.486 15.023 15.023 0 01-1.601-7.201c-.026-1.881.27-3.753.876-5.535a11.784 11.784 0 012.514-4.184 10.905 10.905 0 013.934-2.654 13.853 13.853 0 015.173-.923 12.01 12.01 0 016.171 1.495 9.456 9.456 0 013.818 4.349 17.227 17.227 0 011.313 7.1v1.842h-15.739l.06.399a5.46 5.46 0 002.141 3.946 8.974 8.974 0 005.022 1.13c1.393.013 2.783-.14 4.14-.457a16.923 16.923 0 003.23-1.172v6.323c-1.29.495-2.621.876-3.977 1.141a25.23 25.23 0 01-4.884.443zm-1.393-20.911c-2.347 0-3.769 1.557-4.227 4.629l-.06.399h8.049l-.033-.377a6.445 6.445 0 00-1.096-3.5 3.2 3.2 0 00-2.633-1.151zM219.59 129.482a14.23 14.23 0 01-5.328-.828v-6.395c.212.084.446.163.702.236.496.14 1 .251 1.509.332.487.082.98.125 1.474.129a7.025 7.025 0 002.753-.452 3.89 3.89 0 001.692-1.395 9.925 9.925 0 001.06-2.165c.066-.202.138-.392.218-.585.085-.206.163-.412.233-.621l.04-.121-.048-.118a584.03 584.03 0 01-5.001-12.836 636.53 636.53 0 01-4.49-12.326h8.996a439.95 439.95 0 002.102 8.156c.748 2.792 1.52 5.582 2.317 8.37l.334 1.168.334-1.168a315.64 315.64 0 002.268-8.373c.682-2.663 1.34-5.405 1.958-8.153h8.741a874.31 874.31 0 01-1.38 3.894 503.207 503.207 0 01-1.766 4.85 699.435 699.435 0 01-1.866 4.976c-.944 2.487-2.936 7.715-3.434 9.009s-.929 2.405-1.294 3.332-.644 1.621-.842 2.082a28.41 28.41 0 01-2.213 4.306 11.512 11.512 0 01-2.415 2.755 8.221 8.221 0 01-2.89 1.479c-1.228.324-2.494.48-3.764.462z"/></g></g></svg>
