<svg xmlns="http://www.w3.org/2000/svg" viewBox="0 0 332 166" width="332" height="166"><path fill="#542582" d="M0 0h332v166H0z"/><g fill="#FFF"><path d="M157.301 42.587a13.007 13.007 0 00-.453-.074l-.183-.027a20.373 20.373 0 00-.78-.09 15.683 15.683 0 00-1.82-.063 16.413 16.413 0 00-1.747.128l-.162.022-.18.026-.224.035-.288.05c-.132.025-.262.052-.391.078a13.903 13.903 0 00-3.222 1.099c-.267.131-.523.266-.77.409-.24.138-.471.278-.69.424-.127.086-.252.171-.372.259-.105.075-.208.15-.311.228a12.128 12.128 0 00-1.127.985c-.139.14-.28.282-.413.432s-.268.301-.397.461a11.99 11.99 0 00-.692.943 11.02 11.02 0 00-1.09 2.126 11.369 11.369 0 00-.665 2.624 11.79 11.79 0 00-.098 2.142c.012.183.026.364.048.545l.014.125a9.876 9.876 0 00.15.872 10.52 10.52 0 00.592 1.901 11.582 11.582 0 00.88 1.703 11.765 11.765 0 00.694.991 11.878 11.878 0 00.964 1.086l.095.093c.145.138.3.289.48.442.123.104.249.213.388.322.128.101.262.206.404.307a12.686 12.686 0 001.172.75 12.704 12.704 0 002.095.934 14.627 14.627 0 002.948.665c.367.044.747.078 1.141.097.191.01.386.019.583.022.09 0 .181.003.273.003.705 0 1.359-.025 1.963-.076l.119-.011a19.605 19.605 0 001.688-.225 17.106 17.106 0 002.584-.673l.192-.067a21.026 21.026 0 001.1-.434 20.57 20.57 0 001.037-.479c.074-.035.146-.071.221-.108v-4.306a5.644 5.644 0 01-.153.093l-.296.177c-.295.18-.578.348-.864.503a17.126 17.126 0 01-2.459 1.11c-.832.301-1.689.53-2.56.684l-.267.044a12.673 12.673 0 01-1.435.139 9.41 9.41 0 01-.457.012c-.305 0-.62-.008-.939-.031a11.7 11.7 0 01-1.142-.134 10.478 10.478 0 01-1.861-.484 6.283 6.283 0 01-.27-.105c-.059-.022-.119-.048-.176-.071a8.561 8.561 0 01-1.227-.639 6.402 6.402 0 01-.304-.202 6.912 6.912 0 01-.709-.549l-.143-.13-.071-.064-.041-.04-.053-.05a8.79 8.79 0 01-.532-.581 9.256 9.256 0 01-.258-.329 8.763 8.763 0 01-.222-.319 6.972 6.972 0 01-.431-.759 7.6 7.6 0 01-.549-1.505 7.996 7.996 0 01-.204-1.211c-.014-.136-.02-.261-.026-.375a7.369 7.369 0 01-.005-.715c.009-.306.036-.612.079-.915a8.446 8.446 0 01.269-1.181 8.37 8.37 0 01.162-.466c.04-.105.086-.211.132-.319.063-.147.134-.292.21-.439.056-.112.12-.222.184-.334a7.223 7.223 0 01.687-.99c.093-.109.188-.224.288-.331l.157-.164a8.805 8.805 0 013.468-2.141 9.414 9.414 0 01.934-.261c.151-.037.305-.065.455-.094.166-.03.333-.056.498-.076.166-.023.333-.04.495-.053.315-.029.623-.041.922-.041h.3a15.119 15.119 0 011.089.06 13.884 13.884 0 011.418.209c.311.061.593.128.844.195.166.044.319.09.457.129.208.063.386.119.526.166.239.083.37.131.37.131.213.075.42.158.623.241.274.109.534.228.787.341.208.094.405.191.592.282.154.075.297.151.434.221.233.121.434.232.597.32l.439.24v-4.23s-.264-.109-.72-.281c-.202-.075-.439-.166-.71-.26-.15-.053-.307-.112-.476-.168-.135-.045-.271-.094-.416-.14-.161-.052-.329-.108-.5-.158-.124-.037-.254-.078-.382-.114l-.114-.031c-.126-.037-.254-.072-.385-.108a24.285 24.285 0 00-1.278-.303c-.174-.038-.352-.069-.53-.101m-21.146-4.398h33.566v31.588h-33.566V38.19zM110.358 55.61v6.208h4.031l.211-.007a9.07 9.07 0 00.56-.034 6.847 6.847 0 001.573-.308c.513-.16.984-.435 1.376-.803.136-.136.257-.286.361-.449.243-.389.385-.833.413-1.291.01-.124.01-.198.01-.198s.001-.056-.002-.151a2.862 2.862 0 00-.083-.603 2.479 2.479 0 00-.625-1.123 3.156 3.156 0 00-.361-.312 3.812 3.812 0 00-.747-.421 5.65 5.65 0 00-1.213-.357 8.174 8.174 0 00-.716-.101 11.284 11.284 0 00-.89-.049l-3.898-.001M110.358 46.172v5.885h1.952s.13 0 .301-.006c.136-.004.296-.012.44-.02a8.047 8.047 0 001.512-.241c.108-.03.218-.064.325-.102a3.197 3.197 0 001.178-.701 2.4 2.4 0 00.541-.811c.114-.284.183-.583.206-.888.019-.203.018-.333.018-.333s.004-.097-.004-.251a2.741 2.741 0 00-.269-1.074 2.146 2.146 0 00-.413-.556 2.574 2.574 0 00-.772-.51 5.19 5.19 0 00-1.707-.374 8.829 8.829 0 00-.619-.019l-2.689.001z"/><path d="M106.284 42.62v22.75h8.564s4.176.115 6.482-2.192a5.688 5.688 0 00.149-8.043l-.01-.01a7.465 7.465 0 00-3.371-1.875 6.123 6.123 0 001.51-1.056 4.688 4.688 0 001.399-3.692 5.3 5.3 0 00-1.607-3.803s-1.759-2.079-5.733-2.079h-7.383zm-8.804-4.43h33.564v31.588H97.48V38.19zM71.683 55.61v6.208h4.03l.213-.007c.136-.005.328-.012.56-.034a6.847 6.847 0 001.573-.308c.513-.16.984-.435 1.376-.803.136-.136.257-.286.36-.449.244-.389.387-.833.414-1.291.01-.124.008-.198.008-.198s.003-.056 0-.151a2.862 2.862 0 00-.083-.603 2.465 2.465 0 00-.627-1.123 3.05 3.05 0 00-.36-.312 3.812 3.812 0 00-.747-.421 5.65 5.65 0 00-1.213-.357 8.174 8.174 0 00-.716-.101 11.284 11.284 0 00-.89-.049l-3.898-.001M71.683 46.172v5.885h1.952s.13 0 .301-.006c.135-.004.296-.012.44-.02a8.06 8.06 0 001.512-.241c.108-.03.217-.064.325-.102.439-.146.84-.385 1.178-.701a2.41 2.41 0 00.541-.811c.114-.284.183-.583.206-.888.019-.203.018-.333.018-.333s.004-.097-.004-.251a2.741 2.741 0 00-.269-1.074 2.146 2.146 0 00-.413-.556 2.574 2.574 0 00-.772-.51 5.196 5.196 0 00-1.708-.374 8.812 8.812 0 00-.619-.019l-2.688.001z"/><path d="M67.608 42.62v22.75h8.564s4.176.115 6.481-2.192a5.688 5.688 0 00.152-8.041l-.012-.012a7.465 7.465 0 00-3.371-1.875 6.123 6.123 0 001.51-1.056 4.691 4.691 0 001.399-3.692c0-1.433-.58-2.805-1.607-3.804 0 0-1.758-2.078-5.732-2.078h-7.384zm-8.805-4.43h33.564v31.588H58.803V38.19zM177.9 65.368V42.627h7.348c2.904 0 5.119.583 6.646 1.749a5.977 5.977 0 012.29 5.057 6.118 6.118 0 01-1.241 3.881 7.04 7.04 0 01-3.531 2.322 203.885 203.885 0 016.139 9.732h-3.658a176.934 176.934 0 00-2.72-4.628 167.612 167.612 0 00-2.878-4.563c-.339.02-.7.031-1.081.031h-4.199v9.16H177.9zm3.116-11.704h3.977a7.883 7.883 0 004.515-1.051 3.624 3.624 0 001.496-3.181c0-2.84-1.993-4.26-5.98-4.26h-4.008v8.492zM210.024 42.627a437.861 437.861 0 014.786 11.354 742.209 742.209 0 014.502 11.388h-3.373l-1.129-3.085a510.948 510.948 0 00-1.129-3.053h-10.687a344.015 344.015 0 00-2.258 6.139h-3.277a539.113 539.113 0 014.566-11.674 365.76 365.76 0 014.69-11.067l3.309-.002zm-6.011 13.93h8.651a938.763 938.763 0 00-4.326-10.845 556.97 556.97 0 00-2.196 5.407 432.593 432.593 0 00-2.129 5.438M221.728 42.627h7.921a12.835 12.835 0 016.042 1.32 9.116 9.116 0 013.865 3.833 12.82 12.82 0 011.351 6.139 13.116 13.116 0 01-1.351 6.185 9.227 9.227 0 01-3.881 3.913 12.688 12.688 0 01-6.058 1.351h-7.888V42.627zm7.666 20.069a8.058 8.058 0 006.106-2.226c1.421-1.485 2.131-3.668 2.131-6.551 0-2.841-.705-4.988-2.115-6.442a8.1 8.1 0 00-6.091-2.18h-4.548v17.399h4.517zM244.533 42.628h3.149v22.741h-3.149zM262.281 42.15c1.54-.021 3.068.26 4.5.826a9.73 9.73 0 013.467 2.386 10.554 10.554 0 012.211 3.738c.528 1.573.785 3.223.762 4.882.023 1.66-.24 3.312-.778 4.883a10.909 10.909 0 01-2.211 3.737 9.682 9.682 0 01-3.45 2.401 12.448 12.448 0 01-9.002 0 9.695 9.695 0 01-3.451-2.401 10.881 10.881 0 01-2.21-3.737 14.43 14.43 0 01-.778-4.883 14.698 14.698 0 01.762-4.882 10.537 10.537 0 012.21-3.738 9.73 9.73 0 013.467-2.386 11.807 11.807 0 014.501-.826m0 20.961a7.468 7.468 0 004.103-1.097 7.047 7.047 0 002.638-3.148 11.84 11.84 0 00.923-4.883 11.727 11.727 0 00-.923-4.867 7.072 7.072 0 00-2.638-3.132 8.192 8.192 0 00-8.191 0 7.031 7.031 0 00-2.656 3.132 11.727 11.727 0 00-.923 4.867 11.836 11.836 0 00.923 4.883 7.018 7.018 0 002.656 3.148 7.512 7.512 0 004.088 1.097"/><g><path d="M80.573 120.406V85.504h9.013v27.233h15.832v7.669zM122.492 121.053a14.98 14.98 0 01-5.376-.923 11.271 11.271 0 01-4.082-2.656 11.689 11.689 0 01-2.587-4.184 15.902 15.902 0 01-.899-5.481 15.01 15.01 0 011.578-7.081 11.103 11.103 0 014.467-4.589 15.47 15.47 0 0113.799 0 11.113 11.113 0 014.469 4.589 15.036 15.036 0 011.578 7.081 15.953 15.953 0 01-.899 5.481 11.706 11.706 0 01-2.588 4.182 11.268 11.268 0 01-4.082 2.658 14.995 14.995 0 01-5.378.923zm0-19.815a3.559 3.559 0 00-3.155 1.754 9.126 9.126 0 00-1.075 4.866 8.77 8.77 0 001.075 4.718 3.74 3.74 0 006.338-.002 8.954 8.954 0 001.049-4.716 9.297 9.297 0 00-1.049-4.864 3.552 3.552 0 00-3.183-1.756zM155.001 120.406v-15.684c0-2.796-1.651-3.383-3.036-3.383a4.546 4.546 0 00-3.706 1.823l-.076.095v17.149h-8.616V95.162h7.319l.517 3.507.497-.594a9.226 9.226 0 017.301-3.56 7.821 7.821 0 016.259 2.493c1.43 1.669 2.156 4.163 2.156 7.415v15.982l-8.615.001zM178.062 121.053a9.406 9.406 0 01-5.357-1.533 9.98 9.98 0 01-3.534-4.406 19.028 19.028 0 01.218-14.198 11.003 11.003 0 014.197-4.735 12.315 12.315 0 016.516-1.666c1.3-.014 2.591.215 3.807.674l.473.183V84.01h8.616v36.395h-7.318l-.472-3.246-.501.643a8.175 8.175 0 01-3.006 2.485 8.691 8.691 0 01-3.639.766zm3.534-19.714a4.358 4.358 0 00-3.714 1.758 8.112 8.112 0 00-1.263 4.862 8.579 8.579 0 001.026 4.592 3.523 3.523 0 003.156 1.68 4.454 4.454 0 003.497-1.613l.085-.099v-10.5l-.193-.096a5.44 5.44 0 00-1.249-.452 6.465 6.465 0 00-1.345-.132zM210.328 121.053a14.98 14.98 0 01-5.376-.923 11.271 11.271 0 01-4.082-2.656 11.722 11.722 0 01-2.588-4.184 15.902 15.902 0 01-.899-5.481 15.022 15.022 0 011.578-7.081 11.113 11.113 0 014.469-4.589 15.47 15.47 0 0113.799 0 11.109 11.109 0 014.467 4.589 15.036 15.036 0 011.578 7.081 15.879 15.879 0 01-.9 5.481 11.703 11.703 0 01-2.587 4.182 11.268 11.268 0 01-4.082 2.658 14.993 14.993 0 01-5.377.923zm0-19.815a3.559 3.559 0 00-3.155 1.754 9.106 9.106 0 00-1.076 4.866 8.767 8.767 0 001.076 4.718 3.74 3.74 0 006.336-.002 8.954 8.954 0 001.049-4.716 9.297 9.297 0 00-1.049-4.864 3.55 3.55 0 00-3.181-1.756zM242.835 120.406v-15.684c0-2.796-1.651-3.383-3.036-3.383a4.546 4.546 0 00-3.706 1.823l-.076.095v17.149h-8.615V95.162h7.318l.518 3.506.497-.593a9.223 9.223 0 017.301-3.56 7.824 7.824 0 016.258 2.493c1.431 1.669 2.157 4.163 2.157 7.415v15.982l-8.616.001z"/></g></g></svg>
