<svg xmlns="http://www.w3.org/2000/svg" viewBox="0 0 332 166" width="332" height="166"><path fill="#542582" d="M0 0h332v166H0z"/><g fill="#FFF"><path d="M157.292 42.585c-.149-.026-.299-.049-.454-.074l-.181-.026a18.94 18.94 0 00-.78-.09c-.179-.018-.359-.029-.534-.04a14.94 14.94 0 00-.935-.029c-.138 0-.215.003-.352.004a17.872 17.872 0 00-1.745.129l-.164.022-.18.026-.222.035c-.097.015-.194.033-.288.05a13.857 13.857 0 00-3.615 1.176c-.267.131-.524.266-.77.409-.238.136-.469.277-.69.424-.125.086-.251.17-.372.258a11.07 11.07 0 00-.918.731c-.18.16-.356.32-.518.483-.139.14-.281.282-.415.432s-.268.301-.397.461a11.778 11.778 0 00-.872 1.231 11.416 11.416 0 00-1.575 4.461c-.04.294-.07.593-.087.898-.014.235-.023.47-.023.71 0 .181.001.359.014.534.012.184.026.364.046.544l.014.127c.029.213.06.423.101.631.015.079.033.161.049.241a10.505 10.505 0 00.595 1.9 11.583 11.583 0 002.536 3.78l.095.093c.145.138.301.289.481.44.123.105.249.214.387.323.128.101.262.204.404.307a12.686 12.686 0 001.172.75c.475.266.966.501 1.471.704.2.079.41.157.626.23.213.074.431.142.657.207a14.846 14.846 0 003.432.555c.19.01.385.018.583.02.089.003.18.006.273.006.705 0 1.358-.029 1.962-.079l.12-.011c.241-.02.473-.046.699-.075a15.915 15.915 0 001.565-.263c.289-.061.563-.13.826-.198.192-.052.38-.106.56-.161.215-.064.424-.134.622-.2l.191-.068c.095-.033.225-.079.378-.139.2-.079.446-.175.723-.295a20.738 20.738 0 001.039-.479l.219-.106V59.28a5.66 5.66 0 01-.153.094l-.294.177a18.2 18.2 0 01-1.786.972c-.533.251-1.042.462-1.538.641-.833.3-1.69.529-2.562.684a16.033 16.033 0 01-.87.122 12.475 12.475 0 01-1.289.071 12.075 12.075 0 01-2.082-.164 10.457 10.457 0 01-1.859-.484l-.271-.104a4.543 4.543 0 01-.174-.074 8.017 8.017 0 01-.923-.454 7.45 7.45 0 01-.608-.383 8.46 8.46 0 01-.374-.273 11.448 11.448 0 01-.337-.278l-.142-.128-.071-.065-.042-.041-.052-.05a8.055 8.055 0 01-.791-.909 7.026 7.026 0 01-.653-1.077 7.405 7.405 0 01-.549-1.505 8.013 8.013 0 01-.232-1.586 9.685 9.685 0 01-.006-.716c.011-.306.037-.61.079-.913a8.57 8.57 0 01.134-.69 8.352 8.352 0 01.298-.958 7.703 7.703 0 01.341-.759c.057-.11.12-.221.185-.333.145-.254.307-.498.484-.731a6.747 6.747 0 01.647-.755 8.874 8.874 0 012.597-1.8 11.776 11.776 0 01.871-.341 9.414 9.414 0 011.389-.353c.166-.031.334-.056.498-.079.166-.023.333-.038.496-.053a10.796 10.796 0 011.222-.038 13.851 13.851 0 011.871.156c.221.033.436.072.635.11a14.527 14.527 0 012.195.623c.214.076.42.158.623.24.274.11.536.229.787.342.209.094.405.191.592.282.154.074.297.15.432.22.236.123.435.233.598.322l.439.239v-4.23s-.263-.109-.72-.281c-.202-.075-.439-.166-.71-.262-.15-.052-.307-.11-.476-.168-.134-.044-.271-.093-.416-.139-.161-.052-.327-.108-.5-.159l-.38-.113-.116-.033-.383-.106c-.153-.041-.308-.08-.466-.12-.102-.026-.203-.048-.305-.072-.168-.038-.337-.076-.508-.112s-.351-.068-.528-.101m-21.146-4.395h33.566v31.588h-33.566V38.19zM110.349 55.609v6.21h4.03l.213-.008c.136-.004.328-.012.559-.033a6.824 6.824 0 001.575-.31c.514-.16.984-.434 1.376-.803.136-.136.257-.286.36-.447.243-.389.386-.833.414-1.291.01-.124.008-.198.008-.198s.003-.056 0-.151a2.862 2.862 0 00-.083-.603 2.493 2.493 0 00-.988-1.436 3.75 3.75 0 00-.746-.42 5.77 5.77 0 00-1.213-.359 8.97 8.97 0 00-1.181-.135 7.488 7.488 0 00-.427-.014l-3.897-.002M110.349 46.172v5.884h1.952s.13 0 .301-.006c.135-.003.296-.012.44-.019a7.891 7.891 0 001.512-.243c.108-.029.217-.064.323-.101a3.203 3.203 0 001.179-.702c.234-.23.418-.506.54-.81.114-.284.184-.583.207-.888.018-.204.016-.334.016-.334s.006-.097-.003-.25a2.831 2.831 0 00-.269-1.076 2.186 2.186 0 00-.413-.556 2.58 2.58 0 00-.772-.508 5.171 5.171 0 00-1.708-.374 8.829 8.829 0 00-.619-.019l-2.686.002z"/><path d="M106.275 42.62v22.749h8.564s4.176.116 6.481-2.191a5.684 5.684 0 00.153-8.038l-.014-.015a7.466 7.466 0 00-3.371-1.876 6.1 6.1 0 001.51-1.057 4.676 4.676 0 001.4-3.69 5.295 5.295 0 00-1.607-3.803s-1.76-2.08-5.734-2.08l-7.382.001zm-8.806-4.43h33.564v31.588H97.469V38.19zM71.674 55.609v6.21h4.03l.211-.008c.138-.004.33-.012.56-.033a6.877 6.877 0 001.575-.31c.514-.16.984-.434 1.376-.803.464-.463.74-1.083.773-1.738.011-.124.01-.198.01-.198v-.151a2.998 2.998 0 00-.083-.603 2.493 2.493 0 00-.988-1.436 3.757 3.757 0 00-.747-.42 5.77 5.77 0 00-1.213-.359 8.945 8.945 0 00-1.181-.135 7.387 7.387 0 00-.425-.014c-1.43 0-3.896-.003-3.896-.003M71.674 46.172v5.884h1.952s.128 0 .301-.006c.135-.003.295-.012.439-.019a7.901 7.901 0 001.513-.243c.108-.029.217-.064.323-.101a3.211 3.211 0 001.179-.702c.234-.23.418-.506.54-.81.113-.284.183-.583.207-.888.018-.204.016-.334.016-.334a2.321 2.321 0 00-.004-.25 2.755 2.755 0 00-.269-1.076 2.107 2.107 0 00-.413-.556 2.55 2.55 0 00-.772-.508 5.16 5.16 0 00-1.707-.374 8.829 8.829 0 00-.619-.019l-2.686.002z"/><path d="M67.598 42.62v22.749h8.563s4.177.116 6.482-2.191a5.684 5.684 0 00.157-8.036l-.017-.017a7.466 7.466 0 00-3.371-1.876 6.1 6.1 0 001.51-1.057 4.676 4.676 0 001.4-3.69 5.294 5.294 0 00-1.606-3.803s-1.76-2.08-5.734-2.08l-7.384.001zm-8.804-4.43h33.564v31.588H58.794V38.19zM177.891 65.367V42.626h7.347c2.904 0 5.12.583 6.647 1.75a5.971 5.971 0 012.289 5.055 6.123 6.123 0 01-1.239 3.881 7.04 7.04 0 01-3.531 2.322c2.12 3.16 4.166 6.404 6.139 9.733h-3.658a185.783 185.783 0 00-2.72-4.628 167.612 167.612 0 00-2.878-4.563c-.34.02-.7.031-1.083.031h-4.198v9.16h-3.115zm3.117-11.704h3.975a7.891 7.891 0 004.517-1.051 3.624 3.624 0 001.494-3.181c0-2.84-1.993-4.26-5.979-4.26h-4.007v8.492zM210.014 42.626a435.922 435.922 0 014.788 11.354 763.143 763.143 0 014.5 11.388h-3.372c-.382-1.039-.758-2.067-1.129-3.085a418.623 418.623 0 00-1.129-3.054h-10.686a322.12 322.12 0 00-2.259 6.139h-3.276a529.042 529.042 0 014.564-11.674 373.582 373.582 0 014.691-11.067h3.308zm-6.011 13.93h8.652a815.88 815.88 0 00-2.162-5.471c-.722-1.801-1.444-3.592-2.163-5.374a523.413 523.413 0 00-2.195 5.407 417.858 417.858 0 00-2.132 5.438M221.719 42.626h7.919a12.832 12.832 0 016.042 1.32 9.107 9.107 0 013.865 3.834 12.805 12.805 0 011.351 6.139 13.104 13.104 0 01-1.351 6.185 9.21 9.21 0 01-3.881 3.913 12.69 12.69 0 01-6.059 1.351h-7.887l.001-22.742zm7.665 20.069a8.05 8.05 0 006.106-2.226c1.421-1.485 2.131-3.668 2.132-6.551 0-2.841-.705-4.988-2.116-6.442a8.1 8.1 0 00-6.091-2.18h-4.548v17.399h4.517zM244.524 42.626h3.149v22.741h-3.149zM262.271 42.148c1.54-.021 3.069.26 4.501.826a9.73 9.73 0 013.467 2.386 10.56 10.56 0 012.21 3.738c.528 1.573.785 3.223.762 4.882.023 1.66-.24 3.312-.778 4.883a10.856 10.856 0 01-2.21 3.737 9.686 9.686 0 01-3.451 2.401 12.448 12.448 0 01-9.002 0 9.682 9.682 0 01-3.451-2.401 10.859 10.859 0 01-2.211-3.737 14.43 14.43 0 01-.778-4.883c-.023-1.659.235-3.31.763-4.882a10.537 10.537 0 012.21-3.738 9.708 9.708 0 013.467-2.386 11.846 11.846 0 014.501-.826m0 20.961a7.468 7.468 0 004.103-1.097 7.05 7.05 0 002.639-3.148 11.84 11.84 0 00.923-4.883 11.727 11.727 0 00-.923-4.867 7.074 7.074 0 00-2.639-3.132 8.192 8.192 0 00-8.191 0 7.015 7.015 0 00-2.654 3.132 11.727 11.727 0 00-.923 4.867 11.836 11.836 0 00.923 4.883 7.007 7.007 0 002.654 3.148 7.49 7.49 0 004.088 1.097"/><g><path d="M97.767 120.434a25.64 25.64 0 01-11.302-2.557v-7.604a25.62 25.62 0 005.258 2.157c1.917.546 3.901.826 5.895.833a9.315 9.315 0 004.45-.838 2.797 2.797 0 001.622-2.545 2.548 2.548 0 00-.754-1.918 5.752 5.752 0 00-1.906-1.142 19.435 19.435 0 00-2.738-.814 36.978 36.978 0 01-5.718-1.772 13.706 13.706 0 01-3.788-2.255 7.728 7.728 0 01-2.097-2.932 10.651 10.651 0 01-.673-3.954 10.035 10.035 0 011.73-5.92 11.074 11.074 0 014.975-3.789 20.43 20.43 0 017.735-1.342 25.648 25.648 0 015.698.638c1.678.37 3.307.931 4.858 1.67v7.494a18.102 18.102 0 00-3.027-1.343 25.503 25.503 0 00-3.761-.959 21.613 21.613 0 00-3.67-.328 8.797 8.797 0 00-4.02.761 2.618 2.618 0 00-1.555 2.424 2.644 2.644 0 001.609 2.475 19.952 19.952 0 004.132 1.396c1.676.388 3.325.883 4.938 1.481a15.738 15.738 0 013.8 2.02 7.892 7.892 0 012.431 2.959 11.706 11.706 0 01-.891 10.576 10.883 10.883 0 01-5.071 3.811 22.47 22.47 0 01-8.16 1.317zM125.462 120.336a7.687 7.687 0 01-6.184-2.492c-1.415-1.671-2.133-4.132-2.133-7.316V94.443h8.616v15.786a3.544 3.544 0 00.757 2.393 2.75 2.75 0 002.179.89 4.595 4.595 0 003.655-1.819l.079-.096V94.443h8.615v25.244h-7.319l-.518-3.455-.495.593a9.133 9.133 0 01-7.252 3.511zM154.694 120.336a22.863 22.863 0 01-8.613-1.628v-6.246a17.932 17.932 0 003.539 1.435 14.86 14.86 0 004.078.61 7.116 7.116 0 003.014-.483 1.774 1.774 0 001.117-1.655 1.61 1.61 0 00-1.024-1.537 11.679 11.679 0 00-2.181-.695 23.616 23.616 0 01-5.27-1.812 6.494 6.494 0 01-2.77-2.5 7.618 7.618 0 01-.851-3.763 7.306 7.306 0 011.327-4.399 8.592 8.592 0 013.809-2.846 16.02 16.02 0 016.017-1.019 21.811 21.811 0 014.508.465c1.312.27 2.589.689 3.806 1.249v6.138a11.99 11.99 0 00-3.139-1.414 14.41 14.41 0 00-4.03-.61 6.894 6.894 0 00-2.858.48 1.733 1.733 0 00-1.173 1.609c-.012.38.114.752.355 1.046a2.39 2.39 0 001.102.651c.456.151 1.085.33 1.894.53 1.793.348 3.533.931 5.173 1.737a6.833 6.833 0 012.799 2.532 7.341 7.341 0 01.875 3.709 7.685 7.685 0 01-1.354 4.602 8.268 8.268 0 01-3.898 2.842 17.913 17.913 0 01-6.252.972zM178.242 120.336a22.874 22.874 0 01-8.615-1.628v-6.247a17.957 17.957 0 003.541 1.437 14.86 14.86 0 004.078.61 7.116 7.116 0 003.014-.483 1.774 1.774 0 001.117-1.655 1.608 1.608 0 00-1.026-1.537 11.72 11.72 0 00-2.18-.695 23.616 23.616 0 01-5.27-1.812 6.494 6.494 0 01-2.77-2.5 7.603 7.603 0 01-.852-3.763 7.307 7.307 0 011.328-4.399 8.576 8.576 0 013.808-2.846 16.02 16.02 0 016.017-1.019 21.828 21.828 0 014.509.465c1.312.27 2.59.689 3.807 1.249v6.137a12.057 12.057 0 00-3.139-1.414 14.412 14.412 0 00-4.031-.61 6.921 6.921 0 00-2.86.479 1.734 1.734 0 00-1.172 1.61c-.012.38.114.752.355 1.046a2.39 2.39 0 001.102.651c.454.151 1.085.33 1.893.53a20.6 20.6 0 015.174 1.737 6.833 6.833 0 012.799 2.532 7.341 7.341 0 01.875 3.709 7.694 7.694 0 01-1.354 4.602 8.268 8.268 0 01-3.898 2.842 17.917 17.917 0 01-6.25.972zM207.018 120.336a16.704 16.704 0 01-7.536-1.556 10.614 10.614 0 01-4.655-4.486 15.023 15.023 0 01-1.601-7.201c-.026-1.881.27-3.753.875-5.535a11.8 11.8 0 012.515-4.184 10.905 10.905 0 013.934-2.654 13.853 13.853 0 015.173-.923 12.013 12.013 0 016.171 1.495 9.456 9.456 0 013.818 4.349 17.227 17.227 0 011.313 7.1v1.842h-15.739l.061.399a5.458 5.458 0 002.142 3.946 8.974 8.974 0 005.022 1.13c1.393.013 2.783-.14 4.14-.457a16.87 16.87 0 003.229-1.172v6.323c-1.29.495-2.621.876-3.978 1.141a25.25 25.25 0 01-4.884.443zm-1.394-20.911c-2.347 0-3.769 1.557-4.227 4.629l-.06.399h8.05l-.033-.377a6.452 6.452 0 00-1.095-3.5 3.205 3.205 0 00-2.635-1.151zM236.729 119.687c-.6-1.19-1.248-2.409-1.926-3.629-.716-1.278-2.473-4.402-2.473-4.402l-.301.545a308.317 308.317 0 00-2.069 3.812 302.61 302.61 0 00-1.921 3.674h-9.009a481.954 481.954 0 013.984-6.08 321.43 321.43 0 014.425-6.467l.137-.193-.13-.198a278.418 278.418 0 01-4.077-6.387 514.207 514.207 0 01-3.617-5.919h9.218a106.314 106.314 0 001.582 3.392c.581 1.195 1.17 2.391 1.769 3.587l.311.623.311-.623a175.184 175.184 0 003.3-6.978h8.966a603.798 603.798 0 01-3.562 5.818 295.69 295.69 0 01-4.077 6.391l-.128.194.132.193a708.97 708.97 0 014.404 6.491 327.412 327.412 0 014.013 6.156h-9.262z"/></g></g></svg>
