<svg xmlns="http://www.w3.org/2000/svg" viewBox="0 0 332 166" width="332" height="166"><path fill="#542582" d="M0 0h332v166H0z"/><g fill="#FFF"><path d="M157.303 42.585c-.149-.026-.3-.05-.453-.074l-.183-.027a21.148 21.148 0 00-.781-.09c-.177-.016-.356-.027-.534-.038a14.909 14.909 0 00-1.286-.025c-.254.004-.502.016-.744.033a17.594 17.594 0 00-1.002.095l-.162.023-.181.026-.222.034c-.097.016-.192.034-.288.052-.132.023-.262.05-.393.076a13.992 13.992 0 00-3.222 1.1 12.684 12.684 0 00-1.833 1.091c-.104.075-.208.15-.308.229a12.103 12.103 0 00-1.129.983c-.139.14-.279.282-.413.432s-.269.301-.395.461c-.14.173-.277.348-.409.53a13.114 13.114 0 00-.467.701 11.26 11.26 0 00-.908 1.839 11.585 11.585 0 00-.667 2.623c-.04.293-.07.593-.087.898-.012.232-.022.469-.022.71a8.547 8.547 0 00.06 1.078l.014.125a9.217 9.217 0 00.15.872 10.39 10.39 0 00.314 1.151 11.574 11.574 0 001.452 2.897 11.128 11.128 0 001.366 1.634l.094.093c.144.138.301.289.481.442a11.01 11.01 0 00.792.629c.169.123.346.247.536.368.201.127.41.256.634.382a12.87 12.87 0 002.755 1.141c.387.111.793.208 1.219.292a16.35 16.35 0 002.794.284c.089.001.181.004.273.004.706 0 1.358-.027 1.963-.078l.118-.011a19.856 19.856 0 001.689-.225 18.321 18.321 0 001.963-.472c.214-.065.424-.134.62-.202l.191-.067.378-.139c.202-.079.446-.176.723-.295.168-.072.346-.153.529-.236a20.627 20.627 0 00.731-.351V59.28c-.049.031-.104.063-.153.093l-.296.179a18.633 18.633 0 01-1.784.971c-.533.252-1.043.464-1.538.641-.833.3-1.69.529-2.561.684l-.267.044c-.21.033-.41.057-.602.078a12.132 12.132 0 01-1.288.074 12.5 12.5 0 01-2.084-.165 10.49 10.49 0 01-1.86-.484 7.55 7.55 0 01-.271-.105c-.057-.022-.118-.048-.174-.071-.101-.044-.199-.086-.3-.134a8.968 8.968 0 01-.623-.322 6.433 6.433 0 01-.303-.183 5.732 5.732 0 01-.305-.201 8.85 8.85 0 01-.71-.551l-.142-.128-.071-.064-.042-.041-.052-.05a7.323 7.323 0 01-1.991-3.492 8.554 8.554 0 01-.155-3.216 7.61 7.61 0 01.429-1.647c.039-.105.087-.211.132-.319a7.275 7.275 0 01.394-.773 7.396 7.396 0 01.976-1.321c.051-.053.101-.11.154-.164a8.842 8.842 0 013.947-2.288 9.419 9.419 0 01.909-.207 11.196 11.196 0 01.994-.131c.314-.029.623-.041.923-.041.101 0 .2-.001.299.001.224.004.443.012.654.026.148.011.293.02.435.033a14 14 0 012.262.404c.166.044.319.09.457.13.209.063.387.119.525.166.24.083.372.132.372.132.211.075.417.158.621.24.274.109.535.228.787.341.207.094.405.192.591.284.154.074.297.15.432.22.236.121.435.233.598.32l.44.24V44.25s-.266-.109-.721-.281c-.2-.075-.439-.166-.709-.26-.151-.053-.309-.112-.478-.168-.134-.045-.27-.093-.416-.14-.159-.05-.327-.106-.5-.158l-.38-.115-.115-.031a16.67 16.67 0 00-.383-.106 15.208 15.208 0 00-.468-.12c-.101-.026-.203-.049-.305-.074a20.706 20.706 0 00-1.034-.212m-21.146-4.395h33.565v31.586h-33.565V38.19zM110.359 55.608v6.208h4.03l.213-.007c.136-.005.328-.012.561-.033a6.925 6.925 0 001.573-.31c.514-.16.984-.434 1.376-.803.137-.135.257-.286.36-.449.244-.389.387-.833.414-1.291.01-.124.008-.196.008-.196s.003-.056 0-.153a2.834 2.834 0 00-.083-.601 2.482 2.482 0 00-.628-1.125 3.146 3.146 0 00-.36-.312 3.812 3.812 0 00-.747-.421 5.765 5.765 0 00-1.213-.357 8.174 8.174 0 00-.716-.101 11.414 11.414 0 00-.89-.049c-1.43.002-3.898 0-3.898 0M110.359 46.172v5.884h1.952s.13 0 .301-.006c.135-.003.296-.012.44-.02a7.888 7.888 0 001.512-.241c.107-.03.217-.064.325-.102a3.158 3.158 0 001.177-.701c.234-.231.418-.506.542-.81a2.99 2.99 0 00.206-.889c.019-.203.018-.333.018-.333s.004-.097-.004-.251a2.799 2.799 0 00-.269-1.074 2.186 2.186 0 00-.413-.556 2.574 2.574 0 00-.772-.51 5.222 5.222 0 00-1.708-.374 9.408 9.408 0 00-.619-.018l-2.688.001z"/><path d="M106.286 42.618v22.751h8.563s4.176.115 6.483-2.192a5.687 5.687 0 00.149-8.041l-.011-.012a7.453 7.453 0 00-3.369-1.875 6.1 6.1 0 001.509-1.056 4.687 4.687 0 001.399-3.69 5.302 5.302 0 00-1.606-3.804s-1.759-2.08-5.733-2.08l-7.384-.001zM97.48 38.19h33.565v31.586H97.48V38.19zM71.684 55.608v6.208h4.03l.213-.007c.136-.005.328-.012.561-.033a6.914 6.914 0 001.573-.31c.513-.16.984-.435 1.376-.803.137-.135.257-.286.36-.449.244-.389.387-.833.414-1.291.01-.124.008-.196.008-.196s.003-.056 0-.153a2.834 2.834 0 00-.083-.601 2.482 2.482 0 00-.628-1.125 3.146 3.146 0 00-.36-.312 3.797 3.797 0 00-.748-.421 5.757 5.757 0 00-1.212-.357 8.144 8.144 0 00-.717-.101 11.364 11.364 0 00-.891-.049c-1.43.002-3.896 0-3.896 0M71.684 46.172v5.884h1.952s.129 0 .301-.006c.135-.003.296-.012.44-.02a7.888 7.888 0 001.512-.241c.107-.03.217-.064.323-.102.44-.145.842-.384 1.179-.701a2.42 2.42 0 00.541-.81c.113-.284.182-.584.206-.889.018-.203.016-.333.016-.333a2.336 2.336 0 00-.003-.251 2.799 2.799 0 00-.269-1.074 2.186 2.186 0 00-.413-.556 2.582 2.582 0 00-.771-.51 5.222 5.222 0 00-1.709-.374 9.427 9.427 0 00-.619-.018l-2.686.001z"/><path d="M67.61 42.618v22.751h8.563s4.176.115 6.482-2.192a5.686 5.686 0 00.15-8.04l-.012-.013a7.456 7.456 0 00-3.37-1.875 6.073 6.073 0 001.509-1.056 4.68 4.68 0 001.4-3.69 5.302 5.302 0 00-1.606-3.804s-1.76-2.08-5.734-2.08l-7.382-.001zm-8.805-4.428H92.37v31.586H58.805V38.19zM177.901 65.367V42.626h7.347c2.904 0 5.12.583 6.647 1.75a5.971 5.971 0 012.289 5.055 6.118 6.118 0 01-1.24 3.881 7.04 7.04 0 01-3.531 2.322c2.12 3.16 4.166 6.404 6.139 9.733h-3.658a170.098 170.098 0 00-5.598-9.191c-.339.02-.7.031-1.082.031h-4.197v9.16h-3.116zm3.117-11.704h3.975a7.89 7.89 0 004.517-1.051 3.622 3.622 0 001.494-3.18c0-2.84-1.993-4.26-5.979-4.26h-4.007v8.491zM210.024 42.626a435.922 435.922 0 014.788 11.354 763.143 763.143 0 014.5 11.388h-3.371c-.382-1.039-.758-2.067-1.129-3.085a418.623 418.623 0 00-1.129-3.054h-10.687a322.12 322.12 0 00-2.259 6.139h-3.276a524.078 524.078 0 014.565-11.674 370.934 370.934 0 014.691-11.067l3.307-.001zm-6.011 13.93h8.651a815.88 815.88 0 00-2.162-5.471c-.722-1.801-1.443-3.592-2.163-5.374a546.774 546.774 0 00-2.195 5.407 404.014 404.014 0 00-2.131 5.438M221.729 42.626h7.919a12.844 12.844 0 016.042 1.32 9.113 9.113 0 013.865 3.834 12.805 12.805 0 011.351 6.139 13.104 13.104 0 01-1.351 6.185 9.205 9.205 0 01-3.881 3.913 12.69 12.69 0 01-6.059 1.351h-7.887l.001-22.742zm7.665 20.069a8.05 8.05 0 006.106-2.226c1.421-1.485 2.132-3.668 2.133-6.551 0-2.841-.705-4.988-2.116-6.442a8.1 8.1 0 00-6.091-2.18h-4.548v17.399h4.516zM244.534 42.626h3.149v22.741h-3.149zM262.281 42.148c1.54-.021 3.069.26 4.501.826a9.73 9.73 0 013.467 2.386 10.56 10.56 0 012.21 3.738c.528 1.573.785 3.223.762 4.882a14.43 14.43 0 01-.779 4.883 10.856 10.856 0 01-2.21 3.737 9.686 9.686 0 01-3.451 2.401 12.448 12.448 0 01-9.002 0 9.67 9.67 0 01-3.45-2.401 10.859 10.859 0 01-2.211-3.737 14.43 14.43 0 01-.779-4.883 14.67 14.67 0 01.764-4.882 10.537 10.537 0 012.21-3.738 9.708 9.708 0 013.467-2.386 11.853 11.853 0 014.501-.826m.001 20.961a7.468 7.468 0 004.103-1.097 7.05 7.05 0 002.639-3.148 11.84 11.84 0 00.923-4.883 11.727 11.727 0 00-.923-4.867 7.074 7.074 0 00-2.639-3.132 8.19 8.19 0 00-8.19 0 7.015 7.015 0 00-2.654 3.132 11.727 11.727 0 00-.923 4.867 11.836 11.836 0 00.923 4.883 7.002 7.002 0 002.654 3.148 7.485 7.485 0 004.087 1.097"/><g><path d="M70.2 121.417a24.967 24.967 0 01-10.99-2.488v-7.394a24.975 24.975 0 005.113 2.098c1.864.532 3.793.805 5.732.811a9.056 9.056 0 004.327-.816 2.72 2.72 0 001.578-2.473 2.481 2.481 0 00-.731-1.865 5.628 5.628 0 00-1.856-1.112 19.002 19.002 0 00-2.662-.79 36.01 36.01 0 01-5.559-1.724 13.233 13.233 0 01-3.684-2.192 7.516 7.516 0 01-2.039-2.849 10.38 10.38 0 01-.654-3.845 9.767 9.767 0 011.682-5.758 10.74 10.74 0 014.839-3.683 19.806 19.806 0 017.52-1.306 24.947 24.947 0 015.54.621c1.631.36 3.216.904 4.724 1.622v7.287a17.5 17.5 0 00-2.943-1.306 25.037 25.037 0 00-3.657-.933 21.015 21.015 0 00-3.567-.319 8.522 8.522 0 00-3.909.741 2.544 2.544 0 00-1.513 2.356 2.57 2.57 0 001.564 2.406 19.39 19.39 0 004.018 1.359c1.629.377 3.232.857 4.8 1.439a15.23 15.23 0 013.695 1.965 7.661 7.661 0 012.365 2.876 11.384 11.384 0 01-.867 10.285 10.588 10.588 0 01-4.931 3.705 21.817 21.817 0 01-7.935 1.282zM100.795 121.321a14.586 14.586 0 01-5.228-.897 10.957 10.957 0 01-3.969-2.583 11.367 11.367 0 01-2.516-4.068 15.42 15.42 0 01-.876-5.329 14.622 14.622 0 011.535-6.886 10.798 10.798 0 014.344-4.463 15.045 15.045 0 0113.418 0 10.799 10.799 0 014.344 4.461 14.605 14.605 0 011.535 6.887 15.467 15.467 0 01-.876 5.329 11.363 11.363 0 01-2.516 4.067 10.938 10.938 0 01-3.969 2.584 14.547 14.547 0 01-5.226.898zm0-19.267a3.459 3.459 0 00-3.068 1.706 8.855 8.855 0 00-1.046 4.732 8.525 8.525 0 001.046 4.588 3.637 3.637 0 006.163-.002 8.717 8.717 0 001.02-4.585 9.04 9.04 0 00-1.02-4.728 3.447 3.447 0 00-3.095-1.711zM146.444 120.692v-15.25c0-2.719-1.5-3.29-2.758-3.29a4.042 4.042 0 00-3.322 1.83l-.066.09v16.621h-8.378v-15.25c0-2.719-1.5-3.29-2.757-3.29a4.072 4.072 0 00-3.318 1.777l-.07.091v16.673h-8.378V96.145h7.117l.505 3.368.483-.586a8.602 8.602 0 016.856-3.411c3.217 0 5.416 1.192 6.72 3.645l.241.454.32-.401a8.986 8.986 0 017.24-3.697 7.289 7.289 0 015.89 2.422c1.36 1.622 2.05 4.05 2.05 7.213v15.541h-8.375zM172.053 121.321a16.239 16.239 0 01-7.328-1.513 10.306 10.306 0 01-4.527-4.361 14.613 14.613 0 01-1.557-7.003c-.025-1.83.263-3.65.852-5.382a11.494 11.494 0 012.444-4.068 10.645 10.645 0 013.826-2.58 13.484 13.484 0 015.03-.897 11.668 11.668 0 016.001 1.454 9.213 9.213 0 013.713 4.23 16.761 16.761 0 011.276 6.904v1.791h-15.305l.059.388a5.319 5.319 0 002.082 3.837 8.863 8.863 0 004.885 1.098 16.94 16.94 0 004.026-.445 16.527 16.527 0 003.14-1.138v6.147a23.116 23.116 0 01-3.868 1.109c-1.565.297-3.155.44-4.749.429zm-1.356-20.332c-2.282 0-3.665 1.514-4.109 4.5l-.058.388h7.826l-.032-.367a6.28 6.28 0 00-1.064-3.402 3.115 3.115 0 00-2.563-1.119zM186.196 120.692V96.145h7.114l.685 4.721.485-.877c1.574-2.84 3.641-4.279 6.143-4.279a6.25 6.25 0 012.567.505v7.135a4.784 4.784 0 00-1.012-.367 7.611 7.611 0 00-1.798-.203 7.334 7.334 0 00-3.196.662 7.607 7.607 0 00-2.534 2.074l-.077.094v15.082h-8.377zM214.806 121.321a22.235 22.235 0 01-8.375-1.583v-6.072a17.36 17.36 0 003.442 1.394c1.288.381 2.622.581 3.965.595 1 .057 2-.103 2.931-.471.659-.262 1.09-.9 1.087-1.609a1.566 1.566 0 00-.997-1.495 11.601 11.601 0 00-2.121-.674 23.055 23.055 0 01-5.124-1.762 6.308 6.308 0 01-2.695-2.433 7.402 7.402 0 01-.827-3.658 7.1 7.1 0 011.292-4.278 8.35 8.35 0 013.703-2.768 15.547 15.547 0 015.85-.992 21.257 21.257 0 014.385.454 16.97 16.97 0 013.7 1.214v5.968a11.607 11.607 0 00-3.053-1.374 14.053 14.053 0 00-3.918-.594 6.71 6.71 0 00-2.781.467 1.683 1.683 0 00-1.14 1.564c-.012.37.111.732.347 1.018a2.32 2.32 0 001.068.633c.443.147 1.057.319 1.842.516a19.95 19.95 0 015.03 1.688 6.653 6.653 0 012.724 2.462 7.158 7.158 0 01.848 3.606 7.479 7.479 0 01-1.316 4.475 8.019 8.019 0 01-3.789 2.761 17.325 17.325 0 01-6.078.948zM242.788 121.321a16.239 16.239 0 01-7.328-1.513 10.306 10.306 0 01-4.527-4.361 14.613 14.613 0 01-1.557-7.003c-.025-1.83.263-3.65.852-5.382a11.494 11.494 0 012.444-4.068 10.645 10.645 0 013.826-2.58 13.484 13.484 0 015.03-.897 11.668 11.668 0 016.001 1.454 9.213 9.213 0 013.713 4.23 16.761 16.761 0 011.276 6.904v1.791h-15.305l.059.388a5.319 5.319 0 002.082 3.837 8.863 8.863 0 004.885 1.098 16.94 16.94 0 004.026-.445 16.527 16.527 0 003.14-1.138v6.147a23.116 23.116 0 01-3.868 1.109c-1.565.297-3.156.44-4.749.429zm-1.356-20.332c-2.282 0-3.665 1.514-4.109 4.5l-.058.388h7.826l-.032-.367a6.281 6.281 0 00-1.065-3.402 3.113 3.113 0 00-2.562-1.119zM267.49 121.321c-2.928 0-5.17-.741-6.663-2.203-1.489-1.459-2.245-3.634-2.245-6.464v-9.825h-3.824v-6.296h3.824v-5.972l8.378-1.838v7.809h5.808v6.296h-5.808v8.615c0 2.185 1.171 3.339 3.388 3.339a8.182 8.182 0 002.905-.559v6.086c-.864.313-1.751.556-2.654.727a16.552 16.552 0 01-3.109.285z"/></g></g></svg>
