<svg xmlns="http://www.w3.org/2000/svg" viewBox="0 0 332 166" width="332" height="166"><path fill="#542582" d="M0 0h332v166H0z"/><g fill="#FFF"><path d="M157.323 42.587a13.07 13.07 0 00-.454-.074l-.181-.027a20.848 20.848 0 00-.78-.09 15.616 15.616 0 00-1.821-.063 16.264 16.264 0 00-1.744.128l-.164.022-.18.026-.222.035-.288.05c-.134.025-.263.052-.393.078a13.996 13.996 0 00-3.222 1.099 13.077 13.077 0 00-1.46.833c-.127.086-.252.171-.372.259-.105.075-.209.15-.309.228a12.627 12.627 0 00-1.127.985c-.14.14-.281.282-.413.432a12.009 12.009 0 00-.806.991 10.724 10.724 0 00-.465.701 11.337 11.337 0 00-.909 1.838 11.55 11.55 0 00-.665 2.624c-.04.293-.07.593-.087.897-.014.233-.023.47-.023.71a8.582 8.582 0 00.062 1.08l.012.125c.027.214.06.423.101.631.016.08.031.161.049.241a10.82 10.82 0 00.595 1.901 11.566 11.566 0 002.004 3.213c.179.206.36.393.533.567l.094.093c.146.138.301.289.481.442.123.104.249.213.389.322.127.101.26.206.404.307.169.123.346.247.536.367.202.128.412.258.635.383a12.704 12.704 0 002.095.934c.215.074.432.142.658.207.387.11.793.209 1.219.292.344.065.702.121 1.07.166s.747.078 1.142.097c.191.01.385.019.582.022l.273.003c.706 0 1.359-.026 1.964-.076l.119-.011a19.242 19.242 0 002.264-.34 17.347 17.347 0 001.386-.358c.215-.064.424-.134.622-.2l.191-.067a20.275 20.275 0 002.361-1.021v-4.306l-.154.093-.294.177c-.296.18-.579.348-.864.503-.314.169-.618.326-.922.469-.533.251-1.043.464-1.538.641-.832.3-1.689.529-2.56.684l-.267.044a12.71 12.71 0 01-1.434.139 9.41 9.41 0 01-.457.012c-.305 0-.62-.008-.941-.031a11.737 11.737 0 01-1.142-.134 10.49 10.49 0 01-1.86-.484 6.883 6.883 0 01-.271-.105l-.176-.071c-.1-.044-.199-.087-.299-.134a8.54 8.54 0 01-1.232-.707 8.355 8.355 0 01-.372-.271 8.795 8.795 0 01-.337-.278l-.143-.13-.07-.064-.042-.04-.053-.05a7.34 7.34 0 01-1.442-1.988 7.138 7.138 0 01-.414-1.028 7.996 7.996 0 01-.365-2.063 9.645 9.645 0 01-.006-.715 7.996 7.996 0 01.347-2.096c.048-.153.104-.308.162-.466a7.54 7.54 0 01.134-.319c.063-.147.132-.292.209-.439.057-.112.12-.222.184-.334.147-.253.309-.497.485-.731.065-.086.132-.175.203-.259.091-.109.187-.224.288-.331.052-.053.102-.11.155-.164a8.81 8.81 0 013.468-2.141 8.787 8.787 0 01.934-.261c.153-.037.305-.065.455-.094.166-.03.334-.056.499-.076.166-.023.331-.04.493-.053.315-.029.623-.041.923-.041h.3a14.94 14.94 0 011.088.06 13.96 13.96 0 012.264.404c.166.044.318.09.455.129.21.063.387.119.526.166l.371.131c.211.075.419.158.623.241.273.109.534.228.785.341.209.094.406.191.592.282.155.075.299.151.434.221.234.121.435.232.598.32l.439.24v-4.23s-.264-.109-.72-.281c-.202-.075-.44-.166-.71-.26-.15-.053-.308-.112-.477-.168-.134-.045-.271-.094-.416-.14-.161-.052-.327-.108-.5-.158-.124-.037-.252-.078-.382-.114l-.115-.031c-.125-.037-.254-.072-.383-.108-.153-.041-.308-.08-.468-.119-.1-.026-.202-.05-.304-.074a19.818 19.818 0 00-.508-.11c-.173-.038-.352-.069-.529-.101m-21.149-4.398h33.566v31.588h-33.566V38.19zM110.379 55.61v6.208h4.031l.211-.007c.136-.005.328-.012.56-.034a6.847 6.847 0 001.573-.308c.513-.16.984-.435 1.376-.803.136-.136.257-.286.361-.449.243-.389.385-.833.413-1.291.01-.124.008-.198.008-.198s.003-.056 0-.151a2.862 2.862 0 00-.083-.603 2.479 2.479 0 00-.625-1.123 3.156 3.156 0 00-.361-.312 3.762 3.762 0 00-.747-.421 5.65 5.65 0 00-1.213-.357 8.144 8.144 0 00-.717-.101 11.108 11.108 0 00-.889-.049l-3.898-.001M110.379 46.172v5.885h1.952s.13 0 .301-.006c.135-.004.296-.012.44-.02a8.06 8.06 0 001.512-.241c.108-.03.218-.064.325-.102a3.197 3.197 0 001.178-.701 2.41 2.41 0 00.541-.811c.113-.284.182-.583.206-.888.019-.203.018-.333.018-.333s.004-.097-.004-.251a2.762 2.762 0 00-.268-1.075 2.146 2.146 0 00-.413-.556 2.574 2.574 0 00-.772-.51 5.196 5.196 0 00-1.708-.374 8.829 8.829 0 00-.619-.019l-2.689.002z"/><path d="M106.305 42.62v22.75h8.563s4.177.115 6.482-2.192a5.684 5.684 0 00.153-8.038l-.014-.015a7.461 7.461 0 00-3.37-1.875 6.1 6.1 0 001.509-1.056 4.68 4.68 0 001.4-3.692c0-1.433-.58-2.805-1.607-3.804 0 0-1.759-2.078-5.733-2.078h-7.383zm-8.804-4.43h33.564v31.588H97.501V38.19zM71.704 55.61v6.208h4.03l.213-.007c.136-.005.329-.012.56-.034a6.847 6.847 0 001.573-.308c.513-.16.984-.435 1.376-.803.136-.136.257-.286.36-.449.244-.389.387-.833.413-1.291.011-.124.01-.198.01-.198s.003-.056 0-.151a2.998 2.998 0 00-.083-.603 2.479 2.479 0 00-.627-1.123 2.97 2.97 0 00-.361-.312 3.762 3.762 0 00-.747-.421 5.624 5.624 0 00-1.212-.357 8.144 8.144 0 00-.717-.101 11.033 11.033 0 00-.889-.049l-3.899-.001M71.704 46.172v5.885h1.952s.13 0 .301-.006c.135-.004.296-.012.439-.02a8.081 8.081 0 001.514-.241c.108-.03.217-.064.325-.102.439-.146.84-.385 1.178-.701.234-.23.418-.507.54-.811.114-.284.184-.583.207-.888.019-.203.018-.333.018-.333s.004-.097-.004-.251a2.768 2.768 0 00-.269-1.075 2.146 2.146 0 00-.413-.556 2.574 2.574 0 00-.772-.51 5.196 5.196 0 00-1.708-.374 8.829 8.829 0 00-.619-.019l-2.689.002z"/><path d="M67.629 42.62v22.75h8.564s4.176.115 6.482-2.192a5.688 5.688 0 00.149-8.043l-.01-.01a7.465 7.465 0 00-3.371-1.875 6.147 6.147 0 001.511-1.056 4.684 4.684 0 001.4-3.692c0-1.433-.58-2.805-1.607-3.804 0 0-1.76-2.079-5.734-2.079l-7.384.001zm-8.805-4.43h33.564v31.588H58.824V38.19zM177.921 65.368V42.627h7.347c2.905 0 5.121.583 6.647 1.749a5.979 5.979 0 012.29 5.057 6.118 6.118 0 01-1.241 3.881 7.044 7.044 0 01-3.531 2.322c2.12 3.16 4.166 6.404 6.139 9.732h-3.658a176.934 176.934 0 00-2.72-4.628 167.612 167.612 0 00-2.878-4.563c-.339.02-.7.031-1.081.031h-4.198v9.16h-3.116zm3.117-11.704h3.977a7.883 7.883 0 004.515-1.051 3.624 3.624 0 001.496-3.181c0-2.84-1.993-4.26-5.98-4.26h-4.008v8.492zM210.044 42.627a427.634 427.634 0 014.786 11.354 742.209 742.209 0 014.502 11.388h-3.371c-.382-1.039-.758-2.067-1.13-3.085a401.886 401.886 0 00-1.129-3.053h-10.687a336.4 336.4 0 00-2.258 6.139h-3.276a529.042 529.042 0 014.564-11.674c1.536-3.794 3.1-7.483 4.691-11.067l3.308-.002zm-6.01 13.93h8.652a720.666 720.666 0 00-2.164-5.471 1814.59 1814.59 0 00-2.162-5.374 532.652 532.652 0 00-2.195 5.407 423.513 423.513 0 00-2.131 5.438M221.749 42.627h7.921a12.832 12.832 0 016.042 1.32 9.116 9.116 0 013.865 3.833 12.805 12.805 0 011.351 6.139 13.104 13.104 0 01-1.351 6.185 9.222 9.222 0 01-3.881 3.913 12.69 12.69 0 01-6.059 1.351h-7.888V42.627zm7.666 20.069a8.05 8.05 0 006.106-2.226c1.421-1.485 2.131-3.668 2.131-6.551 0-2.841-.705-4.988-2.115-6.442a8.1 8.1 0 00-6.091-2.18h-4.548v17.399h4.517zM244.554 42.628h3.149v22.741h-3.149zM262.302 42.15c1.54-.021 3.068.26 4.5.826a9.717 9.717 0 013.467 2.386 10.571 10.571 0 012.212 3.738c.528 1.573.785 3.223.762 4.882.023 1.66-.24 3.312-.778 4.883a10.856 10.856 0 01-2.21 3.737 9.69 9.69 0 01-3.452 2.401 12.442 12.442 0 01-9 0 9.699 9.699 0 01-3.452-2.401 10.881 10.881 0 01-2.21-3.737 14.43 14.43 0 01-.778-4.883 14.699 14.699 0 01.763-4.882 10.537 10.537 0 012.21-3.738 9.708 9.708 0 013.467-2.386 11.794 11.794 0 014.499-.826m0 20.961a7.468 7.468 0 004.103-1.097 7.05 7.05 0 002.639-3.148 11.84 11.84 0 00.923-4.883 11.727 11.727 0 00-.923-4.867 7.074 7.074 0 00-2.639-3.132 8.192 8.192 0 00-8.191 0 7.031 7.031 0 00-2.656 3.132 11.727 11.727 0 00-.923 4.867 11.836 11.836 0 00.923 4.883 7.018 7.018 0 002.656 3.148 7.507 7.507 0 004.088 1.097M49.454 120.432v-14.388H36.113v14.388H27.1V85.531h9.013v12.844h13.341V85.531h9.013v34.901zM72.006 121.079a7.682 7.682 0 01-6.182-2.491c-1.416-1.67-2.133-4.132-2.133-7.317V95.188h8.615v15.784a3.533 3.533 0 00.758 2.393 2.748 2.748 0 002.179.891 4.59 4.59 0 003.653-1.819l.079-.096V95.188h8.615v25.244h-7.319l-.519-3.455-.495.593a9.128 9.128 0 01-7.251 3.509zM122.785 120.432v-15.684c0-2.796-1.543-3.383-2.836-3.383a4.154 4.154 0 00-3.415 1.882l-.068.092v17.093h-8.615v-15.684c0-2.796-1.543-3.383-2.837-3.383a4.193 4.193 0 00-3.413 1.827l-.071.094v17.146h-8.615V95.188h7.319l.52 3.463.496-.602a8.852 8.852 0 017.05-3.508c3.31 0 5.57 1.226 6.912 3.748l.248.467.33-.412a9.245 9.245 0 017.446-3.803 7.49 7.49 0 016.057 2.491c1.399 1.669 2.109 4.165 2.109 7.418v15.982h-8.617zM146.982 121.079a24.472 24.472 0 01-5.154-.564 31.033 31.033 0 01-5.302-1.708v-34.77h8.615v13.635l.602-.652a7.636 7.636 0 012.572-1.86 8.145 8.145 0 013.247-.619 9.172 9.172 0 015.329 1.557 10.09 10.09 0 013.488 4.408 17.216 17.216 0 011.241 6.832 15.327 15.327 0 01-1.699 7.498 11.138 11.138 0 01-4.927 4.636 18.11 18.11 0 01-8.012 1.607zm1.792-19.714a4.455 4.455 0 00-3.552 1.666l-.081.098v10.686l.242.077a8.433 8.433 0 002.544.365 4.358 4.358 0 003.715-1.76 8.006 8.006 0 001.262-4.812 8.882 8.882 0 00-.998-4.638 3.462 3.462 0 00-3.132-1.682zM178.705 121.079a16.704 16.704 0 01-7.536-1.556 10.601 10.601 0 01-4.655-4.485 15.027 15.027 0 01-1.601-7.202c-.026-1.881.27-3.753.876-5.535a11.813 11.813 0 012.514-4.184 10.952 10.952 0 013.934-2.654 13.893 13.893 0 015.173-.923 12.01 12.01 0 016.171 1.495 9.46 9.46 0 013.818 4.351 17.227 17.227 0 011.313 7.1v1.843h-15.739l.06.399a5.46 5.46 0 002.141 3.946 9.097 9.097 0 005.022 1.129c1.393.013 2.783-.14 4.14-.457a16.914 16.914 0 003.229-1.172v6.323c-1.29.495-2.621.876-3.977 1.141a25.224 25.224 0 01-4.883.441zm-1.394-20.91c-2.347 0-3.769 1.557-4.227 4.627l-.06.399h8.05l-.033-.377a6.442 6.442 0 00-1.096-3.499 3.206 3.206 0 00-2.634-1.15zM193.25 120.432V95.188h7.318l.702 4.855.5-.902c1.642-2.962 3.708-4.401 6.318-4.401a6.413 6.413 0 012.639.52v7.338a4.874 4.874 0 00-1.039-.377 7.886 7.886 0 00-1.849-.209 7.538 7.538 0 00-3.287.681 7.826 7.826 0 00-2.607 2.133l-.079.096v15.51h-8.616zM222.673 121.079a22.872 22.872 0 01-8.614-1.628v-6.245a17.877 17.877 0 003.54 1.434 14.9 14.9 0 004.078.612 7.114 7.114 0 003.014-.484 1.774 1.774 0 001.117-1.655 1.61 1.61 0 00-1.025-1.537 11.832 11.832 0 00-2.182-.693 23.717 23.717 0 01-5.27-1.812 6.499 6.499 0 01-2.77-2.502 7.612 7.612 0 01-.851-3.762 7.311 7.311 0 011.327-4.4 8.583 8.583 0 013.808-2.846 16.005 16.005 0 016.017-1.02 21.966 21.966 0 014.509.465 17.61 17.61 0 013.807 1.249v6.137a11.955 11.955 0 00-3.139-1.413 14.412 14.412 0 00-4.031-.61 6.914 6.914 0 00-2.859.479 1.736 1.736 0 00-1.173 1.61 1.57 1.57 0 00.357 1.047c.301.313.681.538 1.1.651a28.05 28.05 0 001.893.53 20.5 20.5 0 015.173 1.737 6.824 6.824 0 012.799 2.531 7.33 7.33 0 01.874 3.709 7.693 7.693 0 01-1.353 4.602 8.249 8.249 0 01-3.898 2.839 17.764 17.764 0 01-6.248.975zM238.553 120.432V95.188h8.615v25.244h-8.615zm4.283-28.775a5.369 5.369 0 01-3.583-1.088 4.345 4.345 0 010-6.094 5.379 5.379 0 013.583-1.085 5.46 5.46 0 013.633 1.087 4.346 4.346 0 010 6.093 5.465 5.465 0 01-3.633 1.087zM261.72 121.079a9.406 9.406 0 01-5.357-1.533 9.996 9.996 0 01-3.535-4.406 19.043 19.043 0 01.219-14.198 10.99 10.99 0 014.199-4.735 12.314 12.314 0 016.515-1.666c1.3-.014 2.591.215 3.807.674l.473.183V84.037h8.615v36.395h-7.318l-.472-3.246-.501.643a8.169 8.169 0 01-3.007 2.485 8.704 8.704 0 01-3.638.765zm3.534-19.714a4.361 4.361 0 00-3.715 1.758 8.112 8.112 0 00-1.263 4.862 8.579 8.579 0 001.026 4.592 3.523 3.523 0 003.155 1.68 4.46 4.46 0 003.499-1.613l.085-.098v-10.503l-.193-.095a5.448 5.448 0 00-1.25-.452 6.586 6.586 0 00-1.344-.131zM294.911 121.079a16.704 16.704 0 01-7.536-1.556 10.601 10.601 0 01-4.655-4.485 15.027 15.027 0 01-1.601-7.202c-.026-1.881.27-3.753.876-5.535a11.813 11.813 0 012.514-4.184 10.952 10.952 0 013.934-2.654 13.897 13.897 0 015.173-.923 12.013 12.013 0 016.171 1.495 9.46 9.46 0 013.818 4.351 17.227 17.227 0 011.313 7.1v1.843H289.18l.06.399a5.46 5.46 0 002.141 3.946 9.097 9.097 0 005.022 1.129c1.393.013 2.783-.14 4.14-.457a16.914 16.914 0 003.229-1.172v6.323c-1.29.495-2.621.876-3.977 1.141a25.234 25.234 0 01-4.884.441zm-1.394-20.91c-2.347 0-3.769 1.557-4.227 4.627l-.06.399h8.05l-.033-.377a6.449 6.449 0 00-1.095-3.499 3.207 3.207 0 00-2.635-1.15z"/></g></svg>
