<svg xmlns="http://www.w3.org/2000/svg" viewBox="0 0 332 166" width="332" height="166"><path fill="#542582" d="M0 0h332v166H0z"/><g fill="#FFF"><path d="M157.302 42.585c-.148-.026-.3-.05-.454-.074l-.181-.026a16.3 16.3 0 00-.78-.09c-.179-.018-.359-.029-.535-.04a14.932 14.932 0 00-1.287-.025 17.872 17.872 0 00-1.744.128l-.163.023-.18.026-.222.035c-.097.015-.194.033-.288.05-.133.023-.263.05-.392.076-.754.159-1.494.379-2.213.659a12.938 12.938 0 00-1.779.85 12.801 12.801 0 00-1.062.683 11.07 11.07 0 00-.919.731c-.18.158-.356.319-.518.481-.139.142-.281.282-.415.432a11.126 11.126 0 00-1.086 1.405 11.26 11.26 0 00-1.091 2.127 11.521 11.521 0 00-.668 2.623 13.006 13.006 0 00-.109 1.608c0 .18.002.357.014.534.012.184.026.364.047.544l.014.127c.029.213.06.423.101.63.015.081.033.162.049.243a10.326 10.326 0 00.314 1.149 11.31 11.31 0 00.811 1.858 10.623 10.623 0 00.641 1.039c.131.191.269.374.401.548.143.183.29.354.433.52.179.206.357.394.532.567l.094.093c.145.138.302.287.481.44.123.104.25.214.387.323a11.181 11.181 0 00.941.674c.2.128.412.258.635.383a12.704 12.704 0 002.754 1.139 14.072 14.072 0 002.289.458 16.09 16.09 0 001.724.118c.09.001.181.004.274.004.705 0 1.358-.027 1.963-.078l.118-.011c.241-.02.473-.046.699-.075.347-.042.676-.092.988-.15.199-.034.39-.074.577-.113.289-.063.563-.13.826-.198.193-.052.381-.108.56-.161.215-.064.424-.134.622-.202l.189-.067c.097-.034.226-.08.379-.139.2-.079.446-.176.723-.294.165-.071.345-.153.529-.236.163-.075.337-.157.51-.243.074-.035.146-.069.219-.108V59.28a7.698 7.698 0 01-.152.093l-.295.179a18.261 18.261 0 01-1.786.971c-.533.252-1.041.464-1.538.641a15.44 15.44 0 01-2.828.728 11.894 11.894 0 01-1.892.151c-.304 0-.62-.008-.939-.03a13.07 13.07 0 01-1.142-.133 10.664 10.664 0 01-1.86-.484 10.882 10.882 0 01-.271-.105l-.175-.072a8.017 8.017 0 01-.923-.454 7.45 7.45 0 01-.608-.383 7.283 7.283 0 01-.711-.552l-.142-.127-.071-.065-.042-.041-.052-.05a7.323 7.323 0 01-.791-.91 7.94 7.94 0 01-.221-.319c-.067-.099-.128-.204-.187-.304a7.243 7.243 0 01-.794-1.958 8.013 8.013 0 01-.232-1.586 9.685 9.685 0 01-.006-.716 8.07 8.07 0 01.213-1.603 7.877 7.877 0 01.43-1.278 6.99 6.99 0 01.21-.439c.057-.112.12-.221.184-.333a7.304 7.304 0 01.688-.991c.092-.109.187-.224.288-.33.05-.054.102-.112.155-.165a8.874 8.874 0 013.028-1.98c.148-.058.292-.109.44-.161.159-.053.322-.102.48-.147a9.15 9.15 0 01.909-.205c.166-.031.334-.056.498-.079.166-.023.331-.038.496-.053.314-.029.623-.041.922-.041.102 0 .2-.001.3.001.222.007.44.012.654.026.147.011.29.02.433.034a14.099 14.099 0 012.264.403c.166.045.318.09.455.131a13.763 13.763 0 01.897.297c.213.075.418.158.622.24.274.109.536.229.785.342.21.093.406.191.593.282.154.074.297.15.432.22.236.123.435.233.6.32l.439.24v-4.23s-.264-.109-.72-.281c-.203-.076-.439-.166-.712-.262-.149-.053-.307-.111-.476-.168-.133-.044-.27-.093-.416-.14-.161-.05-.327-.106-.5-.158-.124-.037-.252-.076-.38-.113l-.116-.033a14.26 14.26 0 00-.383-.106 15.074 15.074 0 00-.466-.12c-.102-.026-.203-.049-.306-.074a23.931 23.931 0 00-1.038-.211m-21.144-4.399h33.566v31.588h-33.566V38.19zM110.359 55.609v6.209h4.03l.213-.007c.136-.006.328-.012.561-.033a6.913 6.913 0 001.573-.309 3.53 3.53 0 001.376-.803c.136-.136.257-.286.36-.449.244-.389.387-.833.414-1.291.01-.124.008-.196.008-.196s.003-.056 0-.153a2.834 2.834 0 00-.083-.601 2.478 2.478 0 00-.628-1.124 3.163 3.163 0 00-.36-.314 3.841 3.841 0 00-.747-.421 5.825 5.825 0 00-1.213-.357 8.97 8.97 0 00-1.181-.135 7.488 7.488 0 00-.427-.014l-3.896-.002M110.359 46.172v5.884h1.952s.129 0 .301-.006c.135-.003.296-.012.44-.019a7.891 7.891 0 001.512-.243c.107-.03.217-.064.323-.101a3.19 3.19 0 001.179-.702c.234-.23.418-.506.541-.81.113-.284.182-.584.206-.889.018-.203.018-.333.018-.333s.004-.097-.004-.251a2.803 2.803 0 00-.269-1.074 2.186 2.186 0 00-.413-.556 2.557 2.557 0 00-.771-.508 5.198 5.198 0 00-1.709-.375 9.427 9.427 0 00-.619-.018l-2.687.001z"/><path d="M106.285 42.618v22.751h8.564s4.176.116 6.481-2.191a5.688 5.688 0 00.153-8.041l-.013-.014a7.465 7.465 0 00-3.371-1.875 6.074 6.074 0 001.51-1.057 4.676 4.676 0 001.4-3.69 5.295 5.295 0 00-1.607-3.803s-1.76-2.082-5.734-2.082l-7.383.002zm-8.806-4.428h33.565v31.588H97.479V38.19zM71.683 55.609v6.209h4.03l.211-.007c.138-.006.33-.012.561-.033a6.867 6.867 0 001.574-.309 3.53 3.53 0 001.376-.803c.136-.136.256-.287.36-.449.244-.389.386-.833.413-1.291.011-.124.009-.196.009-.196s.002-.056 0-.153a2.969 2.969 0 00-.083-.601 2.492 2.492 0 00-.628-1.124 3.275 3.275 0 00-.361-.314 3.841 3.841 0 00-.747-.421 5.765 5.765 0 00-1.213-.357 8.945 8.945 0 00-1.181-.135 7.387 7.387 0 00-.425-.014l-3.896-.002M71.683 46.172v5.884h1.952s.128 0 .301-.006c.135-.003.295-.012.439-.019a7.901 7.901 0 001.513-.243c.108-.03.217-.064.323-.101a3.203 3.203 0 001.179-.702c.234-.23.418-.506.54-.81.114-.284.183-.584.207-.889.018-.203.016-.333.016-.333a2.336 2.336 0 00-.004-.251 2.759 2.759 0 00-.269-1.074 2.107 2.107 0 00-.413-.556 2.526 2.526 0 00-.771-.508 5.165 5.165 0 00-1.707-.374 9.427 9.427 0 00-.619-.018h-2.687z"/><path d="M67.607 42.618v22.751h8.564s4.176.116 6.481-2.191a5.685 5.685 0 00.155-8.039l-.015-.015a7.463 7.463 0 00-3.372-1.875 6.125 6.125 0 001.511-1.057 4.68 4.68 0 001.4-3.69 5.295 5.295 0 00-1.607-3.803s-1.76-2.082-5.734-2.082l-7.383.001zm-8.804-4.428h33.565v31.588H58.803V38.19zM177.901 65.367V42.626h7.347c2.904 0 5.12.583 6.647 1.75a5.971 5.971 0 012.289 5.055 6.118 6.118 0 01-1.24 3.881 7.04 7.04 0 01-3.531 2.322c2.12 3.16 4.166 6.404 6.139 9.733h-3.658a170.098 170.098 0 00-5.598-9.191c-.34.02-.7.031-1.082.031h-4.197v9.16h-3.116zm3.116-11.704h3.975a7.891 7.891 0 004.517-1.051 3.622 3.622 0 001.494-3.18c0-2.84-1.993-4.26-5.979-4.26h-4.007v8.491zM210.023 42.626a434.469 434.469 0 014.788 11.354 763.143 763.143 0 014.5 11.388h-3.371c-.381-1.039-.758-2.067-1.129-3.085a402.107 402.107 0 00-1.129-3.054h-10.687a322.12 322.12 0 00-2.259 6.139h-3.276a529.042 529.042 0 014.564-11.674 370.934 370.934 0 014.691-11.067h3.308zm-6.011 13.93h8.652a765.314 765.314 0 00-2.163-5.471c-.722-1.801-1.443-3.592-2.163-5.374a556.863 556.863 0 00-2.195 5.407c-.72 1.803-1.43 3.615-2.131 5.438M221.729 42.626h7.919a12.844 12.844 0 016.042 1.32 9.113 9.113 0 013.865 3.834 12.805 12.805 0 011.351 6.139 13.11 13.11 0 01-1.351 6.186 9.205 9.205 0 01-3.881 3.913 12.692 12.692 0 01-6.059 1.351h-7.887V42.626zm7.664 20.069a8.05 8.05 0 006.106-2.226c1.421-1.485 2.132-3.668 2.133-6.551 0-2.841-.705-4.988-2.116-6.442a8.1 8.1 0 00-6.091-2.18h-4.548v17.399h4.516zM244.534 42.626h3.149v22.741h-3.149zM262.28 42.149c1.54-.021 3.069.26 4.501.826a9.73 9.73 0 013.467 2.386 10.56 10.56 0 012.21 3.738c.528 1.573.785 3.223.762 4.882a14.43 14.43 0 01-.779 4.883 10.856 10.856 0 01-2.21 3.737 9.686 9.686 0 01-3.451 2.401 12.448 12.448 0 01-9.002 0 9.682 9.682 0 01-3.451-2.401 10.859 10.859 0 01-2.211-3.737 14.455 14.455 0 01-.779-4.883 14.67 14.67 0 01.764-4.882 10.537 10.537 0 012.21-3.738 9.708 9.708 0 013.467-2.386 11.823 11.823 0 014.502-.826m0 20.96a7.468 7.468 0 004.103-1.097 7.05 7.05 0 002.639-3.148 11.84 11.84 0 00.923-4.883 11.727 11.727 0 00-.923-4.867 7.074 7.074 0 00-2.639-3.132 8.19 8.19 0 00-8.19 0 7.015 7.015 0 00-2.654 3.132 11.73 11.73 0 00-.923 4.867 11.836 11.836 0 00.923 4.883 7.007 7.007 0 002.654 3.148 7.49 7.49 0 004.087 1.097"/><g><path d="M120.885 121.082V91.128h-11.719v-8.506h33.423v8.506h-11.72v29.954zM155.301 121.796a18.391 18.391 0 01-8.305-1.716 11.694 11.694 0 01-5.136-4.948 16.58 16.58 0 01-1.765-7.942 18.134 18.134 0 01.966-6.097 12.987 12.987 0 012.773-4.615 12.044 12.044 0 014.34-2.928 15.269 15.269 0 015.703-1.017 13.235 13.235 0 016.806 1.65 10.432 10.432 0 014.214 4.8 18.98 18.98 0 011.447 7.825v2.062h-17.307l.06.399a5.974 5.974 0 002.34 4.318 10.003 10.003 0 005.507 1.236c1.53.014 3.056-.155 4.546-.503a18.55 18.55 0 003.595-1.311v7.034c-1.428.55-2.902.973-4.404 1.266a27.9 27.9 0 01-5.38.487zm-1.534-23.003c-2.561 0-4.113 1.703-4.614 5.06l-.06.399h8.777l-.033-.377a7.044 7.044 0 00-1.198-3.828 3.486 3.486 0 00-2.872-1.254zM185.201 121.796a18.391 18.391 0 01-8.305-1.716 11.694 11.694 0 01-5.136-4.948 16.583 16.583 0 01-1.765-7.942 18.134 18.134 0 01.966-6.097 12.987 12.987 0 012.773-4.615 12.044 12.044 0 014.34-2.928 15.269 15.269 0 015.703-1.017 13.235 13.235 0 016.806 1.65 10.432 10.432 0 014.214 4.8 18.98 18.98 0 011.447 7.825v2.062h-17.306l.06.399a5.974 5.974 0 002.34 4.318 10.003 10.003 0 005.507 1.236c1.53.014 3.056-.155 4.546-.503a18.55 18.55 0 003.595-1.311v7.034c-1.428.55-2.902.973-4.404 1.266a27.917 27.917 0 01-5.381.487zm-1.534-23.003c-2.561 0-4.113 1.703-4.614 5.06l-.06.399h8.776l-.033-.377a7.044 7.044 0 00-1.198-3.828 3.489 3.489 0 00-2.871-1.254zM210.173 121.796a25.16 25.16 0 01-9.51-1.804v-6.951a19.644 19.644 0 003.938 1.604c1.454.431 2.961.658 4.477.673a7.801 7.801 0 003.301-.529 1.929 1.929 0 001.207-1.791 1.737 1.737 0 00-1.107-1.659 13.178 13.178 0 00-2.392-.76 25.994 25.994 0 01-5.806-1.997 7.152 7.152 0 01-3.06-2.765 8.39 8.39 0 01-.941-4.155 8.08 8.08 0 011.466-4.86 9.51 9.51 0 014.206-3.142 17.593 17.593 0 016.631-1.125c1.669-.002 3.333.17 4.967.513 1.453.299 2.867.764 4.215 1.385v6.837a13.16 13.16 0 00-3.497-1.586 15.866 15.866 0 00-4.424-.67 7.63 7.63 0 00-3.131.526 1.875 1.875 0 00-1.27 1.739c-.012.41.123.81.383 1.127.328.339.74.584 1.195.708a31.96 31.96 0 002.081.582 22.482 22.482 0 015.699 1.913 7.556 7.556 0 013.093 2.797 8.112 8.112 0 01.966 4.097 8.483 8.483 0 01-1.495 5.082 9.102 9.102 0 01-4.303 3.136 19.669 19.669 0 01-6.889 1.075z"/></g></g></svg>
