<svg xmlns="http://www.w3.org/2000/svg" viewBox="0 0 332 166" width="332" height="166"><path fill="#542582" d="M0 0h332v166H0z"/><g fill="#FFF"><path d="M103.215 121.444a25.615 25.615 0 01-11.303-2.559v-7.604a25.577 25.577 0 005.26 2.156c1.917.548 3.901.829 5.895.836a9.444 9.444 0 004.448-.84 2.797 2.797 0 001.624-2.544 2.548 2.548 0 00-.753-1.918 5.757 5.757 0 00-1.907-1.142 19.304 19.304 0 00-2.738-.814 37.212 37.212 0 01-5.719-1.773 13.592 13.592 0 01-3.785-2.256 7.704 7.704 0 01-2.099-2.929 10.651 10.651 0 01-.673-3.954 10.065 10.065 0 011.728-5.923 11.075 11.075 0 014.976-3.786 20.365 20.365 0 017.734-1.344c1.917 0 3.828.214 5.698.64 1.677.37 3.307.93 4.858 1.669v7.494a18.102 18.102 0 00-3.027-1.343 25.344 25.344 0 00-3.761-.958 21.48 21.48 0 00-3.668-.33 8.758 8.758 0 00-4.021.762 2.615 2.615 0 00-1.553 2.422 2.647 2.647 0 001.608 2.476 20.014 20.014 0 004.132 1.397c1.677.388 3.326.882 4.939 1.481a15.738 15.738 0 013.8 2.02 7.892 7.892 0 012.431 2.959 11.7 11.7 0 01-.893 10.576 10.904 10.904 0 01-5.07 3.811 22.472 22.472 0 01-8.161 1.318zM134.579 121.345a14.98 14.98 0 01-5.376-.923 11.232 11.232 0 01-4.083-2.656 11.754 11.754 0 01-2.586-4.184 15.907 15.907 0 01-.899-5.482 15.008 15.008 0 011.578-7.08 11.094 11.094 0 014.467-4.588 15.475 15.475 0 0113.801 0 11.106 11.106 0 014.467 4.588 15.032 15.032 0 011.578 7.08 15.959 15.959 0 01-.899 5.482 11.775 11.775 0 01-2.587 4.185 11.269 11.269 0 01-4.082 2.655 15 15 0 01-5.379.923zm0-19.814a3.56 3.56 0 00-3.156 1.753 9.12 9.12 0 00-1.074 4.868 8.793 8.793 0 001.074 4.717 3.74 3.74 0 006.338-.002 8.95 8.95 0 001.049-4.714 9.289 9.289 0 00-1.049-4.865 3.544 3.544 0 00-3.182-1.757zM159.123 121.145c-2.477 0-4.333-.657-5.519-1.952-1.195-1.305-1.802-3.329-1.802-6.014V84.302h8.616v27.881a2.67 2.67 0 00.537 1.825 2.182 2.182 0 001.701.613 4.945 4.945 0 001.644-.278v6.06a15.856 15.856 0 01-5.177.742zM180.628 121.345a16.676 16.676 0 01-7.536-1.557 10.61 10.61 0 01-4.655-4.484 15.035 15.035 0 01-1.601-7.204c-.026-1.881.27-3.752.876-5.532a11.788 11.788 0 012.514-4.185 10.963 10.963 0 013.934-2.655 13.894 13.894 0 015.173-.92 12.002 12.002 0 016.171 1.494 9.463 9.463 0 013.819 4.351 17.234 17.234 0 011.312 7.101v1.842h-15.737l.06.399a5.464 5.464 0 002.141 3.946 9.105 9.105 0 005.022 1.13 17.34 17.34 0 004.142-.459 16.895 16.895 0 003.227-1.172v6.325c-1.29.493-2.621.874-3.976 1.14a25.5 25.5 0 01-4.886.44zm-1.393-20.91c-2.347 0-3.769 1.556-4.227 4.626l-.06.399h8.05l-.033-.377a6.443 6.443 0 00-1.096-3.497 3.201 3.201 0 00-2.634-1.151zM210.149 120.698v-15.683c0-2.799-1.651-3.386-3.036-3.386a4.548 4.548 0 00-3.706 1.825l-.076.095v17.149h-8.616V95.454h7.319l.517 3.507.497-.594a9.225 9.225 0 017.301-3.558 7.824 7.824 0 016.259 2.492c1.43 1.669 2.156 4.163 2.156 7.415v15.982h-8.615zM234.644 121.345c-3.012 0-5.317-.762-6.851-2.266-1.533-1.5-2.31-3.736-2.31-6.646v-10.107h-3.933v-6.474h3.933v-6.141l8.615-1.89v8.031h5.975v6.474h-5.975v8.861c0 2.247 1.205 3.434 3.484 3.434a8.38 8.38 0 002.989-.576v6.261a17.153 17.153 0 01-5.927 1.039z"/><g><path d="M157.307 42.585c-.148-.026-.3-.05-.454-.074l-.181-.026a16.408 16.408 0 00-.779-.09c-.179-.018-.359-.029-.535-.04a14.932 14.932 0 00-1.287-.025 17.872 17.872 0 00-1.744.128l-.163.023-.18.026-.222.035c-.097.015-.194.033-.288.05-.133.023-.263.05-.392.076-.754.159-1.494.379-2.213.659a12.938 12.938 0 00-1.779.85 12.801 12.801 0 00-1.062.683 11.07 11.07 0 00-.919.731c-.18.158-.356.319-.518.481-.139.142-.281.282-.415.432a11.126 11.126 0 00-1.086 1.405 11.26 11.26 0 00-1.091 2.127 11.521 11.521 0 00-.668 2.623 13.006 13.006 0 00-.109 1.608c0 .18.002.357.014.534.012.184.026.364.047.544l.014.127c.029.213.06.423.101.63.015.081.033.162.049.243a10.326 10.326 0 00.314 1.149 11.31 11.31 0 00.811 1.858 10.623 10.623 0 00.641 1.039c.131.191.269.374.401.548.143.183.29.354.433.52.179.206.357.394.532.567l.094.093c.145.138.302.287.481.44.123.104.25.214.387.323a11.181 11.181 0 00.941.674c.2.128.412.258.635.383a12.704 12.704 0 002.754 1.139 14.072 14.072 0 002.289.458 16.09 16.09 0 001.724.118c.09.001.181.004.274.004.705 0 1.358-.027 1.963-.078l.118-.011c.241-.02.473-.046.699-.075.347-.042.676-.092.988-.15.199-.034.39-.074.577-.113.289-.063.563-.13.826-.198.193-.052.381-.108.56-.161.215-.064.424-.134.622-.202l.189-.067c.097-.034.226-.08.379-.139.2-.079.446-.176.723-.294.165-.071.345-.153.529-.236.163-.075.337-.157.51-.243.074-.035.146-.069.219-.108V59.28a7.698 7.698 0 01-.152.093l-.295.179a18.261 18.261 0 01-1.786.971c-.533.252-1.041.464-1.538.641a15.44 15.44 0 01-2.828.728 11.894 11.894 0 01-1.892.151c-.304 0-.62-.008-.939-.03a13.07 13.07 0 01-1.142-.133 10.664 10.664 0 01-1.86-.484 10.882 10.882 0 01-.271-.105l-.175-.072a8.017 8.017 0 01-.923-.454 7.45 7.45 0 01-.608-.383 7.283 7.283 0 01-.711-.552l-.142-.127-.071-.065-.042-.041-.052-.05a7.323 7.323 0 01-.791-.91 7.94 7.94 0 01-.221-.319c-.067-.099-.128-.204-.187-.304a7.243 7.243 0 01-.794-1.958 8.013 8.013 0 01-.232-1.586 9.685 9.685 0 01-.006-.716 8.07 8.07 0 01.213-1.603 7.877 7.877 0 01.43-1.278 6.99 6.99 0 01.21-.439c.057-.112.12-.221.184-.333a7.304 7.304 0 01.688-.991c.092-.109.187-.224.288-.33.05-.054.102-.112.155-.165a8.874 8.874 0 013.028-1.98c.148-.058.292-.109.44-.161.159-.053.322-.102.48-.147a9.15 9.15 0 01.909-.205c.166-.031.334-.056.498-.079.166-.023.331-.038.496-.053.314-.029.623-.041.922-.041.102 0 .2-.001.3.001.222.007.44.012.654.026.147.011.29.02.433.034a14.099 14.099 0 012.264.403c.166.045.318.09.455.131a13.763 13.763 0 01.897.297c.213.075.418.158.622.24.274.109.536.229.785.342.21.093.406.191.593.282.154.074.297.15.432.22.236.123.435.233.6.32l.439.24v-4.23s-.264-.109-.72-.281c-.203-.076-.439-.166-.712-.262-.149-.053-.307-.111-.476-.168-.133-.044-.27-.093-.416-.14-.161-.05-.327-.106-.5-.158-.124-.037-.252-.076-.38-.113l-.116-.033a14.26 14.26 0 00-.383-.106 15.074 15.074 0 00-.466-.12c-.102-.026-.203-.049-.306-.074a23.931 23.931 0 00-1.038-.211M136.16 38.19h33.566v31.588H136.16V38.19zM110.364 55.609v6.209h4.03l.213-.007c.136-.006.328-.012.561-.033a6.913 6.913 0 001.573-.309 3.53 3.53 0 001.376-.803c.136-.136.257-.286.36-.449.244-.389.387-.833.414-1.291.01-.124.008-.196.008-.196s.003-.056 0-.153a2.834 2.834 0 00-.083-.601 2.478 2.478 0 00-.628-1.124 3.163 3.163 0 00-.36-.314 3.841 3.841 0 00-.747-.421 5.825 5.825 0 00-1.213-.357 8.97 8.97 0 00-1.181-.135 7.488 7.488 0 00-.427-.014l-3.896-.002M110.364 46.172v5.884h1.952s.129 0 .301-.006c.135-.003.296-.012.44-.019a7.891 7.891 0 001.512-.243c.107-.03.217-.064.323-.101a3.19 3.19 0 001.179-.702c.234-.23.418-.506.541-.81.113-.284.182-.584.206-.889.018-.203.018-.333.018-.333s.004-.097-.004-.251a2.803 2.803 0 00-.269-1.074 2.186 2.186 0 00-.413-.556 2.557 2.557 0 00-.771-.508 5.198 5.198 0 00-1.709-.375 9.427 9.427 0 00-.619-.018l-2.687.001z"/><path d="M106.29 42.618v22.751h8.564s4.176.116 6.481-2.191a5.688 5.688 0 00.153-8.041l-.013-.014a7.465 7.465 0 00-3.371-1.875 6.074 6.074 0 001.51-1.057 4.676 4.676 0 001.4-3.69 5.295 5.295 0 00-1.607-3.803s-1.76-2.082-5.734-2.082l-7.383.002zm-8.806-4.428h33.565v31.588H97.484V38.19zM71.688 55.609v6.209h4.03l.211-.007c.138-.006.33-.012.561-.033a6.867 6.867 0 001.574-.309 3.53 3.53 0 001.376-.803c.136-.136.256-.287.36-.449.244-.389.386-.833.413-1.291.011-.124.009-.196.009-.196s.002-.056 0-.153a2.969 2.969 0 00-.083-.601 2.492 2.492 0 00-.628-1.124 3.275 3.275 0 00-.361-.314 3.841 3.841 0 00-.747-.421 5.765 5.765 0 00-1.213-.357 8.945 8.945 0 00-1.181-.135 7.387 7.387 0 00-.425-.014c-1.429 0-3.895-.003-3.896-.002M71.688 46.172v5.884h1.952s.128 0 .301-.006c.135-.003.295-.012.439-.019a7.901 7.901 0 001.513-.243c.107-.03.217-.064.323-.101a3.19 3.19 0 001.179-.702c.234-.23.418-.506.54-.81.114-.284.183-.584.207-.889.018-.203.016-.333.016-.333a2.336 2.336 0 00-.004-.251 2.759 2.759 0 00-.269-1.074 2.107 2.107 0 00-.413-.556 2.526 2.526 0 00-.771-.508 5.192 5.192 0 00-1.707-.375 9.427 9.427 0 00-.619-.018l-2.687.001z"/><path d="M67.613 42.618v22.751h8.564s4.176.116 6.481-2.191a5.685 5.685 0 00.155-8.039l-.015-.015a7.463 7.463 0 00-3.372-1.875 6.125 6.125 0 001.511-1.057 4.68 4.68 0 001.4-3.69 5.295 5.295 0 00-1.607-3.803s-1.76-2.082-5.734-2.082l-7.383.001zm-8.804-4.428h33.565v31.588H58.809V38.19zM177.906 65.367V42.626h7.347c2.904 0 5.12.583 6.647 1.75a5.971 5.971 0 012.289 5.055 6.118 6.118 0 01-1.24 3.881 7.04 7.04 0 01-3.531 2.322c2.12 3.16 4.166 6.404 6.139 9.733H191.9a170.098 170.098 0 00-5.598-9.191c-.34.02-.7.031-1.082.031h-4.197v9.16h-3.117zm3.117-11.704h3.975a7.89 7.89 0 004.517-1.051 3.622 3.622 0 001.494-3.18c0-2.84-1.993-4.26-5.979-4.26h-4.007v8.491zM210.028 42.626a434.469 434.469 0 014.788 11.354 763.143 763.143 0 014.5 11.388h-3.372c-.381-1.039-.758-2.067-1.129-3.085a402.107 402.107 0 00-1.129-3.054H203a322.12 322.12 0 00-2.259 6.139h-3.276a529.042 529.042 0 014.564-11.674 370.934 370.934 0 014.691-11.067h3.308zm-6.01 13.93h8.652a765.314 765.314 0 00-2.163-5.471c-.722-1.801-1.443-3.592-2.163-5.374a532.652 532.652 0 00-2.195 5.407 423.513 423.513 0 00-2.131 5.438M221.734 42.626h7.919a12.844 12.844 0 016.042 1.32 9.113 9.113 0 013.865 3.834 12.805 12.805 0 011.351 6.139 13.11 13.11 0 01-1.351 6.186 9.205 9.205 0 01-3.881 3.913 12.692 12.692 0 01-6.059 1.351h-7.886V42.626zm7.664 20.069a8.05 8.05 0 006.106-2.226c1.421-1.485 2.132-3.668 2.133-6.551 0-2.841-.705-4.988-2.116-6.442a8.1 8.1 0 00-6.091-2.18h-4.548v17.399h4.516zM244.539 42.626h3.149v22.741h-3.149zM262.285 42.149c1.54-.021 3.069.26 4.501.826a9.73 9.73 0 013.467 2.386 10.56 10.56 0 012.21 3.738c.528 1.573.785 3.223.762 4.882a14.43 14.43 0 01-.779 4.883 10.856 10.856 0 01-2.21 3.737 9.682 9.682 0 01-3.45 2.401 12.448 12.448 0 01-9.002 0 9.67 9.67 0 01-3.45-2.401 10.859 10.859 0 01-2.211-3.737 14.455 14.455 0 01-.779-4.883 14.67 14.67 0 01.764-4.882 10.537 10.537 0 012.21-3.738 9.708 9.708 0 013.467-2.386 11.802 11.802 0 014.5-.826m.002 20.96a7.468 7.468 0 004.103-1.097 7.05 7.05 0 002.639-3.148 11.84 11.84 0 00.923-4.883 11.727 11.727 0 00-.923-4.867 7.074 7.074 0 00-2.639-3.132 8.19 8.19 0 00-8.19 0 7.015 7.015 0 00-2.654 3.132 11.73 11.73 0 00-.923 4.867 11.836 11.836 0 00.923 4.883 7.007 7.007 0 002.654 3.148 7.49 7.49 0 004.087 1.097"/></g></g></svg>
