<svg xmlns="http://www.w3.org/2000/svg" viewBox="0 0 332 166" width="332" height="166"><path fill="#542582" d="M0 0h332v166H0z"/><g fill="#FFF"><path d="M157.292 42.585c-.148-.026-.3-.05-.454-.074l-.181-.026a16.3 16.3 0 00-.78-.09c-.179-.018-.359-.029-.535-.04a14.932 14.932 0 00-1.287-.025 17.872 17.872 0 00-1.744.128l-.163.023-.18.026-.222.035c-.097.015-.194.033-.288.05-.133.023-.263.05-.392.076-.754.159-1.494.379-2.213.659a12.938 12.938 0 00-1.779.85 12.801 12.801 0 00-1.062.683 11.07 11.07 0 00-.919.731c-.18.158-.356.319-.518.481-.139.142-.281.282-.415.432a11.126 11.126 0 00-1.086 1.405 11.26 11.26 0 00-1.091 2.127 11.521 11.521 0 00-.668 2.623 13.006 13.006 0 00-.109 1.608c0 .18.002.357.014.534.012.184.026.364.047.544l.014.127c.029.213.06.423.101.63.015.081.033.162.049.243a10.326 10.326 0 00.314 1.149 11.31 11.31 0 00.811 1.858 10.623 10.623 0 00.641 1.039c.131.191.269.374.401.548.143.183.29.354.433.52.179.206.357.394.532.567l.094.093c.145.138.302.287.481.44.123.104.25.214.387.323a11.181 11.181 0 00.941.674c.2.128.412.258.635.383a12.704 12.704 0 002.754 1.139 14.072 14.072 0 002.289.458 16.09 16.09 0 001.724.118c.09.001.181.004.274.004.705 0 1.358-.027 1.963-.078l.118-.011c.241-.02.473-.046.699-.075.347-.042.676-.092.988-.15.199-.034.39-.074.577-.113.289-.063.563-.13.826-.198.193-.052.381-.108.56-.161.215-.064.424-.134.622-.202l.189-.067c.097-.034.226-.08.379-.139.2-.079.446-.176.723-.294.165-.071.345-.153.529-.236.163-.075.337-.157.51-.243.074-.035.146-.069.219-.108V59.28a7.698 7.698 0 01-.152.093l-.295.179a18.261 18.261 0 01-1.786.971c-.533.252-1.041.464-1.538.641a15.44 15.44 0 01-2.828.728 11.894 11.894 0 01-1.892.151c-.304 0-.62-.008-.939-.03a13.07 13.07 0 01-1.142-.133 10.664 10.664 0 01-1.86-.484 10.882 10.882 0 01-.271-.105l-.175-.072a8.017 8.017 0 01-.923-.454 7.45 7.45 0 01-.608-.383 7.283 7.283 0 01-.711-.552l-.142-.127-.071-.065-.042-.041-.052-.05a7.323 7.323 0 01-.791-.91 7.94 7.94 0 01-.221-.319c-.067-.099-.128-.204-.187-.304a7.243 7.243 0 01-.794-1.958 8.013 8.013 0 01-.232-1.586 9.685 9.685 0 01-.006-.716 8.07 8.07 0 01.213-1.603 7.877 7.877 0 01.43-1.278 6.99 6.99 0 01.21-.439c.057-.112.12-.221.184-.333a7.304 7.304 0 01.688-.991c.092-.109.187-.224.288-.33.05-.054.102-.112.155-.165a8.874 8.874 0 013.028-1.98c.148-.058.292-.109.44-.161.159-.053.322-.102.48-.147a9.15 9.15 0 01.909-.205c.166-.031.334-.056.498-.079.166-.023.331-.038.496-.053.314-.029.623-.041.922-.041.102 0 .2-.001.3.001.222.007.44.012.654.026.147.011.29.02.433.034a14.099 14.099 0 012.264.403c.166.045.318.09.455.131a13.763 13.763 0 01.897.297c.213.075.418.158.622.24.274.109.536.229.785.342.21.093.406.191.593.282.154.074.297.15.432.22.236.123.435.233.6.32l.439.24v-4.23s-.264-.109-.72-.281c-.203-.076-.439-.166-.712-.262-.149-.053-.307-.111-.476-.168-.133-.044-.27-.093-.416-.14-.161-.05-.327-.106-.5-.158-.124-.037-.252-.076-.38-.113l-.116-.033a14.26 14.26 0 00-.383-.106 15.074 15.074 0 00-.466-.12c-.102-.026-.203-.049-.306-.074a23.931 23.931 0 00-1.038-.211m-21.143-4.399h33.566v31.588h-33.566V38.19zM110.349 55.609v6.209h4.03l.213-.007c.136-.006.328-.012.56-.033a6.913 6.913 0 001.573-.309 3.53 3.53 0 001.376-.803c.136-.136.257-.286.36-.449.244-.389.387-.833.414-1.291.01-.124.008-.196.008-.196s.003-.056 0-.153a2.834 2.834 0 00-.083-.601 2.478 2.478 0 00-.628-1.124 3.163 3.163 0 00-.36-.314 3.841 3.841 0 00-.747-.421 5.825 5.825 0 00-1.213-.357 8.97 8.97 0 00-1.181-.135 7.488 7.488 0 00-.427-.014l-3.895-.002M110.349 46.172v5.884h1.952s.129 0 .301-.006c.135-.003.296-.012.44-.019a7.891 7.891 0 001.512-.243c.107-.03.217-.064.323-.101a3.19 3.19 0 001.179-.702c.234-.23.418-.506.541-.81.113-.284.182-.584.206-.889.018-.203.018-.333.018-.333s.004-.097-.004-.251a2.803 2.803 0 00-.269-1.074 2.186 2.186 0 00-.413-.556 2.557 2.557 0 00-.771-.508 5.198 5.198 0 00-1.709-.375 9.427 9.427 0 00-.619-.018l-2.687.001z"/><path d="M106.275 42.618v22.751h8.564s4.176.116 6.481-2.191a5.688 5.688 0 00.153-8.041l-.013-.014a7.465 7.465 0 00-3.371-1.875 6.074 6.074 0 001.51-1.057 4.676 4.676 0 001.4-3.69 5.295 5.295 0 00-1.607-3.803s-1.76-2.082-5.734-2.082l-7.383.002zM97.47 38.19h33.565v31.588H97.47V38.19zM71.674 55.609v6.209h4.03l.211-.007c.138-.006.33-.012.561-.033a6.867 6.867 0 001.574-.309 3.53 3.53 0 001.376-.803c.136-.136.256-.287.36-.449.244-.389.386-.833.413-1.291.011-.124.009-.196.009-.196s.002-.056 0-.153a2.969 2.969 0 00-.083-.601 2.492 2.492 0 00-.628-1.124 3.275 3.275 0 00-.361-.314 3.841 3.841 0 00-.747-.421 5.765 5.765 0 00-1.213-.357 8.945 8.945 0 00-1.181-.135 7.387 7.387 0 00-.425-.014l-3.896-.002M71.674 46.172v5.884h1.952s.128 0 .301-.006c.135-.003.295-.012.439-.019a7.901 7.901 0 001.513-.243c.107-.03.217-.064.323-.101a3.19 3.19 0 001.179-.702c.234-.23.418-.506.54-.81.114-.284.183-.584.207-.889.018-.203.016-.333.016-.333a2.336 2.336 0 00-.004-.251 2.759 2.759 0 00-.269-1.074 2.107 2.107 0 00-.413-.556 2.526 2.526 0 00-.771-.508 5.192 5.192 0 00-1.707-.375 9.427 9.427 0 00-.619-.018l-2.687.001z"/><path d="M67.598 42.618v22.751h8.564s4.176.116 6.481-2.191a5.685 5.685 0 00.155-8.039l-.015-.015a7.463 7.463 0 00-3.372-1.875 6.125 6.125 0 001.511-1.057 4.68 4.68 0 001.4-3.69 5.295 5.295 0 00-1.607-3.803s-1.76-2.082-5.734-2.082l-7.383.001zm-8.804-4.428h33.565v31.588H58.794V38.19zM177.891 65.367V42.626h7.347c2.904 0 5.12.583 6.647 1.75a5.971 5.971 0 012.289 5.055 6.118 6.118 0 01-1.24 3.881 7.04 7.04 0 01-3.531 2.322c2.12 3.16 4.166 6.404 6.139 9.733h-3.658a170.098 170.098 0 00-5.598-9.191c-.34.02-.7.031-1.082.031h-4.197v9.16h-3.116zm3.117-11.704h3.975a7.89 7.89 0 004.517-1.051 3.622 3.622 0 001.494-3.18c0-2.84-1.993-4.26-5.979-4.26h-4.007v8.491zM210.014 42.626a434.469 434.469 0 014.788 11.354 763.143 763.143 0 014.5 11.388h-3.372c-.381-1.039-.758-2.067-1.129-3.085a402.107 402.107 0 00-1.129-3.054h-10.686a322.12 322.12 0 00-2.259 6.139h-3.276a529.042 529.042 0 014.564-11.674 370.934 370.934 0 014.691-11.067h3.308zm-6.011 13.93h8.652a765.314 765.314 0 00-2.163-5.471c-.722-1.801-1.443-3.592-2.163-5.374a532.652 532.652 0 00-2.195 5.407 438.727 438.727 0 00-2.131 5.438M221.719 42.626h7.919a12.844 12.844 0 016.042 1.32 9.113 9.113 0 013.865 3.834 12.805 12.805 0 011.351 6.139 13.11 13.11 0 01-1.351 6.186 9.205 9.205 0 01-3.881 3.913 12.692 12.692 0 01-6.059 1.351h-7.887V42.626zm7.665 20.069a8.05 8.05 0 006.106-2.226c1.421-1.485 2.132-3.668 2.133-6.551 0-2.841-.705-4.988-2.116-6.442a8.1 8.1 0 00-6.091-2.18h-4.548v17.399h4.516zM244.525 42.626h3.149v22.741h-3.149zM262.271 42.149c1.54-.021 3.069.26 4.501.826a9.73 9.73 0 013.467 2.386 10.56 10.56 0 012.21 3.738c.528 1.573.785 3.223.762 4.882a14.43 14.43 0 01-.779 4.883 10.856 10.856 0 01-2.21 3.737 9.682 9.682 0 01-3.45 2.401 12.448 12.448 0 01-9.002 0 9.682 9.682 0 01-3.451-2.401 10.859 10.859 0 01-2.211-3.737 14.455 14.455 0 01-.779-4.883 14.67 14.67 0 01.764-4.882 10.537 10.537 0 012.21-3.738 9.708 9.708 0 013.467-2.386 11.814 11.814 0 014.501-.826m.001 20.96a7.468 7.468 0 004.103-1.097 7.05 7.05 0 002.639-3.148 11.84 11.84 0 00.923-4.883 11.727 11.727 0 00-.923-4.867 7.074 7.074 0 00-2.639-3.132 8.19 8.19 0 00-8.19 0 7.015 7.015 0 00-2.654 3.132 11.73 11.73 0 00-.923 4.867 11.836 11.836 0 00.923 4.883 7.002 7.002 0 002.654 3.148 7.485 7.485 0 004.087 1.097"/><g><path d="M76.42 117.521a22.122 22.122 0 01-7.578-1.22 15.039 15.039 0 01-9.248-9.127 21.178 21.178 0 01-1.245-7.48 19.509 19.509 0 011.315-7.301 15.62 15.62 0 013.79-5.602 17.258 17.258 0 015.922-3.605 22.242 22.242 0 017.676-1.269 29.71 29.71 0 0111.252 2.029v7.777a20.7 20.7 0 00-4.324-1.636 23.084 23.084 0 00-5.711-.668c-3.419 0-6.096.901-7.954 2.677-1.863 1.778-2.808 4.335-2.808 7.598 0 3.386.826 5.995 2.453 7.756 1.635 1.77 4.054 2.668 7.189 2.668a17.144 17.144 0 002.013-.125 15.121 15.121 0 001.969-.374l.254-.068v-5.812h-5.064v-6.336H89.23v17.615a23.192 23.192 0 01-3.647 1.322 30.956 30.956 0 01-4.504.891 37.61 37.61 0 01-4.659.29zM102.768 117.425a7.513 7.513 0 01-6.048-2.438c-1.384-1.634-2.086-4.041-2.086-7.157V92.095h8.427v15.443a3.462 3.462 0 00.742 2.341 2.692 2.692 0 002.131.871 4.493 4.493 0 003.574-1.78l.077-.094v-16.78h8.429v24.696h-7.161l-.506-3.38-.484.58a8.94 8.94 0 01-7.095 3.433zM135.897 117.425a16.333 16.333 0 01-7.372-1.522 10.386 10.386 0 01-4.555-4.389 14.71 14.71 0 01-1.566-7.045 16.154 16.154 0 01.857-5.415 11.534 11.534 0 012.459-4.093 10.684 10.684 0 013.849-2.596 13.543 13.543 0 015.06-.902 11.74 11.74 0 016.037 1.463 9.254 9.254 0 013.736 4.255 16.877 16.877 0 011.285 6.946v1.802h-15.396l.058.39a5.335 5.335 0 002.096 3.861 8.887 8.887 0 004.912 1.105 17.089 17.089 0 004.05-.447 16.514 16.514 0 003.16-1.147v6.186a23.365 23.365 0 01-3.891 1.116 24.724 24.724 0 01-4.779.432zm-1.365-20.457c-2.296 0-3.687 1.524-4.134 4.528l-.058.39h7.874l-.032-.369a6.32 6.32 0 00-1.072-3.425 3.138 3.138 0 00-2.578-1.124zM150.125 116.791V92.095h7.159l.686 4.75.49-.883c1.607-2.897 3.628-4.305 6.181-4.305a6.265 6.265 0 012.583.51v7.179a4.785 4.785 0 00-1.018-.369 7.692 7.692 0 00-1.808-.206 7.352 7.352 0 00-3.216.668 7.658 7.658 0 00-2.551 2.086l-.077.094v15.172h-8.429zM186.216 116.791v-15.342c0-2.735-1.615-3.31-2.97-3.31a4.45 4.45 0 00-3.626 1.782l-.074.093v16.777h-8.429V92.095h7.16l.506 3.432.486-.581a9.024 9.024 0 017.143-3.482 7.655 7.655 0 016.124 2.438c1.399 1.632 2.109 4.073 2.109 7.256v15.634h-8.429zM207.753 117.425a22.377 22.377 0 01-8.428-1.593v-6.112a17.53 17.53 0 003.464 1.405 14.53 14.53 0 003.989.597 6.971 6.971 0 002.949-.473 1.735 1.735 0 001.092-1.619 1.576 1.576 0 00-1.003-1.504 11.463 11.463 0 00-2.133-.68 23.036 23.036 0 01-5.156-1.773 6.358 6.358 0 01-2.71-2.446 7.428 7.428 0 01-.833-3.682 7.148 7.148 0 011.299-4.304 8.386 8.386 0 013.725-2.784 15.657 15.657 0 015.886-.997 21.362 21.362 0 014.411.455 17.19 17.19 0 013.724 1.222v6.004a11.746 11.746 0 00-3.071-1.383 14.084 14.084 0 00-3.943-.597 6.79 6.79 0 00-2.798.468 1.696 1.696 0 00-1.147 1.575c-.012.372.112.735.348 1.023.295.306.667.526 1.078.637.445.147 1.062.323 1.851.519 1.755.34 3.457.911 5.062 1.699a6.679 6.679 0 012.738 2.477 7.19 7.19 0 01.856 3.628 7.524 7.524 0 01-1.324 4.502 8.091 8.091 0 01-3.813 2.78 17.41 17.41 0 01-6.113.956zM235.903 117.425a16.346 16.346 0 01-7.372-1.522 10.38 10.38 0 01-4.553-4.389 14.71 14.71 0 01-1.566-7.045 16.153 16.153 0 01.856-5.415 11.551 11.551 0 012.46-4.093 10.67 10.67 0 013.849-2.596 13.543 13.543 0 015.06-.902 11.74 11.74 0 016.037 1.463 9.252 9.252 0 013.735 4.255 16.86 16.86 0 011.285 6.946v1.802h-15.397l.06.39a5.337 5.337 0 002.096 3.861 8.768 8.768 0 004.913 1.105 17.089 17.089 0 004.05-.447 16.505 16.505 0 003.159-1.147v6.186a23.365 23.365 0 01-3.891 1.116 24.744 24.744 0 01-4.781.432zm-1.363-20.457c-2.296 0-3.687 1.524-4.135 4.528l-.058.39h7.875l-.032-.369a6.307 6.307 0 00-1.071-3.424 3.141 3.141 0 00-2.579-1.125zM252.267 128.433a13.953 13.953 0 01-5.213-.81v-6.257c.225.089.454.167.686.232a13.1 13.1 0 001.477.325c.477.081.959.123 1.443.126a6.874 6.874 0 002.693-.442 3.793 3.793 0 001.655-1.364 9.702 9.702 0 001.038-2.118c.064-.198.134-.384.212-.571.084-.203.161-.405.228-.609l.04-.118-.048-.116a572.641 572.641 0 01-4.891-12.558 615.818 615.818 0 01-4.393-12.059h8.8a479.095 479.095 0 004.323 16.167l.327 1.144.326-1.144a308.298 308.298 0 002.219-8.191 274.443 274.443 0 001.915-7.976h8.551a914.68 914.68 0 01-1.35 3.809 560.471 560.471 0 01-3.553 9.613c-.923 2.431-2.873 7.548-3.36 8.814s-.909 2.353-1.266 3.26-.63 1.586-.823 2.037a27.87 27.87 0 01-2.166 4.212 11.284 11.284 0 01-2.362 2.696 8.059 8.059 0 01-2.827 1.447c-1.2.317-2.439.468-3.681.451z"/></g></g></svg>
