<svg xmlns="http://www.w3.org/2000/svg" viewBox="0 0 332 166" width="332" height="166"><path fill="#542582" d="M0 0h332v166H0z"/><g fill="#FFF"><path d="M157.303 42.585c-.148-.026-.3-.05-.454-.074l-.181-.026a16.408 16.408 0 00-.779-.09c-.179-.018-.359-.029-.535-.04a14.932 14.932 0 00-1.287-.025 17.872 17.872 0 00-1.744.128l-.163.023-.18.026-.222.035c-.097.015-.194.033-.288.05-.133.023-.263.05-.392.076-.754.159-1.494.379-2.213.659a12.938 12.938 0 00-1.779.85 12.801 12.801 0 00-1.062.683 11.07 11.07 0 00-.919.731c-.18.158-.356.319-.518.481-.139.142-.281.282-.415.432a11.126 11.126 0 00-1.086 1.405 11.26 11.26 0 00-1.091 2.127 11.47 11.47 0 00-.668 2.623 13.006 13.006 0 00-.109 1.608c0 .18.002.357.014.534.012.184.026.364.047.544l.014.127c.029.213.06.423.101.63.015.081.033.162.049.243a10.326 10.326 0 00.314 1.149 11.31 11.31 0 00.811 1.858 10.623 10.623 0 00.641 1.039c.131.191.269.374.401.548.143.183.29.354.433.52.179.206.357.394.532.567l.094.093c.144.138.301.287.481.44.123.104.25.214.387.323a11.181 11.181 0 00.941.674c.2.128.412.258.635.383a12.704 12.704 0 002.754 1.139 14.072 14.072 0 002.289.458 16.04 16.04 0 001.724.118c.09.001.181.004.274.004.705 0 1.358-.027 1.963-.078l.118-.011c.241-.02.473-.046.699-.075.347-.042.676-.092.988-.15.199-.034.39-.074.577-.113.289-.063.563-.13.827-.198.193-.052.381-.108.56-.161.215-.064.424-.134.622-.202l.189-.067c.097-.034.226-.08.379-.139.2-.079.446-.176.723-.294.165-.071.345-.153.529-.236.163-.075.337-.157.51-.243.074-.035.146-.069.219-.108V59.28a7.698 7.698 0 01-.152.093l-.294.179a18.261 18.261 0 01-1.786.971c-.533.252-1.042.464-1.538.641a15.44 15.44 0 01-2.828.728 11.894 11.894 0 01-1.892.151c-.304 0-.62-.008-.939-.03a13.07 13.07 0 01-1.142-.133 10.63 10.63 0 01-1.859-.484 10.882 10.882 0 01-.271-.105l-.175-.072a8.017 8.017 0 01-.923-.454 7.45 7.45 0 01-.608-.383 7.748 7.748 0 01-.711-.552l-.142-.127-.071-.065-.042-.041-.052-.05a7.724 7.724 0 01-1.012-1.229c-.067-.099-.128-.204-.187-.304a7.243 7.243 0 01-.794-1.958 8.013 8.013 0 01-.232-1.586 9.685 9.685 0 01-.006-.716 8.07 8.07 0 01.349-2.096 7.403 7.403 0 01.503-1.224c.057-.112.12-.221.184-.333a7.304 7.304 0 01.688-.991c.092-.109.187-.224.288-.33.05-.054.102-.112.156-.165a8.874 8.874 0 013.028-1.98c.148-.058.292-.109.44-.161.159-.053.322-.102.48-.147a9.15 9.15 0 01.909-.205c.166-.031.334-.056.498-.079.166-.023.331-.038.496-.053.314-.029.623-.041.922-.041.102 0 .2-.001.3.001.222.007.44.012.654.026.147.011.29.02.433.034a14.099 14.099 0 012.264.403c.166.045.318.09.455.131a13.763 13.763 0 01.897.297c.213.075.418.158.622.24.274.109.536.229.785.342.21.093.406.191.593.282.154.074.297.15.432.22.236.123.435.233.6.32l.439.24v-4.23s-.264-.109-.72-.281c-.203-.076-.439-.166-.712-.262-.149-.053-.307-.111-.476-.168-.133-.044-.27-.093-.416-.14-.161-.05-.327-.106-.5-.158-.124-.037-.252-.076-.38-.113l-.116-.033a14.26 14.26 0 00-.383-.106 15.074 15.074 0 00-.466-.12c-.102-.026-.203-.049-.305-.074a23.931 23.931 0 00-1.038-.211m-21.149-4.399h33.566v31.588h-33.566V38.19zM110.36 55.609v6.209h4.03l.213-.007c.136-.006.328-.012.561-.033a6.913 6.913 0 001.573-.309 3.53 3.53 0 001.376-.803c.136-.136.257-.286.36-.449.244-.389.387-.833.414-1.291.01-.124.008-.196.008-.196s.003-.056 0-.153a2.834 2.834 0 00-.083-.601 2.478 2.478 0 00-.628-1.124 3.265 3.265 0 00-.36-.314 3.841 3.841 0 00-.747-.421 5.886 5.886 0 00-1.213-.357 8.97 8.97 0 00-1.181-.135 7.488 7.488 0 00-.427-.014l-3.896-.002M110.36 46.172v5.884h1.952s.13 0 .301-.006c.135-.003.296-.012.44-.019a7.891 7.891 0 001.512-.243c.107-.03.217-.064.323-.101a3.19 3.19 0 001.179-.702c.234-.23.418-.506.542-.81.113-.284.182-.584.206-.889.018-.203.018-.333.018-.333s.004-.097-.004-.251a2.803 2.803 0 00-.269-1.074 2.186 2.186 0 00-.413-.556 2.557 2.557 0 00-.771-.508 5.198 5.198 0 00-1.708-.375 9.427 9.427 0 00-.619-.018l-2.689.001z"/><path d="M106.286 42.618v22.751h8.564s4.176.116 6.481-2.191a5.687 5.687 0 00.153-8.04l-.014-.014a7.465 7.465 0 00-3.371-1.875 6.074 6.074 0 001.51-1.057 4.676 4.676 0 001.4-3.69 5.295 5.295 0 00-1.607-3.803s-1.76-2.082-5.734-2.082l-7.382.001zM97.48 38.19h33.565v31.588H97.48V38.19zM71.684 55.609v6.209h4.03l.211-.007c.138-.006.33-.012.56-.033a6.867 6.867 0 001.574-.309 3.53 3.53 0 001.376-.803c.136-.136.256-.287.36-.449.244-.389.386-.833.413-1.291.006-.065.009-.131.009-.196 0 0 .002-.056 0-.153a2.969 2.969 0 00-.083-.601 2.492 2.492 0 00-.628-1.124 3.275 3.275 0 00-.361-.314 3.841 3.841 0 00-.747-.421 5.765 5.765 0 00-1.213-.357 8.945 8.945 0 00-1.181-.135 7.387 7.387 0 00-.425-.014l-3.895-.002M71.684 46.172v5.884h1.952s.128 0 .301-.006c.135-.003.295-.012.439-.019a7.901 7.901 0 001.513-.243c.107-.03.217-.064.323-.101a3.19 3.19 0 001.179-.702c.234-.23.418-.506.54-.81.114-.284.184-.584.207-.889.018-.203.016-.333.016-.333a2.336 2.336 0 00-.004-.251 2.741 2.741 0 00-.269-1.074 2.107 2.107 0 00-.413-.556 2.526 2.526 0 00-.771-.508 5.192 5.192 0 00-1.707-.375 9.427 9.427 0 00-.619-.018l-2.687.001z"/><path d="M67.609 42.618v22.751h8.564s4.176.116 6.481-2.191a5.685 5.685 0 00.155-8.039l-.015-.015a7.463 7.463 0 00-3.372-1.875 6.125 6.125 0 001.511-1.057 4.68 4.68 0 001.4-3.69 5.295 5.295 0 00-1.607-3.803s-1.76-2.082-5.734-2.082l-7.383.001zm-8.805-4.428h33.565v31.588H58.804V38.19zM177.902 65.367V42.626h7.347c2.904 0 5.12.583 6.647 1.75a5.971 5.971 0 012.289 5.055 6.118 6.118 0 01-1.24 3.881 7.04 7.04 0 01-3.531 2.322c2.12 3.16 4.166 6.404 6.139 9.733h-3.658a170.098 170.098 0 00-5.598-9.191c-.34.02-.7.031-1.082.031h-4.197v9.16h-3.116zm3.116-11.704h3.975a7.89 7.89 0 004.517-1.051 3.622 3.622 0 001.494-3.18c0-2.84-1.993-4.26-5.979-4.26h-4.007v8.491zM210.024 42.626a434.469 434.469 0 014.788 11.354 763.143 763.143 0 014.5 11.388h-3.372c-.381-1.039-.758-2.067-1.129-3.085a402.107 402.107 0 00-1.129-3.054h-10.686a322.12 322.12 0 00-2.259 6.139h-3.276a524.078 524.078 0 014.565-11.674 370.934 370.934 0 014.691-11.067h3.307zm-6.01 13.93h8.651a815.88 815.88 0 00-2.162-5.471c-.722-1.801-1.443-3.592-2.163-5.374a532.652 532.652 0 00-2.195 5.407 391.077 391.077 0 00-2.131 5.438M221.73 42.626h7.919a12.832 12.832 0 016.042 1.32 9.113 9.113 0 013.865 3.834 12.805 12.805 0 011.351 6.139 13.11 13.11 0 01-1.351 6.186 9.205 9.205 0 01-3.881 3.913 12.69 12.69 0 01-6.059 1.351h-7.887V42.626zm7.665 20.069a8.048 8.048 0 006.105-2.226c1.421-1.485 2.132-3.668 2.133-6.551 0-2.841-.705-4.988-2.116-6.442a8.1 8.1 0 00-6.091-2.18h-4.548v17.399h4.517zM244.535 42.626h3.149v22.741h-3.149zM262.281 42.149c1.54-.021 3.069.26 4.501.826a9.73 9.73 0 013.467 2.386 10.56 10.56 0 012.21 3.738c.528 1.573.785 3.223.762 4.882a14.43 14.43 0 01-.779 4.883 10.856 10.856 0 01-2.21 3.737 9.682 9.682 0 01-3.45 2.401 12.448 12.448 0 01-9.002 0 9.67 9.67 0 01-3.45-2.401 10.859 10.859 0 01-2.211-3.737 14.455 14.455 0 01-.779-4.883 14.67 14.67 0 01.764-4.882 10.537 10.537 0 012.21-3.738 9.708 9.708 0 013.467-2.386 11.802 11.802 0 014.5-.826m.002 20.96a7.468 7.468 0 004.103-1.097 7.05 7.05 0 002.639-3.148 11.84 11.84 0 00.923-4.883 11.727 11.727 0 00-.923-4.867 7.074 7.074 0 00-2.639-3.132 8.19 8.19 0 00-8.19 0 7.015 7.015 0 00-2.654 3.132 11.73 11.73 0 00-.923 4.867 11.836 11.836 0 00.923 4.883 7.002 7.002 0 002.654 3.148 7.485 7.485 0 004.087 1.097"/><g><path d="M148.974 123.817a1268.816 1268.816 0 01-3.052-11.813 696.726 696.726 0 01-2.956-12.123l-.676-.004-2.957 12.13a685.412 685.412 0 01-2.995 11.811h-10.533a829.404 829.404 0 01-5.101-19.124 741.613 741.613 0 01-4.64-19.337h10.712a612.754 612.754 0 002.203 13.84 657.976 657.976 0 002.521 13.916l.678.016a909.491 909.491 0 005.857-26.13h9.678c.875 4.131 1.804 8.36 2.762 12.572.967 4.254 1.945 8.499 2.932 12.734l.678-.012c.861-4.376 1.7-8.931 2.492-13.535a695.058 695.058 0 002.175-13.402h10.496a628.447 628.447 0 01-4.587 19.337 690.165 690.165 0 01-5.155 19.124h-10.532zM206.689 123.817v-23.585l-.667-.136a711.41 711.41 0 01-3.64 8.457 1094.724 1094.724 0 01-3.603 8.144h-7.767a1391.684 1391.684 0 01-3.713-8.121 570.147 570.147 0 01-3.694-8.319l-.666.138v23.421h-9.273V85.355h12.287a895.8 895.8 0 004.268 10.628 587.293 587.293 0 004.52 10.74l.326.75.313-.756a638.691 638.691 0 004.329-10.658 682.322 682.322 0 004.135-10.705h12.117v38.461l-9.272.002z"/></g></g></svg>
