<svg xmlns="http://www.w3.org/2000/svg" viewBox="0 0 332 166" width="332" height="166"><path fill="#542582" d="M0 0h332v166H0z"/><g fill="#FFF"><path d="M157.292 42.587a14.773 14.773 0 00-.453-.074l-.183-.027a20.848 20.848 0 00-.78-.09 15.616 15.616 0 00-1.82-.063 16.353 16.353 0 00-1.746.128l-.164.022-.179.026-.223.035-.288.05c-.132.025-.263.052-.391.078a14.019 14.019 0 00-3.223 1.099c-.266.131-.524.266-.769.409a12.648 12.648 0 00-1.374.911 12.76 12.76 0 00-1.127.985c-.141.14-.28.282-.413.432s-.269.301-.397.461c-.139.172-.277.348-.409.53a9.325 9.325 0 00-.465.701 11.256 11.256 0 00-1.574 4.462c-.04.293-.071.593-.087.897-.014.233-.023.47-.023.71a8.53 8.53 0 00.062 1.079l.014.125c.026.214.06.423.1.631.016.08.031.161.049.241a10.529 10.529 0 00.315 1.151c.086.258.177.506.279.75a11.8 11.8 0 001.171 2.147 11.746 11.746 0 001.366 1.633l.094.093c.146.138.301.289.481.442.123.104.249.213.389.322.128.101.26.206.403.307a12.209 12.209 0 003.266 1.684 14.77 14.77 0 001.877.499 16.415 16.415 0 002.795.285l.273.003c.706 0 1.359-.026 1.964-.076l.119-.011a19.786 19.786 0 001.688-.225 16.78 16.78 0 001.963-.473c.215-.064.424-.134.622-.201l.191-.067a21.026 21.026 0 001.102-.434c.165-.072.345-.153.528-.236a42.037 42.037 0 00.731-.351v-4.306l-.154.093-.294.177a18.95 18.95 0 01-1.784.972c-.535.251-1.044.464-1.539.641-.832.301-1.689.53-2.56.684l-.267.044a12.545 12.545 0 01-1.434.139 9.41 9.41 0 01-.457.012c-.307 0-.62-.008-.939-.031a11.72 11.72 0 01-1.143-.134 10.478 10.478 0 01-1.861-.484 6.883 6.883 0 01-.271-.105c-.059-.022-.119-.048-.176-.071-.1-.044-.198-.087-.297-.134a8.362 8.362 0 01-1.942-1.256l-.143-.13-.069-.064-.042-.04-.053-.05a8.745 8.745 0 01-.788-.91 7.668 7.668 0 01-.41-.623 8.045 8.045 0 01-.42-.839 7.726 7.726 0 01-.576-2.332 9.645 9.645 0 01-.033-1.09 7.67 7.67 0 01.214-1.603c.037-.161.082-.323.133-.493.048-.153.104-.308.162-.466a9.132 9.132 0 01.343-.758c.056-.112.12-.222.184-.334.147-.253.309-.497.485-.731.065-.086.132-.175.203-.259.091-.109.188-.223.288-.331.052-.053.102-.11.155-.164a8.81 8.81 0 013.468-2.141 9.128 9.128 0 01.935-.261c.151-.037.304-.065.455-.094.166-.03.333-.056.498-.076.166-.023.331-.04.494-.053.316-.029.623-.041.923-.041h.3a15.005 15.005 0 011.089.06 14 14 0 012.262.404c.166.044.318.09.457.129a17.118 17.118 0 01.896.297c.211.075.42.158.623.241.273.109.534.228.785.341.209.094.406.191.593.282.154.075.297.151.432.221.234.121.434.232.598.32l.439.24v-4.23s-.264-.109-.72-.281c-.202-.075-.44-.166-.71-.26-.15-.053-.308-.112-.477-.168-.134-.045-.271-.094-.415-.14-.161-.052-.329-.108-.5-.158-.124-.037-.254-.078-.383-.114l-.115-.031a22.756 22.756 0 00-.383-.108c-.153-.041-.31-.08-.468-.119-.1-.026-.202-.05-.304-.074a17.316 17.316 0 00-.507-.11c-.174-.038-.352-.069-.53-.101m-21.15-4.396h33.566v31.588h-33.566V38.19zM110.349 55.61v6.208h4.031l.211-.007a9.07 9.07 0 00.56-.034 6.847 6.847 0 001.573-.308c.513-.16.984-.435 1.376-.803.136-.136.257-.286.361-.449.243-.389.385-.833.413-1.291.01-.124.01-.198.01-.198s.001-.056-.002-.151a2.862 2.862 0 00-.083-.603 2.479 2.479 0 00-.625-1.123 3.244 3.244 0 00-.361-.312 3.812 3.812 0 00-.747-.421 5.65 5.65 0 00-1.213-.357 8.174 8.174 0 00-.716-.101 11.284 11.284 0 00-.89-.049l-3.898-.001M110.349 46.172v5.885h1.952s.13 0 .301-.005c.136-.004.296-.012.44-.02a8.047 8.047 0 001.512-.241c.108-.03.217-.064.325-.102a3.197 3.197 0 001.178-.701 2.4 2.4 0 00.541-.811c.114-.284.183-.583.206-.888.019-.203.018-.333.018-.333s.004-.097-.004-.251a2.741 2.741 0 00-.269-1.074 2.146 2.146 0 00-.413-.556 2.574 2.574 0 00-.772-.51 5.19 5.19 0 00-1.707-.374 8.829 8.829 0 00-.619-.019h-2.689z"/><path d="M106.275 42.62v22.75h8.563s4.177.115 6.482-2.192a5.69 5.69 0 00.147-8.046l-.007-.007a7.465 7.465 0 00-3.371-1.875 6.118 6.118 0 001.509-1.056 4.68 4.68 0 001.4-3.692c0-1.433-.58-2.805-1.607-3.804 0 0-1.759-2.079-5.733-2.079l-7.383.001zm-8.805-4.43h33.564v31.588H97.47V38.19zM71.673 55.61v6.208h4.03l.213-.007c.136-.005.328-.012.56-.034a6.847 6.847 0 001.573-.308c.513-.16.984-.435 1.376-.803.136-.136.257-.286.36-.449.244-.389.387-.833.414-1.291.01-.124.008-.198.008-.198s.003-.056 0-.151a2.862 2.862 0 00-.083-.603 2.479 2.479 0 00-.627-1.123 3.05 3.05 0 00-.36-.312 3.812 3.812 0 00-.747-.421 5.707 5.707 0 00-1.213-.357 8.174 8.174 0 00-.716-.101 11.284 11.284 0 00-.89-.049l-3.898-.001M71.673 46.172v5.885h1.952s.13 0 .301-.005c.135-.004.296-.012.44-.02a8.06 8.06 0 001.512-.241c.108-.03.217-.064.325-.102a3.197 3.197 0 001.178-.701 2.41 2.41 0 00.541-.811c.114-.284.183-.583.206-.888.019-.203.018-.333.018-.333s.004-.097-.004-.251a2.78 2.78 0 00-.269-1.074 2.146 2.146 0 00-.413-.556 2.574 2.574 0 00-.772-.51 5.196 5.196 0 00-1.708-.374 8.812 8.812 0 00-.619-.019h-2.688z"/><path d="M67.599 42.62v22.75h8.563s4.177.115 6.482-2.192a5.69 5.69 0 00.148-8.046l-.007-.007a7.465 7.465 0 00-3.371-1.875 6.1 6.1 0 001.509-1.056 4.684 4.684 0 001.4-3.692c0-1.433-.58-2.805-1.607-3.804 0 0-1.758-2.078-5.732-2.078h-7.385zm-8.805-4.43h33.564v31.588H58.794V38.19zM177.891 65.368V42.627h7.348c2.904 0 5.119.583 6.646 1.749a5.977 5.977 0 012.29 5.057 6.117 6.117 0 01-1.241 3.881 7.04 7.04 0 01-3.531 2.322 203.885 203.885 0 016.139 9.732h-3.658a176.934 176.934 0 00-2.72-4.628 167.612 167.612 0 00-2.878-4.563c-.34.02-.7.031-1.081.031h-4.199v9.16h-3.115zm3.116-11.704h3.977a7.883 7.883 0 004.515-1.051 3.624 3.624 0 001.496-3.181c0-2.84-1.993-4.26-5.979-4.26h-4.008l-.001 8.492zM210.014 42.627a439.338 439.338 0 014.786 11.354 742.209 742.209 0 014.502 11.388h-3.372l-1.129-3.085a510.948 510.948 0 00-1.129-3.053h-10.687a344.015 344.015 0 00-2.258 6.139h-3.277a539.113 539.113 0 014.566-11.674 365.76 365.76 0 014.69-11.067l3.308-.002zm-6.011 13.93h8.651a872.734 872.734 0 00-2.164-5.471 1814.59 1814.59 0 00-2.162-5.374 448.484 448.484 0 00-4.325 10.845M221.718 42.627h7.921a12.835 12.835 0 016.042 1.32 9.116 9.116 0 013.865 3.833 12.82 12.82 0 011.351 6.139 13.116 13.116 0 01-1.351 6.185 9.227 9.227 0 01-3.881 3.913 12.688 12.688 0 01-6.058 1.351h-7.888V42.627zm7.666 20.069a8.06 8.06 0 006.106-2.226c1.421-1.485 2.131-3.668 2.131-6.551 0-2.841-.705-4.988-2.115-6.442a8.1 8.1 0 00-6.091-2.18h-4.548v17.398h4.517zM244.523 42.628h3.149v22.741h-3.149zM262.271 42.15c1.54-.021 3.068.26 4.5.826a9.73 9.73 0 013.467 2.386 10.554 10.554 0 012.211 3.738c.528 1.573.785 3.223.762 4.882.023 1.66-.24 3.312-.778 4.883a10.909 10.909 0 01-2.211 3.737 9.682 9.682 0 01-3.45 2.401 12.448 12.448 0 01-9.002 0 9.695 9.695 0 01-3.451-2.401 10.881 10.881 0 01-2.21-3.737 14.43 14.43 0 01-.778-4.883 14.698 14.698 0 01.762-4.882 10.537 10.537 0 012.21-3.738 9.73 9.73 0 013.467-2.386 11.814 11.814 0 014.501-.826m.001 20.96a7.468 7.468 0 004.103-1.097 7.047 7.047 0 002.638-3.148 11.84 11.84 0 00.923-4.883 11.727 11.727 0 00-.923-4.867 7.072 7.072 0 00-2.638-3.132 8.192 8.192 0 00-8.191 0 7.031 7.031 0 00-2.656 3.132 11.727 11.727 0 00-.923 4.867 11.836 11.836 0 00.923 4.883 7.018 7.018 0 002.656 3.148 7.49 7.49 0 004.088 1.097"/><g><path d="M25.436 120.434V85.531h9.013v27.232h15.832v7.671zM55.655 120.434V95.19h8.616v25.244h-8.616zm4.283-28.777a5.375 5.375 0 01-3.583-1.087 4.346 4.346 0 010-6.093 5.38 5.38 0 013.583-1.088 5.46 5.46 0 013.633 1.088 4.342 4.342 0 010 6.093 5.455 5.455 0 01-3.633 1.087zM84.928 120.434V104.75c0-2.797-1.651-3.385-3.036-3.385a4.544 4.544 0 00-3.706 1.825l-.076.095v17.149h-8.616V95.19h7.319l.517 3.504.496-.593a9.225 9.225 0 017.301-3.558 7.818 7.818 0 016.259 2.493c1.43 1.669 2.156 4.162 2.156 7.414v15.984h-8.614zM110.667 121.079a16.225 16.225 0 01-7.433-1.555 10.615 10.615 0 01-4.607-4.509 15.167 15.167 0 01-1.602-7.228 14.81 14.81 0 01.971-5.474 11.592 11.592 0 012.804-4.183 12.507 12.507 0 014.385-2.663 16.966 16.966 0 015.781-.925c1.18-.006 2.357.116 3.511.365.996.217 1.97.522 2.913.91v6.907a9.484 9.484 0 00-2.168-.947 10.584 10.584 0 00-2.96-.412 6.575 6.575 0 00-4.8 1.693 6.366 6.366 0 00-1.722 4.729 6.496 6.496 0 001.693 4.748 6.288 6.288 0 004.678 1.721 12.422 12.422 0 003.124-.384 10.376 10.376 0 002.503-1.042v6.79a13.304 13.304 0 01-3.16 1.068 19.036 19.036 0 01-3.911.391zM133.767 121.079a14.978 14.978 0 01-5.376-.921 11.271 11.271 0 01-4.082-2.656 11.746 11.746 0 01-2.587-4.185 15.878 15.878 0 01-.899-5.481 15.01 15.01 0 011.578-7.081 11.106 11.106 0 014.467-4.588 15.475 15.475 0 0113.801 0 11.118 11.118 0 014.467 4.588 15.036 15.036 0 011.578 7.081 15.925 15.925 0 01-.899 5.481 11.76 11.76 0 01-2.587 4.185 11.271 11.271 0 01-4.082 2.656 14.977 14.977 0 01-5.379.921zm0-19.813a3.56 3.56 0 00-3.156 1.753 9.12 9.12 0 00-1.074 4.868 8.784 8.784 0 001.074 4.717 3.74 3.74 0 006.338-.002 8.938 8.938 0 001.049-4.714 9.289 9.289 0 00-1.049-4.865 3.544 3.544 0 00-3.182-1.757zM158.311 120.881c-2.476 0-4.333-.657-5.519-1.954-1.195-1.304-1.802-3.328-1.802-6.014V84.038h8.616v27.882a2.67 2.67 0 00.537 1.825c.452.44 1.072.663 1.701.612a4.945 4.945 0 001.644-.278v6.061a15.855 15.855 0 01-5.177.741zM182.852 120.434V104.75c0-2.797-1.651-3.385-3.036-3.385a4.544 4.544 0 00-3.706 1.825l-.076.095v17.149h-8.616V95.19h7.319l.517 3.504.497-.593a9.225 9.225 0 017.301-3.558 7.818 7.818 0 016.259 2.493c1.43 1.669 2.156 4.162 2.156 7.414v15.984h-8.615zM204.908 121.079a22.874 22.874 0 01-8.615-1.628v-6.244a17.95 17.95 0 003.541 1.435c1.324.391 2.697.597 4.078.61a7.116 7.116 0 003.014-.483 1.776 1.776 0 001.117-1.656 1.606 1.606 0 00-1.026-1.536 11.95 11.95 0 00-2.183-.695 23.655 23.655 0 01-5.269-1.811 6.49 6.49 0 01-2.769-2.502 7.602 7.602 0 01-.852-3.762 7.3 7.3 0 011.328-4.401 8.594 8.594 0 013.808-2.845 15.998 15.998 0 016.017-1.02 21.956 21.956 0 014.508.465c1.313.27 2.59.688 3.808 1.248v6.139a11.992 11.992 0 00-3.141-1.415 14.412 14.412 0 00-4.031-.61 6.976 6.976 0 00-2.858.48 1.733 1.733 0 00-1.172 1.609c-.012.381.114.753.355 1.047.301.314.682.54 1.102.653.454.151 1.085.327 1.893.529 1.795.345 3.535.93 5.174 1.738a6.811 6.811 0 012.799 2.531 7.341 7.341 0 01.875 3.709 7.688 7.688 0 01-1.354 4.6 8.244 8.244 0 01-3.898 2.839 17.728 17.728 0 01-6.249.976zM235.774 120.434V104.75c0-2.797-1.651-3.385-3.036-3.385a4.544 4.544 0 00-3.706 1.825l-.076.095v17.149h-8.616V84.038h8.616v13.724l.59-.579a8.887 8.887 0 016.428-2.64 7.821 7.821 0 016.259 2.493c1.43 1.669 2.156 4.162 2.156 7.414v15.984h-8.615zM249.413 120.434V95.19h8.616v25.244h-8.616zm4.283-28.777a5.375 5.375 0 01-3.583-1.087 4.346 4.346 0 010-6.093 5.38 5.38 0 013.583-1.088 5.46 5.46 0 013.633 1.088 4.342 4.342 0 010 6.093 5.455 5.455 0 01-3.633 1.087zM263.254 120.434V95.19h7.318l.701 4.855.501-.902c1.643-2.962 3.709-4.401 6.318-4.401a6.416 6.416 0 012.64.518v7.338a4.92 4.92 0 00-1.038-.377 7.886 7.886 0 00-1.85-.207 7.54 7.54 0 00-3.287.68 7.812 7.812 0 00-2.607 2.135l-.079.095v15.51h-8.617zM296.561 121.079a16.688 16.688 0 01-7.536-1.556 10.61 10.61 0 01-4.655-4.484 15.035 15.035 0 01-1.601-7.204c-.026-1.881.27-3.753.876-5.534a11.826 11.826 0 012.514-4.185 10.952 10.952 0 013.934-2.654 13.895 13.895 0 015.173-.921 12.002 12.002 0 016.171 1.494 9.46 9.46 0 013.819 4.352 17.224 17.224 0 011.312 7.099v1.844h-15.737l.06.399a5.456 5.456 0 002.141 3.946 9.115 9.115 0 005.022 1.129 17.34 17.34 0 004.142-.459 16.892 16.892 0 003.227-1.171v6.323c-1.29.494-2.62.875-3.976 1.14-1.61.306-3.246.454-4.886.442zm-1.393-20.908c-2.347 0-3.769 1.556-4.227 4.626l-.06.399h8.05l-.033-.377a6.427 6.427 0 00-1.096-3.497 3.196 3.196 0 00-2.634-1.151z"/></g></g></svg>
