<svg xmlns="http://www.w3.org/2000/svg" viewBox="0 0 332 166" width="332" height="166"><path fill="#542582" d="M0 0h332v166H0z"/><g fill="#FFF"><path d="M157.301 42.587a14.773 14.773 0 00-.453-.074l-.183-.027a21.093 21.093 0 00-.78-.09 15.635 15.635 0 00-1.82-.063 16.234 16.234 0 00-1.748.128l-.162.022-.18.026-.224.035-.288.05c-.131.025-.262.052-.391.078a13.903 13.903 0 00-3.222 1.099 12.685 12.685 0 00-1.833 1.092c-.105.075-.209.15-.31.228-.213.165-.417.333-.611.502-.179.16-.353.32-.517.483-.141.14-.281.282-.413.432a11.29 11.29 0 00-1.09 1.404 11.137 11.137 0 00-1.09 2.126 11.55 11.55 0 00-.665 2.624 11.79 11.79 0 00-.097 2.142c.011.183.025.364.048.545l.012.125a9.217 9.217 0 00.15.872c.037.172.078.342.123.51.06.218.121.431.191.641.087.258.179.506.28.75a12.073 12.073 0 00.88 1.703 11.774 11.774 0 001.659 2.077l.094.093c.146.138.301.289.481.442.121.104.248.213.389.322.128.101.26.206.404.307.169.123.346.247.536.367.202.128.412.258.635.383a12.704 12.704 0 002.755 1.141c.386.11.792.209 1.217.292a16.456 16.456 0 002.794.285l.273.003c.706 0 1.359-.026 1.964-.076l.117-.011a19.605 19.605 0 001.689-.225 17.059 17.059 0 001.963-.473c.214-.064.424-.134.62-.2l.192-.067c.094-.034.225-.082.376-.142.203-.078.446-.173.724-.292.166-.072.345-.153.529-.236.164-.075.335-.158.508-.243.074-.035.147-.071.221-.108v-4.306a5.644 5.644 0 01-.153.093l-.296.177a18.95 18.95 0 01-1.783.972c-.534.251-1.044.464-1.539.641-.832.3-1.689.529-2.56.684l-.267.044a12.71 12.71 0 01-1.434.139 9.475 9.475 0 01-.457.012c-.307 0-.62-.008-.941-.031a11.737 11.737 0 01-1.142-.134 10.478 10.478 0 01-1.861-.484 6.84 6.84 0 01-.27-.105c-.059-.022-.119-.048-.176-.071-.1-.044-.198-.087-.299-.134a8.77 8.77 0 01-.927-.505 5.964 5.964 0 01-.305-.202 6.513 6.513 0 01-.371-.271 8.85 8.85 0 01-.338-.278l-.143-.13-.071-.064-.041-.04-.053-.05a7.34 7.34 0 01-1.619-2.372 7.256 7.256 0 01-.372-1.121 7.87 7.87 0 01-.203-1.211 9.82 9.82 0 01-.039-.817c0-.079.003-.169.007-.273a7.996 7.996 0 01.347-2.096 8.37 8.37 0 01.162-.466c.04-.105.087-.211.134-.319.063-.147.132-.292.209-.439.056-.112.12-.222.184-.334a7.396 7.396 0 01.688-.99c.091-.109.187-.224.288-.331.052-.053.102-.11.155-.164a8.805 8.805 0 013.469-2.141 9.72 9.72 0 01.934-.261c.153-.037.305-.065.455-.094.168-.03.334-.056.499-.076.166-.023.331-.04.493-.053.315-.029.623-.041.923-.041h.299a14.922 14.922 0 011.089.06 13.96 13.96 0 012.262.404c.168.044.319.09.457.129a16.438 16.438 0 01.897.297c.211.075.419.158.623.241.273.109.533.228.785.341.209.094.406.191.592.282.155.075.297.151.434.221.234.121.434.232.597.32l.44.24v-4.23s-.266-.109-.721-.281c-.2-.075-.439-.166-.709-.26-.151-.053-.308-.112-.477-.168-.134-.045-.271-.094-.416-.14-.161-.052-.329-.108-.5-.158-.124-.037-.252-.078-.382-.114l-.115-.031c-.127-.037-.254-.072-.383-.108a26.582 26.582 0 00-1.28-.303c-.174-.038-.352-.069-.529-.101m-21.143-4.398h33.566v31.588h-33.566V38.19zM110.357 55.61v6.208h4.031l.211-.007a9.07 9.07 0 00.56-.034 6.847 6.847 0 001.573-.308c.513-.16.984-.435 1.376-.803.136-.136.257-.286.361-.449.243-.389.385-.833.413-1.291.01-.124.01-.198.01-.198s.001-.056-.001-.151a2.862 2.862 0 00-.083-.603 2.465 2.465 0 00-.625-1.123 3.156 3.156 0 00-.361-.312 3.812 3.812 0 00-.747-.421 5.65 5.65 0 00-1.213-.357 8.174 8.174 0 00-.716-.101 11.284 11.284 0 00-.89-.049l-3.899-.001M110.357 46.172v5.885h1.952s.13 0 .301-.006c.136-.004.296-.012.44-.02a8.047 8.047 0 001.512-.241c.108-.03.218-.064.325-.102a3.197 3.197 0 001.178-.701 2.4 2.4 0 00.541-.811c.114-.284.183-.583.206-.888.019-.203.018-.333.018-.333s.004-.097-.004-.251a2.741 2.741 0 00-.269-1.074 2.146 2.146 0 00-.413-.556 2.574 2.574 0 00-.772-.51 5.19 5.19 0 00-1.707-.374 8.829 8.829 0 00-.619-.019l-2.689.001z"/><path d="M106.284 42.62v22.75h8.563s4.176.115 6.482-2.192a5.688 5.688 0 00.149-8.043l-.01-.01a7.461 7.461 0 00-3.37-1.875 6.1 6.1 0 001.509-1.056 4.68 4.68 0 001.4-3.692 5.3 5.3 0 00-1.608-3.803s-1.759-2.079-5.733-2.079h-7.382zm-8.804-4.43h33.564v31.588H97.48V38.19zM71.682 55.61v6.208h4.03l.213-.007c.136-.005.328-.012.56-.034a6.847 6.847 0 001.573-.308c.513-.16.984-.435 1.376-.803.136-.136.257-.286.36-.449.244-.389.387-.833.414-1.291.01-.124.008-.198.008-.198s.003-.056 0-.151a2.862 2.862 0 00-.083-.603 2.465 2.465 0 00-.627-1.123 3.05 3.05 0 00-.36-.312 3.762 3.762 0 00-.747-.421 5.65 5.65 0 00-1.213-.357 8.174 8.174 0 00-.716-.101 11.284 11.284 0 00-.89-.049l-3.898-.001M71.682 46.172v5.885h1.952s.13 0 .301-.006c.135-.004.296-.012.44-.02a8.06 8.06 0 001.512-.241c.108-.03.217-.064.325-.102a3.197 3.197 0 001.178-.701 2.41 2.41 0 00.541-.811c.114-.284.183-.583.206-.888.019-.203.018-.333.018-.333s.004-.097-.004-.251a2.78 2.78 0 00-.269-1.074 2.146 2.146 0 00-.413-.556 2.574 2.574 0 00-.772-.51 5.196 5.196 0 00-1.708-.374 8.812 8.812 0 00-.619-.019l-2.688.001z"/><path d="M67.608 42.62v22.75h8.563s4.176.115 6.482-2.192a5.688 5.688 0 00.149-8.043l-.01-.01a7.461 7.461 0 00-3.37-1.875 6.118 6.118 0 001.509-1.056 4.687 4.687 0 001.399-3.692 5.306 5.306 0 00-1.606-3.804s-1.759-2.079-5.733-2.079h-7.383zm-8.805-4.43h33.565v31.588H58.803V38.19zM177.9 65.368V42.627h7.348c2.904 0 5.119.583 6.646 1.749a5.972 5.972 0 012.29 5.057 6.117 6.117 0 01-1.241 3.881 7.044 7.044 0 01-3.531 2.322 203.885 203.885 0 016.139 9.732h-3.658a170.098 170.098 0 00-5.598-9.191c-.339.02-.7.031-1.081.031h-4.199v9.16H177.9zm3.117-11.704h3.977a7.883 7.883 0 004.515-1.051 3.624 3.624 0 001.496-3.181c0-2.84-1.993-4.26-5.98-4.26h-4.008v8.492zM210.023 42.627a441.38 441.38 0 014.786 11.354 742.209 742.209 0 014.502 11.388h-3.373l-1.129-3.085a401.886 401.886 0 00-1.129-3.053h-10.687a344.015 344.015 0 00-2.258 6.139h-3.277a539.113 539.113 0 014.566-11.674 365.76 365.76 0 014.69-11.067l3.309-.002zm-6.011 13.93h8.652a938.763 938.763 0 00-4.326-10.845 546.875 546.875 0 00-2.196 5.407 423.488 423.488 0 00-2.13 5.438M221.727 42.627h7.921a12.832 12.832 0 016.042 1.32 9.116 9.116 0 013.865 3.833 12.82 12.82 0 011.351 6.139 13.116 13.116 0 01-1.351 6.185 9.222 9.222 0 01-3.881 3.913 12.69 12.69 0 01-6.059 1.351h-7.888V42.627zm7.666 20.069a8.062 8.062 0 006.107-2.226c1.421-1.485 2.131-3.668 2.131-6.551 0-2.841-.705-4.988-2.115-6.442a8.1 8.1 0 00-6.091-2.18h-4.548v17.399h4.516zM244.532 42.628h3.149v22.741h-3.149zM262.28 42.15c1.54-.021 3.068.26 4.5.826a9.73 9.73 0 013.467 2.386 10.571 10.571 0 012.212 3.738c.528 1.573.785 3.223.762 4.882.023 1.66-.24 3.312-.778 4.883a10.909 10.909 0 01-2.211 3.737 9.682 9.682 0 01-3.45 2.401 12.448 12.448 0 01-9.002 0 9.695 9.695 0 01-3.451-2.401 10.881 10.881 0 01-2.21-3.737 14.43 14.43 0 01-.778-4.883 14.698 14.698 0 01.762-4.882 10.537 10.537 0 012.21-3.738 9.73 9.73 0 013.467-2.386 11.818 11.818 0 014.5-.826m0 20.961a7.468 7.468 0 004.103-1.097 7.047 7.047 0 002.638-3.148 11.84 11.84 0 00.923-4.883 11.727 11.727 0 00-.923-4.867 7.072 7.072 0 00-2.638-3.132 8.192 8.192 0 00-8.191 0 7.031 7.031 0 00-2.656 3.132 11.727 11.727 0 00-.923 4.867 11.836 11.836 0 00.923 4.883 7.024 7.024 0 002.656 3.148 7.49 7.49 0 004.088 1.097"/><g><path d="M42.107 120.435V85.533h9.014v27.233h15.831v7.669zM78.701 121.082a9.188 9.188 0 01-4.223-.908 6.417 6.417 0 01-2.696-2.552 7.902 7.902 0 01-.95-3.96 6.624 6.624 0 012.938-5.839c1.99-1.378 4.888-2.078 8.613-2.078a19.569 19.569 0 012.69.195l.396.057v-.797a4.037 4.037 0 00-1.244-3.252 5.914 5.914 0 00-3.883-1.03 14.072 14.072 0 00-4.211.615 14.36 14.36 0 00-3.309 1.534v-6.604a21.944 21.944 0 018.963-1.92c3.906 0 6.893.916 8.876 2.723 1.973 1.799 2.974 4.501 2.974 8.033v8.264c-.026.483.076.965.296 1.396.271.417.753.646 1.247.594.305.002.608-.047.897-.145v4.613a8.732 8.732 0 01-1.894.646 11.18 11.18 0 01-2.439.266c-2.8 0-4.638-.809-5.467-2.401l-.203-.392-.332.29a10.98 10.98 0 01-3.233 1.978 10.46 10.46 0 01-3.806.674zm4.38-11.351a5.286 5.286 0 00-3.062.711 2.653 2.653 0 00-1.069 2.325c0 1.248.526 2.736 3.036 2.736a4.692 4.692 0 003.382-1.495l.102-.102v-3.914l-.28-.056a10.816 10.816 0 00-2.109-.205zM115.122 120.435v-15.684c0-2.796-1.651-3.383-3.036-3.383a4.546 4.546 0 00-3.706 1.823l-.076.095v17.149h-8.616V95.191h7.319l.517 3.507.497-.594a9.226 9.226 0 017.301-3.56 7.821 7.821 0 016.259 2.493c1.43 1.669 2.156 4.163 2.156 7.415v15.982l-8.615.001zM141.06 121.082a16.25 16.25 0 01-7.433-1.555 10.614 10.614 0 01-4.607-4.511 15.167 15.167 0 01-1.602-7.228 14.81 14.81 0 01.971-5.474 11.56 11.56 0 012.803-4.181 12.507 12.507 0 014.385-2.663 16.997 16.997 0 015.782-.926c1.18-.005 2.357.118 3.51.366.996.217 1.971.521 2.914.91v6.905a9.491 9.491 0 00-2.169-.947 10.657 10.657 0 00-2.96-.411 6.575 6.575 0 00-4.8 1.693 6.368 6.368 0 00-1.72 4.728 6.504 6.504 0 001.693 4.749 6.296 6.296 0 004.678 1.722 12.51 12.51 0 003.124-.385 10.33 10.33 0 002.503-1.04v6.788a13.364 13.364 0 01-3.16 1.068 18.977 18.977 0 01-3.912.392zM159.281 121.082a9.174 9.174 0 01-4.222-.908 6.417 6.417 0 01-2.696-2.552 7.891 7.891 0 01-.95-3.96 6.625 6.625 0 012.937-5.839c1.992-1.378 4.889-2.078 8.615-2.078a19.593 19.593 0 012.689.195l.396.057v-.797a4.038 4.038 0 00-1.244-3.253 5.914 5.914 0 00-3.883-1.028 14.072 14.072 0 00-4.211.615 14.346 14.346 0 00-3.307 1.534v-6.604a21.939 21.939 0 018.962-1.92c3.907 0 6.894.916 8.878 2.723 1.973 1.798 2.972 4.5 2.972 8.033v8.264c-.027.484.076.966.298 1.396.271.415.751.644 1.244.594.305.002.608-.047.897-.145v4.613a8.732 8.732 0 01-1.894.646c-.8.178-1.618.267-2.438.266-2.801 0-4.64-.807-5.467-2.401l-.204-.392-.332.29a10.985 10.985 0 01-3.234 1.978 10.473 10.473 0 01-3.806.673zm4.38-11.351a5.31 5.31 0 00-3.062.71 2.658 2.658 0 00-1.069 2.327c0 1.248.526 2.736 3.036 2.736a4.686 4.686 0 003.382-1.495l.102-.102v-3.914l-.28-.056a10.817 10.817 0 00-2.109-.206zM188.306 121.082a22.874 22.874 0 01-8.615-1.628v-6.246a17.95 17.95 0 003.541 1.435 14.9 14.9 0 004.078.612 7.114 7.114 0 003.014-.484 1.774 1.774 0 001.117-1.655 1.608 1.608 0 00-1.026-1.537 11.837 11.837 0 00-2.18-.693 23.717 23.717 0 01-5.27-1.812 6.494 6.494 0 01-2.77-2.5 7.606 7.606 0 01-.852-3.763 7.305 7.305 0 011.328-4.4 8.576 8.576 0 013.808-2.846 15.998 15.998 0 016.017-1.02 21.966 21.966 0 014.509.465c1.312.27 2.589.69 3.807 1.249v6.139a11.961 11.961 0 00-3.139-1.415 14.412 14.412 0 00-4.031-.61 6.921 6.921 0 00-2.86.479 1.734 1.734 0 00-1.172 1.61c-.012.381.114.753.357 1.047.301.313.681.538 1.1.651.454.15 1.085.327 1.893.53a20.52 20.52 0 015.174 1.737 6.83 6.83 0 012.799 2.531 7.341 7.341 0 01.875 3.709 7.694 7.694 0 01-1.354 4.602 8.255 8.255 0 01-3.898 2.839 17.853 17.853 0 01-6.25.974zM219.071 120.435v-15.684c0-2.796-1.651-3.383-3.036-3.383a4.546 4.546 0 00-3.706 1.823l-.076.095v17.149h-8.616V84.039h8.616v13.724l.59-.579a8.895 8.895 0 016.428-2.64 7.821 7.821 0 016.259 2.493c1.43 1.669 2.156 4.163 2.156 7.415v15.982l-8.615.001zM232.811 120.435V95.191h8.616v25.244h-8.616zm4.283-28.775a5.369 5.369 0 01-3.583-1.088 4.347 4.347 0 010-6.094 5.379 5.379 0 013.583-1.085 5.46 5.46 0 013.633 1.087 4.346 4.346 0 010 6.093 5.465 5.465 0 01-3.633 1.087zM246.75 120.435V95.191h7.318l.701 4.855.501-.902c1.643-2.962 3.709-4.401 6.318-4.401a6.418 6.418 0 012.64.52v7.338a4.863 4.863 0 00-1.04-.377 7.819 7.819 0 00-1.848-.209 7.538 7.538 0 00-3.287.681 7.816 7.816 0 00-2.607 2.133l-.079.096v15.51h-8.617zM279.909 121.082a16.704 16.704 0 01-7.536-1.556 10.601 10.601 0 01-4.655-4.485 15.027 15.027 0 01-1.601-7.202c-.026-1.881.27-3.753.875-5.535a11.833 11.833 0 012.515-4.184 10.93 10.93 0 013.934-2.654 13.893 13.893 0 015.173-.923 12.013 12.013 0 016.171 1.495 9.46 9.46 0 013.818 4.351 17.234 17.234 0 011.313 7.101v1.842h-15.74l.061.399a5.464 5.464 0 002.141 3.946 8.985 8.985 0 005.023 1.129c1.393.013 2.783-.14 4.14-.457a16.935 16.935 0 003.229-1.171v6.322c-1.29.495-2.621.876-3.978 1.141a25.31 25.31 0 01-4.883.441zm-1.394-20.91c-2.347 0-3.769 1.557-4.227 4.627l-.06.399h8.05l-.033-.377a6.46 6.46 0 00-1.095-3.499 3.207 3.207 0 00-2.635-1.15z"/></g></g></svg>
