<svg xmlns="http://www.w3.org/2000/svg" viewBox="0 0 332 166" width="332" height="166"><path fill="#542582" d="M0 0h332v166H0z"/><g fill="#fff"><path d="M114.79 38.38H119v26.53h15.4v3.63h-19.61zM148.24 46.35a10.54 10.54 0 015.53 1.39 9.51 9.51 0 013.61 3.92 13.19 13.19 0 011.28 6 14.32 14.32 0 01-.73 4.73 10.44 10.44 0 01-2.11 3.6 9.28 9.28 0 01-3.29 2.3 11.74 11.74 0 01-8.57 0 9.192 9.192 0 01-3.29-2.3 10.29 10.29 0 01-2.11-3.6 14.322 14.322 0 01-.73-4.73 13.06 13.06 0 011.28-6 9.49 9.49 0 013.63-3.92 10.55 10.55 0 015.5-1.39zm0 19.49a5.76 5.76 0 003.4-1 6.22 6.22 0 002.17-2.84 11.381 11.381 0 00.76-4.35 11 11 0 00-.76-4.3 6.07 6.07 0 00-2.17-2.78 6.39 6.39 0 00-6.77 0 6 6 0 00-2.19 2.78 11 11 0 00-.76 4.3 11.381 11.381 0 00.76 4.35 6.22 6.22 0 002.17 2.85 5.75 5.75 0 003.39.99zM174 69.09a11.86 11.86 0 01-5.82-1.35 9.08 9.08 0 01-3.75-3.91 13.31 13.31 0 01-1.31-6.13 12.67 12.67 0 011.35-6 9.61 9.61 0 013.82-3.92 11.66 11.66 0 015.84-1.39 13.288 13.288 0 013.27.36 10.821 10.821 0 012.72 1.11v3.63a8.44 8.44 0 00-2.68-1.39 10.389 10.389 0 00-3.1-.46 7.26 7.26 0 00-3.84 1 6.2 6.2 0 00-2.44 2.76 10.11 10.11 0 00-.85 4.37 10.221 10.221 0 00.85 4.38 6.3 6.3 0 002.42 2.79 7.15 7.15 0 003.78 1 10.41 10.41 0 006.15-1.94v3.54a10.708 10.708 0 01-3 1.22 14 14 0 01-3.41.33zM191.88 69.09a7.55 7.55 0 01-5.19-1.65 5.85 5.85 0 01-1.85-4.6 5.71 5.71 0 012.49-5c1.65-1.15 4.06-1.72 7.21-1.72a16.649 16.649 0 011.94.08c.7.08 1.38.13 2 .21v-2.05a4.6 4.6 0 00-1.32-3.54 5.43 5.43 0 00-3.82-1.22 12 12 0 00-3.59.52 13.209 13.209 0 00-3.37 1.67v-3.54a14.27 14.27 0 013.6-1.44 15.702 15.702 0 013.78-.46 10.37 10.37 0 014.62.95 6.68 6.68 0 012.93 2.7 8.17 8.17 0 011 4.2v10.12a2 2 0 00.32 1.22 1.26 1.26 0 001.07.42 3.72 3.72 0 001.48-.33v2.74a3.68 3.68 0 01-1.18.44 7.207 7.207 0 01-1.48.15q-3.41 0-3.84-2.87a9.48 9.48 0 01-3.12 2.26 9.17 9.17 0 01-3.68.74zm-3-6.5q0 3.33 4 3.33a7.28 7.28 0 005.74-2.7v-4c-.56-.08-1.17-.15-1.81-.21s-1.28-.08-1.9-.08a9.11 9.11 0 00-4.56.88 3.07 3.07 0 00-1.43 2.78zM214.59 68.92a4.7 4.7 0 01-3.59-1.29 5.71 5.71 0 01-1.18-3.94V37.11h4v26.41a2.72 2.72 0 00.44 1.71 1.88 1.88 0 001.5.52 3.921 3.921 0 001.05-.15 6.092 6.092 0 001.1-.4v3a6.999 6.999 0 01-3.32.72zM36.23 120.45V82.56h14.63q6.47 0 10 2.52a8.32 8.32 0 013.55 7.23A8.49 8.49 0 0163.16 97a8.7 8.7 0 01-3.76 3.16 10.38 10.38 0 015.27 3.52 9.41 9.41 0 011.83 5.86 9.67 9.67 0 01-1.78 5.83 11.28 11.28 0 01-5.06 3.76 21.17 21.17 0 01-7.9 1.32zm7.9-22.31h6a7.32 7.32 0 004.69-1.3 4.38 4.38 0 001.62-3.63c0-3-2.11-4.5-6.31-4.5h-6zm0 16.17H51a9.7 9.7 0 005.46-1.3 4.26 4.26 0 001.91-3.74q0-5.19-7.26-5.19h-7zM72.86 120.45V82.56h14.63q6.47 0 10 2.52a8.34 8.34 0 013.55 7.23A8.57 8.57 0 0199.79 97a8.73 8.73 0 01-3.79 3.16 10.37 10.37 0 015.28 3.52 9.47 9.47 0 011.82 5.86 9.67 9.67 0 01-1.77 5.83 11.33 11.33 0 01-5.06 3.76 21.198 21.198 0 01-7.9 1.32zm7.9-22.31h6a7.32 7.32 0 004.69-1.3 4.37 4.37 0 001.61-3.63q0-4.5-6.3-4.5h-6zm0 16.17h6.89a9.72 9.72 0 005.46-1.3 4.26 4.26 0 001.89-3.74q0-5.19-7.27-5.19h-7zM126.77 121.25a23.002 23.002 0 01-8.11-1.35 16.45 16.45 0 01-6.09-3.9 16.87 16.87 0 01-3.82-6.23 24.44 24.44 0 01-1.32-8.29 22.83 22.83 0 011.38-8.14A17.14 17.14 0 01119 83.14a22.73 22.73 0 018.13-1.37 25.483 25.483 0 015.91.66 21.3 21.3 0 015.17 1.93v7.53a16.14 16.14 0 00-4.69-2.25 18.47 18.47 0 00-5.38-.77 13.64 13.64 0 00-6.6 1.48 10.09 10.09 0 00-4.19 4.29 14.77 14.77 0 00-1.45 6.84 15.26 15.26 0 001.4 6.86 9.76 9.76 0 004.11 4.32 13.23 13.23 0 006.46 1.49 19.63 19.63 0 0010.77-3.15v7.37a21.33 21.33 0 01-5.4 2.09 26.729 26.729 0 01-6.47.79zM157.88 120.45V82.56h13.83q7.48 0 11.48 3.13t4 9a11.24 11.24 0 01-1.78 6.42 11.43 11.43 0 01-5.06 4.08q2.39 3.77 4.72 7.55t4.66 7.76h-9.38q-3.81-7-7.89-13.78h-6.52v13.78zm8.06-20.19h5.3a10.09 10.09 0 005.76-1.35 4.81 4.81 0 002-4.27 4.9 4.9 0 00-2-4.32 10 10 0 00-5.7-1.35h-5.35zM200.91 121.14a9.2 9.2 0 01-6.47-2.14 7.74 7.74 0 01-2.33-6 7.41 7.41 0 013.21-6.44q3.21-2.25 9.25-2.25a14.79 14.79 0 011.83.08c.66.08 1.29.13 1.93.24v-1.22a4.69 4.69 0 00-1.33-3.68 6.28 6.28 0 00-4.24-1.22 14.42 14.42 0 00-8.53 2.65v-6.57a23 23 0 014.72-1.7 21.48 21.48 0 014.92-.58q5.84 0 8.93 2.89c2.07 1.93 3.11 4.67 3.11 8.24v10.28a2.5 2.5 0 00.31 1.41 1.35 1.35 0 001.17.45 3.912 3.912 0 00.79-.08 2.902 2.902 0 00.75-.29V120a9.44 9.44 0 01-2 .69 9.789 9.789 0 01-2.33.26c-3 0-4.93-1-5.67-3a11.921 11.921 0 01-3.65 2.39 11.5 11.5 0 01-4.37.8zm-1.17-8.8q0 3.24 3.71 3.24a6.38 6.38 0 004.88-2.28v-4.19q-.75-.15-1.56-.24c-.55-.05-1.09-.08-1.62-.08a7.76 7.76 0 00-4.08.85 3 3 0 00-1.33 2.7zM233.06 121.14a10.38 10.38 0 01-10-6.52 18.1 18.1 0 01-1.38-7.36 17.729 17.729 0 011.65-8 12.13 12.13 0 014.67-5.12 13.43 13.43 0 017.1-1.83 11.93 11.93 0 015.09 1.11V81H248v39.48h-6.73l-.37-3a9.71 9.71 0 01-7.84 3.71zm-3.39-14.2a10.12 10.12 0 001.4 5.83 4.75 4.75 0 004.16 2 6.32 6.32 0 002.65-.55 6.89 6.89 0 002.28-1.78V99.68a9.2 9.2 0 00-1.94-.77 7.84 7.84 0 00-2-.24 5.85 5.85 0 00-4.85 2.17 9.59 9.59 0 00-1.7 6.1zM258.87 80.81a4.8 4.8 0 013.34 1.09 3.8 3.8 0 011.22 3 3.74 3.74 0 01-1.22 2.94 5.66 5.66 0 01-6.68 0 3.73 3.73 0 01-1.21-2.94 3.8 3.8 0 011.21-3 4.83 4.83 0 013.34-1.09zM255 93h7.85v27.45H255zM282 92.31a14.32 14.32 0 017.31 1.78 12 12 0 014.75 5 16.42 16.42 0 011.67 7.63 17.28 17.28 0 01-1 5.93 13 13 0 01-2.75 4.56 12.13 12.13 0 01-4.35 2.92 16.57 16.57 0 01-11.34 0 12 12 0 01-4.35-2.92 12.8 12.8 0 01-2.75-4.56 17.28 17.28 0 01-1-5.93A16.42 16.42 0 01270 99.1a11.89 11.89 0 014.77-5 14.37 14.37 0 017.23-1.79zm0 22.53a4.86 4.86 0 004.24-2.15 10.36 10.36 0 001.48-6 10.18 10.18 0 00-1.51-6 5.24 5.24 0 00-8.42 0 10.18 10.18 0 00-1.52 6 10.36 10.36 0 001.49 6 4.85 4.85 0 004.24 2.15z"/></g></svg>
