<svg xmlns="http://www.w3.org/2000/svg" viewBox="0 0 332 166" width="332" height="166"><path fill="#542582" d="M0 0h332v166H0z"/><g fill="#FFF"><path d="M157.303 42.587c-.149-.026-.298-.052-.453-.074l-.183-.027a21.093 21.093 0 00-.78-.09 15.635 15.635 0 00-1.82-.063 16.234 16.234 0 00-1.748.128l-.162.022-.18.026-.224.035-.288.05c-.131.025-.262.052-.391.078a13.903 13.903 0 00-3.222 1.099 12.99 12.99 0 00-2.141 1.32c-.213.165-.417.333-.611.502-.179.16-.353.32-.517.483-.14.14-.281.282-.413.432a12.009 12.009 0 00-.806.991 13.64 13.64 0 00-.283.413 11.137 11.137 0 00-1.09 2.126 11.55 11.55 0 00-.665 2.624 11.79 11.79 0 00-.097 2.142c.011.183.025.364.048.545l.012.125a9.217 9.217 0 00.15.872c.037.172.078.342.123.51.06.218.121.431.191.641.087.258.179.506.279.75a12.073 12.073 0 00.88 1.703 11.774 11.774 0 001.659 2.077l.094.093c.146.138.301.289.481.442.121.104.248.213.389.322.128.101.26.206.403.307.169.123.346.247.536.367.202.128.412.258.635.383a12.704 12.704 0 002.755 1.141c.386.11.792.209 1.217.292a16.456 16.456 0 002.794.285l.273.003c.706 0 1.359-.026 1.965-.076l.117-.011a20.147 20.147 0 001.689-.225 17.059 17.059 0 001.963-.473c.214-.064.424-.134.62-.2l.192-.067c.094-.034.225-.082.376-.142.203-.078.446-.173.724-.292.166-.072.345-.153.529-.236.164-.075.335-.158.508-.243.074-.035.147-.071.221-.108v-4.306a5.644 5.644 0 01-.153.093l-.296.177a18.95 18.95 0 01-1.783.972c-.535.251-1.044.464-1.539.641-.832.3-1.689.529-2.56.684l-.267.044a12.71 12.71 0 01-1.434.139 9.442 9.442 0 01-.457.012c-.307 0-.62-.008-.941-.031a11.737 11.737 0 01-1.142-.134 10.478 10.478 0 01-1.861-.484 6.84 6.84 0 01-.27-.105c-.059-.022-.118-.048-.176-.071-.1-.044-.198-.087-.298-.134a8.77 8.77 0 01-.927-.505 5.964 5.964 0 01-.305-.202 6.513 6.513 0 01-.371-.271 8.85 8.85 0 01-.338-.278l-.143-.13-.071-.064-.041-.04-.053-.05a7.34 7.34 0 01-1.619-2.372 7.256 7.256 0 01-.372-1.121 7.87 7.87 0 01-.203-1.211 9.82 9.82 0 01-.039-.817c0-.079.003-.169.007-.273a7.996 7.996 0 01.347-2.096 8.37 8.37 0 01.162-.466c.04-.105.087-.211.134-.319.063-.147.132-.292.209-.439.056-.112.12-.222.184-.334a7.396 7.396 0 01.688-.99c.091-.109.187-.224.288-.331.052-.053.102-.11.155-.164a8.805 8.805 0 013.469-2.141 9.72 9.72 0 01.934-.261c.153-.037.305-.065.455-.094.168-.03.334-.056.499-.076.166-.023.331-.04.493-.053.315-.029.623-.041.923-.041h.298a14.922 14.922 0 011.089.06 13.96 13.96 0 012.262.404c.168.044.319.09.457.129a16.438 16.438 0 01.897.297c.211.075.419.158.623.241.273.109.533.228.785.341.209.094.406.191.592.282.155.075.297.151.434.221.234.121.434.232.597.32l.44.24v-4.23s-.266-.109-.721-.281c-.201-.075-.439-.166-.709-.26-.151-.053-.308-.112-.477-.168-.134-.045-.271-.094-.416-.14-.161-.052-.329-.108-.5-.158-.124-.037-.252-.078-.382-.114l-.115-.031c-.127-.037-.254-.072-.383-.108a24.516 24.516 0 00-1.28-.303c-.174-.038-.352-.069-.529-.101m-21.146-4.398h33.566v31.588h-33.566V38.19zM110.359 55.61v6.208h4.031l.211-.007a9.07 9.07 0 00.56-.034 6.847 6.847 0 001.573-.308c.513-.16.984-.435 1.376-.803.136-.136.257-.287.361-.449.243-.389.385-.833.413-1.291.01-.124.01-.198.01-.198s.001-.056-.001-.151a2.862 2.862 0 00-.083-.603 2.465 2.465 0 00-.625-1.123 3.156 3.156 0 00-.361-.312 3.762 3.762 0 00-.747-.421 5.65 5.65 0 00-1.213-.357 8.174 8.174 0 00-.716-.101 11.284 11.284 0 00-.89-.049l-3.899-.001M110.359 46.172v5.885h1.952s.13 0 .301-.006c.136-.004.296-.012.44-.02a8.047 8.047 0 001.512-.241c.108-.03.218-.064.325-.102a3.197 3.197 0 001.178-.701 2.4 2.4 0 00.541-.811c.114-.284.183-.583.206-.888.019-.203.018-.333.018-.333s.004-.097-.004-.251a2.741 2.741 0 00-.269-1.074 2.146 2.146 0 00-.413-.556 2.574 2.574 0 00-.772-.51 5.19 5.19 0 00-1.707-.374 8.829 8.829 0 00-.619-.019l-2.689.001z"/><path d="M106.285 42.62v22.75h8.563s4.176.115 6.482-2.192a5.688 5.688 0 00.149-8.043l-.01-.01a7.461 7.461 0 00-3.37-1.875 6.1 6.1 0 001.509-1.056 4.68 4.68 0 001.4-3.692c0-1.433-.58-2.805-1.607-3.804 0 0-1.759-2.079-5.733-2.079l-7.383.001zm-8.804-4.43h33.564v31.588H97.481V38.19zM71.683 55.61v6.208h4.03l.213-.007c.136-.005.328-.012.56-.034a6.847 6.847 0 001.573-.308c.513-.16.984-.435 1.376-.803.136-.136.257-.286.36-.449.244-.389.387-.833.414-1.291.009-.124.008-.198.008-.198s.003-.056 0-.151a2.862 2.862 0 00-.083-.603 2.465 2.465 0 00-.627-1.123 3.05 3.05 0 00-.36-.312 3.812 3.812 0 00-.747-.421 5.65 5.65 0 00-1.213-.357 8.174 8.174 0 00-.716-.101 11.284 11.284 0 00-.89-.049l-3.898-.001M71.683 46.172v5.885h1.952s.13 0 .301-.006c.135-.004.296-.012.44-.02a8.06 8.06 0 001.512-.241c.108-.03.217-.064.325-.102a3.197 3.197 0 001.178-.701 2.41 2.41 0 00.541-.811c.114-.284.183-.583.206-.888.019-.203.018-.333.018-.333s.004-.097-.004-.251a2.78 2.78 0 00-.269-1.074 2.146 2.146 0 00-.413-.556 2.574 2.574 0 00-.772-.51 5.196 5.196 0 00-1.708-.374 8.812 8.812 0 00-.619-.019l-2.688.001z"/><path d="M67.61 42.62v22.75h8.563s4.176.115 6.482-2.192a5.688 5.688 0 00.149-8.043l-.01-.01a7.461 7.461 0 00-3.37-1.875 6.1 6.1 0 001.509-1.056 4.688 4.688 0 001.399-3.692 5.306 5.306 0 00-1.606-3.804s-1.759-2.078-5.733-2.078H67.61zm-8.806-4.43h33.564v31.588H58.804V38.19zM177.901 65.368V42.627h7.348c2.904 0 5.119.583 6.646 1.749a5.977 5.977 0 012.29 5.057 6.118 6.118 0 01-1.241 3.881 7.044 7.044 0 01-3.531 2.322 204.684 204.684 0 016.139 9.732h-3.657a176.934 176.934 0 00-2.72-4.628 167.612 167.612 0 00-2.878-4.563c-.339.02-.7.031-1.081.031h-4.199v9.16h-3.116zm3.116-11.704h3.977a7.883 7.883 0 004.515-1.051 3.624 3.624 0 001.496-3.181c0-2.84-1.993-4.26-5.98-4.26h-4.008v8.492zM210.025 42.627a441.38 441.38 0 014.786 11.354 742.209 742.209 0 014.502 11.388h-3.373l-1.129-3.085a510.948 510.948 0 00-1.129-3.053h-10.687a344.015 344.015 0 00-2.258 6.139h-3.278a539.113 539.113 0 014.566-11.674 365.76 365.76 0 014.69-11.067l3.31-.002zm-6.011 13.93h8.651c-.723-1.844-1.444-3.668-2.163-5.471a1814.59 1814.59 0 00-2.162-5.374 556.97 556.97 0 00-2.196 5.407 403.99 403.99 0 00-2.13 5.438M221.729 42.627h7.921a12.847 12.847 0 016.042 1.32 9.116 9.116 0 013.865 3.833 12.82 12.82 0 011.351 6.139 13.116 13.116 0 01-1.351 6.185 9.227 9.227 0 01-3.881 3.913 12.69 12.69 0 01-6.059 1.351h-7.888V42.627zm7.666 20.069a8.058 8.058 0 006.106-2.226c1.421-1.485 2.131-3.668 2.131-6.551 0-2.841-.705-4.988-2.115-6.442a8.1 8.1 0 00-6.091-2.18h-4.548v17.399h4.517zM244.533 42.628h3.149v22.741h-3.149zM262.281 42.15c1.54-.021 3.068.26 4.5.826a9.73 9.73 0 013.467 2.386 10.571 10.571 0 012.212 3.738c.528 1.573.785 3.223.762 4.882a14.43 14.43 0 01-.779 4.883 10.909 10.909 0 01-2.211 3.737 9.677 9.677 0 01-3.451 2.401 12.448 12.448 0 01-9.002 0 9.695 9.695 0 01-3.451-2.401 10.881 10.881 0 01-2.21-3.737 14.43 14.43 0 01-.778-4.883 14.698 14.698 0 01.762-4.882 10.537 10.537 0 012.21-3.738 9.73 9.73 0 013.467-2.386 11.82 11.82 0 014.502-.826m.001 20.961a7.468 7.468 0 004.103-1.097 7.047 7.047 0 002.638-3.148 11.84 11.84 0 00.923-4.883 11.727 11.727 0 00-.923-4.867 7.072 7.072 0 00-2.638-3.132 8.192 8.192 0 00-8.191 0 7.031 7.031 0 00-2.656 3.132 11.727 11.727 0 00-.923 4.867 11.853 11.853 0 00.923 4.883 7.018 7.018 0 002.656 3.148 7.507 7.507 0 004.088 1.097"/><g><path d="M131.099 121.083a957.757 957.757 0 00-5.62-7.905c-1.918-2.667-3.9-5.37-5.946-8.11l-.104-.14h-2.438v16.155h-9.985V82.622h9.985v14.457h2.652l.104-.134a312.396 312.396 0 005.538-7.319c1.718-2.343 3.4-4.678 5.047-7.004h11.716a789.381 789.381 0 01-6.691 8.639 546.16 546.16 0 01-7.39 9.195l-.179.217.178.22a583.386 583.386 0 018.018 10.207c2.508 3.27 5.042 6.597 7.601 9.983h-12.486zM158.995 121.796a18.378 18.378 0 01-8.305-1.716 11.688 11.688 0 01-5.136-4.948 16.575 16.575 0 01-1.765-7.94 18.164 18.164 0 01.966-6.098 13.001 13.001 0 012.773-4.615 12.087 12.087 0 014.34-2.928 15.328 15.328 0 015.703-1.016 13.246 13.246 0 016.806 1.648 10.444 10.444 0 014.214 4.801 18.98 18.98 0 011.447 7.825v2.062h-17.307l.06.399a5.98 5.98 0 002.34 4.317 10.003 10.003 0 005.507 1.236c1.53.015 3.056-.154 4.546-.502a18.682 18.682 0 003.595-1.311v7.034a26.215 26.215 0 01-4.404 1.264c-1.773.337-3.575.5-5.38.488zm-1.534-23.002c-2.561 0-4.113 1.702-4.614 5.06l-.06.399h8.776l-.033-.377a7.052 7.052 0 00-1.198-3.828 3.489 3.489 0 00-2.871-1.254zM191.323 121.083v-17.286c0-3.048-1.798-3.689-3.305-3.689a4.965 4.965 0 00-4.05 1.994l-.076.095v18.885h-9.546V93.246h8.115l.562 3.809.497-.593a10.18 10.18 0 018.058-3.927c3.02 0 5.344.927 6.911 2.754 1.579 1.842 2.381 4.593 2.381 8.179v17.616h-9.547zM218.466 121.796c-3.322 0-5.866-.842-7.56-2.503-1.693-1.656-2.552-4.125-2.552-7.337v-11.081h-4.326v-7.191h4.326v-6.748l9.547-2.095v8.842h6.571v7.191h-6.571v9.712c0 2.449 1.313 3.743 3.797 3.743a9.217 9.217 0 003.322-.65v6.961a18.909 18.909 0 01-6.554 1.156z"/></g></g></svg>
