<svg xmlns="http://www.w3.org/2000/svg" viewBox="0 0 332 166" width="332" height="166"><path fill="#542582" d="M0 0h332v166H0z"/><g fill="#FFF"><path d="M157.467 42.587a13.9 13.9 0 00-.454-.074l-.181-.027a21.093 21.093 0 00-.78-.09 15.616 15.616 0 00-1.821-.063 16.204 16.204 0 00-1.744.128l-.164.022-.18.026-.222.035-.288.05c-.134.025-.264.052-.393.078a14.027 14.027 0 00-3.223 1.099 12.96 12.96 0 00-2.141 1.32 11.72 11.72 0 00-1.127.985 9.99 9.99 0 00-.415.432c-.132.15-.269.301-.397.461-.138.172-.277.348-.408.53-.097.135-.191.273-.283.413-.061.094-.121.191-.181.288a11.426 11.426 0 00-1.576 4.462 12.918 12.918 0 00-.109 1.607c0 .181.001.359.014.535.012.183.026.364.046.545l.013.125c.027.214.06.423.101.631.015.08.033.161.049.241a10.82 10.82 0 00.595 1.901c.157.378.334.747.53 1.106.113.206.228.405.346.597a13.15 13.15 0 00.695.991c.143.183.29.356.434.519.177.206.357.393.532.567l.094.093c.146.138.301.289.481.442.123.104.25.213.387.322a10.685 10.685 0 00.941.674c.2.128.41.258.634.383a12.884 12.884 0 002.755 1.141 14.846 14.846 0 003.432.555c.189.01.384.019.582.022.09 0 .181.003.274.003.705 0 1.358-.026 1.963-.076l.119-.011a19.242 19.242 0 002.265-.34 17.347 17.347 0 001.386-.358c.215-.064.424-.134.622-.2l.189-.067c.097-.034.225-.082.379-.142.2-.078.446-.173.723-.292a20.627 20.627 0 001.26-.587v-4.306a8.02 8.02 0 01-.156.093l-.293.177c-.296.18-.579.348-.864.503a17.358 17.358 0 01-2.46 1.11 15.44 15.44 0 01-2.828.728 12.879 12.879 0 01-1.436.139 9.314 9.314 0 01-.457.012c-.304 0-.62-.008-.939-.031a11.72 11.72 0 01-1.143-.134 10.457 10.457 0 01-2.132-.589c-.057-.022-.117-.048-.175-.071a10.007 10.007 0 01-.921-.456 7.45 7.45 0 01-.609-.385 8.083 8.083 0 01-.709-.549l-.143-.13-.069-.064-.044-.04-.052-.05a8.79 8.79 0 01-.532-.581 8.228 8.228 0 01-.258-.329 8.358 8.358 0 01-.221-.319 6.972 6.972 0 01-.608-1.143 7.726 7.726 0 01-.373-1.121 7.754 7.754 0 01-.204-1.211 8.706 8.706 0 01-.032-1.09 8.247 8.247 0 01.213-1.603c.038-.161.083-.323.135-.493.048-.153.104-.308.163-.466a7.294 7.294 0 01.525-1.092c.147-.253.309-.497.486-.731.065-.086.131-.175.203-.259.091-.109.187-.224.288-.331.05-.053.101-.11.154-.164a8.846 8.846 0 013.949-2.288c.15-.042.304-.08.454-.114.151-.037.305-.065.455-.094.166-.03.334-.056.498-.076.166-.023.331-.04.495-.053.315-.029.623-.041.923-.041h.3a15.138 15.138 0 011.088.06 13.19 13.19 0 011.42.209c.308.061.59.128.844.195.166.044.318.09.455.129.208.063.387.119.526.166l.371.131a18.45 18.45 0 011.407.582c.21.094.406.191.593.282.154.075.298.151.432.221.236.121.435.232.6.32l.439.24v-4.23s-.264-.109-.72-.281c-.203-.075-.44-.166-.712-.26-.149-.053-.307-.112-.476-.168-.133-.045-.271-.094-.416-.14-.161-.052-.327-.108-.5-.158-.124-.037-.252-.078-.382-.114l-.116-.031c-.124-.037-.252-.072-.382-.108-.153-.041-.308-.08-.468-.119a14.97 14.97 0 00-.812-.184c-.173-.038-.352-.069-.529-.101m-21.147-4.398h33.566v31.588h-33.566V38.19zM110.523 55.61v6.208h4.03l.213-.007c.136-.005.328-.012.56-.034a6.847 6.847 0 001.573-.308c.513-.16.984-.435 1.376-.803.136-.136.257-.286.36-.449.244-.389.387-.833.414-1.291.01-.124.008-.198.008-.198s.003-.056 0-.151a2.862 2.862 0 00-.083-.603 2.479 2.479 0 00-.627-1.123 3.146 3.146 0 00-.36-.312 3.812 3.812 0 00-.747-.421 5.707 5.707 0 00-1.213-.357 8.144 8.144 0 00-.717-.101 11.234 11.234 0 00-.891-.049l-3.896-.001M110.523 46.172v5.885h1.952s.13 0 .301-.006c.135-.004.296-.012.44-.02a8.06 8.06 0 001.512-.241c.108-.03.217-.064.323-.102a3.174 3.174 0 001.179-.701 2.41 2.41 0 00.541-.811c.113-.284.182-.583.206-.888.018-.203.018-.333.018-.333s.004-.097-.004-.251a2.799 2.799 0 00-.269-1.074 2.146 2.146 0 00-.413-.556 2.574 2.574 0 00-.772-.51 5.196 5.196 0 00-1.708-.374 8.829 8.829 0 00-.619-.019l-2.687.001z"/><path d="M106.449 42.62v22.75h8.563s4.177.115 6.482-2.192a5.684 5.684 0 00.153-8.038l-.014-.015a7.465 7.465 0 00-3.371-1.875 6.097 6.097 0 001.51-1.056 4.684 4.684 0 001.4-3.692c0-1.433-.58-2.805-1.607-3.804 0 0-1.76-2.079-5.734-2.079l-7.382.001zm-8.805-4.43h33.564v31.588H97.644V38.19zM71.848 55.61v6.208h4.03l.213-.007c.136-.005.328-.012.559-.034a6.884 6.884 0 001.575-.308 3.58 3.58 0 001.376-.803c.136-.136.257-.286.36-.449.244-.389.386-.833.413-1.291.011-.124.01-.198.01-.198s.003-.056 0-.151a2.998 2.998 0 00-.083-.603 2.508 2.508 0 00-.627-1.123 3.06 3.06 0 00-.361-.312 3.762 3.762 0 00-.747-.421 5.65 5.65 0 00-1.213-.357 8.12 8.12 0 00-.716-.101 11.157 11.157 0 00-.89-.049l-3.896-.001M71.848 46.172v5.885H73.8s.128 0 .301-.006c.135-.004.294-.012.439-.02a8.058 8.058 0 001.513-.241c.108-.03.217-.064.323-.102a3.209 3.209 0 001.179-.701c.234-.23.418-.507.54-.811.114-.284.184-.583.207-.888.018-.203.016-.333.016-.333a2.336 2.336 0 00-.004-.251 2.778 2.778 0 00-.267-1.074 2.115 2.115 0 00-.415-.556 2.534 2.534 0 00-.77-.51 5.222 5.222 0 00-1.708-.374 8.829 8.829 0 00-.619-.019l-2.687.001z"/><path d="M67.772 42.62v22.75h8.564s4.176.115 6.481-2.192a5.686 5.686 0 00.152-8.04l-.012-.013a7.465 7.465 0 00-3.371-1.875 6.1 6.1 0 001.509-1.056 4.678 4.678 0 001.401-3.692 5.3 5.3 0 00-1.607-3.803s-1.76-2.079-5.734-2.079h-7.383zm-8.804-4.43h33.564v31.588H58.968V38.19zM178.065 65.368V42.627h7.347c2.904 0 5.12.583 6.647 1.749a5.979 5.979 0 012.289 5.057 6.123 6.123 0 01-1.239 3.881 7.044 7.044 0 01-3.531 2.322c2.12 3.16 4.166 6.404 6.139 9.732h-3.658a185.783 185.783 0 00-2.72-4.628 167.612 167.612 0 00-2.878-4.563c-.34.02-.7.031-1.082.031h-4.198v9.16h-3.116zm3.117-11.704h3.975a7.89 7.89 0 004.517-1.051 3.624 3.624 0 001.494-3.181c0-2.84-1.993-4.26-5.979-4.26h-4.007v8.492zM210.188 42.627a434.469 434.469 0 014.788 11.354 763.143 763.143 0 014.5 11.388h-3.372c-.382-1.039-.758-2.067-1.129-3.085a418.623 418.623 0 00-1.129-3.054H203.16a322.12 322.12 0 00-2.259 6.139h-3.276a524.112 524.112 0 014.564-11.674 370.934 370.934 0 014.691-11.067h3.308zm-6.011 13.93h8.651a815.88 815.88 0 00-2.162-5.471c-.723-1.801-1.444-3.592-2.163-5.374a532.652 532.652 0 00-2.195 5.407 423.513 423.513 0 00-2.131 5.438M221.893 42.627h7.919a12.832 12.832 0 016.042 1.32 9.105 9.105 0 013.865 3.833 12.805 12.805 0 011.351 6.139 13.104 13.104 0 01-1.351 6.185 9.205 9.205 0 01-3.881 3.913 12.69 12.69 0 01-6.059 1.351h-7.887l.001-22.741zm7.665 20.069a8.05 8.05 0 006.106-2.226c1.421-1.485 2.131-3.668 2.132-6.551 0-2.841-.705-4.988-2.116-6.442a8.1 8.1 0 00-6.091-2.18h-4.548v17.399h4.517zM244.697 42.628h3.149v22.741h-3.149zM262.445 42.15c1.54-.021 3.069.26 4.501.826a9.73 9.73 0 013.467 2.386 10.56 10.56 0 012.21 3.738c.528 1.573.785 3.223.762 4.882.023 1.66-.24 3.312-.778 4.883a10.856 10.856 0 01-2.21 3.737 9.695 9.695 0 01-3.451 2.401 12.448 12.448 0 01-9.002 0 9.682 9.682 0 01-3.451-2.401 10.859 10.859 0 01-2.211-3.737 14.43 14.43 0 01-.778-4.883 14.699 14.699 0 01.763-4.882 10.537 10.537 0 012.21-3.738 9.708 9.708 0 013.467-2.386 11.807 11.807 0 014.501-.826m0 20.961a7.468 7.468 0 004.103-1.097 7.05 7.05 0 002.639-3.148 11.84 11.84 0 00.923-4.883 11.727 11.727 0 00-.923-4.867 7.074 7.074 0 00-2.639-3.132 8.192 8.192 0 00-8.191 0 7.02 7.02 0 00-2.654 3.132 11.727 11.727 0 00-.923 4.867 11.836 11.836 0 00.923 4.883 7.007 7.007 0 002.654 3.148 7.507 7.507 0 004.088 1.097"/><g><path d="M59.489 120.44V85.539h9.014v27.233h15.832v7.668zM102.255 121.088a16.704 16.704 0 01-7.536-1.556 10.604 10.604 0 01-4.656-4.485 15.027 15.027 0 01-1.601-7.202 16.505 16.505 0 01.876-5.535 11.816 11.816 0 012.514-4.184 10.973 10.973 0 013.934-2.654 13.897 13.897 0 015.173-.923 12 12 0 016.171 1.495 9.463 9.463 0 013.819 4.351 17.243 17.243 0 011.313 7.1v1.842H96.525l.06.399a5.456 5.456 0 002.141 3.946 9.097 9.097 0 005.022 1.129c1.393.013 2.783-.14 4.14-.457a16.923 16.923 0 003.23-1.172v6.323c-1.29.495-2.621.876-3.978 1.141-1.61.305-3.246.453-4.885.442zm-1.394-20.91c-2.347 0-3.769 1.557-4.226 4.628l-.06.399h8.049l-.033-.377a6.45 6.45 0 00-1.096-3.499 3.199 3.199 0 00-2.634-1.151zM116.686 120.44V95.197h8.616v25.244l-8.616-.001zm4.283-28.775a5.369 5.369 0 01-3.583-1.088 4.347 4.347 0 010-6.094 5.379 5.379 0 013.583-1.085 5.46 5.46 0 013.633 1.087 4.346 4.346 0 010 6.093 5.467 5.467 0 01-3.633 1.087zM143.236 121.088a16.25 16.25 0 01-7.433-1.555 10.62 10.62 0 01-4.607-4.511 15.167 15.167 0 01-1.602-7.228c-.024-1.87.306-3.727.971-5.474a11.563 11.563 0 012.804-4.181 12.46 12.46 0 014.385-2.663 16.994 16.994 0 015.782-.927c1.18-.005 2.357.118 3.51.366.996.217 1.971.522 2.914.91v6.905a9.491 9.491 0 00-2.169-.947 10.657 10.657 0 00-2.96-.411 6.575 6.575 0 00-4.8 1.693 6.358 6.358 0 00-1.721 4.728 6.494 6.494 0 001.694 4.749 6.287 6.287 0 004.678 1.722 12.507 12.507 0 003.123-.385 10.278 10.278 0 002.503-1.041v6.789a13.304 13.304 0 01-3.16 1.068 18.971 18.971 0 01-3.912.393zM167.153 121.088a16.704 16.704 0 01-7.536-1.556 10.601 10.601 0 01-4.655-4.485 15.027 15.027 0 01-1.601-7.202c-.026-1.881.27-3.753.875-5.535a11.833 11.833 0 012.515-4.184 10.93 10.93 0 013.934-2.654 13.897 13.897 0 015.173-.923 12.013 12.013 0 016.171 1.495 9.46 9.46 0 013.818 4.351 17.227 17.227 0 011.313 7.1v1.842h-15.739l.061.399a5.464 5.464 0 002.141 3.946 8.978 8.978 0 005.024 1.129c1.393.013 2.783-.14 4.14-.457a16.935 16.935 0 003.229-1.171v6.322c-1.29.495-2.621.876-3.978 1.141-1.61.305-3.246.453-4.885.442zm-1.393-20.91c-2.347 0-3.769 1.557-4.227 4.628l-.06.399h8.05l-.033-.377a6.457 6.457 0 00-1.095-3.499 3.202 3.202 0 00-2.635-1.151zM189.855 121.088a22.874 22.874 0 01-8.615-1.628v-6.246a17.95 17.95 0 003.541 1.435 14.9 14.9 0 004.078.612 7.114 7.114 0 003.014-.484 1.774 1.774 0 001.117-1.655 1.608 1.608 0 00-1.026-1.537 11.837 11.837 0 00-2.18-.693 23.717 23.717 0 01-5.27-1.812 6.494 6.494 0 01-2.77-2.5 7.606 7.606 0 01-.852-3.763 7.307 7.307 0 011.328-4.399 8.576 8.576 0 013.808-2.846 15.998 15.998 0 016.017-1.02 21.966 21.966 0 014.509.465c1.312.27 2.589.69 3.807 1.249v6.139a11.961 11.961 0 00-3.139-1.415 14.448 14.448 0 00-4.031-.61 6.921 6.921 0 00-2.86.479 1.733 1.733 0 00-1.172 1.61c-.012.381.114.753.357 1.047.301.313.681.538 1.1.651.454.151 1.085.327 1.892.531 1.794.346 3.534.93 5.174 1.736a6.826 6.826 0 012.799 2.532 7.341 7.341 0 01.875 3.709 7.694 7.694 0 01-1.354 4.602 8.255 8.255 0 01-3.898 2.839 17.866 17.866 0 01-6.249.972zM216.937 121.088c-3.012 0-5.317-.762-6.852-2.266-1.532-1.5-2.309-3.736-2.309-6.647v-10.104h-3.934v-6.475h3.934v-6.141l8.615-1.89v8.031h5.975v6.475h-5.975v8.86c0 2.246 1.205 3.434 3.484 3.434a8.401 8.401 0 002.989-.575v6.259a17.153 17.153 0 01-5.927 1.039zM239.35 121.088a16.704 16.704 0 01-7.536-1.556 10.601 10.601 0 01-4.655-4.485 15.027 15.027 0 01-1.601-7.202c-.026-1.881.27-3.753.875-5.535a11.833 11.833 0 012.515-4.184 10.93 10.93 0 013.934-2.654 13.897 13.897 0 015.173-.923 12.013 12.013 0 016.171 1.495 9.46 9.46 0 013.818 4.351 17.227 17.227 0 011.313 7.1v1.842h-15.74l.061.399a5.464 5.464 0 002.141 3.946 8.985 8.985 0 005.023 1.129c1.393.013 2.783-.14 4.14-.457a16.935 16.935 0 003.229-1.171v6.322c-1.29.495-2.621.876-3.978 1.141a25.304 25.304 0 01-4.883.442zm-1.393-20.91c-2.347 0-3.769 1.557-4.227 4.628l-.06.399h8.05l-.033-.377a6.46 6.46 0 00-1.095-3.499 3.203 3.203 0 00-2.635-1.151zM253.895 120.44V95.197h7.318l.701 4.855.501-.902c1.643-2.962 3.709-4.401 6.318-4.401a6.42 6.42 0 012.64.52v7.338a4.863 4.863 0 00-1.04-.377 7.871 7.871 0 00-1.848-.209 7.538 7.538 0 00-3.287.681 7.816 7.816 0 00-2.607 2.133l-.079.096v15.51l-8.617-.001z"/></g></g></svg>
