<svg xmlns="http://www.w3.org/2000/svg" viewBox="0 0 332 166" width="332" height="166"><path fill="#542582" d="M0 0h332v166H0z"/><g fill="#FFF"><path d="M157.303 42.585c-.148-.026-.3-.05-.454-.074l-.181-.026a16.408 16.408 0 00-.779-.09c-.179-.018-.359-.029-.535-.04a14.932 14.932 0 00-1.287-.025 17.872 17.872 0 00-1.744.128l-.163.023-.18.026-.222.035c-.097.015-.194.033-.288.05-.133.023-.263.05-.392.076-.754.159-1.494.379-2.213.659a12.938 12.938 0 00-1.779.85 12.801 12.801 0 00-1.062.683 11.07 11.07 0 00-.919.731c-.18.158-.356.319-.518.481-.139.142-.281.282-.415.432a11.126 11.126 0 00-1.086 1.405 11.26 11.26 0 00-1.091 2.127 11.47 11.47 0 00-.668 2.623 13.006 13.006 0 00-.109 1.608c0 .18.002.357.014.534.012.184.026.364.047.544l.014.127c.029.213.06.423.101.63.015.081.033.162.049.243a10.326 10.326 0 00.314 1.149 11.31 11.31 0 00.811 1.858 10.623 10.623 0 00.641 1.039c.131.191.269.374.401.548.143.183.29.354.433.52.179.206.357.394.532.567l.094.093c.144.138.301.287.481.44.123.104.25.214.387.323a11.181 11.181 0 00.941.674c.2.128.412.258.635.383a12.704 12.704 0 002.754 1.139 14.072 14.072 0 002.289.458 16.04 16.04 0 001.724.118c.09.001.181.004.274.004.705 0 1.358-.027 1.963-.078l.118-.011c.241-.02.473-.046.699-.075.347-.042.676-.092.988-.15.199-.034.39-.074.577-.113.289-.063.563-.13.827-.198.193-.052.381-.108.56-.161.215-.064.424-.134.622-.202l.189-.067c.097-.034.226-.08.379-.139.2-.079.446-.176.723-.294.165-.071.345-.153.529-.236.163-.075.337-.157.51-.243.074-.035.146-.069.219-.108V59.28a7.698 7.698 0 01-.152.093l-.294.179a18.261 18.261 0 01-1.786.971c-.533.252-1.042.464-1.538.641a15.44 15.44 0 01-2.828.728 11.894 11.894 0 01-1.892.151c-.304 0-.62-.008-.939-.03a13.07 13.07 0 01-1.142-.133 10.63 10.63 0 01-1.859-.484 10.882 10.882 0 01-.271-.105l-.175-.072a8.017 8.017 0 01-.923-.454 7.45 7.45 0 01-.608-.383 7.748 7.748 0 01-.711-.552l-.142-.127-.071-.065-.042-.041-.052-.05a7.724 7.724 0 01-1.012-1.229c-.067-.099-.128-.204-.187-.304a7.243 7.243 0 01-.794-1.958 8.013 8.013 0 01-.232-1.586 9.685 9.685 0 01-.006-.716 8.07 8.07 0 01.349-2.096 7.403 7.403 0 01.503-1.224c.057-.112.12-.221.184-.333a7.304 7.304 0 01.688-.991c.092-.109.187-.224.288-.33.05-.054.102-.112.156-.165a8.874 8.874 0 013.028-1.98c.148-.058.292-.109.44-.161.159-.053.322-.102.48-.147a9.15 9.15 0 01.909-.205c.166-.031.334-.056.498-.079.166-.023.331-.038.496-.053.314-.029.623-.041.922-.041.102 0 .2-.001.3.001.222.007.44.012.654.026.147.011.29.02.433.034a14.099 14.099 0 012.264.403c.166.045.318.09.455.131a13.763 13.763 0 01.897.297c.213.075.418.158.622.24.274.109.536.229.785.342.21.093.406.191.593.282.154.074.297.15.432.22.236.123.435.233.6.32l.439.24v-4.23s-.264-.109-.72-.281c-.203-.076-.439-.166-.712-.262-.149-.053-.307-.111-.476-.168-.133-.044-.27-.093-.416-.14-.161-.05-.327-.106-.5-.158-.124-.037-.252-.076-.38-.113l-.116-.033a14.26 14.26 0 00-.383-.106 15.074 15.074 0 00-.466-.12c-.102-.026-.203-.049-.305-.074a23.931 23.931 0 00-1.038-.211m-21.149-4.399h33.566v31.588h-33.566V38.19zM110.36 55.609v6.209h4.03l.213-.007c.136-.006.328-.012.561-.033a6.913 6.913 0 001.573-.309 3.53 3.53 0 001.376-.803c.136-.136.257-.286.36-.449.244-.389.387-.833.414-1.291.01-.124.008-.196.008-.196s.003-.056 0-.153a2.834 2.834 0 00-.083-.601 2.478 2.478 0 00-.628-1.124 3.265 3.265 0 00-.36-.314 3.841 3.841 0 00-.747-.421 5.886 5.886 0 00-1.213-.357 8.97 8.97 0 00-1.181-.135 7.488 7.488 0 00-.427-.014l-3.896-.002M110.36 46.172v5.884h1.952s.13 0 .301-.006c.135-.003.296-.012.44-.019a7.891 7.891 0 001.512-.243c.107-.03.217-.064.323-.101a3.19 3.19 0 001.179-.702c.234-.23.418-.506.542-.81.113-.284.182-.584.206-.889.018-.203.018-.333.018-.333s.004-.097-.004-.251a2.803 2.803 0 00-.269-1.074 2.186 2.186 0 00-.413-.556 2.557 2.557 0 00-.771-.508 5.198 5.198 0 00-1.708-.375 9.427 9.427 0 00-.619-.018l-2.689.001z"/><path d="M106.286 42.618v22.751h8.564s4.176.116 6.481-2.191a5.687 5.687 0 00.153-8.04l-.014-.014a7.465 7.465 0 00-3.371-1.875 6.074 6.074 0 001.51-1.057 4.676 4.676 0 001.4-3.69 5.295 5.295 0 00-1.607-3.803s-1.76-2.082-5.734-2.082l-7.382.001zM97.48 38.19h33.565v31.588H97.48V38.19zM71.684 55.609v6.209h4.03l.211-.007c.138-.006.33-.012.56-.033a6.867 6.867 0 001.574-.309 3.53 3.53 0 001.376-.803c.136-.136.256-.287.36-.449.244-.389.386-.833.413-1.291.006-.065.009-.131.009-.196 0 0 .002-.056 0-.153a2.969 2.969 0 00-.083-.601 2.492 2.492 0 00-.628-1.124 3.275 3.275 0 00-.361-.314 3.841 3.841 0 00-.747-.421 5.765 5.765 0 00-1.213-.357 8.945 8.945 0 00-1.181-.135 7.387 7.387 0 00-.425-.014l-3.895-.002M71.684 46.172v5.884h1.952s.128 0 .301-.006c.135-.003.295-.012.439-.019a7.901 7.901 0 001.513-.243c.107-.03.217-.064.323-.101a3.19 3.19 0 001.179-.702c.234-.23.418-.506.54-.81.114-.284.184-.584.207-.889.018-.203.016-.333.016-.333a2.336 2.336 0 00-.004-.251 2.741 2.741 0 00-.269-1.074 2.107 2.107 0 00-.413-.556 2.526 2.526 0 00-.771-.508 5.192 5.192 0 00-1.707-.375 9.427 9.427 0 00-.619-.018l-2.687.001z"/><path d="M67.609 42.618v22.751h8.564s4.176.116 6.481-2.191a5.685 5.685 0 00.155-8.039l-.015-.015a7.463 7.463 0 00-3.372-1.875 6.125 6.125 0 001.511-1.057 4.68 4.68 0 001.4-3.69 5.295 5.295 0 00-1.607-3.803s-1.76-2.082-5.734-2.082l-7.383.001zm-8.805-4.428h33.565v31.588H58.804V38.19zM177.902 65.367V42.626h7.347c2.904 0 5.12.583 6.647 1.75a5.971 5.971 0 012.289 5.055 6.118 6.118 0 01-1.24 3.881 7.04 7.04 0 01-3.531 2.322c2.12 3.16 4.166 6.404 6.139 9.733h-3.658a170.098 170.098 0 00-5.598-9.191c-.34.02-.7.031-1.082.031h-4.197v9.16h-3.116zm3.116-11.704h3.975a7.89 7.89 0 004.517-1.051 3.622 3.622 0 001.494-3.18c0-2.84-1.993-4.26-5.979-4.26h-4.007v8.491zM210.024 42.626a434.469 434.469 0 014.788 11.354 763.143 763.143 0 014.5 11.388h-3.372c-.381-1.039-.758-2.067-1.129-3.085a402.107 402.107 0 00-1.129-3.054h-10.686a322.12 322.12 0 00-2.259 6.139h-3.276a524.078 524.078 0 014.565-11.674 370.934 370.934 0 014.691-11.067h3.307zm-6.01 13.93h8.651a815.88 815.88 0 00-2.162-5.471c-.722-1.801-1.443-3.592-2.163-5.374a532.652 532.652 0 00-2.195 5.407 391.077 391.077 0 00-2.131 5.438M221.73 42.626h7.919a12.832 12.832 0 016.042 1.32 9.113 9.113 0 013.865 3.834 12.805 12.805 0 011.351 6.139 13.11 13.11 0 01-1.351 6.186 9.205 9.205 0 01-3.881 3.913 12.69 12.69 0 01-6.059 1.351h-7.887V42.626zm7.665 20.069a8.048 8.048 0 006.105-2.226c1.421-1.485 2.132-3.668 2.133-6.551 0-2.841-.705-4.988-2.116-6.442a8.1 8.1 0 00-6.091-2.18h-4.548v17.399h4.517zM244.535 42.626h3.149v22.741h-3.149zM262.281 42.149c1.54-.021 3.069.26 4.501.826a9.73 9.73 0 013.467 2.386 10.56 10.56 0 012.21 3.738c.528 1.573.785 3.223.762 4.882a14.43 14.43 0 01-.779 4.883 10.856 10.856 0 01-2.21 3.737 9.682 9.682 0 01-3.45 2.401 12.448 12.448 0 01-9.002 0 9.67 9.67 0 01-3.45-2.401 10.859 10.859 0 01-2.211-3.737 14.455 14.455 0 01-.779-4.883 14.67 14.67 0 01.764-4.882 10.537 10.537 0 012.21-3.738 9.708 9.708 0 013.467-2.386 11.802 11.802 0 014.5-.826m.002 20.96a7.468 7.468 0 004.103-1.097 7.05 7.05 0 002.639-3.148 11.84 11.84 0 00.923-4.883 11.727 11.727 0 00-.923-4.867 7.074 7.074 0 00-2.639-3.132 8.19 8.19 0 00-8.19 0 7.015 7.015 0 00-2.654 3.132 11.73 11.73 0 00-.923 4.867 11.836 11.836 0 00.923 4.883 7.002 7.002 0 002.654 3.148 7.485 7.485 0 004.087 1.097"/><g><path d="M89.49 120.983V82.52h15.645c3.61-.098 7.19.678 10.435 2.261a15.43 15.43 0 016.59 6.509 21.882 21.882 0 012.287 10.38 22.16 22.16 0 01-2.287 10.46 15.551 15.551 0 01-6.593 6.566 22.305 22.305 0 01-10.489 2.287H89.49zm9.985-8.397h5.112c3.085 0 5.468-.952 7.081-2.831 1.599-1.865 2.409-4.584 2.409-8.084 0-3.465-.802-6.15-2.382-7.977-1.594-1.841-3.968-2.776-7.054-2.776h-5.166v21.668zM143.686 121.694a18.373 18.373 0 01-8.307-1.716 11.672 11.672 0 01-5.136-4.948 16.557 16.557 0 01-1.765-7.939 18.121 18.121 0 01.967-6.099 13.058 13.058 0 012.771-4.615 12.121 12.121 0 014.34-2.928 15.357 15.357 0 015.705-1.015 13.234 13.234 0 016.805 1.647 10.449 10.449 0 014.215 4.802 18.98 18.98 0 011.447 7.825v2.062h-17.306l.06.399a5.97 5.97 0 002.339 4.315 9.853 9.853 0 005.507 1.236c1.53.016 3.056-.152 4.546-.501a18.78 18.78 0 003.596-1.31v7.034c-1.429.547-2.902.97-4.404 1.263a27.651 27.651 0 01-5.38.488zm-1.535-23c-2.56 0-4.112 1.702-4.614 5.06l-.06.399h8.777l-.033-.377a7.043 7.043 0 00-1.199-3.828 3.484 3.484 0 00-2.871-1.254zM159.64 120.983V93.145h8.113l.765 5.268.499-.902c1.812-3.27 4.094-4.859 6.978-4.859a7.072 7.072 0 012.939.585v8.15a5.34 5.34 0 00-1.184-.44 8.82 8.82 0 00-2.028-.227 8.27 8.27 0 00-3.602.745 8.578 8.578 0 00-2.856 2.339l-.079.096v17.082l-9.545.001zM194.779 121.694a26.846 26.846 0 01-5.679-.621 34.206 34.206 0 01-5.858-1.891V80.879h9.545v14.943l.602-.652a8.428 8.428 0 012.841-2.053 8.966 8.966 0 013.587-.682 10.11 10.11 0 015.88 1.719 11.112 11.112 0 013.849 4.861 18.93 18.93 0 011.369 7.529 16.877 16.877 0 01-1.872 8.265 12.28 12.28 0 01-5.436 5.114 19.953 19.953 0 01-8.828 1.771zm1.97-21.687a4.868 4.868 0 00-3.88 1.822l-.081.098v11.716l.243.077c.903.275 1.844.41 2.788.399a4.757 4.757 0 004.059-1.921 8.776 8.776 0 001.381-5.272 9.771 9.771 0 00-1.091-5.083 3.785 3.785 0 00-3.419-1.836zM218.436 134.072a15.62 15.62 0 01-5.896-.923v-7.109c.268.107.541.199.819.277a14.36 14.36 0 001.654.368c.534.088 1.074.135 1.616.14a7.649 7.649 0 003.016-.497 4.232 4.232 0 001.846-1.517 10.91 10.91 0 001.16-2.378c.073-.22.152-.429.24-.64.095-.228.18-.455.256-.68l.041-.122-.049-.119a638.768 638.768 0 01-5.498-14.122 689.414 689.414 0 01-4.957-13.604h9.971c.748 3.017 1.52 6.016 2.318 8.997a573.833 573.833 0 002.549 9.206l.334 1.168.334-1.168c.87-3.039 1.708-6.137 2.493-9.21a315.772 315.772 0 002.161-8.993h9.692a629.23 629.23 0 01-3.477 9.664 909.487 909.487 0 01-2.053 5.473 2862.307 2862.307 0 01-3.78 9.913 768.829 768.829 0 01-1.423 3.665 90.733 90.733 0 01-.926 2.291 31.556 31.556 0 01-2.436 4.74 12.723 12.723 0 01-2.662 3.038 9.126 9.126 0 01-3.192 1.636 15.419 15.419 0 01-4.151.506z"/></g></g></svg>
