<svg xmlns="http://www.w3.org/2000/svg" viewBox="0 0 332 166" width="332" height="166"><path fill="#542582" d="M0 0h332v166H0z"/><g fill="#FFF"><path d="M157.306 42.585c-.147-.026-.297-.05-.453-.074l-.18-.026a16.492 16.492 0 00-4.348-.027l-.164.023-.18.026-.222.035c-.097.015-.194.033-.288.05-.134.023-.263.05-.393.076-.754.159-1.494.379-2.213.659a13.106 13.106 0 00-2.469 1.275c-.126.086-.252.17-.372.258a11.07 11.07 0 00-.918.731c-.18.158-.356.319-.518.481-.139.142-.281.282-.413.432a11.33 11.33 0 00-1.089 1.405c-.063.094-.123.191-.183.288a11.416 11.416 0 00-1.575 4.462 11.838 11.838 0 00-.097 2.142c.012.184.026.364.048.544l.012.127c.029.213.06.423.102.63a9.742 9.742 0 00.171.753 10.778 10.778 0 00.472 1.39 11.699 11.699 0 00.878 1.703c.096.153.194.3.295.443a11.586 11.586 0 00.833 1.068c.179.206.359.394.532.567l.094.093c.144.138.303.287.481.44.123.104.25.214.389.323a10.262 10.262 0 00.939.674c.2.128.412.258.635.383a12.704 12.704 0 002.754 1.139c.387.112.792.209 1.22.292.342.067.701.123 1.069.166a17.42 17.42 0 001.724.118c.09.001.181.004.274.004.705 0 1.358-.027 1.962-.078l.12-.011c.241-.02.473-.046.7-.075.346-.042.676-.092.99-.15.198-.034.39-.074.575-.113.289-.063.563-.13.826-.198.192-.052.38-.108.56-.161.215-.064.424-.134.622-.202l.191-.067c.095-.034.225-.08.378-.139.2-.079.446-.176.723-.294.165-.071.345-.153.529-.236.164-.075.337-.157.51-.243.074-.035.146-.069.219-.108V59.28a5.644 5.644 0 01-.153.093l-.294.179c-.296.179-.579.346-.866.502a17.406 17.406 0 01-2.456 1.11c-.833.301-1.69.53-2.562.684l-.267.044a11.912 11.912 0 01-1.891.151c-.305 0-.62-.008-.941-.03a13.138 13.138 0 01-1.143-.133 10.63 10.63 0 01-1.859-.484c-.09-.034-.181-.069-.271-.105l-.175-.072a8.812 8.812 0 01-.3-.132 8.195 8.195 0 01-1.942-1.257l-.142-.127-.071-.065-.042-.041-.053-.05a8.094 8.094 0 01-.788-.91 5.736 5.736 0 01-.222-.319 7.537 7.537 0 01-.846-1.785 8.013 8.013 0 01-.366-2.063 9.685 9.685 0 01-.006-.716 8.07 8.07 0 01.348-2.096 7.403 7.403 0 01.688-1.557c.145-.254.306-.499.483-.732.067-.086.133-.173.206-.259.09-.109.185-.224.286-.33.052-.054.102-.112.156-.165a8.874 8.874 0 013.028-1.98c.149-.058.292-.109.44-.161.16-.053.322-.102.48-.147a13.1 13.1 0 01.454-.114 11.437 11.437 0 01.953-.17c.168-.023.333-.038.496-.053.314-.029.623-.041.923-.041.101 0 .199-.001.298.001.222.007.44.012.654.026.147.011.292.02.434.034a14.217 14.217 0 011.418.208c.311.061.593.131.845.195a19.11 19.11 0 01.981.296c.239.083.369.132.369.132.214.075.42.158.624.24.273.109.534.229.785.342.208.093.406.191.592.282.155.074.297.15.434.22.234.123.434.233.597.32l.439.24v-4.23s-.263-.109-.72-.281c-.201-.076-.439-.166-.709-.262-.151-.053-.308-.111-.477-.168-.134-.044-.271-.093-.416-.14-.161-.05-.327-.106-.5-.158-.124-.037-.252-.076-.38-.113l-.116-.033a15.294 15.294 0 00-.382-.106c-.154-.042-.31-.082-.468-.12-.101-.026-.203-.049-.307-.074a23.735 23.735 0 00-1.037-.211m-21.14-4.399h33.566v31.588h-33.566V38.19zM110.364 55.609v6.209h4.03l.213-.007c.136-.006.328-.012.559-.033a6.867 6.867 0 001.574-.309 3.53 3.53 0 001.376-.803c.136-.136.257-.286.36-.449.244-.389.386-.833.414-1.291.01-.124.008-.196.008-.196s.003-.056 0-.153a2.834 2.834 0 00-.083-.601 2.49 2.49 0 00-.627-1.124 3.077 3.077 0 00-.361-.314 3.804 3.804 0 00-.746-.421 5.886 5.886 0 00-1.213-.357 9.036 9.036 0 00-1.181-.135 7.488 7.488 0 00-.427-.014c-1.429 0-3.895-.003-3.896-.002M110.364 46.172v5.884h1.952s.13 0 .301-.006c.135-.003.296-.012.439-.019a7.901 7.901 0 001.513-.243c.108-.03.217-.064.323-.101a3.203 3.203 0 001.179-.702c.234-.23.417-.506.54-.81.114-.284.184-.584.207-.889.018-.203.016-.333.016-.333s.006-.097-.003-.251a2.803 2.803 0 00-.269-1.074 2.167 2.167 0 00-.414-.556 2.54 2.54 0 00-.77-.508 5.198 5.198 0 00-1.708-.375 9.427 9.427 0 00-.619-.018l-2.687.001z"/><path d="M106.291 42.618v22.751h8.563s4.174.116 6.481-2.191a5.687 5.687 0 00.152-8.041l-.013-.014a7.461 7.461 0 00-3.37-1.875 6.077 6.077 0 001.509-1.057 4.673 4.673 0 001.4-3.69 5.296 5.296 0 00-1.606-3.803s-1.76-2.082-5.734-2.082l-7.382.002zm-8.806-4.428h33.565v31.588H97.485V38.19zM71.688 55.609v6.209h4.03l.211-.007c.138-.006.33-.012.56-.033a6.94 6.94 0 001.575-.309 3.53 3.53 0 001.376-.803c.136-.136.256-.287.36-.449.244-.389.386-.833.413-1.291.01-.124.01-.196.01-.196s.002-.056 0-.153a3.041 3.041 0 00-.083-.601 2.505 2.505 0 00-.627-1.124 3.275 3.275 0 00-.361-.314 3.841 3.841 0 00-.747-.421 5.765 5.765 0 00-1.213-.357 8.945 8.945 0 00-1.181-.135 7.387 7.387 0 00-.425-.014c-1.431 0-3.897-.003-3.898-.002M71.688 46.172v5.884h1.952s.128 0 .301-.006c.135-.003.294-.012.439-.019a7.901 7.901 0 001.513-.243c.108-.03.217-.064.323-.101a3.203 3.203 0 001.179-.702c.234-.23.417-.506.54-.81.113-.284.183-.584.207-.889.018-.203.016-.333.016-.333a2.336 2.336 0 00-.004-.251 2.741 2.741 0 00-.269-1.074 2.107 2.107 0 00-.413-.556 2.526 2.526 0 00-.771-.508 5.192 5.192 0 00-1.707-.375 9.427 9.427 0 00-.619-.018l-2.687.001z"/><path d="M67.613 42.618v22.751h8.564s4.176.116 6.482-2.191a5.687 5.687 0 00.153-8.041l-.013-.013a7.465 7.465 0 00-3.371-1.875 6.1 6.1 0 001.51-1.057 4.676 4.676 0 001.4-3.69 5.295 5.295 0 00-1.607-3.803s-1.76-2.082-5.734-2.082l-7.384.001zm-8.805-4.428h33.565v31.588H58.808V38.19zM177.906 65.367V42.626h7.347c2.904 0 5.12.583 6.647 1.75a5.971 5.971 0 012.289 5.055 6.123 6.123 0 01-1.239 3.881 7.04 7.04 0 01-3.531 2.322c2.12 3.16 4.166 6.404 6.139 9.733H191.9a170.098 170.098 0 00-5.598-9.191c-.339.02-.7.031-1.082.031h-4.197v9.16h-3.117zm3.117-11.704h3.975a7.89 7.89 0 004.517-1.051 3.622 3.622 0 001.494-3.18c0-2.84-1.993-4.26-5.979-4.26h-4.007v8.491zM210.029 42.626a434.469 434.469 0 014.788 11.354 742.068 742.068 0 014.5 11.388h-3.372c-.382-1.039-.758-2.067-1.129-3.085a402.107 402.107 0 00-1.129-3.054H203a322.12 322.12 0 00-2.259 6.139h-3.276a529.042 529.042 0 014.564-11.674 370.934 370.934 0 014.691-11.067h3.309zm-6.011 13.93h8.651a815.88 815.88 0 00-2.162-5.471c-.723-1.801-1.444-3.592-2.163-5.374a532.652 532.652 0 00-2.195 5.407 423.513 423.513 0 00-2.131 5.438M221.734 42.626h7.919a12.832 12.832 0 016.042 1.32 9.107 9.107 0 013.865 3.834 12.805 12.805 0 011.351 6.139 13.11 13.11 0 01-1.351 6.186 9.21 9.21 0 01-3.881 3.913 12.69 12.69 0 01-6.059 1.351h-7.887V42.626zm7.665 20.069a8.05 8.05 0 006.106-2.226c1.421-1.485 2.131-3.668 2.132-6.551 0-2.841-.705-4.988-2.116-6.442a8.1 8.1 0 00-6.091-2.18h-4.548v17.399h4.517zM244.539 42.626h3.149v22.741h-3.149zM262.286 42.149c1.54-.021 3.069.26 4.501.826a9.73 9.73 0 013.467 2.386 10.56 10.56 0 012.21 3.738c.528 1.573.785 3.223.762 4.882.023 1.66-.24 3.312-.778 4.883a10.856 10.856 0 01-2.21 3.737 9.686 9.686 0 01-3.451 2.401 12.448 12.448 0 01-9.002 0 9.682 9.682 0 01-3.451-2.401 10.859 10.859 0 01-2.211-3.737 14.43 14.43 0 01-.778-4.883c-.023-1.659.235-3.31.763-4.882a10.537 10.537 0 012.21-3.738 9.708 9.708 0 013.467-2.386 11.807 11.807 0 014.501-.826m0 20.96a7.468 7.468 0 004.103-1.097 7.05 7.05 0 002.639-3.148 11.84 11.84 0 00.923-4.883 11.727 11.727 0 00-.923-4.867 7.074 7.074 0 00-2.639-3.132 8.192 8.192 0 00-8.191 0 7.02 7.02 0 00-2.654 3.132 11.73 11.73 0 00-.923 4.867 11.836 11.836 0 00.923 4.883 7.007 7.007 0 002.654 3.148 7.49 7.49 0 004.088 1.097"/><g><path d="M86.351 121.108a22.42 22.42 0 01-7.722-1.247 15.835 15.835 0 01-5.749-3.581 15.438 15.438 0 01-3.603-5.722 22.279 22.279 0 01-1.248-7.672 20.283 20.283 0 011.32-7.464 16.189 16.189 0 013.777-5.728 16.953 16.953 0 015.905-3.683 21.918 21.918 0 017.718-1.297 23.05 23.05 0 019.959 2.061v7.91a15.555 15.555 0 00-3.712-1.642 16.985 16.985 0 00-4.754-.661c-3.396 0-6.08.92-7.981 2.735-1.905 1.819-2.871 4.433-2.871 7.768s.931 5.954 2.765 7.788 4.438 2.765 7.738 2.765a18.63 18.63 0 004.998-.659 19.306 19.306 0 004.214-1.773v7.795a21.596 21.596 0 01-4.782 1.667 26.662 26.662 0 01-5.972.64zM110.496 121.009a7.687 7.687 0 01-6.184-2.492c-1.415-1.67-2.133-4.131-2.133-7.316V95.118h8.616v15.784a3.543 3.543 0 00.757 2.393 2.748 2.748 0 002.179.891 4.595 4.595 0 003.655-1.819l.079-.096V95.118h8.615v25.244h-7.319l-.518-3.455-.495.593a9.137 9.137 0 01-7.252 3.509zM161.274 120.362v-15.684c0-2.796-1.542-3.383-2.835-3.383a4.156 4.156 0 00-3.416 1.882l-.068.092v17.093h-8.616v-15.684c0-2.796-1.542-3.383-2.837-3.383a4.19 4.19 0 00-3.412 1.827l-.072.094v17.146h-8.615V95.118h7.319l.52 3.463.497-.602a8.848 8.848 0 017.049-3.508c3.31 0 5.572 1.226 6.912 3.748l.248.467.33-.412a9.245 9.245 0 017.446-3.803 7.492 7.492 0 016.056 2.491c1.4 1.67 2.109 4.166 2.109 7.418v15.982h-8.615zM185.47 121.009a24.472 24.472 0 01-5.154-.564 31.121 31.121 0 01-5.302-1.708v-34.77h8.615v13.635l.602-.653a7.646 7.646 0 012.572-1.86 8.136 8.136 0 013.246-.619 9.172 9.172 0 015.329 1.557 10.09 10.09 0 013.488 4.406 17.241 17.241 0 011.241 6.833 15.304 15.304 0 01-1.699 7.498 11.13 11.13 0 01-4.927 4.635 18.086 18.086 0 01-8.011 1.61zm1.792-19.714a4.455 4.455 0 00-3.552 1.666l-.081.098v10.686l.242.077a8.44 8.44 0 002.545.365 4.36 4.36 0 003.716-1.759 8.022 8.022 0 001.262-4.812 8.882 8.882 0 00-.998-4.638 3.465 3.465 0 00-3.134-1.683zM204.517 120.362V95.118h7.316l.704 4.855.499-.902c1.641-2.962 3.708-4.401 6.318-4.401a6.416 6.416 0 012.639.52v7.338a4.874 4.874 0 00-1.039-.377 7.886 7.886 0 00-1.849-.209 7.54 7.54 0 00-3.287.681 7.85 7.85 0 00-2.607 2.133l-.079.096v15.51h-8.615zM225.974 120.362V95.118h8.616v25.244h-8.616zm4.282-28.775a5.369 5.369 0 01-3.583-1.088 4.347 4.347 0 010-6.094 5.379 5.379 0 013.583-1.085 5.46 5.46 0 013.633 1.087 4.346 4.346 0 010 6.093 5.465 5.465 0 01-3.633 1.087zM246.631 121.009a9.174 9.174 0 01-4.222-.908 6.417 6.417 0 01-2.696-2.552 7.891 7.891 0 01-.95-3.96 6.626 6.626 0 012.937-5.839c1.992-1.378 4.889-2.078 8.615-2.078a19.593 19.593 0 012.689.195l.396.057v-.798a4.038 4.038 0 00-1.244-3.253 5.914 5.914 0 00-3.883-1.028 14.072 14.072 0 00-4.211.615 14.346 14.346 0 00-3.307 1.534V96.39a21.939 21.939 0 018.962-1.92c3.907 0 6.894.916 8.878 2.723 1.973 1.798 2.972 4.5 2.972 8.033v8.265c-.027.484.076.965.298 1.396.271.415.751.644 1.244.594.305.002.608-.047.897-.145v4.613a8.732 8.732 0 01-1.894.646c-.8.178-1.618.267-2.438.266-2.802 0-4.64-.807-5.467-2.401l-.204-.392-.332.29a10.985 10.985 0 01-3.234 1.978 10.477 10.477 0 01-3.806.673zm4.38-11.351a5.303 5.303 0 00-3.062.71 2.658 2.658 0 00-1.069 2.327c0 1.248.526 2.736 3.036 2.736a4.686 4.686 0 003.382-1.495l.102-.102v-3.914l-.279-.056a10.75 10.75 0 00-2.11-.206z"/></g></g></svg>
