<svg xmlns="http://www.w3.org/2000/svg" viewBox="0 0 332 166" width="332" height="166"><path fill="#542582" d="M0 0h332v166H0z"/><g fill="#FFF"><path d="M157.303 42.585c-.149-.026-.298-.05-.453-.074l-.183-.026a17.515 17.515 0 00-.78-.091 24.828 24.828 0 00-.534-.038 14.909 14.909 0 00-1.287-.025c-.252.005-.5.016-.744.033-.138.008-.274.019-.409.031-.2.018-.398.041-.592.064l-.164.023-.179.026-.224.035c-.097.015-.193.033-.288.05-.132.023-.263.05-.393.076-.754.159-1.494.379-2.213.658a13.106 13.106 0 00-2.841 1.533c-.105.076-.209.151-.309.229a11.876 11.876 0 00-2.345 2.409 13.07 13.07 0 00-.467.7 11.26 11.26 0 00-.908 1.839 11.475 11.475 0 00-.667 2.624c-.04.293-.07.592-.087.897-.014.233-.023.47-.023.71 0 .18.003.357.014.534.012.183.026.364.046.544l.015.125c.026.214.06.425.1.631l.049.243a11.064 11.064 0 001.125 3.006 11.704 11.704 0 00.641 1.04 10.7 10.7 0 00.834 1.067c.179.206.359.394.532.567l.094.091c.146.14.301.289.481.442.123.104.25.215.387.323.13.101.262.204.405.307a12.739 12.739 0 001.171.75 12.704 12.704 0 002.753 1.14 14.072 14.072 0 002.289.458 16.868 16.868 0 001.724.118c.09.001.183.004.274.004.705 0 1.358-.027 1.963-.078l.119-.011a18.662 18.662 0 002.264-.338 16.78 16.78 0 001.386-.357c.215-.065.424-.135.62-.203l.192-.067c.095-.034.225-.08.378-.139a20.493 20.493 0 001.762-.774c.072-.035.146-.07.221-.108V59.28l-.154.093-.296.179a19.104 19.104 0 01-1.783.971c-.535.252-1.043.464-1.539.641-.832.301-1.689.529-2.56.684-.09.016-.18.03-.267.044a14.136 14.136 0 01-1.434.142c-.164.005-.316.01-.458.01-.304 0-.62-.007-.939-.03a12.747 12.747 0 01-1.142-.134 10.63 10.63 0 01-1.859-.484c-.091-.034-.181-.07-.271-.105-.057-.023-.119-.048-.174-.072a9.78 9.78 0 01-.3-.132 9.41 9.41 0 01-.623-.322 8.758 8.758 0 01-.982-.658 8.634 8.634 0 01-.337-.278l-.142-.127-.071-.065-.042-.041-.053-.05a8.792 8.792 0 01-.532-.579c-.09-.109-.174-.22-.258-.33-.078-.105-.15-.213-.221-.319a6.058 6.058 0 01-.187-.304 6.742 6.742 0 01-.421-.839 6.762 6.762 0 01-.238-.644 7.87 7.87 0 01-.338-1.688 9.678 9.678 0 01-.033-1.09 7.65 7.65 0 01.215-1.602 7.25 7.25 0 01.297-.96c.04-.106.086-.213.132-.32a7.575 7.575 0 011.081-1.763 7.9 7.9 0 01.288-.33c.052-.055.102-.112.155-.165a8.816 8.816 0 013.468-2.139 9.133 9.133 0 011.39-.354c.166-.033.333-.056.498-.079s.331-.04.495-.053c.314-.027.623-.041.922-.041.102 0 .2-.001.3.001.224.007.442.014.654.026.147.011.292.02.434.034.273.025.534.059.783.095a14.601 14.601 0 011.481.308c.166.044.318.089.457.13a12.53 12.53 0 01.896.297c.213.075.419.158.623.24.273.109.534.228.785.342.209.093.406.191.593.282.154.075.296.15.432.22.234.123.434.233.597.32l.44.24v-4.23s-.264-.108-.721-.281c-.2-.076-.439-.166-.709-.262-.15-.053-.308-.11-.477-.168-.134-.045-.271-.093-.415-.139-.162-.052-.329-.108-.502-.16-.124-.037-.252-.076-.38-.113l-.116-.033c-.125-.035-.252-.072-.383-.106a18.59 18.59 0 00-.466-.12c-.102-.026-.203-.049-.305-.074a25.247 25.247 0 00-1.037-.211m-21.146-4.395h33.566v31.588h-33.566V38.19zM110.36 55.609v6.208h4.031l.211-.007c.136-.005.328-.012.56-.033a6.967 6.967 0 001.573-.309 3.53 3.53 0 001.376-.803c.136-.136.257-.286.36-.449.244-.389.387-.833.414-1.291.009-.124.008-.196.008-.196s.003-.056 0-.153a2.834 2.834 0 00-.083-.601 2.494 2.494 0 00-.988-1.437 3.762 3.762 0 00-.747-.421 5.757 5.757 0 00-1.212-.357 8.97 8.97 0 00-1.182-.135 7.322 7.322 0 00-.424-.014l-3.897-.002M110.36 46.172v5.884h1.952s.13 0 .301-.006c.135-.003.296-.012.439-.019a7.901 7.901 0 001.513-.243c.108-.03.217-.064.324-.101.439-.146.84-.386 1.178-.702.233-.23.417-.506.54-.81.114-.284.184-.584.207-.889.019-.203.018-.333.018-.333s.004-.097-.004-.251a2.741 2.741 0 00-.269-1.074 2.186 2.186 0 00-.413-.556 2.519 2.519 0 00-.772-.508 5.198 5.198 0 00-1.708-.375 9.427 9.427 0 00-.619-.018l-2.687.001z"/><path d="M106.285 42.618v22.751h8.565s4.176.115 6.481-2.191a5.688 5.688 0 00.151-8.043l-.011-.011a7.448 7.448 0 00-3.371-1.874 6.1 6.1 0 001.509-1.056 4.68 4.68 0 001.4-3.69 5.295 5.295 0 00-1.607-3.803s-1.759-2.082-5.733-2.082l-7.384-.001zm-8.804-4.428h33.564v31.588H97.481V38.19zM71.684 55.609v6.208h4.03l.213-.007c.136-.005.328-.012.56-.033a6.967 6.967 0 001.573-.309 3.53 3.53 0 001.376-.803c.136-.136.257-.286.36-.449.244-.389.386-.833.413-1.291.01-.124.01-.196.01-.196s.001-.056-.001-.153a2.833 2.833 0 00-.082-.601 2.494 2.494 0 00-.47-.949 3.077 3.077 0 00-.518-.488 3.841 3.841 0 00-.747-.421 5.816 5.816 0 00-1.212-.357 8.97 8.97 0 00-1.182-.135 7.387 7.387 0 00-.425-.014l-3.898-.002M71.684 46.172v5.884h1.952s.13 0 .301-.006c.135-.003.296-.012.439-.019a7.901 7.901 0 001.513-.243c.108-.03.217-.064.324-.101.439-.146.84-.386 1.178-.702.233-.23.417-.506.54-.81.113-.284.183-.584.207-.889.019-.203.018-.333.018-.333s.003-.097-.004-.251a2.777 2.777 0 00-.27-1.074 2.183 2.183 0 00-.412-.556 2.505 2.505 0 00-.773-.508 5.167 5.167 0 00-1.707-.375 9.427 9.427 0 00-.619-.018l-2.687.001z"/><path d="M67.61 42.618v22.751h8.563s4.176.115 6.482-2.191a5.687 5.687 0 00.152-8.041l-.013-.014a7.465 7.465 0 00-3.371-1.875 6.078 6.078 0 001.51-1.056 4.68 4.68 0 001.4-3.69 5.295 5.295 0 00-1.607-3.803s-1.76-2.082-5.733-2.082l-7.383.001zm-8.806-4.428h33.564v31.588H58.804V38.19zM177.901 65.367V42.626h7.347c2.905 0 5.121.583 6.648 1.75a5.975 5.975 0 012.29 5.055 6.118 6.118 0 01-1.241 3.881 7.044 7.044 0 01-3.531 2.322c2.12 3.16 4.166 6.404 6.139 9.732h-3.658a170.098 170.098 0 00-5.598-9.191c-.339.02-.7.031-1.081.031h-4.199v9.16l-3.116.001zm3.117-11.703h3.977a7.883 7.883 0 004.515-1.051 3.62 3.62 0 001.495-3.181c0-2.84-1.993-4.26-5.979-4.26h-4.008v8.492zM210.024 42.626a431.025 431.025 0 014.787 11.354 742.209 742.209 0 014.502 11.388h-3.371c-.382-1.039-.758-2.067-1.13-3.085a418.623 418.623 0 00-1.129-3.054h-10.687a336.4 336.4 0 00-2.258 6.139h-3.276a529.042 529.042 0 014.564-11.674c1.536-3.794 3.1-7.483 4.691-11.067h3.307zm-6.01 13.93h8.651a765.314 765.314 0 00-2.163-5.471 1814.59 1814.59 0 00-2.162-5.374 523.413 523.413 0 00-2.195 5.407 423.513 423.513 0 00-2.131 5.438M221.728 42.626h7.921a12.847 12.847 0 016.042 1.32 9.113 9.113 0 013.865 3.834 12.805 12.805 0 011.351 6.139 13.104 13.104 0 01-1.351 6.185 9.227 9.227 0 01-3.881 3.913 12.69 12.69 0 01-6.059 1.351h-7.888V42.626zm7.666 20.069a8.05 8.05 0 006.106-2.226c1.421-1.485 2.131-3.668 2.131-6.551 0-2.841-.705-4.988-2.114-6.442a8.1 8.1 0 00-6.091-2.18h-4.548v17.398h4.516zM244.533 42.626h3.149v22.741h-3.149zM262.281 42.149c1.539-.021 3.068.26 4.5.826a9.717 9.717 0 013.467 2.386 10.554 10.554 0 012.211 3.738c.528 1.573.785 3.223.762 4.882a14.43 14.43 0 01-.779 4.883 10.856 10.856 0 01-2.21 3.737 9.69 9.69 0 01-3.452 2.401 12.442 12.442 0 01-9 0 9.699 9.699 0 01-3.452-2.401 10.881 10.881 0 01-2.21-3.737 14.43 14.43 0 01-.778-4.883c-.023-1.659.235-3.31.763-4.882a10.537 10.537 0 012.21-3.738 9.708 9.708 0 013.467-2.386 11.807 11.807 0 014.501-.826m0 20.96a7.468 7.468 0 004.103-1.097 7.05 7.05 0 002.639-3.148 11.84 11.84 0 00.923-4.883 11.727 11.727 0 00-.923-4.867 7.074 7.074 0 00-2.639-3.132 8.192 8.192 0 00-8.191 0 7.031 7.031 0 00-2.656 3.132 11.727 11.727 0 00-.923 4.867 11.853 11.853 0 00.923 4.883 7.018 7.018 0 002.656 3.148 7.49 7.49 0 004.088 1.097"/><g><path d="M69.16 120.399a740.614 740.614 0 00-6.449-10.761c-2.241-3.668-4.44-7.229-6.599-10.683l-.642-1.027v22.471h-8.566V85.497h9.222a523.17 523.17 0 016.514 10.29 852.706 852.706 0 016.519 10.748l.646 1.083V85.497h8.566v34.902H69.16zM96.393 121.046a16.704 16.704 0 01-7.536-1.556 10.601 10.601 0 01-4.655-4.485 15.027 15.027 0 01-1.601-7.202c-.026-1.881.27-3.753.876-5.535a11.8 11.8 0 012.515-4.184 10.93 10.93 0 013.934-2.654 13.897 13.897 0 015.173-.923 12.01 12.01 0 016.171 1.495 9.46 9.46 0 013.818 4.351 17.227 17.227 0 011.313 7.1v1.842H90.662l.06.399a5.46 5.46 0 002.141 3.946 9.097 9.097 0 005.022 1.129c1.393.013 2.783-.14 4.14-.457a16.914 16.914 0 003.229-1.172v6.323c-1.29.495-2.621.876-3.977 1.141a25.235 25.235 0 01-4.884.442zM95 100.137c-2.347 0-3.769 1.557-4.227 4.628l-.06.399h8.05l-.033-.377a6.449 6.449 0 00-1.095-3.499A3.2 3.2 0 0095 100.137zM131.955 120.399a608.421 608.421 0 01-1.97-7.432c-.665-2.571-1.328-5.151-1.992-7.741l-.674.004a765.98 765.98 0 01-3.912 15.169h-8.483a755.408 755.408 0 01-3.511-12.661 450.9 450.9 0 01-3.182-12.583h8.666a338.35 338.35 0 001.255 8.545c.465 2.905.947 5.818 1.445 8.741l.68.022a451.413 451.413 0 001.893-8.294c.577-2.651 1.14-5.323 1.688-8.018h7.747a317.046 317.046 0 001.737 7.847c.63 2.69 1.278 5.38 1.942 8.069l.679-.023c.499-2.854.989-5.7 1.47-8.539a272.82 272.82 0 001.279-8.35h8.418c-.99 4.169-2.061 8.4-3.182 12.583a781.604 781.604 0 01-3.51 12.661h-8.483zM162.107 121.046a16.257 16.257 0 01-7.434-1.555 10.63 10.63 0 01-4.607-4.511 15.18 15.18 0 01-1.602-7.228 14.83 14.83 0 01.971-5.474 11.582 11.582 0 012.803-4.181 12.507 12.507 0 014.385-2.663 16.998 16.998 0 015.782-.927 16.361 16.361 0 013.509.366c.997.217 1.972.521 2.915.91v6.906a9.499 9.499 0 00-2.17-.947 10.62 10.62 0 00-2.96-.411 6.571 6.571 0 00-4.799 1.693 6.363 6.363 0 00-1.722 4.728 6.504 6.504 0 001.693 4.749 6.296 6.296 0 004.678 1.722 12.515 12.515 0 003.124-.385 10.33 10.33 0 002.503-1.04v6.788a13.342 13.342 0 01-3.159 1.068 18.869 18.869 0 01-3.91.392zM180.329 121.046a9.191 9.191 0 01-4.223-.908 6.41 6.41 0 01-2.695-2.552 7.88 7.88 0 01-.95-3.96 6.624 6.624 0 012.938-5.839c1.99-1.378 4.889-2.078 8.614-2.078a19.569 19.569 0 012.69.195l.396.057v-.798a4.039 4.039 0 00-1.244-3.253 5.914 5.914 0 00-3.883-1.028 14.11 14.11 0 00-4.212.615 14.305 14.305 0 00-3.307 1.534v-6.604a21.939 21.939 0 018.962-1.92c3.906 0 6.893.916 8.876 2.723 1.973 1.798 2.974 4.5 2.974 8.033v8.265c-.026.483.076.965.297 1.396.272.415.752.644 1.245.594.305.002.608-.047.897-.145v4.613a8.669 8.669 0 01-1.895.646c-.8.178-1.618.267-2.438.266-2.8 0-4.64-.809-5.467-2.401l-.203-.392-.333.29a10.98 10.98 0 01-3.233 1.978 10.473 10.473 0 01-3.806.673zm4.38-11.351a5.286 5.286 0 00-3.062.711 2.653 2.653 0 00-1.069 2.325c0 1.248.527 2.736 3.036 2.736a4.692 4.692 0 003.382-1.495l.102-.102v-3.914l-.279-.056a10.99 10.99 0 00-2.11-.205zM209.353 121.046a22.872 22.872 0 01-8.614-1.628v-6.244a17.877 17.877 0 003.54 1.434 14.9 14.9 0 004.078.612 7.114 7.114 0 003.014-.484 1.771 1.771 0 001.116-1.655 1.61 1.61 0 00-1.025-1.537 11.846 11.846 0 00-2.181-.693 23.717 23.717 0 01-5.27-1.812 6.499 6.499 0 01-2.77-2.502 7.612 7.612 0 01-.851-3.762 7.311 7.311 0 011.327-4.4 8.583 8.583 0 013.808-2.846 16.005 16.005 0 016.017-1.02 21.966 21.966 0 014.509.465 17.61 17.61 0 013.807 1.249v6.137a11.99 11.99 0 00-3.139-1.414 14.447 14.447 0 00-4.03-.61 6.914 6.914 0 00-2.859.479 1.736 1.736 0 00-1.173 1.61 1.57 1.57 0 00.357 1.047c.301.313.681.538 1.1.651.454.151 1.085.327 1.893.531a20.5 20.5 0 015.173 1.737 6.824 6.824 0 012.799 2.531 7.34 7.34 0 01.874 3.709 7.693 7.693 0 01-1.353 4.602 8.249 8.249 0 01-3.898 2.839 17.798 17.798 0 01-6.249.974zM236.435 121.046c-3.012 0-5.316-.762-6.852-2.266-1.532-1.5-2.31-3.737-2.31-6.647v-10.104h-3.933v-6.475h3.934v-6.141l8.615-1.89v8.031h5.974v6.475h-5.974v8.86c0 2.246 1.205 3.434 3.484 3.434a8.396 8.396 0 002.988-.575v6.259c-.889.322-1.801.572-2.73.747a17.05 17.05 0 01-3.196.292zM253.616 120.847c-2.477 0-4.333-.657-5.519-1.954-1.195-1.304-1.801-3.326-1.801-6.012V84.004h8.615v27.881a2.67 2.67 0 00.537 1.825 2.184 2.184 0 001.702.613 4.945 4.945 0 001.644-.278v6.06a15.866 15.866 0 01-5.178.742zM275.113 121.046a16.704 16.704 0 01-7.536-1.556 10.601 10.601 0 01-4.655-4.485 15.027 15.027 0 01-1.601-7.202c-.026-1.881.27-3.753.876-5.535a11.813 11.813 0 012.514-4.184 10.93 10.93 0 013.934-2.654 13.897 13.897 0 015.173-.923 12.01 12.01 0 016.171 1.495 9.46 9.46 0 013.818 4.351 17.227 17.227 0 011.313 7.1v1.842h-15.739l.06.399a5.46 5.46 0 002.141 3.946 9.097 9.097 0 005.022 1.129c1.393.013 2.783-.14 4.14-.457a16.914 16.914 0 003.229-1.172v6.323c-1.29.495-2.621.876-3.977 1.141a25.218 25.218 0 01-4.883.442zm-1.394-20.91c-2.347 0-3.769 1.557-4.227 4.628l-.06.399h8.05l-.033-.377a6.449 6.449 0 00-1.095-3.499 3.208 3.208 0 00-2.635-1.151z"/></g></g></svg>
